<svg enable-background="new 0 0 512 512" height="512" viewBox="0 0 512 512" width="512" xmlns="http://www.w3.org/2000/svg"><g id="Layer_9"><g><g><g><path d="m169.4 238.8h170.2v-82.7s14.6-44-54-44-75.1 0-75.1 0-41.1-.7-41.1 38.3 0 88.4 0 88.4z"/></g></g><g><g><path d="m168.5 306.1c-3.8 0-7.5-1.1-10.5-3.2-3.6-2.5-5.8-6.2-6-10.2l-2-32.1c-.5-7.9 6.7-14.9 16-15.4h.5l6.1.3-.5 10-5.8-.3c-3.8.3-6.5 2.8-6.4 4.8l2 32.1c.1 1.3 1.1 2.2 1.8 2.6 1.4 1 3.4 1.5 5.4 1.4h.7l.6 10h-.7c-.4 0-.8 0-1.2 0z"/></g></g><g><g><path d="m342.6 311.1-51.4-.1v22.2h-16.5-52l-2.4-22.8h-50.3v35.3s-4.9 51.8 40 51.8 70.7 0 70.7 0l35.9 2.4s25.1-16.5 26.1-37.9c.3-8.6-.1-50.9-.1-50.9z"/></g></g><g><g><path d="m303.6 404.8h-95.2c-24.3 0-44-25-44-55.7v-44.3h10v44.3c0 25.2 15.2 45.7 34 45.7h95.2c18.7 0 34-20.5 34-45.7v-44.3h10v44.3c0 30.7-19.7 55.7-44 55.7z"/></g></g><g><g><path d="m291.2 338.2h-70.4c-2.8 0-5-2.2-5-5v-17.1h-46.4c-2.8 0-5-2.2-5-5v-162.5c0-22.8 19.7-41.4 44-41.4h95.2c24.3 0 44 18.6 44 41.4v162.5c0 2.8-2.2 5-5 5h-46.4v17.1c0 2.7-2.2 5-5 5zm-65.4-10h60.4v-17.1c0-2.8 2.2-5 5-5h46.4v-157.5c0-17.3-15.2-31.4-34-31.4h-95.2c-18.7 0-34 14.1-34 31.4v157.5h46.4c2.8 0 5 2.2 5 5z"/></g></g><g><g><path d="m274.3 318.8h-36.6c-2.8 0-5-2.2-5-5s2.2-5 5-5h36.6c2.8 0 5 2.2 5 5s-2.2 5-5 5z"/></g></g><g><g><path d="m188.1 350.5h-18.3c-2.8 0-5-2.2-5-5s2.2-5 5-5h18.3c2.8 0 5 2.2 5 5s-2.2 5-5 5z"/></g></g><g><g><path d="m219.1 368h-44.6c-2.8 0-5-2.2-5-5s2.2-5 5-5h44.6c2.8 0 5 2.2 5 5s-2.3 5-5 5z"/></g></g><g><g><path d="m169.4 233.8h173.2v10h-173.2z"/></g></g><g><g><path d="m288.1 279.1c-6.1 0-10.1-2.2-17-9.3-1.9-2-1.9-5.1.1-7.1 2-1.9 5.1-1.9 7.1.1 6.1 6.2 7.6 6.2 9.8 6.2s4.6-1.1 9.9-6.3c2-2 5.1-2 7.1 0s2 5.1 0 7.1c-5.7 5.8-10.6 9.3-17 9.3z"/></g></g><g><g><path d="m223.9 279.1c-6.1 0-10.1-2.2-17-9.3-1.9-2-1.9-5.1.1-7.1 2-1.9 5.1-1.9 7.1.1 6.1 6.2 7.6 6.2 9.8 6.2s4.6-1.1 9.9-6.3c2-2 5.1-2 7.1 0s2 5.1 0 7.1c-5.8 5.8-10.6 9.3-17 9.3z"/></g></g><g><g><path d="m343.5 306.1c-.4 0-.8 0-1.2 0h-.7l.6-10h.7c4 .2 7-1.9 7.2-4l2-32.1c.1-2-2.6-4.5-6.4-4.8l-5.8.3-.5-10 6.1-.3h.5c9.3.6 16.5 7.5 16 15.4l-2 32.1c-.5 7.6-7.8 13.4-16.5 13.4z"/></g></g><g><g><circle cx="300.3" cy="294.4" r="4.8"/></g></g><g><g><path d="m323 191.2c-2.8 0-5-2.2-5-5v-27.3c0-12.8-10.4-16.6-10.9-16.8-2.6-.9-4-3.7-3.1-6.3s3.7-4 6.3-3.1c6.1 2 17.7 10.1 17.7 26.2v27.3c0 2.8-2.3 5-5 5z" fill="#fff"/></g></g><g><g><path d="m323 211c-2.8 0-5-2.2-5-5v-6.5c0-2.8 2.2-5 5-5s5 2.2 5 5v6.5c0 2.8-2.3 5-5 5z" fill="#fff"/></g></g></g></g></svg>