<svg enable-background="new 0 0 512 512" height="512" viewBox="0 0 512 512" width="512" xmlns="http://www.w3.org/2000/svg"><g id="Layer_9"><g><g><g><path d="m360.8 293.9c-2.8 0-5-2.2-5-5s2.2-5 5-5c10.7 0 19.4-7.9 19.4-17.6s-8.7-17.6-19.4-17.6c-2.8 0-5-2.2-5-5s2.2-5 5-5c16.2 0 29.4 12.4 29.4 27.6s-13.2 27.6-29.4 27.6z"/></g></g><g><g><path d="m151.2 293.9c-16.2 0-29.4-12.4-29.4-27.6s13.2-27.6 29.4-27.6c2.8 0 5 2.2 5 5s-2.2 5-5 5c-10.7 0-19.4 7.9-19.4 17.6s8.7 17.6 19.4 17.6c2.8 0 5 2.2 5 5s-2.2 5-5 5z"/></g></g><g><g><path d="m268.8 354.7h-25.5c-2.8 0-5-2.2-5-5s2.2-5 5-5h25.5c2.8 0 5 2.2 5 5s-2.3 5-5 5z"/></g></g><g><g><circle cx="284.1" cy="325.7" r="5.5"/></g></g><g><g><circle cx="296.6" cy="291.1" r="5.5"/></g></g><g><g><circle cx="215.4" cy="291.1" r="5.5"/></g></g><g><g><path d="m310.2 277h-26.1c-2.8 0-5-2.2-5-5s2.2-5 5-5h26.1c2.8 0 5 2.2 5 5s-2.2 5-5 5z"/></g></g><g><g><path d="m227.9 277h-26.1c-2.8 0-5-2.2-5-5s2.2-5 5-5h26.1c2.8 0 5 2.2 5 5s-2.2 5-5 5z"/></g></g><g><g><path d="m256 400.1c-58.1 0-105.4-47.3-105.4-105.4v-77.4c0-58.1 47.3-105.4 105.4-105.4s105.4 47.3 105.4 105.4v77.4c0 58.1-47.3 105.4-105.4 105.4zm0-278.2c-52.6 0-95.4 42.8-95.4 95.4v77.4c0 52.6 42.8 95.4 95.4 95.4s95.4-42.8 95.4-95.4v-77.4c0-52.6-42.8-95.4-95.4-95.4z"/></g></g><g><g><path d="m328.2 218.7c-2.8 0-5-2.2-5-5 0-37.7-30.7-68.3-68.3-68.3-2.8 0-5-2.2-5-5s2.2-5 5-5c43.2 0 78.3 35.1 78.3 78.3 0 2.8-2.2 5-5 5z"/></g></g></g></g></svg>