<svg enable-background="new 0 0 512 512" height="512" viewBox="0 0 512 512" width="512" xmlns="http://www.w3.org/2000/svg"><g id="Layer_9"><g><g><g><path d="m147.1 245.8-8.9-14.5s-10.5-47.5 29.3-87.6 97.3-52.9 147.4-23.4 82.1 103.2 44.2 131.8c0-12.5 6.4-48.5-33.4-51.4s-109.4 0-109.4 0h-35.7s-26.4 3.8-26.4 34.7-7.1 10.4-7.1 10.4z"/></g></g><g><g><path d="m366.5 254.1c-.7 0-1.3-.1-1.9-.4-2.5-1.1-3.7-4-2.7-6.6 9.4-22.2 9.2-47.2-.4-68.8-18.6-41.6-60-68.4-105.5-68.4s-86.9 26.9-105.5 68.4c-9.6 21.5-9.8 46.6-.4 68.8 1.1 2.5-.1 5.5-2.7 6.6-2.5 1.1-5.5-.1-6.6-2.7-10.5-24.7-10.3-52.7.5-76.7 20.2-45.1 65.2-74.3 114.7-74.3s94.5 29.2 114.6 74.4c10.8 24.1 10.9 52 .5 76.7-.8 1.9-2.6 3-4.6 3z"/></g></g><g><g><path d="m260 411.9h-8c-57.4 0-104.2-46.7-104.2-104.2v-67.3c0-24.7 20.1-44.7 44.7-44.7h127.6c24.2 0 43.9 19.7 43.9 43.9v68.2c.1 57.4-46.6 104.1-104 104.1zm-67.4-206.2c-19.2 0-34.7 15.6-34.7 34.7v67.3c0 51.9 42.2 94.2 94.2 94.2h7.9c51.9 0 94.2-42.2 94.2-94.2v-68.2c0-18.7-15.2-33.9-33.9-33.9h-127.7z"/></g></g><g><g><circle cx="216.3" cy="327.3" r="4.4"/></g></g><g><g><circle cx="314.7" cy="293.4" r="6.2"/></g></g><g><g><circle cx="197.3" cy="293.4" r="6.2"/></g></g><g><g><path d="m202.3 279.2h-11.7c-2.8 0-5-2.2-5-5s2.2-5 5-5h11.7c2.8 0 5 2.2 5 5s-2.2 5-5 5z"/></g></g><g><g><path d="m320.8 279.2h-11.7c-2.8 0-5-2.2-5-5s2.2-5 5-5h11.7c2.8 0 5 2.2 5 5s-2.3 5-5 5z"/></g></g><g><g><path d="m151.2 309.8c-16.2 0-29.4-13.2-29.4-29.4s13.2-29.4 29.4-29.4c2.8 0 5 2.2 5 5s-2.2 5-5 5c-10.7 0-19.4 8.7-19.4 19.4s8.7 19.4 19.4 19.4c2.8 0 5 2.2 5 5s-2.2 5-5 5z"/></g></g><g><g><path d="m360.8 309.8c-2.8 0-5-2.2-5-5s2.2-5 5-5c10.7 0 19.4-8.7 19.4-19.4s-8.7-19.4-19.4-19.4c-2.8 0-5-2.2-5-5s2.2-5 5-5c16.2 0 29.4 13.2 29.4 29.4s-13.2 29.4-29.4 29.4z"/></g></g><g><g><path d="m256 369.7c-16.2 0-29.4-13.2-29.4-29.4 0-2.8 2.2-5 5-5s5 2.2 5 5c0 10.7 8.7 19.4 19.4 19.4s19.4-8.7 19.4-19.4c0-2.8 2.2-5 5-5s5 2.2 5 5c0 16.2-13.2 29.4-29.4 29.4z"/></g></g><g><g><path d="m260 238.5c-1 0-2-.3-2.8-.9-14.8-10.1-24.8-25.4-28.1-43s.4-35.5 10.5-50.3 25.4-24.8 43-28.1 35.5.4 50.3 10.5c2.3 1.6 2.9 4.7 1.3 6.9-1.6 2.3-4.7 2.9-6.9 1.3-12.6-8.6-27.8-11.8-42.8-9s-28 11.3-36.6 23.9-11.8 27.8-9 42.8 11.3 28 23.9 36.6c2.3 1.6 2.9 4.7 1.3 6.9-.9 1.6-2.5 2.4-4.1 2.4z"/></g></g><g><g><path d="m299.5 218.3c-.5 0-1.1-.1-1.6-.3-25.6-8.6-39.4-36.4-30.8-62 4.1-12.3 13.4-22.2 26.1-27.9 12.2-5.4 26.2-6.2 38.5-2 2.6.9 4 3.7 3.1 6.3s-3.7 4-6.3 3.1c-21-7.1-45.3 4-51.9 23.6-6.8 20.4 4.1 42.5 24.5 49.4 2.6.9 4 3.7 3.1 6.3-.6 2.2-2.6 3.5-4.7 3.5z"/></g></g><g><g><path d="m332.1 172.6c-1.6 0-3.2-.8-4.2-2.3-5.7-8.7-15-14.6-15.1-14.7-2.3-1.5-3.1-4.5-1.6-6.9 1.5-2.3 4.5-3.1 6.9-1.6.5.3 11.3 7.1 18.3 17.8 1.5 2.3.8 5.4-1.5 6.9-.9.5-1.8.8-2.8.8z" fill="#fff"/></g></g><g><g><path d="m343.3 190.9c-1.7 0-3.3-.8-4.2-2.4l-4.1-6.6c-1.5-2.3-.7-5.4 1.6-6.9s5.4-.7 6.9 1.6l4.1 6.6c1.5 2.3.7 5.4-1.6 6.9-.8.6-1.8.8-2.7.8z" fill="#fff"/></g></g></g></g></svg>