<svg enable-background="new 0 0 512 512" height="512" viewBox="0 0 512 512" width="512" xmlns="http://www.w3.org/2000/svg"><g id="Layer_9"><g><g><g><path d="m264.9 411.4c-58.1 0-105.4-47.3-105.4-105.4v-77.4c0-22.2 6.8-43.5 19.8-61.5l8.1 5.8c-11.7 16.3-17.9 35.5-17.9 55.7v77.4c0 52.6 42.8 95.4 95.4 95.4s95.4-42.8 95.4-95.4v-77.4c0-45.7-32.5-85.1-77.3-93.7l1.9-9.8c49.5 9.5 85.4 53 85.4 103.5v77.4c0 58.2-47.3 105.4-105.4 105.4z"/></g></g><g><g><path d="m119.9 108.9s30.1 53.8 82.7 68.5 77.8-.1 81.4-31.1-13.6-41.7-52.3-37.1-92.3 12-111.8-.3z"/></g></g><g><g><path d="m369.7 305.2c-2.8 0-5-2.2-5-5s2.2-5 5-5c10.7 0 19.4-7.9 19.4-17.6s-8.7-17.6-19.4-17.6c-2.8 0-5-2.2-5-5s2.2-5 5-5c16.2 0 29.4 12.4 29.4 27.6s-13.2 27.6-29.4 27.6z"/></g></g><g><g><path d="m160.1 305.2c-16.2 0-29.4-12.4-29.4-27.6s13.2-27.6 29.4-27.6c2.8 0 5 2.2 5 5s-2.2 5-5 5c-10.7 0-19.4 7.9-19.4 17.6s8.7 17.6 19.4 17.6c2.8 0 5 2.2 5 5s-2.2 5-5 5z"/></g></g><g><g><path d="m277.6 366.1h-25.5c-2.8 0-5-2.2-5-5s2.2-5 5-5h25.5c2.8 0 5 2.2 5 5s-2.2 5-5 5z"/></g></g><g><g><circle cx="296.5" cy="346.4" r="5.5"/></g></g><g><g><circle cx="305.4" cy="302.4" r="5.5"/></g></g><g><g><circle cx="224.3" cy="302.4" r="5.5"/></g></g><g><g><path d="m319.1 288.4h-26.1c-2.8 0-5-2.2-5-5s2.2-5 5-5h26.1c2.8 0 5 2.2 5 5s-2.3 5-5 5z"/></g></g><g><g><path d="m236.8 288.4h-26.1c-2.8 0-5-2.2-5-5s2.2-5 5-5h26.1c2.8 0 5 2.2 5 5s-2.2 5-5 5z"/></g></g><g><g><path d="m216.8 288.4h-6.1c-2.8 0-5-2.2-5-5s2.2-5 5-5h6.1c2.8 0 5 2.2 5 5s-2.2 5-5 5z"/></g></g><g><g><path d="m264.9 409.7h-.1c-2.8-.1-4.9-2.4-4.9-5.1l.3-12.1c.1-2.8 2.3-5 5.1-4.9s4.9 2.4 4.9 5.1l-.3 12.1c-.1 2.7-2.3 4.9-5 4.9z"/></g></g><g><g><path d="m235.3 188.1c-18.5 0-39.5-6-59.2-17.1-18.2-10.2-43.8-29.4-62.5-63-1.1-1.9-.8-4.3.7-5.8 1.5-1.6 3.8-2 5.8-1.1.4.2 31.6 14.3 79.6 6.8 33.7-5.2 66.9-7.8 81.7 8.4 7.7 8.4 9.5 21.1 5.3 37.6-4.7 18.8-19.4 30.7-41.2 33.6-3.3.4-6.7.6-10.2.6zm-105.7-73.3c25.6 36.8 72.1 68.3 114.6 62.7 17.5-2.3 29.2-11.6 32.8-26.1 3.3-13.2 2.3-22.5-3-28.4-11.7-12.9-45-9.6-72.8-5.3-32.3 5.1-57.2 1-71.6-2.9z"/></g></g></g></g></svg>