<svg enable-background="new 0 0 512 512" height="512" viewBox="0 0 512 512" width="512" xmlns="http://www.w3.org/2000/svg"><g id="Layer_9"><g><g><g><path d="m160.7 343.7 6.7-5.1 25.9 26.1s35.6-44 98.6-20.5c24.8 12.6 29.9 23.9 29.9 23.9l26.7-32.6s-2.8 82.9-82.9 90.1-104.9-81.9-104.9-81.9z"/></g></g><g><g><path d="m144.7 196.2h220.4s13.8-3.5 13.8 14.2 4.9 36.9-39.5 38.5c-44.4 1.7-170 0-170 0s-31.5 1.2-35.4-17.1 0-31.6 0-31.6-1.6-5.6 10.7-4z"/></g></g><g><g><path d="m165.3 197.4v-62.8s13.2-34.6 34.2-28.2 29.1 20.7 60.9 18.4 52-21.5 52-21.5 33.9 5.6 33.9 42.1 0 50.2 0 50.2z"/></g></g><g><g><path d="m256 430.6c-32.7 0-63.1-15.5-81.1-41.5-12-17.2-18.4-38.1-19.1-62.2-.1-2.1-.1-4.2-.1-6.3v-71.6c0-2.8 2.2-5 5-5h190.5c2.8 0 5 2.2 5 5v71.7c0 2 0 4.1-.1 6.3-.7 24.1-7.1 45-19.1 62.2-17.9 25.9-48.2 41.4-81 41.4zm-90.3-176.6v66.7c0 2 0 4 .1 6 .7 22.1 6.5 41.2 17.3 56.8 16.2 23.3 43.4 37.2 72.9 37.2s56.7-13.9 72.9-37.2c10.8-15.6 16.6-34.7 17.3-56.8.1-2.1.1-4.1.1-6v-66.7z"/></g></g><g><g><path d="m321.4 375.4-3.5-4.3c-3.5-4.3-7.5-8.2-12.4-11.9-29.2-22.2-69.9-22.2-99.1 0-3.6 2.8-10.3 9.7-12.6 12.1l-3.6 3.8-3.6-3.5c-13.3-12.6-30.9-32.7-30.9-62.7 0-2.8 2.2-5 5-5s5 2.2 5 5c0 23.6 12.9 40.6 24.2 52 3-3 7.3-7.3 10.4-9.7 32.8-24.9 78.5-24.9 111.2 0 4 3 7.5 6.2 10.6 9.5 11.2-11.4 24-28.3 24-51.8 0-2.8 2.2-5 5-5s5 2.2 5 5c0 30-17.6 50.2-30.9 62.7z"/></g></g><g><g><path d="m268.5 370.7h-24.9c-2.8 0-5-2.2-5-5s2.2-5 5-5h24.9c2.8 0 5 2.2 5 5s-2.3 5-5 5z" fill="#fff"/></g></g><g><g><circle cx="289.6" cy="323.5" r="5.4"/></g></g><g><g><path d="m357.3 251.6h-202.6c-14.4 0-26.1-11.7-26.1-26.1v-21.9c0-5.9 4.8-10.7 10.7-10.7h233.5c5.9 0 10.7 4.8 10.7 10.7v21.9c-.1 14.3-11.8 26.1-26.2 26.1zm-218-49.7c-.9 0-1.7.8-1.7 1.7v21.9c0 9.4 7.7 17.1 17.1 17.1h202.7c9.4 0 17.1-7.7 17.1-17.1v-21.9c0-.9-.8-1.7-1.7-1.7z"/></g></g><g><g><path d="m325.3 295h-50.9c-2.8 0-5-2.2-5-5s2.2-5 5-5h50.9c2.8 0 5 2.2 5 5s-2.3 5-5 5z"/></g></g><g><g><path d="m312.5 293.4h-25.3c0 7 5.7 12.7 12.7 12.7 6.9 0 12.6-5.7 12.6-12.7z"/></g></g><g><g><path d="m237.7 295h-50.9c-2.8 0-5-2.2-5-5s2.2-5 5-5h50.9c2.8 0 5 2.2 5 5s-2.3 5-5 5z"/></g></g><g><g><path d="m224.9 293.4h-25.3c0 7 5.7 12.7 12.7 12.7 6.9 0 12.6-5.7 12.6-12.7z"/></g></g><g><g><path d="m197.5 110.3c17.6 10.9 37.7 16.6 58.5 16.6 20.7 0 40.9-5.7 58.5-16.6 15 1.5 26.8 15.3 26.8 32.1v49.6h-170.6v-49.6c0-16.8 11.8-30.6 26.8-32.1m114.3-10.1c-16.9 11.2-36.3 16.8-55.8 16.8-19.4 0-38.9-5.6-55.8-16.8-21.8 0-39.5 18.9-39.5 42.2v56.8c0 1.5 1.2 2.8 2.6 2.8h185.3c1.4 0 2.6-1.2 2.6-2.8v-56.8c.1-23.3-17.6-42.2-39.4-42.2z"/></g></g><g><g><path d="m355.7 301.3c-2.8 0-5-2.2-5-5s2.2-5 5-5c10.1 0 18.2-8 18.2-17.9s-8.2-17.9-18.2-17.9c-2.8 0-5-2.2-5-5s2.2-5 5-5c15.6 0 28.2 12.5 28.2 27.9s-12.6 27.9-28.2 27.9z"/></g></g><g><g><path d="m156.3 301.3c-15.6 0-28.2-12.5-28.2-27.9s12.7-27.9 28.2-27.9c2.8 0 5 2.2 5 5s-2.2 5-5 5c-10.1 0-18.2 8-18.2 17.9s8.2 17.9 18.2 17.9c2.8 0 5 2.2 5 5s-2.2 5-5 5z"/></g></g><g><g><path d="m315.2 182.7c-2.8 0-5-2.2-5-5v-37.4c0-2.8 2.2-5 5-5s5 2.2 5 5v37.4c0 2.8-2.2 5-5 5z" fill="#fff"/></g></g><g><g><path d="m330.1 230.4c-2.8 0-5-2.2-5-5v-13.1c0-2.8 2.2-5 5-5s5 2.2 5 5v13.1c0 2.7-2.2 5-5 5z" fill="#fff"/></g></g></g></g></svg>