<svg id="Capa_1" enable-background="new 0 0 512 512" height="512" viewBox="0 0 512 512" width="512" xmlns="http://www.w3.org/2000/svg"><g id="Layer_9"><g><g><g><circle cx="215.3" cy="317.2" r="5.5"/></g></g><g><g><path d="m227.8 303.2h-26.1c-2.8 0-5-2.2-5-5s2.2-5 5-5h26.1c2.8 0 5 2.2 5 5s-2.2 5-5 5z"/></g></g><g><g><g><circle cx="299.8" cy="317.2" r="5.5"/></g></g><g><g><path d="m312.3 303.2h-26.1c-2.8 0-5-2.2-5-5s2.2-5 5-5h26.1c2.8 0 5 2.2 5 5s-2.2 5-5 5z"/></g></g></g><g><g><path d="m290.9 362 14.9 1.9s30.6-36.6 42.9-91.7 17.5-125.8-36-160.4-101.1-24.1-113.5 4.2-4 72.7 28.8 106.6 45.6 25.5 53.5 63.7 9.4 75.7 9.4 75.7z"/></g></g><g><g><path d="m256 426.2c-58.1 0-105.4-47.3-105.4-105.4v-77.4c0-33 15.1-63.5 41.3-83.7l6.1 7.9c-23.8 18.2-37.4 45.8-37.4 75.7v77.4c0 52.6 42.8 95.4 95.4 95.4s95.4-42.8 95.4-95.4v-110.2h10v110.4c0 58-47.3 105.3-105.4 105.3z"/></g></g><g><g><path d="m360.8 320c-2.8 0-5-2.2-5-5s2.2-5 5-5c10.7 0 19.4-7.9 19.4-17.6s-8.7-17.6-19.4-17.6c-2.8 0-5-2.2-5-5s2.2-5 5-5c16.2 0 29.4 12.4 29.4 27.6s-13.2 27.6-29.4 27.6z"/></g></g><g><g><path d="m151.2 320c-16.2 0-29.4-12.4-29.4-27.6s13.2-27.6 29.4-27.6c2.8 0 5 2.2 5 5s-2.2 5-5 5c-10.7 0-19.4 7.9-19.4 17.6s8.7 17.6 19.4 17.6c2.8 0 5 2.2 5 5s-2.2 5-5 5z"/></g></g><g><g><path d="m268.8 380.9h-25.5c-2.8 0-5-2.2-5-5s2.2-5 5-5h25.5c2.8 0 5 2.2 5 5s-2.3 5-5 5z"/></g></g><g><g><path d="m297.9 376.1c-1.1 0-2.2-.2-3.3-.5-4.2-1.4-6.9-5.1-7-9.5-1.5-93.8-22-107.7-38.5-118.8-26.8-18.1-46.6-44.5-55.9-74.3-7.5-24-7.1-43.7 1.1-58.5 7.1-12.7 19.6-21.4 37.3-25.9 23.7-6.1 49.8-2.1 71.6 10.9 26.6 15.8 58.2 47.9 58.2 110.9 0 80.6-38.8 140-55.5 161.7-2 2.6-4.9 4-8 4zm-43.9-280.3c-6.7 0-13.4.8-19.9 2.5-14.9 3.8-25.4 10.9-31.1 21.1-6.8 12.3-7 29.3-.3 50.6 8.6 27.7 27.1 52.2 52 69 22.6 15.3 41.4 35.4 42.9 127v.1c0 .1.2.1.3.1 0 0 0 0 .1-.1 16.1-21 53.4-78.1 53.4-155.7 0-58.3-29-87.8-53.3-102.3-13.5-8.1-28.9-12.3-44.1-12.3z"/></g></g><g><g><path d="m297.4 372.2c-1.1 0-2.1-.3-3-1-2.2-1.7-2.6-4.8-.9-7 8.2-10.7 33-43.1 33-99.5 0-2.8 2.2-5 5-5s5 2.2 5 5c0 40.3-11.5 74.8-35 105.6-1.1 1.2-2.6 1.9-4.1 1.9z"/></g></g><g><g><path d="m196.1 237.3c-1.3 0-2.6-.5-3.5-1.5-14.8-14.8-21.7-35.2-19-56 .4-2.7 2.9-4.7 5.6-4.3s4.7 2.9 4.3 5.6c-2.3 17.7 3.5 35 16.1 47.6 2 2 2 5.1 0 7.1-1 1-2.3 1.5-3.5 1.5z"/></g></g><g><g><path d="m184.4 255c-1.3 0-2.6-.5-3.5-1.5-14.8-14.8-21.7-35.2-19-56 .4-2.7 2.9-4.7 5.6-4.3s4.7 2.9 4.3 5.6c-2.3 17.7 3.5 35 16.1 47.6 2 2 2 5.1 0 7.1-1 1-2.3 1.5-3.5 1.5z"/></g></g><g><g><path d="m177.1 279c-1.3 0-2.6-.5-3.5-1.5-14.8-14.8-21.7-35.2-19-56 .4-2.7 2.9-4.7 5.6-4.3s4.7 2.9 4.3 5.6c-2.3 17.7 3.5 35 16.1 47.6 2 2 2 5.1 0 7.1-1 1-2.3 1.5-3.5 1.5z"/></g></g><g><g><path d="m331.4 254.4c-2.8 0-5-2.2-5-5v-7.1c0-2.8 2.2-5 5-5s5 2.2 5 5v7.1c0 2.8-2.3 5-5 5z"/></g></g><g><g><path d="m305.5 136.5c-1.4 0-2.8-.6-3.8-1.8-15.1-17.8-39.5-22.1-39.7-22.1-2.7-.5-4.6-3-4.1-5.8.5-2.7 3-4.6 5.8-4.1 1.1.2 28.2 5 45.7 25.5 1.8 2.1 1.5 5.3-.6 7-1 .9-2.1 1.3-3.3 1.3z" fill="#fff"/></g></g><g><g><path d="m316.1 148.9c-1.4 0-2.9-.6-3.8-1.8l-1.4-1.7c-1.8-2.1-1.5-5.3.6-7 2.1-1.8 5.3-1.5 7 .6l1.4 1.7c1.8 2.1 1.5 5.3-.6 7-.9.8-2 1.2-3.2 1.2z" fill="#fff"/></g></g></g></g></svg>