<svg enable-background="new 0 0 512 512" height="512" viewBox="0 0 512 512" width="512" xmlns="http://www.w3.org/2000/svg"><g id="Layer_9"><g><g><g><path d="m95 251.8s-9.2-5-6.7-8.4c2.5-3.3 163.8-132.8 163.8-132.8h7.3l159.3 129.5s10.3 12.8-5.9 12.8-317.8-1.1-317.8-1.1z"/></g></g><g><g><path d="m256 427.7c-32.3 0-62.3-15.3-80-40.9-11.8-17-18.1-37.6-18.8-61.4-.1-2-.1-4.1-.1-6.2v-70.7c0-2.8 2.2-5 5-5h187.9c2.8 0 5 2.2 5 5v70.7c0 2 0 4-.1 6.2-.7 23.8-7 44.4-18.8 61.4-17.8 25.6-47.8 40.9-80.1 40.9zm-89-174.2v65.7c0 2 0 4 .1 5.9.6 21.8 6.4 40.6 17.1 56 15.9 22.9 42.8 36.6 71.8 36.6s55.9-13.7 71.8-36.6c10.7-15.4 16.4-34.2 17.1-56 .1-2.1.1-4 .1-5.9v-65.7z"/></g></g><g><g><path d="m268.3 368.6h-24.6c-2.8 0-5-2.2-5-5s2.2-5 5-5h24.6c2.8 0 5 2.2 5 5s-2.3 5-5 5z"/></g></g><g><g><circle cx="295" cy="307.2" r="5.3"/></g></g><g><g><circle cx="217" cy="307.2" r="5.3"/></g></g><g><g><circle cx="280.2" cy="340.5" r="5.3"/></g></g><g><g><path d="m308.1 293.9h-25.1c-2.8 0-5-2.2-5-5s2.2-5 5-5h25.1c2.8 0 5 2.2 5 5s-2.2 5-5 5z"/></g></g><g><g><path d="m229 293.9h-25.1c-2.8 0-5-2.2-5-5s2.2-5 5-5h25.1c2.8 0 5 2.2 5 5s-2.3 5-5 5z"/></g></g><g><g><path d="m354.4 337.6c-2.8 0-5-2.2-5-5s2.2-5 5-5c9.9 0 17.9-7.9 17.9-17.6s-8-17.6-17.9-17.6c-2.8 0-5-2.2-5-5s2.2-5 5-5c15.4 0 27.9 12.4 27.9 27.6s-12.5 27.6-27.9 27.6z"/></g></g><g><g><path d="m157.6 337.6c-15.4 0-27.9-12.4-27.9-27.6s12.5-27.6 27.9-27.6c2.8 0 5 2.2 5 5s-2.2 5-5 5c-9.9 0-17.9 7.9-17.9 17.6s8 17.6 17.9 17.6c2.8 0 5 2.2 5 5s-2.2 5-5 5z"/></g></g><g><g><path d="m256 114 162.7 132.4h-325.4zm0-10c-2.2 0-4.5.7-6.3 2.2l-162.7 132.4c-3.3 2.7-4.5 7.1-3.1 11.1s5.2 6.7 9.4 6.7h325.4c4.2 0 8-2.7 9.4-6.7s.2-8.4-3.1-11.1l-162.7-132.4c-1.8-1.5-4.1-2.2-6.3-2.2z"/></g></g><g><g><path d="m331.7 210.7c-1.1 0-2.2-.4-3.2-1.1l-59.8-48.7c-2.1-1.7-2.5-4.9-.7-7 1.7-2.1 4.9-2.5 7-.7l59.8 48.7c2.1 1.7 2.5 4.9.7 7-.9 1.2-2.4 1.8-3.8 1.8z" fill="#fff"/></g></g><g><g><path d="m352.7 229.4c-1.1 0-2.2-.4-3.2-1.1l-8.5-6.9c-2.1-1.7-2.5-4.9-.7-7 1.7-2.1 4.9-2.5 7-.7l8.5 6.9c2.1 1.7 2.5 4.9.7 7-.9 1.1-2.3 1.8-3.8 1.8z" fill="#fff"/></g></g><g><g><path d="m119.4 224c-2.7 0-5-2.2-5-5s2.2-5 5-5l30.6-.2c2.7 0 5 2.2 5 5s-2.2 5-5 5l-30.6.2c.1 0 .1 0 0 0z"/></g></g></g></g></svg>