<svg enable-background="new 0 0 512 512" height="512" viewBox="0 0 512 512" width="512" xmlns="http://www.w3.org/2000/svg"><g id="Layer_9"><g><g><g><path d="m256.2 332.1h-28s-31.1 5.8-31.1 28.4h25.8s21.9-.3 33.1-20.7c9.3 11.4 16.3 21.8 36.4 21.8s23.8 0 23.8 0-9-28-26.7-28-33.3-1.5-33.3-1.5z"/></g></g><g><g><path d="m239.9 335.2s-25.7 10.4-25.3 26.4c-8.7 0-18.8 0-18.8 0s-1.5-26.4 44.1-26.4z"/></g></g><g><g><path d="m147.1 246.2-8.9-14.5s-10.5-47.5 29.3-87.6 97.3-52.9 147.4-23.4 82.1 103.2 44.2 131.8c0-12.5 6.4-48.5-33.4-51.4s-109.4 0-109.4 0h-35.7s-26.4 3.8-26.4 34.7-7.1 10.4-7.1 10.4z"/></g></g><g><g><circle cx="298.6" cy="320.3" r="4.4"/></g></g><g><g><path d="m366.5 254.5c-.7 0-1.3-.1-1.9-.4-2.5-1.1-3.7-4-2.7-6.6 9.4-22.2 9.2-47.2-.4-68.8-18.6-41.6-60-68.4-105.5-68.4s-86.9 26.9-105.5 68.4c-9.6 21.5-9.8 46.6-.4 68.8 1.1 2.5-.1 5.5-2.7 6.6-2.5 1.1-5.5-.1-6.6-2.7-10.5-24.7-10.3-52.7.5-76.7 20.2-45.2 65.2-74.4 114.6-74.4s94.5 29.2 114.6 74.4c10.8 24.1 10.9 52 .5 76.7-.7 2-2.5 3.1-4.5 3.1z"/></g></g><g><g><path d="m259.9 412.4h-7.9c-57.4 0-104.2-46.7-104.2-104.2v-67.3c0-24.7 20.1-44.7 44.7-44.7h127.6c24.2 0 43.9 19.7 43.9 43.9v68.2c.1 57.3-46.6 104.1-104.1 104.1zm-67.3-206.3c-19.2 0-34.7 15.6-34.7 34.7v67.3c0 51.9 42.2 94.2 94.2 94.2h7.9c51.9 0 94.2-42.2 94.2-94.2v-68.1c0-18.7-15.2-33.9-33.9-33.9z"/></g></g><g><g><circle cx="301.9" cy="293.9" r="6.2"/></g></g><g><g><path d="m317.7 279.6h-31.7c-2.8 0-5-2.2-5-5s2.2-5 5-5h31.7c2.8 0 5 2.2 5 5s-2.2 5-5 5z"/></g></g><g><g><circle cx="210.1" cy="293.9" r="6.2"/></g></g><g><g><path d="m225.9 279.6h-31.7c-2.8 0-5-2.2-5-5s2.2-5 5-5h31.7c2.8 0 5 2.2 5 5s-2.2 5-5 5z"/></g></g><g><g><path d="m360.8 310.3c-2.8 0-5-2.2-5-5s2.2-5 5-5c10.7 0 19.4-8.7 19.4-19.4s-8.7-19.4-19.4-19.4c-2.8 0-5-2.2-5-5s2.2-5 5-5c16.2 0 29.4 13.2 29.4 29.4s-13.2 29.4-29.4 29.4z"/></g></g><g><g><path d="m151.2 310.3c-16.2 0-29.4-13.2-29.4-29.4s13.2-29.4 29.4-29.4c2.8 0 5 2.2 5 5s-2.2 5-5 5c-10.7 0-19.4 8.7-19.4 19.4s8.7 19.4 19.4 19.4c2.8 0 5 2.2 5 5s-2.2 5-5 5z"/></g></g><g><g><path d="m260 238.9c-1 0-2-.3-2.8-.9-14.8-10.1-24.8-25.4-28.1-43s.4-35.5 10.5-50.3 25.4-24.8 43-28.1 35.5.4 50.3 10.5c2.3 1.6 2.9 4.7 1.3 6.9s-4.7 2.9-6.9 1.3c-12.6-8.6-27.8-11.8-42.8-9s-28 11.3-36.6 23.9-11.8 27.8-9 42.8 11.3 28 23.9 36.6c2.3 1.6 2.9 4.7 1.3 6.9-.9 1.6-2.5 2.4-4.1 2.4z"/></g></g><g><g><path d="m299.5 218.7c-.5 0-1.1-.1-1.6-.3-25.6-8.6-39.4-36.4-30.8-62 4.2-12.4 12.9-22.4 24.6-28.2s25-6.7 37.4-2.6c2.6.9 4 3.7 3.1 6.3s-3.7 4-6.3 3.1c-20.4-6.9-42.5 4.1-49.4 24.5s4.1 42.5 24.5 49.4c2.6.9 4 3.7 3.1 6.3-.5 2.2-2.5 3.5-4.6 3.5z"/></g></g><g><g><path d="m322.7 365.5h-32.2c-18.6 0-34.9-12.6-39.5-30.6l-1.6-6.2h32.2c18.6 0 34.9 12.6 39.5 30.6zm-59.7-26.9c5.2 10.2 15.7 16.9 27.5 16.9h18.5c-5.2-10.2-15.7-16.9-27.5-16.9z"/></g></g><g><g><path d="m221.5 365.5h-32.2l1.6-6.2c4.6-18 20.9-30.6 39.5-30.6h32.2l-1.6 6.2c-4.6 18-20.9 30.6-39.5 30.6zm-18.5-10h18.5c11.8 0 22.3-6.7 27.5-16.9h-18.5c-11.8 0-22.3 6.7-27.5 16.9z"/></g></g><g><g><path d="m336.8 172.4c-1.6 0-3.1-.7-4.1-2.1-7.3-10.1-23.4-22.5-23.5-22.7-2.2-1.7-2.6-4.8-.9-7s4.8-2.6 7-.9c.7.5 17.4 13.4 25.6 24.8 1.6 2.2 1.1 5.4-1.1 7-1 .6-2 .9-3 .9z" fill="#fff"/></g></g><g><g><path d="m348 187.9c-1.6 0-3.2-.8-4.1-2.2l-3-4.4c-1.6-2.3-1-5.4 1.3-6.9 2.3-1.6 5.4-1 6.9 1.3l3 4.4c1.6 2.3 1 5.4-1.3 6.9-.8.7-1.8.9-2.8.9z" fill="#fff"/></g></g></g></g></svg>