<svg enable-background="new 0 0 512 512" height="512" viewBox="0 0 512 512" width="512" xmlns="http://www.w3.org/2000/svg"><g id="Layer_9"><g><g><g><path d="m337.8 220.8 44 4.6s16 20.2-8.5 20.7c-23.3-2.7-36.5-6.4-36.5-6.4z"/></g></g><g><g><path d="m130.1 219.5 72.4 4.9s-2.6-29.6 13.6-38.5 44.1-5 51 14.2-8.4 30.9-3.9 32.7 75.4 4.1 75.4 4.1 20.5-88-65.8-115.6-132.4 35.5-136.8 59.7-5.9 38.5-5.9 38.5z"/></g></g><g><g><path d="m238.4 401.5c-32.3 0-62.3-15.3-80-40.9-11.8-17-18.1-37.6-18.8-61.4-.1-2-.1-4.1-.1-6.2v-70.7c0-1.4.6-2.7 1.6-3.7 1-.9 2.4-1.4 3.8-1.3l189.5 16.6c2.6.2 4.6 2.5 4.6 5.1l-1.6 60.2c-.7 23.8-7 44.4-18.8 61.4-18 25.6-47.9 40.9-80.2 40.9zm-89-173.8v65.3c0 2 0 4 .1 5.9.6 21.8 6.4 40.7 17.1 56 15.9 22.9 42.8 36.6 71.8 36.6s55.9-13.7 71.8-36.6c10.7-15.4 16.4-34.2 17.1-56l1.5-55.5z"/></g></g><g><g><path d="m250.6 370.7h-24.6c-2.8 0-5-2.2-5-5s2.2-5 5-5h24.6c2.8 0 5 2.2 5 5s-2.2 5-5 5z"/></g></g><g><g><circle cx="270.7" cy="309.4" r="5.3"/></g></g><g><g><path d="m290.5 267.7h-25.1c-2.8 0-5-2.2-5-5s2.2-5 5-5h25.1c2.8 0 5 2.2 5 5s-2.2 5-5 5z"/></g></g><g><g><path d="m211.3 267.7h-25.1c-2.8 0-5-2.2-5-5s2.2-5 5-5h25.1c2.8 0 5 2.2 5 5s-2.2 5-5 5z"/></g></g><g><g><path d="m282.6 285.6h-8c-2.8 0-5-2.2-5-5s2.2-5 5-5h8c2.8 0 5 2.2 5 5s-2.3 5-5 5z"/></g></g><g><g><path d="m202.2 285.6h-8c-2.8 0-5-2.2-5-5s2.2-5 5-5h8c2.8 0 5 2.2 5 5s-2.3 5-5 5z"/></g></g><g><g><path d="m336.7 311.4c-2.8 0-5-2.2-5-5s2.2-5 5-5c9.9 0 17.9-7.9 17.9-17.6s-8-17.6-17.9-17.6c-2.8 0-5-2.2-5-5s2.2-5 5-5c15.4 0 27.9 12.4 27.9 27.6s-12.5 27.6-27.9 27.6z"/></g></g><g><g><path d="m140 311.4c-15.4 0-27.9-12.4-27.9-27.6s12.5-27.6 27.9-27.6c2.8 0 5 2.2 5 5s-2.2 5-5 5c-9.9 0-17.9 7.9-17.9 17.6s8 17.6 17.9 17.6c2.8 0 5 2.2 5 5s-2.2 5-5 5z"/></g></g><g><g><path d="m378.1 250c-.5 0-1 0-1.5-.1l-234.8-23.5c-2.7-.3-4.8-2.7-4.5-5.5.3-2.7 2.7-4.8 5.5-4.5l234.9 23.6c2.4.2 3.7-1.3 4.2-2 .4-.7 1.4-2.5.2-4.6-.7-1.3-2-2.2-3.5-2.3l-38.1-3.9c-2.7-.3-4.7-2.7-4.5-5.5s2.7-4.8 5.5-4.5l38.1 3.9c4.8.5 9 3.3 11.3 7.5 2.5 4.7 2.3 10.4-.7 14.9-2.7 4.1-7.3 6.5-12.1 6.5z"/></g></g><g><g><path d="m338.2 245.4c-.2 0-.3 0-.5 0l-208.1-20.9c-1.3-.1-2.5-.8-3.4-1.8-.8-1-1.2-2.3-1.1-3.7l1.9-19.4c2.6-26.3 15.4-50 35.8-66.7 20.5-16.7 46.2-24.5 72.5-21.9l21.1 2.1c26.3 2.6 50 15.4 66.7 35.8 16.7 20.5 24.5 46.2 21.9 72.5l-1.9 19.4c-.1 1.3-.8 2.5-1.8 3.4-.8.8-1.9 1.2-3.1 1.2zm-202.6-30.4 198.2 19.9 1.4-14.4c2.4-23.6-4.6-46.8-19.7-65.2s-36.4-29.8-60-32.2l-21.1-2.1c-48.8-4.9-92.5 30.8-97.4 79.7z"/></g></g><g><g><path d="m268.6 237.6c-.2 0-.3 0-.5 0l-68.6-6.9c-1.3-.1-2.5-.8-3.4-1.8-.8-1-1.2-2.3-1.1-3.7l2.3-22.5c1.7-17 16.9-29.5 33.9-27.7l16.9 1.7c17 1.7 29.4 16.9 27.7 33.9l-2.3 22.5c-.2 2.6-2.3 4.5-4.9 4.5zm-63.1-16.3 58.6 5.9 1.8-17.5c1.2-11.5-7.3-21.8-18.8-23l-16.9-1.7c-11.5-1.1-21.8 7.3-23 18.8z"/></g></g><g><g><path d="m315.2 204.6c-2.4 0-4.6-1.8-4.9-4.2-4.2-26.8-18.1-41.3-45.2-47-2.7-.6-4.4-3.2-3.9-5.9.6-2.7 3.2-4.4 5.9-3.9 30.9 6.5 48.3 24.6 53.1 55.3.4 2.7-1.4 5.3-4.2 5.7-.3 0-.6 0-.8 0z" fill="#fff"/></g></g><g><g><path d="m238.4 348.8c-10.1 0-16.5-3.8-28.5-17.1-1.8-2.1-1.7-5.2.4-7.1 2.1-1.8 5.2-1.7 7.1.4 11.3 12.5 15.1 13.8 21.1 13.8 6.1 0 11.6-3.6 21.1-13.9 1.9-2 5-2.1 7.1-.3 2 1.9 2.1 5 .3 7.1-10 10.5-18.1 17.1-28.6 17.1z"/></g></g><g><g><path d="m315.8 222.6c-2.8 0-5-2.2-5-5v-3.5c0-2.8 2.2-5 5-5s5 2.2 5 5v3.5c0 2.8-2.2 5-5 5z" fill="#fff"/></g></g></g></g></svg>