<svg enable-background="new 0 0 512 512" height="512" viewBox="0 0 512 512" width="512" xmlns="http://www.w3.org/2000/svg"><g id="Layer_9"><g><g><g><path d="m162 281.9s-17.6 2.2-24.5 7.1c-13.7-15.4-61.5-96.1 11-157.3s161.2-42.8 209.9-4.2 64 120.5 14.5 161.4c-10.9-4.3-22.9-5.6-22.9-5.6v-38.9s-43.2 23.3-99.3 19.9-88.7-19.8-88.7-19.8z"/></g></g><g><g><path d="m138.9 298.2c-1.3 0-2.7-.5-3.7-1.6-21.3-22.9-32.5-50.3-32.5-79.4 0-71.1 68.8-128.9 153.3-128.9s153.3 57.8 153.3 128.9c0 29.1-11.2 56.5-32.4 79.4-1.9 2-5 2.1-7.1.3-2-1.9-2.1-5-.3-7.1 19.5-21 29.8-46 29.8-72.6 0-65.6-64.3-118.9-143.3-118.9s-143.3 53.4-143.3 118.9c0 26.5 10.3 51.6 29.8 72.6 1.9 2 1.8 5.2-.3 7.1-.9.8-2.1 1.3-3.3 1.3z"/></g></g><g><g><path d="m256 423.8c-32.3 0-62.3-15.3-80-40.9-11.8-17-18.1-37.6-18.8-61.4-.1-2-.1-4.1-.1-6.2v-70.7c0-1.6.8-3.2 2.1-4.1s3.1-1.1 4.6-.6l15.7 5.9c24.6 9.2 50.3 13.8 76.5 13.8 26.1 0 51.7-4.6 76.2-13.7l16.1-6c1.5-.6 3.3-.4 4.6.6 1.3.9 2.1 2.5 2.1 4.1v50l-.1 26.8v.1c-.7 23.8-7 44.4-18.8 61.4-17.8 25.6-47.8 40.9-80.1 40.9zm-89-172.1v63.5c0 2 0 4 .1 5.9.6 21.8 6.4 40.7 17.1 56 15.9 22.9 42.8 36.6 71.8 36.6s55.9-13.7 71.8-36.6c10.7-15.3 16.4-34.2 17.1-55.9l.1-26.7v-42.8l-9.3 3.5c-25.6 9.5-52.4 14.3-79.7 14.3-27.4 0-54.3-4.9-80-14.5z"/></g></g><g><g><path d="m268.3 385.1h-24.6c-2.8 0-5-2.2-5-5s2.2-5 5-5h24.6c2.8 0 5 2.2 5 5s-2.3 5-5 5z"/></g></g><g><g><circle cx="298.6" cy="341.2" r="5.3"/></g></g><g><g><circle cx="256" cy="396.1" r="5.3"/></g></g><g><g><path d="m308.1 290h-25.1c-2.8 0-5-2.2-5-5s2.2-5 5-5h25.1c2.8 0 5 2.2 5 5s-2.2 5-5 5z"/></g></g><g><g><path d="m229 290h-25.1c-2.8 0-5-2.2-5-5s2.2-5 5-5h25.1c2.8 0 5 2.2 5 5s-2.3 5-5 5z"/></g></g><g><g><path d="m300.2 307.9h-8c-2.8 0-5-2.2-5-5s2.2-5 5-5h8c2.8 0 5 2.2 5 5s-2.3 5-5 5z"/></g></g><g><g><path d="m219.8 307.9h-8c-2.8 0-5-2.2-5-5s2.2-5 5-5h8c2.8 0 5 2.2 5 5s-2.2 5-5 5z"/></g></g><g><g><path d="m354.4 333.7c-2.8 0-5-2.2-5-5s2.2-5 5-5c9.9 0 17.9-7.9 17.9-17.6s-8-17.6-17.9-17.6c-2.8 0-5-2.2-5-5s2.2-5 5-5c15.4 0 27.9 12.4 27.9 27.6s-12.5 27.6-27.9 27.6z"/></g></g><g><g><path d="m157.6 333.7c-15.4 0-27.9-12.4-27.9-27.6s12.5-27.6 27.9-27.6c2.8 0 5 2.2 5 5s-2.2 5-5 5c-9.9 0-17.9 7.9-17.9 17.6s8 17.6 17.9 17.6c2.8 0 5 2.2 5 5s-2.2 5-5 5z"/></g></g><g><g><path d="m301.9 411.2h-10v-28.3c0-14.5-11.8-26.2-26.2-26.2h-19.3c-14.5 0-26.2 11.8-26.2 26.2v28.3h-10v-28.3c0-20 16.3-36.2 36.2-36.2h19.3c20 0 36.2 16.3 36.2 36.2z"/></g></g><g><g><path d="m219.8 207.7h-37.4c-2.8 0-5-2.2-5-5s2.2-5 5-5h37.4c2.8 0 5 2.2 5 5s-2.2 5-5 5z"/></g></g><g><g><path d="m359.2 185.3c-1.8 0-3.5-1-4.4-2.6-20-37.1-70.4-53.3-70.9-53.4-2.6-.8-4.1-3.6-3.3-6.3.8-2.6 3.6-4.1 6.3-3.3 2.2.7 54.9 17.4 76.8 58.2 1.3 2.4.4 5.5-2 6.8-.9.4-1.7.6-2.5.6z" fill="#fff"/></g></g><g><g><path d="m367.5 203.7c-1.9 0-3.7-1.1-4.5-2.9l-2.6-5.6c-1.2-2.5-.1-5.5 2.4-6.6 2.5-1.2 5.5-.1 6.6 2.4l2.6 5.6c1.2 2.5.1 5.5-2.4 6.6-.6.3-1.3.5-2.1.5z" fill="#fff"/></g></g></g></g></svg>