<svg enable-background="new 0 0 512 512" height="512" viewBox="0 0 512 512" width="512" xmlns="http://www.w3.org/2000/svg"><g id="Layer_9"><g><g><g><path d="m159.1 273.1-9.9-3.4s-16.4-64.5 0-97.4 63.5-28.5 93.7-39.1 57.3-28.1 91.3-25.5c34 2.7 63.3 38.4 51.3 91.4s-83.2 54.7-90.4 50.2-40.9-11.8-62.2-6.1-18-3.2-39.9-2c-7.6-5.7-12.3-10.5-12.3-10.5s.5 16.8-7.8 27.8-13.8 14.6-13.8 14.6z"/></g></g><g><g><path d="m245.2 442.7c-32.3 0-62.3-15.3-80-40.9-11.8-17-18.1-37.6-18.8-61.4-.1-2-.1-4.1-.1-6.2v-60.7h10v60.7c0 2 0 4 .1 5.9.6 21.8 6.4 40.6 17.1 56 15.9 22.9 42.8 36.6 71.8 36.6 29.1 0 55.9-13.7 71.8-36.6 10.7-15.4 16.4-34.2 17.1-56 .1-2.1.1-4 .1-5.9 0-29.9-.1-42.6-.2-53.8-.1-8.9-.1-16.6-.1-31.1h10c0 14.4.1 22.1.1 31 .1 11.2.2 24 .2 53.9 0 2 0 4-.1 6.2-.7 23.8-7 44.4-18.8 61.4-18 25.6-47.9 40.9-80.2 40.9z"/></g></g><g><g><path d="m257.4 411.9h-24.6c-2.8 0-5-2.2-5-5s2.2-5 5-5h24.6c2.8 0 5 2.2 5 5s-2.2 5-5 5z"/></g></g><g><g><circle cx="277.5" cy="350.6" r="5.3"/></g></g><g><g><path d="m297.3 308.9h-25.1c-2.8 0-5-2.2-5-5s2.2-5 5-5h25.1c2.8 0 5 2.2 5 5s-2.2 5-5 5z"/></g></g><g><g><path d="m218.1 308.9h-25.1c-2.8 0-5-2.2-5-5s2.2-5 5-5h25.1c2.8 0 5 2.2 5 5s-2.2 5-5 5z"/></g></g><g><g><path d="m289.3 326.9h-8c-2.8 0-5-2.2-5-5s2.2-5 5-5h8c2.8 0 5 2.2 5 5s-2.2 5-5 5z"/></g></g><g><g><path d="m209 326.9h-8c-2.8 0-5-2.2-5-5s2.2-5 5-5h8c2.8 0 5 2.2 5 5s-2.3 5-5 5z"/></g></g><g><g><path d="m343.5 352.6c-2.8 0-5-2.2-5-5s2.2-5 5-5c9.9 0 17.9-7.9 17.9-17.6s-8-17.6-17.9-17.6c-2.8 0-5-2.2-5-5s2.2-5 5-5c15.4 0 27.9 12.4 27.9 27.6s-12.5 27.6-27.9 27.6z"/></g></g><g><g><path d="m146.8 352.6c-15.4 0-27.9-12.4-27.9-27.6s12.5-27.6 27.9-27.6c2.8 0 5 2.2 5 5s-2.2 5-5 5c-9.9 0-17.9 7.9-17.9 17.6s8 17.6 17.9 17.6c2.8 0 5 2.2 5 5s-2.3 5-5 5z"/></g></g><g><g><path d="m181.3 238.1c-2.3 0-4.3-1.5-4.9-3.8-3.8-15.7-1.3-32 7.1-45.8s21.7-23.5 37.4-27.4c2.7-.7 5.4 1 6 3.7.7 2.7-1 5.4-3.7 6-13.1 3.2-24.2 11.3-31.2 22.9-7 11.5-9.1 25.1-5.9 38.3.7 2.7-1 5.4-3.7 6-.3.1-.7.1-1.1.1z"/></g></g><g><g><path d="m245.1 390c-10.1 0-16.5-3.8-28.5-17.1-1.8-2.1-1.7-5.2.4-7.1 2.1-1.8 5.2-1.7 7.1.4 11.3 12.5 15.1 13.8 21.1 13.8 6.1 0 11.6-3.6 21.1-13.9 1.9-2 5-2.1 7.1-.3 2 1.9 2.1 5 .3 7.1-9.9 10.6-18 17.1-28.6 17.1z"/></g></g><g><g><path d="m151.2 280.1c-1.9 0-3.7-1.1-4.5-2.8-.6-1.1-13.5-28.7-6.2-87.1 5.1-40.9 39-48.2 75-55.9 19.8-4.2 40.2-8.6 59.5-18.4 27.8-14.1 52.5-17.1 73.4-8.8 19.2 7.6 34.1 24.5 43.1 48.9 6.3 17.1 5.5 34.7-2.2 51-11.3 23.7-33.7 38.5-49.5 43.9-16.4 5.6-36.6 2.8-58-.1-16.6-2.3-33.7-4.7-48.1-2.6-23.5 3.4-40.2-3.5-49.1-8.7-2.6 13.6-10.6 39-32.9 40.7-.3-.1-.4-.1-.5-.1zm172.6-167.5c-13.3 0-28.2 4.1-44.3 12.3-20.4 10.3-42.4 15.1-61.9 19.2-17.4 3.7-33.9 7.3-45.9 14.1-12.6 7.2-19.3 17.8-21.3 33.2-3.6 28.8-2 49.4 0 61.7 1.3 7.7 2.8 13.2 3.9 16.4 7-2 12.6-8.3 16.6-18.9 3.9-10.1 4.8-20.2 4.8-20.3.2-1.9 1.4-3.5 3.2-4.2s3.8-.3 5.2 1c0 0 4.5 4 12.6 7.3 10.8 4.5 22.8 5.8 35.5 3.9 15.8-2.3 33.7.2 51 2.6 20.2 2.8 39.2 5.5 53.4.6 15-5.2 34.4-19.1 43.7-38.7 6.6-14 7.3-28.5 1.9-43.2-8-21.7-20.9-36.6-37.4-43.1-6.6-2.6-13.6-3.9-21-3.9z"/></g></g><g><g><path d="m364.1 196.6c-2.8 0-5-2.3-5-5.1.7-45.9-33.8-58.2-35.3-58.7-2.6-.9-4-3.7-3.1-6.3s3.7-4 6.3-3.2c.4.1 11.1 3.8 21.6 14 9.6 9.4 21 26.5 20.6 54.3-.1 2.8-2.3 5-5.1 5z" fill="#fff"/></g></g><g><g><path d="m354.9 216.4c-1.1 0-2.3-.4-3.2-1.2-2.1-1.8-2.4-4.9-.6-7l3.2-3.8c1.8-2.1 4.9-2.4 7-.6s2.4 4.9.6 7l-3.2 3.8c-.9 1.2-2.4 1.8-3.8 1.8z" fill="#fff"/></g></g></g></g></svg>