<svg enable-background="new 0 0 512 512" height="512" viewBox="0 0 512 512" width="512" xmlns="http://www.w3.org/2000/svg"><g id="Layer_9"><g><g><g><path d="m342.6 247.8s7.7-90.2-75.7-124.6l-43.4-10.4h-42.1s-12-2-12 23.5 0 111.5 0 111.5 8.7-72.2 93.7-76.8c31-.7 76.5 33.8 79.5 76.8z"/></g></g><g><g><path d="m343.5 316.8c-.4 0-.8 0-1.2 0h-.7l.6-10h.7c4 .2 7-1.9 7.2-4l2-32.1c.1-1.3-.9-2.3-1.4-2.8-1.2-1.1-3-1.8-4.9-2l-5.8.3-.5-10 6.1-.3h.5c4.3.3 8.3 1.9 11.2 4.6 3.3 2.9 5 6.9 4.7 10.9l-2 32.1c-.5 7.5-7.8 13.3-16.5 13.3z"/></g></g><g><g><path d="m168.5 316.8c-8.8 0-16.1-5.8-16.5-13.4l-2-32.1c-.2-4 1.5-8 4.7-10.9 3-2.7 7-4.3 11.2-4.6h.5l6.1.3-.5 10-5.8-.3c-1.9.2-3.7.9-4.9 2-.6.5-1.5 1.6-1.4 2.8l2 32.1c.1 2.1 3.2 4.2 7.2 4h.7l.6 10h-.7c-.4.1-.8.1-1.2.1z"/></g></g><g><g><path d="m256 336c-.4 0-.8 0-1.3.1-5.6.7-9.6 5.8-8.9 11.4.6 5.2 5.1 9 10.2 9 .4 0 .8 0 1.3-.1 5.6-.7 9.6-5.8 8.9-11.4-.7-5.1-5.1-9-10.2-9z"/></g></g><g><g><path d="m243.8 276.8c-.4 0-.8 0-1.2-.1l-40.7-10c-2.7-.7-4.3-3.4-3.7-6 .7-2.7 3.4-4.3 6-3.7l40.7 10c2.7.7 4.3 3.4 3.7 6-.5 2.3-2.5 3.8-4.8 3.8z"/></g></g><g><g><path d="m268.2 276.8c-2.2 0-4.3-1.5-4.9-3.8-.7-2.7 1-5.4 3.7-6l40.7-10c2.7-.7 5.4 1 6 3.7.7 2.7-1 5.4-3.7 6l-40.7 10c-.3.1-.7.1-1.1.1z"/></g></g><g><g><path d="m220.8 283.7c-.3 0-.6 0-.9.1-4.2.5-7.2 4.3-6.7 8.5.5 3.9 3.8 6.7 7.6 6.7.3 0 .6 0 .9-.1 4.2-.5 7.2-4.3 6.7-8.5-.5-3.9-3.8-6.7-7.6-6.7z"/></g></g><g><g><path d="m291.2 283.7c-3.8 0-7.1 2.8-7.6 6.7-.5 4.2 2.5 8 6.7 8.5.3 0 .6.1.9.1 3.8 0 7.1-2.8 7.6-6.7.5-4.2-2.5-8-6.7-8.5-.3-.1-.6-.1-.9-.1z"/></g></g><g><g><path d="m256 405.5c-50.5 0-91.6-41.1-91.6-91.6v-189.1c0-9.4 7.6-17 17-17h35.6c72 0 130.6 58.6 130.6 130.6v75.5c0 50.5-41.1 91.6-91.6 91.6zm-74.6-287.7c-3.9 0-7 3.1-7 7v189.1c0 45 36.6 81.6 81.6 81.6s81.6-36.6 81.6-81.6v-75.5c0-66.5-54.1-120.6-120.6-120.6z"/></g></g><g><g><path d="m347.6 257.6h-10c0-45-36.6-81.6-81.6-81.6s-81.6 36.6-81.6 81.6h-10c0-50.5 41.1-91.6 91.6-91.6s91.6 41.1 91.6 91.6z"/></g></g><g><g><path d="m306.2 346.4c-.8 0-1.6-.2-2.4-.6l-35-18.8c-2.4-1.3-3.3-4.3-2-6.8 1.3-2.4 4.3-3.3 6.8-2l35 18.8c2.4 1.3 3.3 4.3 2 6.8-.9 1.6-2.6 2.6-4.4 2.6z"/></g></g><g><g><path d="m205.8 346.4c-1.8 0-3.5-1-4.4-2.6-1.3-2.4-.4-5.5 2-6.8l35-18.8c2.4-1.3 5.5-.4 6.8 2s.4 5.5-2 6.8l-35 18.8c-.8.4-1.6.6-2.4.6z"/></g></g><g><g><circle cx="201.7" cy="315.1" r="4.4"/></g></g><g><g><path d="m190.4 146.3h-21c-2.8 0-5-2.2-5-5s2.2-5 5-5h21c2.8 0 5 2.2 5 5s-2.2 5-5 5z"/></g></g><g><g><path d="m210.5 159.9h-39.2c-2.8 0-5-2.2-5-5s2.2-5 5-5h39.2c2.8 0 5 2.2 5 5s-2.2 5-5 5z"/></g></g></g></g></svg>