<svg enable-background="new 0 0 512 512" height="512" viewBox="0 0 512 512" width="512" xmlns="http://www.w3.org/2000/svg"><g id="Layer_9"><g><g><g><path d="m157.6 232.1 13.5-74.4s1.4-15.1 31.5-15.1 119.3-1.8 119.3-1.8 17.9-2.1 22.1 25.2 9.4 64.3 9.4 64.3l-7.7 1.9h-188.1z"/></g></g><g><g><path d="m256 405.5c-32.3 0-62.3-15.3-80-40.9-11.8-17-18.1-37.6-18.8-61.4-.1-2-.1-4.1-.1-6.2v-60.9h10v60.9c0 2 0 4 .1 5.9.6 21.8 6.4 40.6 17.1 56 15.9 22.9 42.8 36.6 71.8 36.6s55.9-13.7 71.8-36.6c10.7-15.4 16.4-34.2 17.1-56 .1-2.1.1-4 .1-5.9 0-29.9-.1-35.1-.2-39.6-.1-3.7-.1-6.8-.1-21.3h10c0 14.4.1 17.5.1 21.1.1 4.6.2 9.8.2 39.8 0 2 0 4-.1 6.2-.7 23.8-7 44.4-18.8 61.4-17.9 25.6-47.9 40.9-80.2 40.9z"/></g></g><g><g><path d="m268.3 374.7h-24.6c-2.8 0-5-2.2-5-5s2.2-5 5-5h24.6c2.8 0 5 2.2 5 5s-2.3 5-5 5z"/></g></g><g><g><circle cx="288.3" cy="313.4" r="5.3"/></g></g><g><g><path d="m268.6 267.3h-25.1c-2.8 0-5-2.2-5-5s2.2-5 5-5h25.1c2.8 0 5 2.2 5 5s-2.3 5-5 5z"/></g></g><g><g><path d="m348.4 267.3h-25.1c-2.8 0-5-2.2-5-5s2.2-5 5-5h25.1c2.8 0 5 2.2 5 5s-2.3 5-5 5z"/></g></g><g><g><path d="m187.3 267.3h-25.1c-2.8 0-5-2.2-5-5s2.2-5 5-5h25.1c2.8 0 5 2.2 5 5s-2.3 5-5 5z"/></g></g><g><g><path d="m354.4 316.4c-2.8 0-5-2.2-5-5s2.2-5 5-5c9.9 0 17.9-7.9 17.9-17.6s-8-17.6-17.9-17.6c-2.8 0-5-2.2-5-5s2.2-5 5-5c15.4 0 27.9 12.4 27.9 27.6s-12.5 27.6-27.9 27.6z"/></g></g><g><g><path d="m157.6 316.4c-15.4 0-27.9-12.4-27.9-27.6s12.5-27.6 27.9-27.6c2.8 0 5 2.2 5 5s-2.2 5-5 5c-9.9 0-17.9 7.9-17.9 17.6s8 17.6 17.9 17.6c2.8 0 5 2.2 5 5s-2.2 5-5 5z"/></g></g><g><g><path d="m280.8 352.8c-1.4 0-2.7-.6-3.7-1.7-11.3-12.5-15.1-13.8-21.1-13.8-6.1 0-11.6 3.6-21.1 13.9-1.9 2-5 2.1-7.1.3-2-1.9-2.1-5-.3-7.1 9.8-10.6 17.9-17.1 28.4-17.1 10.1 0 16.5 3.8 28.5 17.1 1.8 2.1 1.7 5.2-.4 7.1-.8.9-2 1.3-3.2 1.3z"/></g></g><g><g><path d="m239.9 306.8h-59.9c-6.5 0-11.9-5.3-11.9-11.9v-25.7c0-6.5 5.3-11.9 11.9-11.9h59.9c6.5 0 11.9 5.3 11.9 11.9v25.7c0 6.5-5.3 11.9-11.9 11.9zm-59.9-39.5c-1 0-1.9.8-1.9 1.9v25.7c0 1 .8 1.9 1.9 1.9h59.9c1 0 1.9-.8 1.9-1.9v-25.7c0-1-.8-1.9-1.9-1.9z"/></g></g><g><g><path d="m332 306.8h-59.9c-6.5 0-11.9-5.3-11.9-11.9v-25.7c0-6.5 5.3-11.9 11.9-11.9h59.9c6.5 0 11.9 5.3 11.9 11.9v25.7c0 6.5-5.4 11.9-11.9 11.9zm-59.9-39.5c-1 0-1.9.8-1.9 1.9v25.7c0 1 .8 1.9 1.9 1.9h59.9c1 0 1.9-.8 1.9-1.9v-25.7c0-1-.8-1.9-1.9-1.9z"/></g></g><g><g><path d="m348.4 212.8h-182.8c-2.8 0-5-2.2-5-5s2.2-5 5-5h182.8c2.8 0 5 2.2 5 5s-2.3 5-5 5z"/></g></g><g><g><path d="m394.4 237.1h-276.8c-2.8 0-5-2.2-5-5s2.2-5 5-5h276.7c2.8 0 5 2.2 5 5s-2.2 5-4.9 5z"/></g></g><g><g><path d="m353.5 232.9c-2.4 0-4.6-1.8-4.9-4.2l-9.4-61.9c-.3-1.7-.4-3.5-.6-5.1l-.1-1c-.9-8.5-7.9-14.8-16.5-14.8h-132c-8.5 0-15.6 6.4-16.5 14.8l-.1 1c-.2 1.7-.3 3.4-.6 5.1l-9.4 61.9c-.4 2.7-3 4.6-5.7 4.2s-4.6-3-4.2-5.7l9.4-61.9c.2-1.5.4-3 .5-4.6l.1-1c1.4-13.6 12.7-23.8 26.4-23.8h132.1c13.7 0 25 10.2 26.4 23.8l.1 1c.2 1.6.3 3.1.5 4.6l9.4 61.9c.4 2.7-1.5 5.3-4.2 5.7-.2 0-.5 0-.7 0z"/></g></g><g><g><path d="m191 290.4c-1.8 0-3.5-1-4.4-2.6-1.3-2.4-.4-5.5 2-6.8l12.4-6.7c2.4-1.3 5.5-.4 6.8 2s.4 5.5-2 6.8l-12.4 6.7c-.8.4-1.6.6-2.4.6z" fill="#fff"/></g></g><g><g><path d="m210 295.2c-1.8 0-3.5-1-4.4-2.6-1.3-2.4-.4-5.5 2-6.8l21.4-11.5c2.4-1.3 5.5-.4 6.8 2s.4 5.5-2 6.8l-21.4 11.5c-.8.4-1.6.6-2.4.6z" fill="#fff"/></g></g><g><g><path d="m285.6 292.3c-1.7 0-3.4-.9-4.3-2.4-1.4-2.4-.6-5.4 1.7-6.9l17.5-10.4c2.4-1.4 5.4-.6 6.9 1.7 1.4 2.4.6 5.4-1.7 6.9l-17.5 10.4c-.8.4-1.7.7-2.6.7z" fill="#fff"/></g></g><g><g><path d="m309.4 291.1c-1.8 0-3.5-1-4.4-2.6-1.3-2.4-.4-5.5 2-6.8l10.7-5.7c2.4-1.3 5.5-.4 6.8 2s.4 5.5-2 6.8l-10.7 5.7c-.8.4-1.6.6-2.4.6z" fill="#fff"/></g></g><g><g><path d="m318.7 180c-2.5 0-4.6-1.9-5-4.4l-2.2-17.9c-.3-2.7 1.6-5.2 4.3-5.6 2.7-.3 5.2 1.6 5.6 4.3l2.2 17.9c.3 2.7-1.6 5.2-4.3 5.6-.2.1-.4.1-.6.1z" fill="#fff"/></g></g><g><g><path d="m322 195c-2.5 0-4.6-1.9-5-4.4l-.2-1.5c-.3-2.7 1.6-5.2 4.3-5.6 2.7-.3 5.2 1.6 5.6 4.3l.2 1.5c.3 2.7-1.6 5.2-4.3 5.6-.2.1-.4.1-.6.1z" fill="#fff"/></g></g></g></g></svg>