<svg enable-background="new 0 0 512 512" height="512" viewBox="0 0 512 512" width="512" xmlns="http://www.w3.org/2000/svg"><g id="Layer_9"><g><g><g><path d="m338 258.7h11.9s12.1-34.6 10.6-58.1c-1.5-23.6-23.1-82.7-91.5-88.5s-101.3 43.2-105.5 51.5-23.5 38.4.2 98.1c10-2 10-2 10-2s.3-48.7 7-61.7 11.3-31.3 30.3-15.3 30.3 24.3 45.3 24.3 37.7-14.7 42-19.8 14.7-12.2 17-10.8 18.7 17.3 20.7 25.3 2 57 2 57z"/></g></g><g><g><path d="m160.5 253.9c.9 2.7 2 5.4 3.1 8.3 1.5-.3 2.7-.5 3.8-.8-.2-.1-.3-.1-.5-.2-1.9-.8-4.1-3.3-6.4-7.3z"/></g></g><g><g><path d="m360.4 201.1c-1.5-23.6-23.1-82.7-91.5-88.5-27.4-2.3-49.2 4.2-65.6 13.3 49.1-25.2 93.1-7.8 108.6 2.1 0 0-98.2-8.6-104.2 18.5-6.1 27.1 65.9 10.4 31.6 22.3-11.1 3.9-20 9.2-27 15.4 18.2 15.2 29.3 23.2 44 23.2 15 0 37.7-14.7 42-19.8 4.3-5.2 14.7-12.2 17-10.8 2.3 1.3 18.7 17.3 20.7 25.3s2 57 2 57h11.9c-.1.1 12-34.5 10.5-58z"/></g></g><g><g><path d="m313.6 183c.5 0 1.6 0 3.3 1.7l.7.7c8.4 8.4 11.6 11.6 13.6 24.3 2.4 14.7 2.8 39.7 2.8 94.1 0 1.8 0 3.6-.1 5.4-.6 19.3-5.6 35.9-15 49.4-7.1 10.3-16.5 18.3-27.8 23.9-10.7 5.2-22.7 8-34.9 8s-24.3-2.8-34.9-8c-11.3-5.6-20.7-13.6-27.8-23.9-9.4-13.5-14.4-30.1-15-49.4-.1-1.9-.1-3.7-.1-5.4 0-54.3.4-79.4 2.8-94.1 2.1-12.7 5.2-15.8 13.6-24.3l.7-.7c1.7-1.7 2.8-1.7 3.3-1.7 2.8 0 8.3 2.9 15.6 10.9 10.7 11.9 26 18.8 41.8 18.8s31-6.9 41.8-18.8c7.2-8.1 12.8-10.9 15.6-10.9m0-10c-8.1 0-16.5 7-23 14.2-8.8 9.8-21.2 15.5-34.3 15.5-13.1 0-25.6-5.7-34.3-15.5-6.5-7.2-14.9-14.2-23-14.2-3.6 0-7.1 1.4-10.4 4.7-18.7 18.7-20 18.7-20 126.1 0 1.9 0 3.8.1 5.6.7 22.4 6.9 40.7 16.8 54.8 16.8 24.1 43.8 36.2 70.9 36.2s54.2-12.1 70.9-36.2c9.8-14.1 16.1-32.4 16.8-54.8.1-1.8.1-3.7.1-5.6 0-107.3-1.3-107.3-20-126.1-3.5-3.4-7-4.7-10.6-4.7z"/></g></g><g><g><path d="m348.8 266.7c-.6 0-1.1-.1-1.7-.3-2.6-.9-3.9-3.8-3-6.4.1-.3 11.8-33 11.8-49 0-29.7-11.9-53.8-35.3-71.7-37.9-28.9-90.9-28.9-128.8 0-23.4 17.8-35.3 41.9-35.3 71.7 0 16 10.8 46.2 11 46.5.9 2.6-.4 5.5-3 6.4s-5.5-.4-6.4-3c-.5-1.3-11.6-32.2-11.6-49.9 0-33 13.2-59.8 39.3-79.6 41.5-31.6 99.4-31.6 140.9 0 26 19.8 39.3 46.6 39.3 79.6 0 17.7-11.9 51-12.4 52.4-.8 2-2.8 3.3-4.8 3.3z"/></g></g><g><g><path d="m198.9 330.7c-1.1 0-2.2-.4-3.2-1.1-2.1-1.7-2.5-4.9-.7-7l.1-.1c3.5-4.3 7.5-8.2 12.4-11.9 28.7-21.8 68.8-21.8 97.5 0 4.4 3.4 11.8 11.2 12.1 11.5l.1.1c1.9 2 1.8 5.2-.2 7.1s-5.2 1.8-7.1-.2l-.1-.1c-2-2.1-7.7-8-10.9-10.4-25.1-19.1-60.2-19.1-85.4 0-4.2 3.2-7.7 6.5-10.7 10.2l-.1.1c-.9 1.2-2.4 1.8-3.8 1.8z"/></g></g><g><g><path d="m170.8 316.5c-3.5 0-6.9-.9-9.7-2.7-3.7-2.3-6.1-5.9-6.5-9.9l-3.5-32c-.4-4 1.1-8 4.2-11.1 2.8-2.8 6.8-4.6 11-5.1h.5 6.1c2.8 0 5 2.2 5 5s-2.2 5-5 5h-5.8c-1.9.3-3.7 1.1-4.9 2.2-.5.5-1.4 1.6-1.3 2.9l3.5 32c.1 1.3 1.2 2.1 1.9 2.5 1.5.9 3.5 1.3 5.5 1.1l.7-.1c2.7-.3 5.2 1.7 5.5 4.4s-1.7 5.2-4.4 5.5l-.7.1c-.6.2-1.4.2-2.1.2z"/></g></g><g><g><path d="m341.6 316.5c-.7 0-1.4 0-2.1-.1l-.7-.1c-2.7-.3-4.7-2.8-4.4-5.5s2.8-4.7 5.5-4.4l.7.1c2 .2 4-.2 5.5-1.1.6-.4 1.7-1.3 1.9-2.5l3.5-32c.1-1.3-.8-2.3-1.3-2.9-1.2-1.2-2.9-2-4.9-2.2h-5.8c-2.8 0-5-2.2-5-5s2.2-5 5-5h6.1.5c4.3.5 8.2 2.3 11 5.1 3.1 3.1 4.7 7.1 4.2 11.1l-3.5 32c-.4 4-2.8 7.6-6.5 9.9-2.8 1.7-6.2 2.6-9.7 2.6z"/></g></g><g><g><path d="m244 271.7c-.4 0-.8 0-1.2-.1l-40.7-10c-2.7-.7-4.3-3.4-3.7-6 .7-2.7 3.4-4.3 6-3.7l40.7 10c2.7.7 4.3 3.4 3.7 6-.5 2.3-2.5 3.8-4.8 3.8z"/></g></g><g><g><path d="m221 258.5c-.3 0-.6 0-.9.1-4.2.5-7.2 4.3-6.7 8.5.5 3.9 3.8 6.7 7.6 6.7.3 0 .6 0 .9-.1 4.2-.5 7.2-4.3 6.7-8.5-.5-3.8-3.8-6.7-7.6-6.7z"/></g></g><g><g><path d="m268.4 271.7c-2.2 0-4.3-1.5-4.9-3.8-.7-2.7 1-5.4 3.7-6l40.7-10c2.7-.7 5.4 1 6 3.7.7 2.7-1 5.4-3.7 6l-40.7 10c-.3 0-.7.1-1.1.1z"/></g></g><g><g><path d="m291.4 258.5c-3.8 0-7.1 2.8-7.6 6.7-.5 4.2 2.5 8 6.7 8.5.3 0 .6.1.9.1 3.8 0 7.1-2.8 7.6-6.7.5-4.2-2.5-8-6.7-8.5-.3 0-.6-.1-.9-.1z"/></g></g><g><g><circle cx="218.3" cy="288" r="4.4"/></g></g><g><g><path d="m312.5 160.6c-1.6 0-3.1-.7-4.1-2.1-10.5-14.9-31.7-18.6-31.9-18.6-2.7-.5-4.6-3-4.1-5.7s3-4.6 5.7-4.1c1 .2 25.5 4.3 38.5 22.7 1.6 2.3 1.1 5.4-1.2 7-.9.5-1.9.8-2.9.8z" fill="#fff"/></g></g></g></g></svg>