<svg enable-background="new 0 0 512 512" height="512" viewBox="0 0 512 512" width="512" xmlns="http://www.w3.org/2000/svg"><g id="Layer_9"><g><g><g><path d="m341.1 261.5s-3.8-54.6-7.6-62.1-18-29.2-28.5-19-31.8 29-51.8 27.5-44.2-25.2-47.8-27.8-27.3 2.8-29.8 32.2-4.2 45.7-4.2 45.7l-8.6 3.3s-18.3-45-9.4-74.5c8.8-29.5 36.8-72 108.3-75 71.5-2.9 132.7 91.3 79.4 149.7z"/></g></g><g><g><path d="m352.7 263.2-9.4-3.4c.1-.3 11.8-33 11.8-49 0-29.7-11.9-53.8-35.3-71.7-37.9-28.9-90.9-28.9-128.8 0-23.4 17.8-35.3 41.9-35.3 71.7 0 16 11.7 48.7 11.8 49l-9.4 3.4c-.5-1.4-12.4-34.7-12.4-52.4 0-33 13.2-59.8 39.3-79.6 41.5-31.6 99.4-31.6 140.9 0 26 19.8 39.3 46.6 39.3 79.6 0 17.7-12 50.9-12.5 52.4z"/></g></g><g><g><path d="m198.1 182.7c2.8 0 8.3 2.9 15.6 10.9 10.7 11.9 26 18.8 41.8 18.8s31-6.9 41.8-18.8c7.2-8.1 12.8-10.9 15.6-10.9.5 0 1.6 0 3.3 1.7l.7.7c8.4 8.4 11.6 11.6 13.6 24.3 2.4 14.7 2.8 39.7 2.8 94.1 0 1.8 0 3.6-.1 5.4-.6 19.3-5.6 35.9-15 49.4-7.1 10.3-16.5 18.3-27.8 23.9-10.7 5.2-22.7 8-34.9 8s-24.3-2.8-34.9-8c-11.3-5.6-20.7-13.6-27.8-23.9-9.4-13.5-14.4-30.1-15-49.4-.1-1.9-.1-3.7-.1-5.4 0-49.9.4-74.8 2.9-90.6 2.3-15.1 6.3-20.5 14.2-28.4 1.7-1.8 2.7-1.8 3.3-1.8m0-10c-3.6 0-7.1 1.4-10.4 4.7-18.7 18.7-20 29.6-20 126.1 0 1.9 0 3.8.1 5.6.7 22.4 6.9 40.7 16.8 54.8 16.8 24.1 43.8 36.2 70.9 36.2s54.2-12.1 70.9-36.2c9.8-14.1 16.1-32.4 16.8-54.8.1-1.9.1-3.7.1-5.6 0-107.3-1.3-107.3-20-126.1-3.3-3.3-6.8-4.7-10.4-4.7-8.1 0-16.5 7-23 14.2-8.8 9.8-21.2 15.5-34.3 15.5s-25.6-5.7-34.3-15.5c-6.7-7.2-15.1-14.2-23.2-14.2z"/></g></g><g><g><path d="m255.4 330.5c-17.2 0-34.4-5.5-48.7-16.4-4.4-3.4-11.8-11.2-12.1-11.5l-.1-.1c-1.9-2-1.8-5.2.2-7.1s5.2-1.8 7.1.2l.1.1c2 2.1 7.7 8 10.9 10.4 25.1 19.1 60.2 19.1 85.4 0 4.2-3.2 7.7-6.5 10.7-10.2l.1-.1c1.8-2.1 4.9-2.4 7-.7 2.1 1.8 2.4 4.9.7 7l-.1.1c-3.5 4.3-7.5 8.1-12.3 11.8-14.5 11-31.7 16.5-48.9 16.5z"/></g></g><g><g><path d="m173.5 315.3c-8.1 0-15-5.2-15.8-12.3l-3.3-30.7c-.8-7.7 5.8-14.7 14.8-15.7h.5 5.9v10h-5.6c-3.5.5-5.9 2.8-5.7 4.7l3.3 30.7c.2 1.9 3.2 3.7 6.8 3.3l.6-.1 1.1 9.9-.6.1c-.6 0-1.3.1-2 .1z"/></g></g><g><g><path d="m337.4 315.3c-.7 0-1.4 0-2.1-.1l-.6-.1 1.1-9.9.6.1c1.9.2 3.7-.2 5.1-1 .6-.4 1.6-1.2 1.7-2.3l3.3-30.7c.2-1.9-2.2-4.2-5.7-4.7h-5.6v-10h5.9.5c9 1 15.6 8 14.8 15.7l-3.3 30.7c-.4 3.9-2.7 7.4-6.3 9.7-2.8 1.7-6 2.6-9.4 2.6z"/></g></g><g><g><path d="m223.3 263.2c-6.4 0-11.2-3.5-16.9-9.2-2-2-2-5.1 0-7.1s5.1-2 7.1 0c5.2 5.2 7.6 6.3 9.9 6.3 2.2 0 3.7 0 9.8-6.2 1.9-2 5.1-2 7.1-.1s2 5.1.1 7.1c-7 7-11 9.2-17.1 9.2z"/></g></g><g><g><path d="m287.6 263.2c-6.4 0-11.2-3.5-16.9-9.2-2-2-2-5.1 0-7.1s5.1-2 7.1 0c5.2 5.2 7.6 6.3 9.9 6.3 2.2 0 3.7 0 9.8-6.2 1.9-2 5.1-2 7.1-.1s2 5.1.1 7.1c-7.1 7-11 9.2-17.1 9.2z"/></g></g><g><g><circle cx="230.9" cy="287.7" r="4.8"/></g></g><g><g><path d="m307.8 154.7c-1.2 0-2.5-.5-3.4-1.4-13.1-12.4-30.5-14.2-30.7-14.2-2.7-.3-4.8-2.7-4.5-5.5.3-2.7 2.7-4.8 5.5-4.5.9.1 21.1 2.2 36.6 16.9 2 1.9 2.1 5.1.2 7.1-1.1 1.1-2.4 1.6-3.7 1.6z" fill="#fff"/></g></g><g><g><path d="m323.5 170.3c-1.4 0-2.8-.6-3.8-1.7l-3.3-3.9c-1.8-2.1-1.6-5.3.5-7 2.1-1.8 5.3-1.6 7 .5l3.3 3.9c1.8 2.1 1.6 5.3-.5 7-.9.8-2 1.2-3.2 1.2z" fill="#fff"/></g></g></g></g></svg>