<svg enable-background="new 0 0 512 512" height="512" viewBox="0 0 512 512" width="512" xmlns="http://www.w3.org/2000/svg"><g id="Layer_9"><g><g><g><path d="m179.8 313.2s-6.1 9.5-2 23.2c4.2 13.7 19.7 56.4 79.5 58.3 59.8 2 80.3-49.2 81.3-74.9-1.4-9-1.4-9-1.4-9s-11.1 32-26.1 33.4c-17.4-18.8-32.5-26.3-56.1-26.3s-57.7 27.6-57.7 27.6-20.3-23-17.5-32.3z"/></g></g><g><g><path d="m349.3 261.4-9.5-1s2.1-91.5-28.4-80.5c-29.1 14.6-19 27-59 30-29-10-44.6-38.3-56-30.9s-26.5 31.4-22.5 75.4c-6.4 6-8.8 5-8.8 5s-19-52.5-9.1-78.5 41-74.8 105-68.4 127.7 54.4 88.3 148.9z"/></g></g><g><g><path d="m199.4 182.7c2.8 0 8.3 2.9 15.6 10.9 10.7 11.9 26 18.8 41.8 18.8s31-6.9 41.8-18.8c7.2-8.1 12.8-10.9 15.6-10.9.5 0 1.6 0 3.3 1.7l.7.7c8.4 8.4 11.6 11.6 13.6 24.3 2.4 14.7 2.8 39.7 2.8 94.1 0 1.8 0 3.6-.1 5.4-.6 19.3-5.6 35.9-15 49.4-7.1 10.3-16.5 18.3-27.8 23.9-10.7 5.2-22.7 8-34.9 8s-24.3-2.8-34.9-8c-11.3-5.6-20.7-13.6-27.8-23.9-9.4-13.5-14.4-30.1-15-49.4-.1-1.9-.1-3.7-.1-5.4 0-54.3.4-79.4 2.8-94.1 2.1-12.7 5.2-15.8 13.6-24.3l.7-.7c1.7-1.7 2.8-1.7 3.3-1.7m0-10c-3.6 0-7.1 1.4-10.4 4.7-18.7 18.7-20 18.7-20 126.1 0 1.9 0 3.8.1 5.6.7 22.4 6.9 40.7 16.8 54.8 16.8 24.1 43.8 36.2 70.9 36.2s54.2-12.1 70.9-36.2c9.8-14.1 16.1-32.4 16.8-54.8.1-1.9.1-3.7.1-5.6 0-107.3-1.3-107.3-20-126.1-3.3-3.3-6.8-4.7-10.4-4.7-8.1 0-16.5 7-23 14.2-8.8 9.8-21.2 15.5-34.3 15.5s-25.6-5.7-34.3-15.5c-6.7-7.2-15.1-14.2-23.2-14.2z"/></g></g><g><g><path d="m159.5 263.1c-.5-1.4-12.4-34.7-12.4-52.4 0-33 13.2-59.8 39.3-79.6 41.5-31.6 99.4-31.6 140.9 0 26 19.8 39.3 46.6 39.3 79.6 0 17.7-11.9 51-12.4 52.4l-9.4-3.4c.1-.3 11.8-33 11.8-49 0-29.7-11.9-53.8-35.3-71.7-37.9-28.9-90.9-28.9-128.8 0-23.6 17.9-35.5 42-35.5 71.7 0 16 11.7 48.7 11.8 49z"/></g></g><g><g><path d="m199.9 352.8-3.9-3.7c-11.6-11-27.1-28.7-27.1-55 0-2.8 2.2-5 5-5s5 2.2 5 5c0 19.9 10.7 34.3 20.2 44.1 2.6-2.8 5.5-5.3 8.8-7.8 28.7-21.8 68.8-21.8 97.5 0 2.6 2 6.1 5.4 8.7 8 9.6-9.8 20.4-24.3 20.4-44.3 0-2.8 2.2-5 5-5s5 2.2 5 5c0 26.3-15.4 44-27.1 55l-3.7 3.5-3.6-3.8c-2-2.1-7.7-8-10.8-10.4-25.1-19.1-60.2-19.1-85.4 0-4.2 3.2-7.7 6.5-10.7 10.2z"/></g></g><g><g><path d="m317.1 264.4h-120.7c-2.8 0-5-2.2-5-5s2.2-5 5-5h120.7c2.8 0 5 2.2 5 5s-2.3 5-5 5z"/></g></g><g><g><path d="m267.6 348.4h-21.7c-2.8 0-5-2.2-5-5s2.2-5 5-5h21.7c2.8 0 5 2.2 5 5s-2.3 5-5 5z" fill="#fff"/></g></g><g><g><path d="m299.6 280.9h-21.7c-2.8 0-5-2.2-5-5s2.2-5 5-5h21.7c2.8 0 5 2.2 5 5s-2.3 5-5 5z"/></g></g><g><g><path d="m235.6 280.9h-21.7c-2.8 0-5-2.2-5-5s2.2-5 5-5h21.7c2.8 0 5 2.2 5 5s-2.3 5-5 5z"/></g></g><g><g><path d="m171.4 316.3c-3.5 0-6.9-.9-9.7-2.7-3.7-2.3-6.1-5.9-6.5-9.9l-3.5-32c-.9-7.9 6-15.1 15.3-16.1h.5 6.1v10h-5.8c-3.8.5-6.4 3.1-6.1 5.1l3.5 32c.1 1.3 1.2 2.1 1.9 2.5 1.5.9 3.5 1.3 5.5 1.1l.7-.1 1.1 9.9-.7.1c-.9 0-1.6.1-2.3.1z"/></g></g><g><g><path d="m342.1 316.3c-.7 0-1.4 0-2.1-.1l-.7-.1 1.1-9.9.7.1c2 .2 4-.2 5.5-1.1.6-.4 1.7-1.3 1.9-2.5l3.5-32c.1-1.3-.8-2.4-1.3-2.9-1.2-1.2-2.9-2-4.9-2.2h-5.8v-10h6.1.5c4.3.5 8.2 2.3 11 5.1 3.1 3.1 4.7 7.1 4.2 11.1l-3.5 32c-.4 4-2.8 7.6-6.5 9.9-2.8 1.6-6.2 2.6-9.7 2.6z"/></g></g><g><g><circle cx="225.6" cy="306.7" r="4.7"/></g></g><g><g><path d="m302.5 151.3c-1 0-2-.3-2.9-.9-15.2-10.9-29.8-11.8-29.9-11.8-2.8-.1-4.9-2.5-4.7-5.3.1-2.8 2.5-4.9 5.3-4.7.7 0 17.7 1.1 35.3 13.7 2.2 1.6 2.8 4.7 1.1 7-1.1 1.3-2.6 2-4.2 2z" fill="#fff"/></g></g><g><g><path d="m318.9 165.3c-1.2 0-2.3-.4-3.3-1.2l-6.2-5.5c-2.1-1.8-2.3-5-.5-7.1s5-2.3 7.1-.5l6.2 5.5c2.1 1.8 2.3 5 .5 7.1-1 1.2-2.4 1.7-3.8 1.7z" fill="#fff"/></g></g></g></g></svg>