<svg enable-background="new 0 0 512 512" height="512" viewBox="0 0 512 512" width="512" xmlns="http://www.w3.org/2000/svg"><g id="Layer_9"><g><g><g><path d="m340.9 267.6s5.6-69-21.4-88.5c-20 10-21.5 17-60.5 16.2s-55.1-3.7-64.1-23.2c-10.4 18.5-26.9 35.5-21.4 92.5-18.2-36.1-25.6-41.5-22.1-70.5s34.6-83.5 107.1-82 137.3 68.5 82.4 155.5z"/></g></g><g><g><path d="m194.2 183c3.2 3.8 7.3 6.9 12.4 9.4 11.3 5.5 27.5 8.1 51 8.1 22.3 0 37.9-2.3 49.1-7.2 5.1-2.2 9.3-5 12.6-8.4 8.9 13.3 13.9 29.8 14.5 48.6.1 1.9.1 3.7.1 5.4 0 54.3-.4 79.4-2.8 94.1-2.1 12.7-5.2 15.8-13.6 24.3l-.7.7c-6 6.1-13.6 12.5-22.5 19.2-10.9 8.2-24.5 12.8-38.1 12.8-13.7 0-27.2-4.5-38.1-12.8-8.9-6.7-16.5-13.2-22.5-19.2l-.7-.7c-8.4-8.4-11.6-11.6-13.6-24.3-2.4-14.7-2.8-39.7-2.8-94.1 0-1.7 0-3.5.1-5.4.4-19.8 5.8-37 15.6-50.5m2.4-17.8c-16.2 15.2-27.2 37.8-28.1 68 0 1.9-.1 3.7-.1 5.7 0 107.3 1.3 107.3 20 126.1 7.4 7.4 15.9 14.4 23.6 20.2 12.7 9.6 28.2 14.8 44.1 14.8 15.9 0 31.4-5.2 44.1-14.8 7.7-5.8 16.2-12.8 23.6-20.2 18.7-18.7 20-18.7 20-126.1 0-1.9 0-3.8-.1-5.7-.9-28.6-10.9-50.5-25.7-65.6-3.9 13.6-16.9 22.8-60.5 22.8-45.9 0-57.8-10.4-60.9-25.2z"/></g></g><g><g><path d="m343.2 274.4-9-4.4c6-12.1 21.6-46.5 21.6-59.5 0-29.7-11.9-53.8-35.3-71.7-37.9-28.9-90.9-28.9-128.8 0-23.4 17.8-35.3 41.9-35.3 71.7 0 13 15.6 47.4 21.6 59.5l-9 4.4c-2.3-4.7-22.6-46.2-22.6-63.9 0-33 13.2-59.8 39.3-79.6 41.5-31.6 99.4-31.6 140.9 0 26 19.8 39.3 46.6 39.3 79.6 0 17.7-20.4 59.2-22.7 63.9z"/></g></g><g><g><path d="m317.3 247.2h-44.2c-2.8 0-5-2.2-5-5s2.2-5 5-5h44.2c2.8 0 5 2.2 5 5s-2.2 5-5 5z"/></g></g><g><g><path d="m239.2 247.2h-44.2c-2.8 0-5-2.2-5-5s2.2-5 5-5h44.2c2.8 0 5 2.2 5 5s-2.3 5-5 5z"/></g></g><g><g><path d="m246 265.3h20.8v10h-20.8z"/></g></g><g><g><path d="m221.5 273.8h-17.9c0 5 4 9 9 9s8.9-4 8.9-9z"/></g></g><g><g><path d="m226.1 262.4c6.6 0 12 5.4 12 12v11c0 6.6-5.4 12-12 12h-27.3c-6.6 0-12-5.4-12-12v-11c0-6.6 5.4-12 12-12zm0-10h-27.3c-12.1 0-22 9.9-22 22v11c0 12.1 9.9 22 22 22h27.3c12.1 0 22-9.9 22-22v-11c0-12.1-9.8-22-22-22z"/></g></g><g><g><path d="m308.8 273.8h-17.9c0 5 4 9 9 9 4.8 0 8.9-4 8.9-9z"/></g></g><g><g><path d="m313.4 262.4c6.6 0 12 5.4 12 12v11c0 6.6-5.4 12-12 12h-27.3c-6.6 0-12-5.4-12-12v-11c0-6.6 5.4-12 12-12zm0-10h-27.3c-12.1 0-22 9.9-22 22v11c0 12.1 9.9 22 22 22h27.3c12.1 0 22-9.9 22-22v-11c0-12.1-9.9-22-22-22z"/></g></g><g><g><path d="m256.1 337c-4.2 0-7.6 3.4-7.6 7.6s3.4 7.6 7.6 7.6 7.6-3.4 7.6-7.6c.1-4.2-3.3-7.6-7.6-7.6z"/></g></g><g><g><path d="m174.7 324.5c-8.1 0-14.9-5.2-15.7-12.3l-3.3-30.5c-.4-3.9 1.1-7.8 4.1-10.8 2.8-2.7 6.5-4.4 10.7-4.9l1.1 9.9c-1.9.2-3.6 1-4.7 2.1-.5.5-1.3 1.5-1.2 2.6l3.3 30.5c.2 1.9 3.1 3.7 6.7 3.3l.6-.1 1.1 9.9-.6.1c-.8.1-1.4.2-2.1.2z"/></g></g><g><g><path d="m337.6 324.5c-.7 0-1.4 0-2.1-.1l-.6-.1 1.1-9.9.6.1c3.6.4 6.5-1.4 6.8-3.3l3.3-30.5c.1-1.1-.7-2.1-1.2-2.6-1.1-1.1-2.9-1.9-4.7-2.1l1.1-9.9c4.1.4 7.9 2.2 10.7 4.9 3 3 4.5 6.9 4.1 10.8l-3.3 30.5c-.9 7-7.7 12.2-15.8 12.2z"/></g></g><g><g><circle cx="224.3" cy="320.1" r="3.1"/></g></g><g><g><path d="m275.7 137.1c-.4 0-.8-.1-1.3-.2l-3.2-.8c-2.7-.7-4.3-3.4-3.6-6.1s3.4-4.3 6.1-3.6l3.2.8c2.7.7 4.3 3.4 3.6 6.1-.6 2.3-2.6 3.8-4.8 3.8z" fill="#fff"/></g></g><g><g><path d="m290 136.8s20.6 7.7 29 17"/></g><g><path d="m319 158.8c-1.4 0-2.7-.6-3.7-1.7-6.3-7-21.6-13.7-27-15.7-2.6-1-3.9-3.8-2.9-6.4s3.8-3.9 6.4-2.9c.9.3 21.8 8.2 31 18.4 1.8 2.1 1.7 5.2-.4 7.1-1 .8-2.2 1.2-3.4 1.2z" fill="#fff"/></g></g></g></g></svg>