<svg enable-background="new 0 0 512 512" height="512" viewBox="0 0 512 512" width="512" xmlns="http://www.w3.org/2000/svg"><g id="Layer_9"><g><g><g><path d="m342 284.2s21.3-58.7 18.5-78.5-10.2-75.9-80.9-90.9c0 0-62.3-10.7-98.4 26.2s-32.8 66.5-13.9 134.9c4.5-8.6 7.5-5.6 7.5-5.6s-4.3-43 1.7-58c16 12.3 49 40.7 90 34.7s69.7-41 69.7-41 1.7 65.9 3 74.7c1.2 8.6 2.8 3.5 2.8 3.5z"/></g></g><g><g><path d="m179.5 219.9c7.1 7.6 15.4 14.1 24.5 19.2 15.8 9 33.7 13.7 52 13.7 18.2 0 36.2-4.7 52-13.7 9.1-5.2 17.3-11.7 24.5-19.2.7 4.4 1.1 9 1.2 13.7.1 1.7.1 3.5.1 5.3 0 17.6 0 30.1-.1 40.3-.3 33.6-1.3 49.6-3.8 59.2-2.1 8.4-5.2 11.4-12.5 18.8l-.7.7c-6.5 6.5-14.7 13.4-24.4 20.6-10 7.4-21.9 11.4-34.3 11.4h-4c-12.4 0-24.3-3.9-34.3-11.4-9.7-7.2-17.9-14.1-24.4-20.6l-.7-.7c-7.3-7.4-10.4-10.4-12.5-18.8-2.4-9.6-3.4-25.6-3.8-59.2-.1-10.3-.1-22.7-.1-40.3 0-1.7 0-3.5.1-5.4.1-4.7.5-9.2 1.2-13.6m157.4-22.2c-16.8 27.1-46.8 45.1-81 45.1s-64.2-18-81-45.1c-3.9 10.4-6.3 22.2-6.7 35.5 0 1.9-.1 3.7-.1 5.7 0 15.6 0 29 .1 40.4.6 67.3 3.9 69.6 19.9 85.6 8 8 17.4 15.6 25.6 21.6 11.7 8.6 25.8 13.3 40.3 13.3h3.8c14.5 0 28.6-4.7 40.3-13.3 8.1-6 17.6-13.6 25.6-21.6 15.9-16 19.2-18.3 19.9-85.6.1-11.5.1-24.8.1-40.4 0-1.9 0-3.8-.1-5.7-.4-13.3-2.8-25.2-6.7-35.5z"/></g></g><g><g><path d="m343.3 296.7-9.5-3.1c6.1-18.6 21.9-69.8 21.9-83.2 0-29.7-11.9-53.8-35.3-71.7-37.9-28.9-90.9-28.9-128.8 0-23.4 17.8-35.3 41.9-35.3 71.7 0 13.3 15.8 64.6 21.9 83.2l-9.5 3.1c-.9-2.8-22.4-68.6-22.4-86.3 0-33 13.2-59.8 39.3-79.6 41.5-31.6 99.4-31.6 140.9 0 26 19.8 39.3 46.6 39.3 79.6-.2 17.7-21.6 83.5-22.5 86.3z"/></g></g><g><g><path d="m324.9 275.2h-54.3c-2.8 0-5-2.2-5-5s2.2-5 5-5h54.3c2.8 0 5 2.2 5 5s-2.2 5-5 5z"/></g></g><g><g><path d="m308.8 273.1h-22c0 6.1 4.9 11 11 11 6 .1 11-4.9 11-11z"/></g></g><g><g><path d="m241.2 275.2h-54.2c-2.8 0-5-2.2-5-5s2.2-5 5-5h54.3c2.8 0 5 2.2 5 5s-2.3 5-5.1 5z"/></g></g><g><g><path d="m225.1 273.1h-22c0 6.1 4.9 11 11 11 6.1.1 11-4.9 11-11z"/></g></g><g><g><path d="m293.4 366.2c-2.8 0-5-2.2-5-5 0-17.9-14.6-32.5-32.5-32.5s-32.5 14.6-32.5 32.5c0 2.8-2.2 5-5 5s-5-2.2-5-5c0-23.4 19.1-42.5 42.5-42.5s42.5 19.1 42.5 42.5c0 2.7-2.2 5-5 5z"/></g></g><g><g><circle cx="226.9" cy="313.4" r="4.6"/></g></g><g><g><path d="m318.8 168.9c-1.6 0-3.1-.7-4.1-2.1-14.4-20.7-45.1-24.9-45.4-25-2.7-.4-4.7-2.9-4.3-5.6s2.9-4.7 5.6-4.3c1.4.2 35.3 4.7 52.3 29.2 1.6 2.3 1 5.4-1.3 7-.8.5-1.8.8-2.8.8z" fill="#fff"/></g></g><g><g><path d="m327.2 181.6c-1.7 0-3.4-.9-4.3-2.5l-1.4-2.4c-1.4-2.4-.6-5.5 1.8-6.8 2.4-1.4 5.4-.6 6.8 1.8l1.4 2.4c1.4 2.4.6 5.5-1.8 6.8-.7.5-1.6.7-2.5.7z" fill="#fff"/></g></g></g></g></svg>