<svg enable-background="new 0 0 512 512" height="512" viewBox="0 0 512 512" width="512" xmlns="http://www.w3.org/2000/svg"><g id="Layer_9"><g><g><g><path d="m348.4 276.2-9.1 2.5v-43.5l-30.7-63.5h-105.6l-28.4 62v39.5l-11.4 3s-13.3-49.4-11.6-76.7 29.7-86.8 106.7-87.3c43-.5 111.6 33.9 102.2 117-12.1 47-12.1 47-12.1 47z"/></g></g><g><g><path d="m303.5 176.8c1.8 0 3.5 1.1 4.2 2.7 2.7 6 6.6 14.1 10.6 22.7 5.6 12 13.2 28 15.1 32.7v3.8c0 54.3-.4 79.4-2.8 94.1-2.1 12.7-5.2 15.8-13.6 24.3l-.7.7c-14.6 14.6-34.4 27.9-40.8 32h-39.2c-.3 0-.6-.1-.9-.2-7.4-4.8-26.3-17.6-40.4-31.7l-.7-.7c-8.4-8.4-11.6-11.6-13.6-24.3-2.4-14.7-2.8-39.7-2.8-94.1 0-1.2 0-2.5 0-3.8 1.9-4.7 9.5-20.7 15.1-32.7 4.1-8.6 7.9-16.8 10.6-22.7.8-1.6 2.4-2.7 4.2-2.7h95.7m0-10.1h-95.4c-5.7 0-10.9 3.3-13.3 8.5-8.1 17.6-26.6 56.1-26.7 57.8 0 1.9-.1 3.7-.1 5.7 0 107.3 1.3 107.3 20 126 14.9 15 34.7 28.3 42.1 33.1 1.9 1.2 4.1 1.9 6.3 1.9h40.9c.8 0 1.7-.2 2.4-.7 5.2-3.3 27.5-17.8 43.9-34.3 18.7-18.7 20-18.7 20-126 0-1.9 0-3.8-.1-5.7 0-1.7-18.6-40.2-26.7-57.8-2.4-5.1-7.6-8.5-13.3-8.5z"/></g></g><g><g><path d="m353.2 277.4-9.7-2.4c.1-.5 12-48.2 12-64.5 0-29.7-11.9-53.8-35.3-71.7-37.9-28.9-90.9-28.9-128.8 0-23.4 17.8-35.3 41.9-35.3 71.7 0 16.3 11.9 64 12 64.5l-9.7 2.4c-.5-2-12.3-49.4-12.3-66.9 0-33 13.2-59.8 39.3-79.6 41.5-31.6 99.4-31.6 140.9 0 26 19.8 39.3 46.6 39.3 79.6-.1 17.4-11.8 64.9-12.4 66.9z"/></g></g><g><g><path d="m324.8 252.7h-54.3c-2.8 0-5-2.2-5-5s2.2-5 5-5h54.3c2.8 0 5 2.2 5 5s-2.3 5-5 5z"/></g></g><g><g><path d="m308.7 259.2h-22c0 6.1 4.9 11 11 11 6 0 11-5 11-11z"/></g></g><g><g><path d="m241.1 261.2h-54.3c-2.8 0-5-2.2-5-5s2.2-5 5-5h54.3c2.8 0 5 2.2 5 5s-2.2 5-5 5z"/></g></g><g><g><path d="m225 259.2h-22c0 6.1 4.9 11 11 11s11-5 11-11z"/></g></g><g><g><path d="m253.1 359.4c-25.7 0-49.8-15.9-59-41.4-.9-2.6.4-5.5 3-6.4s5.5.4 6.4 3c4.8 13.2 14.4 23.8 27.1 29.8s27 6.7 40.3 1.9c2.6-.9 5.5.4 6.4 3s-.4 5.5-3 6.4c-7 2.5-14.2 3.7-21.2 3.7z"/></g></g><g><g><path d="m172.4 333.7c-8.2 0-15.2-5.3-16-12.4l-3.4-31.3c-.8-7.8 5.9-14.9 15-15.9l1.1 9.9c-3.8.4-6.4 2.9-6.1 4.9l3.4 31.3c.2 2 3.3 3.9 7 3.5l.6-.1 1.1 9.9-.6.1c-.7 0-1.4.1-2.1.1z"/></g></g><g><g><path d="m339.2 333.7c-.7 0-1.4 0-2.1-.1l-.6-.1 1.1-9.9.6.1c3.8.4 6.8-1.5 7-3.5l3.4-31.3c.1-1.2-.7-2.2-1.2-2.7-1.2-1.2-3-2-4.9-2.2l1.1-9.9c4.2.5 8 2.2 10.8 5 3.1 3 4.6 7 4.2 10.9l-3.4 31.3c-.8 7.1-7.7 12.4-16 12.4z"/></g></g><g><g><circle cx="228" cy="313.4" r="4.4"/></g></g><g><g><path d="m237.4 157.1h-37.4c-2.8 0-5-2.2-5-5s2.2-5 5-5h37.4c2.8 0 5 2.2 5 5s-2.3 5-5 5z"/></g></g><g><g><path d="m309.3 153.8c-1.4 0-2.7-.6-3.7-1.7-12.5-14-38.9-16.7-39.2-16.7-2.7-.3-4.8-2.7-4.5-5.4.3-2.8 2.7-4.8 5.4-4.5 1.2.1 30.6 3.1 45.7 20 1.8 2.1 1.7 5.2-.4 7.1-.9.8-2.1 1.2-3.3 1.2z" fill="#fff"/></g></g><g><g><path d="m320.3 165.8c-1.4 0-2.8-.6-3.8-1.7l-2.4-2.8c-1.8-2.1-1.6-5.2.5-7.1 2.1-1.8 5.2-1.6 7.1.5l2.4 2.8c1.8 2.1 1.6 5.2-.5 7.1-1 .8-2.2 1.2-3.3 1.2z" fill="#fff"/></g></g></g></g></svg>