<svg enable-background="new 0 0 512 512" height="512" viewBox="0 0 512 512" width="512" xmlns="http://www.w3.org/2000/svg"><g id="Layer_9"><g><g><g><path d="m339.4 131.5c-11.6-8.8-24.3-15.5-37.6-20.1-.1.1-.2.3-.3.5-10.5-4.3-25.9-9.3-47.5-13.2-121.7 4.7-137.4 123.4-137.4 123.4s-3 81.9-1.3 109 36.8 38.4 36.8 38.4l17.6-5.7c-14.7-20.5-18.3-43-18.7-76.7-.4-33.8 19.3-43.3 23-45.7 2.1-1.3 18.3-2.4 32.6-3.1-.3 1-.1 1.6.6 1.6 22 0 111.9 1.6 111.9 1.6s35.2.9 34.8 45.7c-.5 44.8-9.2 72.7-19.3 77.7l7.6 6.3h14.7s32.7-11.5 32.7-32.6v-105.6s5.1-59.7-50.2-101.5z"/></g></g><g><g><path d="m352.4 371.9h-19.6v-10h19.6c17.9 0 32.5-14.6 32.5-32.5v-92.7c0-72.6-59.1-131.6-131.6-131.6s-131.6 59.1-131.6 131.6v92.7c0 17.9 14.6 32.5 32.5 32.5h19.6v10h-19.6c-23.4 0-42.5-19.1-42.5-42.5v-92.7c0-78.1 63.5-141.6 141.6-141.6s141.6 63.5 141.6 141.6v92.7c0 23.5-19 42.5-42.5 42.5z"/></g></g><g><g><path d="m253.3 411.9c-57.4 0-104.2-46.7-104.2-104.2v-31.6c0-24.2 19.7-43.9 43.9-43.9h120.5c24.2 0 43.9 19.7 43.9 43.9v31.6c0 57.5-46.7 104.2-104.1 104.2zm-60.3-169.6c-18.7 0-33.9 15.2-33.9 33.9v31.6c0 51.9 42.2 94.2 94.2 94.2s94.2-42.2 94.2-94.2v-31.6c0-18.7-15.2-33.9-33.9-33.9z"/></g></g><g><g><circle cx="298.4" cy="309.2" r="4.4"/></g></g><g><g><path d="m191.5 289.6c-1.6 0-3.1-.7-4.1-2.1-1.6-2.3-1.1-5.4 1.2-7 7.6-5.3 13.9-8.7 21.9-8.7 7.7 0 12.6 2 21.9 8.7 2.2 1.6 2.7 4.7 1.1 7-1.6 2.2-4.7 2.7-7 1.1-8.5-6.2-11.4-6.8-16-6.8-4.7 0-8.9 1.8-16.1 6.8-.9.7-1.9 1-2.9 1z"/></g></g><g><g><path d="m282.6 289.6c-1.6 0-3.1-.7-4.1-2.1-1.6-2.3-1.1-5.4 1.2-7 7.6-5.3 13.9-8.7 21.9-8.7 7.7 0 12.6 2 21.9 8.7 2.2 1.6 2.7 4.7 1.1 7-1.6 2.2-4.7 2.7-7 1.1-8.5-6.2-11.4-6.8-16-6.8-4.7 0-8.9 1.8-16.1 6.8-.9.7-1.9 1-2.9 1z"/></g></g><g><g><path d="m253.3 347.3c-10.1 0-16.5-3.8-28.5-17.1-1.8-2.1-1.7-5.2.4-7.1 2.1-1.8 5.2-1.7 7.1.4 11.3 12.5 15.1 13.8 21.1 13.8 6.1 0 11.6-3.6 21.1-13.9 1.9-2 5-2.1 7.1-.3 2 1.9 2.1 5 .3 7.1-9.9 10.5-18.1 17.1-28.6 17.1z"/></g></g><g><g><path d="m190.9 314.2h-14.2c-2.8 0-5-2.2-5-5s2.2-5 5-5h14.2c2.8 0 5 2.2 5 5s-2.2 5-5 5z"/></g></g><g><g><path d="m335.3 314.2h-14.2c-2.8 0-5-2.2-5-5s2.2-5 5-5h14.2c2.8 0 5 2.2 5 5s-2.2 5-5 5z"/></g></g><g><g><path d="m182.4 243.9c-2.8 0-5-2.2-5-5 0-19.1 7.4-37.1 20.9-50.6l11.9-11.9c2-2 5.1-2 7.1 0s2 5.1 0 7.1l-11.9 11.9c-11.6 11.6-18 27.1-18 43.5 0 2.8-2.3 5-5 5z"/></g></g><g><g><path d="m207.3 238.6c-2.8 0-5-2.2-5-5 0-8.6 3.4-16.7 9.4-22.8l4.9-4.9c2-2 5.1-2 7.1 0s2 5.1 0 7.1l-4.9 4.9c-4.2 4.2-6.5 9.8-6.5 15.7 0 2.7-2.2 5-5 5z"/></g></g><g><g><path d="m357.8 214.4c-2.3 0-4.4-1.6-4.9-4-8.3-38.8-53-59.4-53.5-59.6-2.5-1.1-3.6-4.1-2.5-6.6s4.1-3.6 6.6-2.5c2 .9 49.8 22.9 59.2 66.7.6 2.7-1.1 5.4-3.8 5.9-.4.1-.7.1-1.1.1z" fill="#fff"/></g></g><g><g><path d="m361.6 243.9c-2.7 0-4.9-2.1-5-4.9l-.3-9c-.1-2.8 2.1-5.1 4.9-5.1s5.1 2.1 5.1 4.9l.3 9c.1 2.8-2.1 5.1-4.9 5.1z" fill="#fff"/></g></g></g></g></svg>