<svg xmlns="http://www.w3.org/2000/svg" width="65.506" height="65.502" viewBox="0 0 65.506 65.502">
  <g id="delivery" transform="translate(-341.045 -141.449)">
    <path id="Path_304" data-name="Path 304" d="M403.984,171.423,398.8,169.2h-14a4,4,0,0,1-4-4v-13h-5v36h25.753a3,3,0,0,0,2.121-.879l1.243-1.242a3,3,0,0,0,.88-2.122v-9.778A3,3,0,0,0,403.984,171.423Z" fill="#fff6db"/>
    <path id="Path_305" data-name="Path 305" d="M398.589,171.683,392.8,169.2h-8a4,4,0,0,1-4-4v-13h-5v36H396.8l2.416-2.414a2,2,0,0,0,.586-1.415V173.522A2,2,0,0,0,398.589,171.683Z" fill="#fff"/>
    <path id="Path_306" data-name="Path 306" d="M401.558,188.952H375.8a.75.75,0,0,1-.75-.75v-36a.75.75,0,0,1,.75-.75h5a.75.75,0,0,1,.75.75v13a3.254,3.254,0,0,0,3.25,3.25h14a.75.75,0,0,1,.3.061l5.181,2.22a3.748,3.748,0,0,1,2.273,3.448v9.778a3.725,3.725,0,0,1-1.1,2.651l-1.244,1.245A3.729,3.729,0,0,1,401.558,188.952Zm-25-1.5h25a2.236,2.236,0,0,0,1.59-.658l1.244-1.244a2.235,2.235,0,0,0,.659-1.591v-9.778a2.249,2.249,0,0,0-1.363-2.069h0l-5.04-2.16H384.8a4.756,4.756,0,0,1-4.75-4.75v-12.25h-3.5Z" fill="#856417"/>
    <path id="Path_307" data-name="Path 307" d="M384.8,169.2h14l-7.746-13.66a6,6,0,0,0-5.379-3.34H380.8v13A4,4,0,0,0,384.8,169.2Z" fill="#fff"/>
    <path id="Path_308" data-name="Path 308" d="M391.055,155.542a6,6,0,0,0-5.379-3.34H380.8v.01a5.992,5.992,0,0,1,5.253,3.33L393.8,169.2h5Z" fill="#fff6db"/>
    <path id="Path_309" data-name="Path 309" d="M398.8,169.952h-14a4.756,4.756,0,0,1-4.75-4.75v-13a.75.75,0,0,1,.75-.75h4.875a6.707,6.707,0,0,1,6.05,3.758l7.728,13.622a.75.75,0,0,1-.653,1.12Zm-17.25-17V165.2a3.254,3.254,0,0,0,3.25,3.25h12.713l-7.112-12.54a5.236,5.236,0,0,0-4.726-2.96Z" fill="#856417"/>
    <path id="Path_310" data-name="Path 310" d="M386.8,174.952h-4a.75.75,0,0,1,0-1.5h4a.75.75,0,0,1,0,1.5Z" fill="#856417"/>
    <path id="Path_311" data-name="Path 311" d="M395.8,176.2l3,5h7v-5Z" fill="#fff"/>
    <path id="Path_312" data-name="Path 312" d="M405.8,181.951h-7a.746.746,0,0,1-.642-.364l-3-5a.749.749,0,0,1,.642-1.136h10a.75.75,0,0,1,.75.75v5A.75.75,0,0,1,405.8,181.951Zm-6.574-1.5h5.824v-3.5h-7.924Z" fill="#856417"/>
    <path id="Rectangle_32" data-name="Rectangle 32" d="M0,0H34a0,0,0,0,1,0,0V12a0,0,0,0,1,0,0H4A4,4,0,0,1,0,8V0A0,0,0,0,1,0,0Z" transform="translate(341.799 176.202)" fill="#fff6db"/>
    <path id="Rectangle_33" data-name="Rectangle 33" d="M0,0H29a0,0,0,0,1,0,0V7a1,1,0,0,1-1,1H0A0,0,0,0,1,0,8V0A0,0,0,0,1,0,0Z" transform="translate(341.801 176.202)" fill="#fff"/>
    <path id="Path_313" data-name="Path 313" d="M375.8,188.952h-30a4.756,4.756,0,0,1-4.75-4.75v-8a.75.75,0,0,1,.75-.75h34a.75.75,0,0,1,.75.75v12A.75.75,0,0,1,375.8,188.952Zm-33.25-12v7.25a3.254,3.254,0,0,0,3.25,3.25h29.25v-10.5Z" fill="#856417"/>
    <path id="Path_314" data-name="Path 314" d="M341.8,176.2v5h5l1-5Z" fill="#fff6db"/>
    <path id="Path_315" data-name="Path 315" d="M346.8,181.951h-5a.75.75,0,0,1-.75-.75v-5a.75.75,0,0,1,.75-.75h6a.75.75,0,0,1,.736.9l-1,5A.752.752,0,0,1,346.8,181.951Zm-4.249-1.5h3.634l.7-3.5h-4.334Z" fill="#856417"/>
    <path id="Rectangle_34" data-name="Rectangle 34" d="M2,0H32a2,2,0,0,1,2,2V34a0,0,0,0,1,0,0H0a0,0,0,0,1,0,0V2A2,2,0,0,1,2,0Z" transform="translate(341.799 142.2)" fill="#fff6db"/>
    <path id="Rectangle_35" data-name="Rectangle 35" d="M2,0H29a0,0,0,0,1,0,0V27a2,2,0,0,1-2,2H0a0,0,0,0,1,0,0V2A2,2,0,0,1,2,0Z" transform="translate(341.799 142.2)" fill="#fff"/>
    <path id="Path_316" data-name="Path 316" d="M375.8,176.95h-34a.75.75,0,0,1-.75-.75v-32a2.754,2.754,0,0,1,2.75-2.75h30a2.753,2.753,0,0,1,2.75,2.75v32A.75.75,0,0,1,375.8,176.95Zm-33.251-1.5h32.5V144.2a1.251,1.251,0,0,0-1.25-1.25h-30a1.252,1.252,0,0,0-1.25,1.25Z" fill="#856417"/>
    <path id="Path_317" data-name="Path 317" d="M358.8,171.2h0a2.25,2.25,0,0,1-2.25-2.25v-19.5a2.25,2.25,0,0,1,2.25-2.25h0a2.25,2.25,0,0,1,2.25,2.25v19.5A2.25,2.25,0,0,1,358.8,171.2Z" fill="#fff"/>
    <path id="Path_318" data-name="Path 318" d="M358.8,171.95a3,3,0,0,1-3-3v-19.5a3,3,0,0,1,6,0v19.5A3,3,0,0,1,358.8,171.95Zm0-24a1.5,1.5,0,0,0-1.5,1.5v19.5a1.5,1.5,0,0,0,3,0v-19.5A1.5,1.5,0,0,0,358.8,147.95Z" fill="#856417"/>
    <path id="Path_319" data-name="Path 319" d="M349.3,171.2h0a2.251,2.251,0,0,1-2.25-2.25v-19.5a2.25,2.25,0,0,1,2.25-2.25h0a2.249,2.249,0,0,1,2.25,2.25v19.5A2.25,2.25,0,0,1,349.3,171.2Z" fill="#fff"/>
    <path id="Path_320" data-name="Path 320" d="M349.3,171.95a3,3,0,0,1-3-3v-19.5a3,3,0,0,1,6,0v19.5A3,3,0,0,1,349.3,171.95Zm0-24a1.5,1.5,0,0,0-1.5,1.5v19.5a1.5,1.5,0,0,0,3,0v-19.5A1.5,1.5,0,0,0,349.3,147.95Z" fill="#856417"/>
    <path id="Path_321" data-name="Path 321" d="M368.3,171.2h0a2.251,2.251,0,0,1-2.25-2.25v-19.5a2.25,2.25,0,0,1,2.25-2.25h0a2.249,2.249,0,0,1,2.25,2.25v19.5A2.25,2.25,0,0,1,368.3,171.2Z" fill="#fff"/>
    <path id="Path_322" data-name="Path 322" d="M368.3,171.95a3,3,0,0,1-3-3v-19.5a3,3,0,1,1,6,0v19.5A3,3,0,0,1,368.3,171.95Zm0-24a1.5,1.5,0,0,0-1.5,1.5v19.5a1.5,1.5,0,0,0,3,0v-19.5A1.5,1.5,0,0,0,368.3,147.95Z" fill="#856417"/>
    <circle id="Ellipse_18" data-name="Ellipse 18" cx="6" cy="6" r="6" transform="translate(384.801 182.2)" fill="#fff"/>
    <path id="Path_323" data-name="Path 323" d="M392.957,182.615a5.968,5.968,0,0,1-7.741,7.74,5.991,5.991,0,1,0,7.741-7.74Z" fill="#fff6db"/>
    <path id="Path_324" data-name="Path 324" d="M390.8,194.95a6.75,6.75,0,1,1,6.75-6.75A6.758,6.758,0,0,1,390.8,194.95Zm0-12a5.25,5.25,0,1,0,5.25,5.25A5.256,5.256,0,0,0,390.8,182.95Z" fill="#856417"/>
    <circle id="Ellipse_19" data-name="Ellipse 19" cx="1" cy="1" r="1" transform="translate(389.801 187.2)" fill="#856417"/>
    <circle id="Ellipse_20" data-name="Ellipse 20" cx="6" cy="6" r="6" transform="translate(349.797 182.2)" fill="#fff"/>
    <path id="Path_325" data-name="Path 325" d="M357.953,182.615a5.967,5.967,0,0,1-7.74,7.74,5.991,5.991,0,1,0,7.74-7.74Z" fill="#fff6db"/>
    <path id="Path_326" data-name="Path 326" d="M355.8,194.95a6.75,6.75,0,1,1,6.75-6.75A6.758,6.758,0,0,1,355.8,194.95Zm0-12a5.25,5.25,0,1,0,5.25,5.25A5.256,5.256,0,0,0,355.8,182.95Z" fill="#856417"/>
    <circle id="Ellipse_21" data-name="Ellipse 21" cx="1" cy="1" r="1" transform="translate(354.797 187.2)" fill="#856417"/>
    <path id="Path_327" data-name="Path 327" d="M405.8,200.95H386.216a.75.75,0,1,1,0-1.5H405.8a.75.75,0,0,1,0,1.5Z" fill="#856417"/>
    <path id="Path_328" data-name="Path 328" d="M382.216,200.95H378.8a.75.75,0,0,1,0-1.5h3.418a.75.75,0,0,1,0,1.5Z" fill="#856417"/>
    <path id="Path_329" data-name="Path 329" d="M387.8,206.951H349.212a.75.75,0,0,1,0-1.5H387.8a.75.75,0,0,1,0,1.5Z" fill="#856417"/>
    <path id="Path_330" data-name="Path 330" d="M345.212,206.951H341.8a.75.75,0,0,1,0-1.5h3.417a.75.75,0,0,1,0,1.5Z" fill="#856417"/>
    <path id="Path_331" data-name="Path 331" d="M369.8,200.95h-10a.75.75,0,0,1,0-1.5h10a.75.75,0,0,1,0,1.5Z" fill="#856417"/>
    <path id="Path_332" data-name="Path 332" d="M355.8,200.95h-3a.75.75,0,1,1,0-1.5h3a.75.75,0,0,1,0,1.5Z" fill="#856417"/>
    <path id="Path_333" data-name="Path 333" d="M390.185,145.95H388.8a.75.75,0,1,1,0-1.5h1.385a.75.75,0,0,1,0,1.5Z" fill="#856417"/>
    <path id="Path_334" data-name="Path 334" d="M394.8,145.95h-1.384a.75.75,0,0,1,0-1.5H394.8a.75.75,0,0,1,0,1.5Z" fill="#856417"/>
    <path id="Path_335" data-name="Path 335" d="M391.8,148.95a.75.75,0,0,1-.75-.75v-1.384a.75.75,0,1,1,1.5,0V148.2A.75.75,0,0,1,391.8,148.95Z" fill="#856417"/>
    <path id="Path_336" data-name="Path 336" d="M391.8,144.335a.75.75,0,0,1-.75-.75V142.2a.75.75,0,1,1,1.5,0v1.385A.75.75,0,0,1,391.8,144.335Z" fill="#856417"/>
    <path id="Path_337" data-name="Path 337" d="M401.186,156.951H399.8a.75.75,0,0,1,0-1.5h1.385a.75.75,0,0,1,0,1.5Z" fill="#856417"/>
    <path id="Path_338" data-name="Path 338" d="M405.8,156.951h-1.384a.75.75,0,0,1,0-1.5H405.8a.75.75,0,0,1,0,1.5Z" fill="#856417"/>
    <path id="Path_339" data-name="Path 339" d="M402.8,159.951a.75.75,0,0,1-.75-.75v-1.384a.75.75,0,0,1,1.5,0V159.2A.75.75,0,0,1,402.8,159.951Z" fill="#856417"/>
    <path id="Path_340" data-name="Path 340" d="M402.8,155.336a.75.75,0,0,1-.75-.75V153.2a.75.75,0,0,1,1.5,0v1.385A.75.75,0,0,1,402.8,155.336Z" fill="#856417"/>
  </g>
</svg>
