<svg xmlns="http://www.w3.org/2000/svg" width="65.5" height="65.5" viewBox="0 0 65.5 65.5">
  <g id="disconuts" transform="translate(-100.614 -22.918)">
    <circle id="Ellipse_1" data-name="Ellipse 1" cx="32" cy="32" r="32" transform="translate(101.364 23.668)" fill="#fff"/>
    <path id="Path_136" data-name="Path 136" d="M134.364,36.669A32.01,32.01,0,0,1,165.1,59.753a32.373,32.373,0,0,0,.268-4.085,32,32,0,1,0-62.731,8.917A32,32,0,0,1,134.364,36.669Z" fill="#fff6db"/>
    <path id="Path_137" data-name="Path 137" d="M133.364,88.418a32.75,32.75,0,1,1,32.75-32.75A32.786,32.786,0,0,1,133.364,88.418Zm0-64a31.25,31.25,0,1,0,31.25,31.25A31.285,31.285,0,0,0,133.364,24.418Z" fill="#856417"/>
    <path id="Path_138" data-name="Path 138" d="M143.543,81.435a.751.751,0,0,1-.283-1.446,26.223,26.223,0,0,0,15.029-16.062.75.75,0,1,1,1.424.472,27.729,27.729,0,0,1-15.888,16.98A.738.738,0,0,1,143.543,81.435Z" fill="#856417"/>
    <path id="Path_139" data-name="Path 139" d="M137.106,83.161a.75.75,0,0,1-.1-1.493c.859-.119,1.719-.282,2.557-.485a.75.75,0,0,1,.353,1.458c-.887.214-1.8.387-2.7.512A.74.74,0,0,1,137.106,83.161Z" fill="#856417"/>
    <path id="Path_140" data-name="Path 140" d="M154.366,29.668H140.228a5,5,0,0,0-3.535,1.464l-26.6,26.6a2.5,2.5,0,0,0,0,3.534l17.673,17.673a2.5,2.5,0,0,0,3.534,0l26.6-26.6a5,5,0,0,0,1.464-3.534V34.667A5,5,0,0,0,154.366,29.668Zm-5.415,14.913a4.5,4.5,0,1,1,4.5-4.5A4.5,4.5,0,0,1,148.951,44.581Z" fill="#fff"/>
    <path id="Path_141" data-name="Path 141" d="M130.243,73a1,1,0,0,1-1.414,0l-17-17L110.1,57.73a2.5,2.5,0,0,0,0,3.534l17.673,17.673a2.5,2.5,0,0,0,3.534,0l26.6-26.6a5,5,0,0,0,1.464-3.534v-7a5,5,0,0,1-1.464,3.535Z" fill="#fff6db"/>
    <path id="Path_142" data-name="Path 142" d="M129.536,80.418a3.228,3.228,0,0,1-2.3-.952L109.566,61.794a3.25,3.25,0,0,1,0-4.6l26.6-26.6a5.71,5.71,0,0,1,4.065-1.684h14.138a5.755,5.755,0,0,1,5.748,5.749V48.805a5.709,5.709,0,0,1-1.684,4.064l-26.6,26.6A3.228,3.228,0,0,1,129.536,80.418Zm10.692-50a4.221,4.221,0,0,0-3,1.244l-26.6,26.6a1.75,1.75,0,0,0,0,2.474L128.3,78.4a1.75,1.75,0,0,0,2.474,0l26.6-26.6a4.224,4.224,0,0,0,1.244-3V34.667a4.252,4.252,0,0,0-4.248-4.249Zm8.723,14.913a5.25,5.25,0,1,1,5.25-5.25A5.256,5.256,0,0,1,148.951,45.331Zm0-9a3.75,3.75,0,1,0,3.75,3.75A3.754,3.754,0,0,0,148.951,36.331Z" fill="#856417"/>
    <path id="Path_143" data-name="Path 143" d="M137.742,63.134c.4,2.416-1.418,4.494-3.531,4.037a3.248,3.248,0,0,1-2.357-2.694c-.4-2.415,1.418-4.494,3.531-4.036A3.244,3.244,0,0,1,137.742,63.134Z" fill="#fff"/>
    <path id="Path_144" data-name="Path 144" d="M137.742,63.134a3.512,3.512,0,0,0-1.115-2.045c.341,2.377-1.449,4.4-3.537,3.948a2.755,2.755,0,0,1-1.241-.649c0,.03,0,.058.005.089a3.248,3.248,0,0,0,2.357,2.694C136.324,67.628,138.143,65.55,137.742,63.134Z" fill="#fff6db"/>
    <path id="Path_145" data-name="Path 145" d="M134.8,67.983a3.493,3.493,0,0,1-.744-.08,3.972,3.972,0,0,1-2.938-3.3,4.446,4.446,0,0,1,1.248-3.972,3.491,3.491,0,0,1,3.182-.919,3.974,3.974,0,0,1,2.938,3.3h0a4.446,4.446,0,0,1-1.248,3.972A3.518,3.518,0,0,1,134.8,67.983Zm0-6.855a2.01,2.01,0,0,0-1.4.586,2.952,2.952,0,0,0-.8,2.641,2.506,2.506,0,0,0,1.776,2.083,1.981,1.981,0,0,0,1.831-.54,2.955,2.955,0,0,0,.8-2.641h0a2.5,2.5,0,0,0-1.777-2.083A2.033,2.033,0,0,0,134.8,61.128Z" fill="#856417"/>
    <path id="Path_146" data-name="Path 146" d="M121.8,67.984a.75.75,0,0,1-.53-1.28l16-16a.75.75,0,0,1,1.06,1.061l-16,16A.747.747,0,0,1,121.8,67.984Z" fill="#856417"/>
    <path id="Path_147" data-name="Path 147" d="M127.294,56.573a2.806,2.806,0,0,1-4.992,0,3.852,3.852,0,0,1,0-3.81,2.807,2.807,0,0,1,4.992,0A3.852,3.852,0,0,1,127.294,56.573Z" fill="#fff"/>
    <path id="Path_148" data-name="Path 148" d="M126.605,51.958a3.788,3.788,0,0,1-.432,2.481,2.762,2.762,0,0,1-4.3.805,3.621,3.621,0,0,0,.431,1.329,2.806,2.806,0,0,0,4.992,0,3.852,3.852,0,0,0,0-3.81A3.369,3.369,0,0,0,126.605,51.958Z" fill="#fff6db"/>
    <path id="Path_149" data-name="Path 149" d="M124.8,58.847a3.684,3.684,0,0,1-3.14-1.891,4.583,4.583,0,0,1,0-4.576,3.552,3.552,0,0,1,6.28,0,4.583,4.583,0,0,1,0,4.576A3.684,3.684,0,0,1,124.8,58.847Zm0-6.858a2.171,2.171,0,0,0-1.851,1.159,3.087,3.087,0,0,0,0,3.041,2.058,2.058,0,0,0,3.7,0h0a3.087,3.087,0,0,0,0-3.041A2.171,2.171,0,0,0,124.8,51.989Z" fill="#856417"/>
    <path id="Path_150" data-name="Path 150" d="M138.569,44.409c-7.719,0-14-4.594-14-10.242s6.281-10.242,14-10.242a18.354,18.354,0,0,1,6.58,1.178.75.75,0,0,1-.543,1.4,16.853,16.853,0,0,0-6.037-1.076c-6.892,0-12.5,3.922-12.5,8.742s5.608,8.742,12.5,8.742c5.768,0,10.893-2.857,12.186-6.793a.75.75,0,0,1,1.425.467C150.667,41.191,145.069,44.409,138.569,44.409Z" fill="#856417"/>
    <circle id="Ellipse_2" data-name="Ellipse 2" cx="2" cy="2" r="2" transform="translate(104.364 80.667)" fill="#fff"/>
    <path id="Path_151" data-name="Path 151" d="M106.364,85.418a2.75,2.75,0,1,1,2.75-2.75A2.753,2.753,0,0,1,106.364,85.418Zm0-4a1.25,1.25,0,1,0,1.25,1.25A1.252,1.252,0,0,0,106.364,81.418Z" fill="#856417"/>
    <circle id="Ellipse_3" data-name="Ellipse 3" cx="2" cy="2" r="2" transform="translate(101.364 29.669)" fill="#fff"/>
    <path id="Path_152" data-name="Path 152" d="M103.364,34.419a2.75,2.75,0,1,1,2.75-2.75A2.752,2.752,0,0,1,103.364,34.419Zm0-4a1.25,1.25,0,1,0,1.25,1.25A1.251,1.251,0,0,0,103.364,30.419Z" fill="#856417"/>
    <circle id="Ellipse_4" data-name="Ellipse 4" cx="2" cy="2" r="2" transform="translate(108.365 23.669)" fill="#fff"/>
    <path id="Path_153" data-name="Path 153" d="M110.365,28.419a2.75,2.75,0,1,1,2.75-2.75A2.753,2.753,0,0,1,110.365,28.419Zm0-4a1.25,1.25,0,1,0,1.25,1.25A1.251,1.251,0,0,0,110.365,24.419Z" fill="#856417"/>
    <circle id="Ellipse_5" data-name="Ellipse 5" cx="2" cy="2" r="2" transform="translate(155.363 83.668)" fill="#fff"/>
    <path id="Path_154" data-name="Path 154" d="M157.363,88.418a2.75,2.75,0,1,1,2.75-2.75A2.753,2.753,0,0,1,157.363,88.418Zm0-4a1.25,1.25,0,1,0,1.25,1.25A1.252,1.252,0,0,0,157.363,84.418Z" fill="#856417"/>
    <circle id="Ellipse_6" data-name="Ellipse 6" cx="2" cy="2" r="2" transform="translate(161.364 75.667)" fill="#fff"/>
    <path id="Path_155" data-name="Path 155" d="M163.364,80.417a2.75,2.75,0,1,1,2.75-2.75A2.752,2.752,0,0,1,163.364,80.417Zm0-4a1.25,1.25,0,1,0,1.25,1.25A1.251,1.251,0,0,0,163.364,76.417Z" fill="#856417"/>
  </g>
</svg>
