<svg xmlns="http://www.w3.org/2000/svg" width="65.506" height="65.504" viewBox="0 0 65.506 65.504">
  <g id="gifts" transform="translate(-341.045 -381.668)">
    <rect id="Rectangle_73" data-name="Rectangle 73" width="60" height="16" transform="translate(343.801 430.421)" fill="#fff6db"/>
    <path id="Rectangle_74" data-name="Rectangle 74" d="M0,0H55a0,0,0,0,1,0,0V10a1,1,0,0,1-1,1H0a0,0,0,0,1,0,0V0A0,0,0,0,1,0,0Z" transform="translate(343.801 430.419)" fill="#fff"/>
    <path id="Path_529" data-name="Path 529" d="M403.8,447.171h-60a.75.75,0,0,1-.75-.75v-16a.75.75,0,0,1,.75-.75h60a.75.75,0,0,1,.75.75v16A.75.75,0,0,1,403.8,447.171Zm-59.251-1.5h58.5v-14.5h-58.5Z" fill="#856417"/>
    <rect id="Rectangle_75" data-name="Rectangle 75" width="64" height="6" transform="translate(341.801 424.421)" fill="#fff6db"/>
    <rect id="Rectangle_76" data-name="Rectangle 76" width="59" height="6" transform="translate(341.801 424.421)" fill="#fff"/>
    <path id="Path_530" data-name="Path 530" d="M405.8,431.171h-64a.75.75,0,0,1-.75-.75v-6a.75.75,0,0,1,.75-.75h64a.75.75,0,0,1,.75.75v6A.75.75,0,0,1,405.8,431.171Zm-63.25-1.5h62.5v-4.5h-62.5Z" fill="#856417"/>
    <rect id="Rectangle_77" data-name="Rectangle 77" width="8" height="16" transform="translate(368.915 430.421)" fill="#fff6db"/>
    <rect id="Rectangle_78" data-name="Rectangle 78" width="4" height="16" transform="translate(368.914 430.421)" fill="#fff"/>
    <path id="Path_531" data-name="Path 531" d="M376.915,447.171h-8a.75.75,0,0,1-.75-.75v-16a.75.75,0,0,1,.75-.75h8a.75.75,0,0,1,.75.75v16A.75.75,0,0,1,376.915,447.171Zm-7.25-1.5h6.5v-14.5h-6.5Z" fill="#856417"/>
    <rect id="Rectangle_79" data-name="Rectangle 79" width="8" height="5.999" transform="translate(369.915 424.42)" fill="#fff6db"/>
    <rect id="Rectangle_80" data-name="Rectangle 80" width="3.999" height="5.999" transform="translate(369.915 424.42)" fill="#fff"/>
    <path id="Path_532" data-name="Path 532" d="M377.915,431.17h-8a.75.75,0,0,1-.75-.75v-6a.75.75,0,0,1,.75-.75h8a.75.75,0,0,1,.75.75v6A.75.75,0,0,1,377.915,431.17Zm-7.25-1.5h6.5v-4.5h-6.5Z" fill="#856417"/>
    <rect id="Rectangle_81" data-name="Rectangle 81" width="48" height="16" transform="translate(347.801 408.419)" fill="#fff6db"/>
    <path id="Rectangle_82" data-name="Rectangle 82" d="M0,0H43a0,0,0,0,1,0,0V10a1,1,0,0,1-1,1H0a0,0,0,0,1,0,0V0A0,0,0,0,1,0,0Z" transform="translate(347.801 408.419)" fill="#fff"/>
    <path id="Path_533" data-name="Path 533" d="M395.8,425.169h-48a.75.75,0,0,1-.75-.75v-16a.75.75,0,0,1,.75-.75h48a.75.75,0,0,1,.75.75v16A.75.75,0,0,1,395.8,425.169Zm-47.25-1.5h46.5v-14.5h-46.5Z" fill="#856417"/>
    <rect id="Rectangle_83" data-name="Rectangle 83" width="51.999" height="6" transform="translate(345.801 402.419)" fill="#fff6db"/>
    <rect id="Rectangle_84" data-name="Rectangle 84" width="46.999" height="6" transform="translate(345.801 402.419)" fill="#fff"/>
    <path id="Path_534" data-name="Path 534" d="M397.8,409.169h-52a.75.75,0,0,1-.75-.75v-6a.75.75,0,0,1,.75-.75h52a.75.75,0,0,1,.75.75v6A.75.75,0,0,1,397.8,409.169Zm-51.249-1.5h50.5v-4.5h-50.5Z" fill="#856417"/>
    <rect id="Rectangle_85" data-name="Rectangle 85" width="8" height="16" transform="translate(366.914 408.419)" fill="#fff6db"/>
    <rect id="Rectangle_86" data-name="Rectangle 86" width="4" height="16" transform="translate(366.914 408.419)" fill="#fff"/>
    <path id="Path_535" data-name="Path 535" d="M374.915,425.169h-8a.75.75,0,0,1-.75-.75v-16a.75.75,0,0,1,.75-.75h8a.75.75,0,0,1,.75.75v16A.75.75,0,0,1,374.915,425.169Zm-7.25-1.5h6.5v-14.5h-6.5Z" fill="#856417"/>
    <rect id="Rectangle_87" data-name="Rectangle 87" width="8" height="5.999" transform="translate(367.915 402.418)" fill="#fff6db"/>
    <rect id="Rectangle_88" data-name="Rectangle 88" width="4" height="5.999" transform="translate(367.914 402.418)" fill="#fff"/>
    <path id="Path_536" data-name="Path 536" d="M375.915,409.167h-8a.75.75,0,0,1-.75-.75v-6a.75.75,0,0,1,.75-.75h8a.75.75,0,0,1,.75.75v6A.75.75,0,0,1,375.915,409.167Zm-7.25-1.5h6.5v-4.5h-6.5Z" fill="#856417"/>
    <path id="Path_537" data-name="Path 537" d="M361.8,382.418a10,10,0,1,0,0,20h3.333a6.668,6.668,0,0,1-6.667-6.667h0a6.667,6.667,0,0,1,13.334,0v6.667h0v-10A10,10,0,0,0,361.8,382.418Z" fill="#fff"/>
    <path id="Path_538" data-name="Path 538" d="M371.8,403.168h-10a10.75,10.75,0,1,1,10.75-10.75v10A.75.75,0,0,1,371.8,403.168Zm-10-20a9.25,9.25,0,0,0,0,18.5h9.25v-9.25A9.26,9.26,0,0,0,361.8,383.168Z" fill="#856417"/>
    <path id="Path_539" data-name="Path 539" d="M363.467,385.751a8.333,8.333,0,0,0-.009,16.667h1.675a6.668,6.668,0,0,1-6.667-6.667h0a6.667,6.667,0,0,1,13.334,0v6.667h0v-8.342A8.333,8.333,0,0,0,363.467,385.751Z" fill="#fff6db"/>
    <path id="Path_540" data-name="Path 540" d="M371.8,403.168h-6.666a7.417,7.417,0,1,1,7.416-7.417v6.667A.75.75,0,0,1,371.8,403.168Zm-6.666-13.334a5.917,5.917,0,0,0,0,11.834h5.916v-5.917A5.923,5.923,0,0,0,365.134,389.834Z" fill="#856417"/>
    <path id="Path_541" data-name="Path 541" d="M378.8,388.418a7,7,0,0,0-7,7v7h7a7,7,0,0,0,0-14Zm-2.721,14H371.8v-4.277a4.278,4.278,0,1,1,4.279,4.277Z" fill="#fff"/>
    <path id="Path_542" data-name="Path 542" d="M378.8,388.418a7,7,0,0,0-7,7v7h.015v-5.833a5.833,5.833,0,1,1,5.834,5.833H378.8a7,7,0,0,0,0-14Z" fill="#fff6db"/>
    <path id="Path_543" data-name="Path 543" d="M378.8,403.168h-7a.75.75,0,0,1-.75-.75v-7a7.75,7.75,0,1,1,7.75,7.75Zm-6.25-1.5h6.25a6.25,6.25,0,1,0-6.25-6.25Z" fill="#856417"/>
    <path id="Path_544" data-name="Path 544" d="M376.078,403.168H371.8a.75.75,0,0,1-.75-.75v-4.277a5.028,5.028,0,1,1,5.028,5.027Zm-3.528-1.5h3.528a3.528,3.528,0,1,0-3.528-3.527Z" fill="#856417"/>
    <path id="Path_545" data-name="Path 545" d="M401.186,416.17H399.8a.75.75,0,0,1,0-1.5h1.385a.75.75,0,0,1,0,1.5Z" fill="#856417"/>
    <path id="Path_546" data-name="Path 546" d="M405.8,416.17h-1.383a.75.75,0,0,1,0-1.5H405.8a.75.75,0,0,1,0,1.5Z" fill="#856417"/>
    <path id="Path_547" data-name="Path 547" d="M402.8,419.17a.75.75,0,0,1-.75-.75v-1.384a.75.75,0,0,1,1.5,0v1.384A.75.75,0,0,1,402.8,419.17Z" fill="#856417"/>
    <path id="Path_548" data-name="Path 548" d="M402.8,414.555a.75.75,0,0,1-.75-.75V412.42a.75.75,0,0,1,1.5,0V413.8A.75.75,0,0,1,402.8,414.555Z" fill="#856417"/>
    <path id="Path_549" data-name="Path 549" d="M391.185,396.168H389.8a.75.75,0,1,1,0-1.5h1.385a.75.75,0,0,1,0,1.5Z" fill="#856417"/>
    <path id="Path_550" data-name="Path 550" d="M395.8,396.168h-1.383a.75.75,0,0,1,0-1.5H395.8a.75.75,0,0,1,0,1.5Z" fill="#856417"/>
    <path id="Path_551" data-name="Path 551" d="M392.8,399.168a.75.75,0,0,1-.75-.75v-1.384a.75.75,0,0,1,1.5,0v1.384A.75.75,0,0,1,392.8,399.168Z" fill="#856417"/>
    <path id="Path_552" data-name="Path 552" d="M392.8,394.553a.75.75,0,0,1-.75-.75v-1.385a.75.75,0,0,1,1.5,0V393.8A.75.75,0,0,1,392.8,394.553Z" fill="#856417"/>
    <path id="Path_553" data-name="Path 553" d="M343.18,391.168H341.8a.75.75,0,0,1,0-1.5h1.385a.75.75,0,1,1,0,1.5Z" fill="#856417"/>
    <path id="Path_554" data-name="Path 554" d="M347.8,391.168h-1.383a.75.75,0,0,1,0-1.5H347.8a.75.75,0,0,1,0,1.5Z" fill="#856417"/>
    <path id="Path_555" data-name="Path 555" d="M344.8,394.168a.75.75,0,0,1-.75-.75v-1.385a.75.75,0,0,1,1.5,0v1.385A.75.75,0,0,1,344.8,394.168Z" fill="#856417"/>
    <path id="Path_556" data-name="Path 556" d="M344.8,389.553a.75.75,0,0,1-.75-.75v-1.385a.75.75,0,0,1,1.5,0V388.8A.75.75,0,0,1,344.8,389.553Z" fill="#856417"/>
    <path id="Path_557" data-name="Path 557" d="M397.186,386.167H395.8a.75.75,0,0,1,0-1.5h1.385a.75.75,0,0,1,0,1.5Z" fill="#856417"/>
    <path id="Path_558" data-name="Path 558" d="M401.8,386.167h-1.384a.75.75,0,0,1,0-1.5H401.8a.75.75,0,0,1,0,1.5Z" fill="#856417"/>
    <path id="Path_559" data-name="Path 559" d="M398.8,389.167a.75.75,0,0,1-.75-.75v-1.384a.75.75,0,0,1,1.5,0v1.384A.75.75,0,0,1,398.8,389.167Z" fill="#856417"/>
    <path id="Path_560" data-name="Path 560" d="M398.8,384.552a.75.75,0,0,1-.75-.75v-1.385a.75.75,0,0,1,1.5,0V383.8A.75.75,0,0,1,398.8,384.552Z" fill="#856417"/>
  </g>
</svg>
