<svg xmlns="http://www.w3.org/2000/svg" width="65.5" height="65.5" viewBox="0 0 65.5 65.5">
  <g id="mobile-shop" transform="translate(-461.599 -381.67)">
    <rect id="Rectangle_89" data-name="Rectangle 89" width="44" height="64" rx="4" transform="translate(472.349 382.418)" fill="#fff6db"/>
    <path id="Rectangle_90" data-name="Rectangle 90" d="M0,0H38a0,0,0,0,1,0,0V3a1,1,0,0,1-1,1H0A0,0,0,0,1,0,4V0A0,0,0,0,1,0,0Z" transform="translate(472.348 438.418)" fill="#fff"/>
    <path id="Path_561" data-name="Path 561" d="M472.348,386.418h37a1,1,0,0,0,1-1v-3h-34a4,4,0,0,0-4,4Z" fill="#fff"/>
    <path id="Path_562" data-name="Path 562" d="M512.349,447.169h-36a4.756,4.756,0,0,1-4.75-4.75v-56a4.756,4.756,0,0,1,4.75-4.75h36a4.756,4.756,0,0,1,4.75,4.75v56A4.756,4.756,0,0,1,512.349,447.169Zm-36-64a3.254,3.254,0,0,0-3.25,3.25v56a3.254,3.254,0,0,0,3.25,3.25h36a3.254,3.254,0,0,0,3.25-3.25v-56a3.254,3.254,0,0,0-3.25-3.25Z" fill="#856417"/>
    <rect id="Rectangle_91" data-name="Rectangle 91" width="44" height="48" rx="2" transform="translate(472.348 390.418)" fill="#fff6db"/>
    <path id="Rectangle_92" data-name="Rectangle 92" d="M2,0H38a0,0,0,0,1,0,0V42a1,1,0,0,1-1,1H0a0,0,0,0,1,0,0V2A2,2,0,0,1,2,0Z" transform="translate(472.348 390.418)" fill="#fff"/>
    <path id="Path_563" data-name="Path 563" d="M514.349,439.169h-40a2.753,2.753,0,0,1-2.75-2.75v-44a2.753,2.753,0,0,1,2.75-2.75h40a2.752,2.752,0,0,1,2.75,2.75v44A2.752,2.752,0,0,1,514.349,439.169Zm-40-48a1.252,1.252,0,0,0-1.25,1.25v44a1.252,1.252,0,0,0,1.25,1.25h40a1.251,1.251,0,0,0,1.25-1.25v-44a1.251,1.251,0,0,0-1.25-1.25Z" fill="#856417"/>
    <path id="Path_564" data-name="Path 564" d="M499.349,387.169h-10a.75.75,0,0,1,0-1.5h10a.75.75,0,0,1,0,1.5Z" fill="#856417"/>
    <path id="Path_565" data-name="Path 565" d="M496.349,443.169h-4a.75.75,0,0,1,0-1.5h4a.75.75,0,0,1,0,1.5Z" fill="#856417"/>
    <path id="Path_566" data-name="Path 566" d="M506.35,443.169h-4a.75.75,0,0,1,0-1.5h4a.75.75,0,0,1,0,1.5Z" fill="#856417"/>
    <path id="Path_567" data-name="Path 567" d="M486.348,443.169h-4a.75.75,0,0,1,0-1.5h4a.75.75,0,0,1,0,1.5Z" fill="#856417"/>
    <circle id="Ellipse_32" data-name="Ellipse 32" cx="1" cy="1" r="1" transform="translate(502.349 385.418)" fill="#856417"/>
    <path id="Rectangle_93" data-name="Rectangle 93" d="M0,0H16a0,0,0,0,1,0,0V.667a6,6,0,0,1-6,6H6a6,6,0,0,1-6-6V0A0,0,0,0,1,0,0Z" transform="translate(510.349 400.418)" fill="#fff6db"/>
    <path id="Path_568" data-name="Path 568" d="M516.348,407.085h0a6.018,6.018,0,0,1-6-6v-.667h10v2.667A4.012,4.012,0,0,1,516.348,407.085Z" fill="#fff"/>
    <path id="Path_569" data-name="Path 569" d="M520.349,407.835h-4a6.758,6.758,0,0,1-6.75-6.75v-.666a.75.75,0,0,1,.75-.75h16a.75.75,0,0,1,.75.75v.666A6.758,6.758,0,0,1,520.349,407.835Zm-9.249-6.666a5.256,5.256,0,0,0,5.249,5.166h4a5.256,5.256,0,0,0,5.249-5.166Z" fill="#856417"/>
    <path id="Rectangle_94" data-name="Rectangle 94" d="M0,0H16a0,0,0,0,1,0,0V.667a6,6,0,0,1-6,6H6a6,6,0,0,1-6-6V0A0,0,0,0,1,0,0Z" transform="translate(494.35 400.418)" fill="#fff6db"/>
    <path id="Path_570" data-name="Path 570" d="M500.349,407.085h0a6.017,6.017,0,0,1-6-6v-.667h10v2.667A4.012,4.012,0,0,1,500.349,407.085Z" fill="#fff"/>
    <path id="Path_571" data-name="Path 571" d="M504.349,407.835h-4a6.758,6.758,0,0,1-6.75-6.75v-.666a.75.75,0,0,1,.75-.75h16a.75.75,0,0,1,.75.75v.666A6.758,6.758,0,0,1,504.349,407.835Zm-9.248-6.666a5.256,5.256,0,0,0,5.249,5.166h4a5.256,5.256,0,0,0,5.249-5.166Z" fill="#856417"/>
    <path id="Rectangle_95" data-name="Rectangle 95" d="M0,0H16a0,0,0,0,1,0,0V.667a6,6,0,0,1-6,6H6a6,6,0,0,1-6-6V0A0,0,0,0,1,0,0Z" transform="translate(478.349 400.418)" fill="#fff6db"/>
    <path id="Path_572" data-name="Path 572" d="M484.348,407.085h0a6.018,6.018,0,0,1-6-6v-.667h10v2.667A4.012,4.012,0,0,1,484.348,407.085Z" fill="#fff"/>
    <path id="Path_573" data-name="Path 573" d="M488.349,407.835h-4a6.758,6.758,0,0,1-6.75-6.75v-.666a.75.75,0,0,1,.75-.75h16a.75.75,0,0,1,.75.75v.666A6.758,6.758,0,0,1,488.349,407.835Zm-9.249-6.666a5.256,5.256,0,0,0,5.249,5.166h4a5.256,5.256,0,0,0,5.249-5.166Z" fill="#856417"/>
    <path id="Rectangle_96" data-name="Rectangle 96" d="M0,0H16a0,0,0,0,1,0,0V.667a6,6,0,0,1-6,6H6a6,6,0,0,1-6-6V0A0,0,0,0,1,0,0Z" transform="translate(462.349 400.418)" fill="#fff6db"/>
    <path id="Path_574" data-name="Path 574" d="M468.348,407.085h0a6.018,6.018,0,0,1-6-6v-.667h10v2.667A4.012,4.012,0,0,1,468.348,407.085Z" fill="#fff"/>
    <path id="Path_575" data-name="Path 575" d="M472.349,407.835h-4a6.758,6.758,0,0,1-6.75-6.75v-.666a.75.75,0,0,1,.75-.75h16a.75.75,0,0,1,.75.75v.666A6.758,6.758,0,0,1,472.349,407.835Zm-9.249-6.666a5.256,5.256,0,0,0,5.249,5.166h4a5.256,5.256,0,0,0,5.249-5.166Z" fill="#856417"/>
    <path id="Path_576" data-name="Path 576" d="M472.35,390.418l-10,10h16l5-10Z" fill="#fff6db"/>
    <path id="Path_577" data-name="Path 577" d="M472.35,390.418l-10,10h10l7-10Z" fill="#fff"/>
    <path id="Path_578" data-name="Path 578" d="M478.35,401.169h-16a.75.75,0,0,1-.53-1.28l10-10a.748.748,0,0,1,.53-.22h11a.75.75,0,0,1,.671,1.085l-5,10A.749.749,0,0,1,478.35,401.169Zm-14.19-1.5h13.726l4.25-8.5h-9.475Z" fill="#856417"/>
    <path id="Path_579" data-name="Path 579" d="M516.348,390.418h-11l5,10h16Z" fill="#fff6db"/>
    <path id="Path_580" data-name="Path 580" d="M512.348,390.418h-7l5,10h10Z" fill="#fff"/>
    <path id="Path_581" data-name="Path 581" d="M526.349,401.169h-16a.749.749,0,0,1-.671-.415l-5-10a.75.75,0,0,1,.671-1.085h11a.747.747,0,0,1,.53.22l10,10a.749.749,0,0,1-.53,1.28Zm-15.536-1.5h13.726l-8.5-8.5h-9.476Z" fill="#856417"/>
    <path id="Path_582" data-name="Path 582" d="M483.35,390.418l-5,10h16v-10Z" fill="#fff6db"/>
    <path id="Path_583" data-name="Path 583" d="M483.35,390.418l-5,10h10l2-10Z" fill="#fff"/>
    <path id="Path_584" data-name="Path 584" d="M494.349,401.169h-16a.75.75,0,0,1-.671-1.085l5-10a.749.749,0,0,1,.671-.415h11a.75.75,0,0,1,.75.75v10A.75.75,0,0,1,494.349,401.169Zm-14.785-1.5H493.6v-8.5h-9.785Z" fill="#856417"/>
    <path id="Path_585" data-name="Path 585" d="M505.348,390.418h-11v10h16Z" fill="#fff6db"/>
    <path id="Path_586" data-name="Path 586" d="M501.348,390.418h-7v10h10Z" fill="#fff"/>
    <path id="Path_587" data-name="Path 587" d="M510.349,401.169h-16a.75.75,0,0,1-.75-.75v-10a.75.75,0,0,1,.75-.75h11a.749.749,0,0,1,.671.415l5,10a.75.75,0,0,1-.671,1.085Zm-15.25-1.5h14.036l-4.25-8.5H495.1Z" fill="#856417"/>
    <path id="Path_588" data-name="Path 588" d="M500.852,427.419h-12a3,3,0,0,0-3,3h0a3,3,0,0,0,3,3h12a3,3,0,0,0,3-3h0A3,3,0,0,0,500.852,427.419Z" fill="#fff6db"/>
    <path id="Path_589" data-name="Path 589" d="M495.851,427.419h-7a3,3,0,0,0-3,3h0a3,3,0,0,0,3,3h7a3,3,0,0,0,3-3h0A3,3,0,0,0,495.851,427.419Z" fill="#fff"/>
    <path id="Path_590" data-name="Path 590" d="M500.852,434.169h-12a3.75,3.75,0,0,1,0-7.5h12a3.75,3.75,0,0,1,0,7.5Zm-12-6a2.25,2.25,0,0,0,0,4.5h12a2.25,2.25,0,0,0,0-4.5Z" fill="#856417"/>
    <rect id="Rectangle_97" data-name="Rectangle 97" width="10" height="10" rx="1" transform="translate(478.348 412.418)" fill="#fff6db"/>
    <path id="Rectangle_98" data-name="Rectangle 98" d="M1,0H6A0,0,0,0,1,6,0V5A1,1,0,0,1,5,6H0A0,0,0,0,1,0,6V1A1,1,0,0,1,1,0Z" transform="translate(478.348 412.418)" fill="#fff"/>
    <path id="Path_591" data-name="Path 591" d="M487.349,423.168h-8a1.752,1.752,0,0,1-1.75-1.75v-8a1.752,1.752,0,0,1,1.75-1.75h8a1.752,1.752,0,0,1,1.75,1.75v8A1.752,1.752,0,0,1,487.349,423.168Zm-8-10a.251.251,0,0,0-.25.25v8a.251.251,0,0,0,.25.25h8a.25.25,0,0,0,.25-.25v-8a.25.25,0,0,0-.25-.25Z" fill="#856417"/>
    <path id="Path_592" data-name="Path 592" d="M510.349,413.168h-4a.75.75,0,1,1,0-1.5h4a.75.75,0,0,1,0,1.5Z" fill="#856417"/>
    <path id="Path_593" data-name="Path 593" d="M502.351,413.168h-9a.75.75,0,0,1,0-1.5h9a.75.75,0,0,1,0,1.5Z" fill="#856417"/>
    <path id="Path_594" data-name="Path 594" d="M510.349,418.169h-8a.75.75,0,0,1,0-1.5h8a.75.75,0,0,1,0,1.5Z" fill="#856417"/>
    <path id="Path_595" data-name="Path 595" d="M498.35,418.169h-5a.75.75,0,0,1,0-1.5h5a.75.75,0,0,1,0,1.5Z" fill="#856417"/>
    <path id="Path_596" data-name="Path 596" d="M506.349,423.169h-13a.75.75,0,0,1,0-1.5h13a.75.75,0,0,1,0,1.5Z" fill="#856417"/>
    <path id="Path_597" data-name="Path 597" d="M521.352,445.168a.75.75,0,0,1-.75-.75V430.634a.75.75,0,0,1,1.5,0v13.784A.75.75,0,0,1,521.352,445.168Z" fill="#856417"/>
    <path id="Path_598" data-name="Path 598" d="M521.352,427.383a.75.75,0,0,1-.75-.75v-2.214a.75.75,0,0,1,1.5,0v2.214A.75.75,0,0,1,521.352,427.383Z" fill="#856417"/>
    <path id="Path_599" data-name="Path 599" d="M467.346,431.167a.75.75,0,0,1-.75-.75V418.633a.75.75,0,0,1,1.5,0v11.784A.75.75,0,0,1,467.346,431.167Z" fill="#856417"/>
    <path id="Path_600" data-name="Path 600" d="M467.346,415.382a.75.75,0,0,1-.75-.75v-2.214a.75.75,0,0,1,1.5,0v2.214A.75.75,0,0,1,467.346,415.382Z" fill="#856417"/>
  </g>
</svg>
