<svg xmlns="http://www.w3.org/2000/svg" width="65.5" height="65.5" viewBox="0 0 65.5 65.5">
  <g id="new-label" transform="translate(-461.599 -22.918)">
    <path id="Rectangle_6" data-name="Rectangle 6" d="M0,0H58a0,0,0,0,1,0,0V43a1,1,0,0,1-1,1H1a1,1,0,0,1-1-1V0A0,0,0,0,1,0,0Z" transform="translate(465.348 43.668)" fill="#fff6db"/>
    <path id="Rectangle_7" data-name="Rectangle 7" d="M0,0H54a0,0,0,0,1,0,0V39a1,1,0,0,1-1,1H0a0,0,0,0,1,0,0V0A0,0,0,0,1,0,0Z" transform="translate(465.348 43.668)" fill="#fff"/>
    <path id="Path_204" data-name="Path 204" d="M522.349,88.418h-56a1.752,1.752,0,0,1-1.75-1.75v-43a.75.75,0,0,1,.75-.75h58a.75.75,0,0,1,.75.75v43A1.752,1.752,0,0,1,522.349,88.418Zm-56.25-44v42.25a.251.251,0,0,0,.25.25h56a.25.25,0,0,0,.25-.25V44.418Z" fill="#856417"/>
    <rect id="Rectangle_8" data-name="Rectangle 8" width="64" height="10" rx="1" transform="translate(462.348 33.668)" fill="#fff6db"/>
    <path id="Rectangle_9" data-name="Rectangle 9" d="M1,0H60a0,0,0,0,1,0,0V5a1,1,0,0,1-1,1H0A0,0,0,0,1,0,6V1A1,1,0,0,1,1,0Z" transform="translate(462.348 33.668)" fill="#fff"/>
    <path id="Path_205" data-name="Path 205" d="M525.349,44.418h-62a1.752,1.752,0,0,1-1.75-1.75v-8a1.752,1.752,0,0,1,1.75-1.75h62a1.752,1.752,0,0,1,1.75,1.75v8A1.752,1.752,0,0,1,525.349,44.418Zm-62-10a.251.251,0,0,0-.25.25v8a.251.251,0,0,0,.25.25h62a.25.25,0,0,0,.25-.25v-8a.25.25,0,0,0-.25-.25Z" fill="#856417"/>
    <path id="Path_206" data-name="Path 206" d="M469.349,33.668a10,10,0,0,1,20,0Z" fill="#fff"/>
    <path id="Path_207" data-name="Path 207" d="M479.349,23.668a10.008,10.008,0,0,0-2.5.328,9.994,9.994,0,0,1,7.5,9.672h5A10,10,0,0,0,479.349,23.668Z" fill="#fff6db"/>
    <path id="Path_208" data-name="Path 208" d="M489.349,34.418h-20a.75.75,0,0,1-.75-.75,10.75,10.75,0,0,1,21.5,0A.75.75,0,0,1,489.349,34.418Zm-19.22-1.5h18.44a9.25,9.25,0,0,0-18.44,0Z" fill="#856417"/>
    <path id="Path_209" data-name="Path 209" d="M499.347,23.668h-20a10,10,0,0,1,10,10v48l10-5,10,5v-48A10,10,0,0,0,499.347,23.668Z" fill="#fff6db"/>
    <path id="Path_210" data-name="Path 210" d="M493.347,23.668h-14a10,10,0,0,1,10,10v48l10-5,4,2v-45A10,10,0,0,0,493.347,23.668Z" fill="#fff"/>
    <path id="Path_211" data-name="Path 211" d="M509.348,82.417a.755.755,0,0,1-.336-.078L499.349,77.5l-9.665,4.834a.75.75,0,0,1-1.085-.672v-48a9.26,9.26,0,0,0-9.25-9.25.75.75,0,0,1,0-1.5h20a10.762,10.762,0,0,1,10.75,10.75v48a.747.747,0,0,1-.75.75Zm-24.526-58a10.755,10.755,0,0,1,5.277,9.25V80.454L499.014,76a.754.754,0,0,1,.671,0l8.913,4.458V33.668a9.26,9.26,0,0,0-9.25-9.25Z" fill="#856417"/>
    <circle id="Ellipse_12" data-name="Ellipse 12" cx="17" cy="17" r="17" transform="translate(482.19 37.667)" fill="#fff"/>
    <path id="Path_212" data-name="Path 212" d="M509.606,41.252a16.981,16.981,0,0,1-23.831,23.831,16.986,16.986,0,1,0,23.831-23.831Z" fill="#fff6db"/>
    <path id="Path_213" data-name="Path 213" d="M499.191,72.417a17.75,17.75,0,1,1,17.75-17.75A17.77,17.77,0,0,1,499.191,72.417Zm0-34a16.25,16.25,0,1,0,16.25,16.25A16.269,16.269,0,0,0,499.191,38.417Z" fill="#856417"/>
    <path id="Path_214" data-name="Path 214" d="M499.874,43.993l.932,1.153a.877.877,0,0,0,1.059.242l1.342-.635a.879.879,0,0,1,1.23.593l.34,1.444a.881.881,0,0,0,.85.678l1.483.01a.878.878,0,0,1,.852,1.068l-.321,1.448a.881.881,0,0,0,.472.979l1.332.653a.878.878,0,0,1,.3,1.331l-.917,1.167a.88.88,0,0,0,0,1.086l.917,1.166a.879.879,0,0,1-.3,1.332l-1.332.652a.881.881,0,0,0-.472.979l.321,1.449a.879.879,0,0,1-.852,1.068l-1.483.01a.88.88,0,0,0-.85.677l-.34,1.444a.878.878,0,0,1-1.23.593l-1.342-.635a.881.881,0,0,0-1.059.242l-.932,1.154a.88.88,0,0,1-1.367,0l-.932-1.154a.882.882,0,0,0-1.059-.242l-1.342.635a.878.878,0,0,1-1.23-.593l-.341-1.444a.879.879,0,0,0-.849-.677l-1.483-.01a.878.878,0,0,1-.851-1.068l.32-1.449a.881.881,0,0,0-.472-.979l-1.332-.652a.879.879,0,0,1-.3-1.332l.917-1.166a.88.88,0,0,0,0-1.086l-.917-1.167a.878.878,0,0,1,.3-1.331l1.332-.653a.881.881,0,0,0,.472-.979l-.32-1.448a.877.877,0,0,1,.851-1.068l1.483-.01a.88.88,0,0,0,.849-.678l.341-1.444a.879.879,0,0,1,1.23-.593l1.342.635a.877.877,0,0,0,1.059-.242l.932-1.153A.879.879,0,0,1,499.874,43.993Z" fill="#fff"/>
    <path id="Path_215" data-name="Path 215" d="M508.832,55.21a.88.88,0,0,1,0-1.086l.917-1.167a.878.878,0,0,0-.3-1.331l-1.332-.654a.879.879,0,0,1-.472-.978l.321-1.448a.878.878,0,0,0-.852-1.068l-1.483-.01a.873.873,0,0,1-.809-.582,10.935,10.935,0,0,1,.118,1.512,10.724,10.724,0,0,1-14.569,10.034.87.87,0,0,1,.373.907l-.32,1.449a.878.878,0,0,0,.851,1.068l1.483.01a.88.88,0,0,1,.85.677l.34,1.444a.877.877,0,0,0,1.23.592l1.342-.634a.882.882,0,0,1,1.059.242l.932,1.154a.88.88,0,0,0,1.367,0l.932-1.154a.881.881,0,0,1,1.059-.242l1.342.634a.877.877,0,0,0,1.23-.592l.34-1.444a.879.879,0,0,1,.85-.677l1.483-.01a.879.879,0,0,0,.852-1.068l-.321-1.449a.881.881,0,0,1,.472-.979l1.332-.652a.879.879,0,0,0,.3-1.332Z" fill="#fff6db"/>
    <path id="Path_216" data-name="Path 216" d="M499.191,66.417a1.627,1.627,0,0,1-1.267-.6l-.932-1.154a.128.128,0,0,0-.155-.036l-1.342.635a1.629,1.629,0,0,1-2.282-1.1l-.339-1.444a.126.126,0,0,0-.123-.1l-1.486-.01a1.629,1.629,0,0,1-1.578-1.98l.32-1.449a.128.128,0,0,0-.068-.143l-1.333-.653a1.628,1.628,0,0,1-.563-2.469l.917-1.166a.128.128,0,0,0,0-.159l-.917-1.166a1.628,1.628,0,0,1,.563-2.469l1.333-.652a.13.13,0,0,0,.068-.145l-.32-1.447a1.627,1.627,0,0,1,1.579-1.98l1.485-.01a.129.129,0,0,0,.123-.1l.339-1.444a1.63,1.63,0,0,1,2.283-1.1l1.341.635a.125.125,0,0,0,.155-.035l.932-1.154a1.682,1.682,0,0,1,2.533,0l.933,1.154a.132.132,0,0,0,.155.035l1.341-.635a1.629,1.629,0,0,1,2.282,1.1l.339,1.444a.131.131,0,0,0,.125.1l1.483.01a1.627,1.627,0,0,1,1.579,1.98l-.319,1.447a.13.13,0,0,0,.068.145l1.332.652a1.628,1.628,0,0,1,.564,2.468l-.918,1.167a.129.129,0,0,0,0,.16l.918,1.165a1.629,1.629,0,0,1-.564,2.469l-1.332.653a.126.126,0,0,0-.068.143l.319,1.449a1.629,1.629,0,0,1-1.579,1.98l-1.483.01a.126.126,0,0,0-.124.1l-.341,1.444a1.628,1.628,0,0,1-2.281,1.1l-1.341-.636a.129.129,0,0,0-.155.036l-.933,1.154A1.626,1.626,0,0,1,499.191,66.417Zm-2.3-3.307a1.624,1.624,0,0,1,1.265.606l.932,1.153a.115.115,0,0,0,.2,0l.933-1.153a1.621,1.621,0,0,1,1.962-.449l1.342.635a.126.126,0,0,0,.11,0,.121.121,0,0,0,.069-.085l.341-1.446a1.622,1.622,0,0,1,1.574-1.254l1.482-.01a.131.131,0,0,0,.1-.048.127.127,0,0,0,.024-.108L506.91,59.5a1.623,1.623,0,0,1,.873-1.814l1.332-.653a.12.12,0,0,0,.068-.087.122.122,0,0,0-.023-.108l-.918-1.166a1.625,1.625,0,0,1,0-2.012l.918-1.168a.13.13,0,0,0-.045-.194l-1.332-.653a1.624,1.624,0,0,1-.873-1.815l.319-1.447a.126.126,0,0,0-.024-.108.125.125,0,0,0-.1-.048l-1.483-.01a1.628,1.628,0,0,1-1.575-1.256l-.339-1.443a.122.122,0,0,0-.07-.087.119.119,0,0,0-.111,0l-1.341.634a1.623,1.623,0,0,1-1.962-.449l-.933-1.153h0a.116.116,0,0,0-.2,0l-.932,1.154a1.624,1.624,0,0,1-1.963.448l-1.341-.634a.119.119,0,0,0-.111,0,.121.121,0,0,0-.069.086l-.339,1.444a1.628,1.628,0,0,1-1.574,1.256l-1.485.01a.124.124,0,0,0-.1.048.127.127,0,0,0-.025.108l.32,1.448a1.628,1.628,0,0,1-.872,1.814l-1.334.653a.129.129,0,0,0-.044.194l.917,1.167a1.627,1.627,0,0,1,0,2.013l-.917,1.166a.124.124,0,0,0-.024.108.12.12,0,0,0,.068.087l1.333.654a1.624,1.624,0,0,1,.873,1.812l-.32,1.45a.128.128,0,0,0,.025.108.13.13,0,0,0,.1.048l1.485.01a1.624,1.624,0,0,1,1.574,1.255l.339,1.445a.128.128,0,0,0,.18.085l1.342-.633A1.614,1.614,0,0,1,496.893,63.11Z" fill="#856417"/>
    <path id="Path_217" data-name="Path 217" d="M479.735,79.417H478.35a.75.75,0,0,1,0-1.5h1.385a.75.75,0,0,1,0,1.5Z" fill="#856417"/>
    <path id="Path_218" data-name="Path 218" d="M484.35,79.417h-1.385a.75.75,0,0,1,0-1.5h1.385a.75.75,0,0,1,0,1.5Z" fill="#856417"/>
    <path id="Path_219" data-name="Path 219" d="M481.35,82.417a.75.75,0,0,1-.75-.75V80.282a.75.75,0,0,1,1.5,0v1.385A.75.75,0,0,1,481.35,82.417Z" fill="#856417"/>
    <path id="Path_220" data-name="Path 220" d="M481.35,77.8a.75.75,0,0,1-.75-.75V75.667a.75.75,0,0,1,1.5,0v1.385A.75.75,0,0,1,481.35,77.8Z" fill="#856417"/>
    <path id="Path_221" data-name="Path 221" d="M514.738,74.417h-1.384a.75.75,0,0,1,0-1.5h1.384a.75.75,0,0,1,0,1.5Z" fill="#856417"/>
    <path id="Path_222" data-name="Path 222" d="M519.354,74.417h-1.385a.75.75,0,0,1,0-1.5h1.385a.75.75,0,0,1,0,1.5Z" fill="#856417"/>
    <path id="Path_223" data-name="Path 223" d="M516.354,77.417a.75.75,0,0,1-.75-.75V75.282a.75.75,0,0,1,1.5,0v1.385A.75.75,0,0,1,516.354,77.417Z" fill="#856417"/>
    <path id="Path_224" data-name="Path 224" d="M516.354,72.8a.75.75,0,0,1-.75-.75V70.667a.75.75,0,0,1,1.5,0v1.385A.75.75,0,0,1,516.354,72.8Z" fill="#856417"/>
    <path id="Path_225" data-name="Path 225" d="M470.734,69.417h-1.385a.75.75,0,0,1,0-1.5h1.385a.75.75,0,0,1,0,1.5Z" fill="#856417"/>
    <path id="Path_226" data-name="Path 226" d="M475.349,69.417h-1.385a.75.75,0,0,1,0-1.5h1.385a.75.75,0,0,1,0,1.5Z" fill="#856417"/>
    <path id="Path_227" data-name="Path 227" d="M472.349,72.417a.75.75,0,0,1-.75-.75V70.282a.75.75,0,0,1,1.5,0v1.385A.75.75,0,0,1,472.349,72.417Z" fill="#856417"/>
    <path id="Path_228" data-name="Path 228" d="M472.349,67.8a.75.75,0,0,1-.75-.75V65.667a.75.75,0,0,1,1.5,0v1.384A.75.75,0,0,1,472.349,67.8Z" fill="#856417"/>
    <path id="Path_229" data-name="Path 229" d="M473.734,51.415h-1.385a.75.75,0,0,1,0-1.5h1.385a.75.75,0,0,1,0,1.5Z" fill="#856417"/>
    <path id="Path_230" data-name="Path 230" d="M478.349,51.415h-1.384a.75.75,0,0,1,0-1.5h1.384a.75.75,0,0,1,0,1.5Z" fill="#856417"/>
    <path id="Path_231" data-name="Path 231" d="M475.349,54.415a.75.75,0,0,1-.75-.75V52.28a.75.75,0,1,1,1.5,0v1.385A.75.75,0,0,1,475.349,54.415Z" fill="#856417"/>
    <path id="Path_232" data-name="Path 232" d="M475.349,49.8a.75.75,0,0,1-.75-.75V47.665a.75.75,0,0,1,1.5,0v1.384A.75.75,0,0,1,475.349,49.8Z" fill="#856417"/>
  </g>
</svg>
