<svg xmlns="http://www.w3.org/2000/svg" width="65.5" height="65.5" viewBox="0 0 65.5 65.5">
  <g id="open-sign" transform="translate(-100.614 -381.67)">
    <circle id="Ellipse_24" data-name="Ellipse 24" cx="29" cy="29" r="29" transform="translate(104.364 385.419)" fill="#fff"/>
    <path id="Path_486" data-name="Path 486" d="M133.364,385.419c-.674,0-1.341.031-2.005.076a28.995,28.995,0,0,1-10.992,54.847,29,29,0,1,0,13-54.923Z" fill="#fff6db"/>
    <path id="Path_487" data-name="Path 487" d="M133.364,444.169a29.75,29.75,0,1,1,29.75-29.75A29.784,29.784,0,0,1,133.364,444.169Zm0-58a28.25,28.25,0,1,0,28.25,28.25A28.282,28.282,0,0,0,133.364,386.169Z" fill="#856417"/>
    <rect id="Rectangle_69" data-name="Rectangle 69" width="64" height="27.999" rx="1" transform="translate(101.364 408.419)" fill="#fff6db"/>
    <path id="Rectangle_70" data-name="Rectangle 70" d="M1,0H59a0,0,0,0,1,0,0V23a1,1,0,0,1-1,1H0a0,0,0,0,1,0,0V1A1,1,0,0,1,1,0Z" transform="translate(106.365 412.42)" fill="#fff"/>
    <path id="Path_488" data-name="Path 488" d="M164.364,437.168h-62a1.752,1.752,0,0,1-1.75-1.75v-26a1.752,1.752,0,0,1,1.75-1.75h62a1.752,1.752,0,0,1,1.75,1.75v26A1.752,1.752,0,0,1,164.364,437.168Zm-62-28a.25.25,0,0,0-.25.25v26a.25.25,0,0,0,.25.25h62a.25.25,0,0,0,.25-.25v-26a.25.25,0,0,0-.25-.25Z" fill="#856417"/>
    <path id="Path_489" data-name="Path 489" d="M155.364,409.17h-44a.75.75,0,0,1-.4-1.383l22-14a.753.753,0,0,1,.806,0l22,14a.75.75,0,0,1-.4,1.383Zm-41.425-1.5h38.85l-19.425-12.362Z" fill="#856417"/>
    <circle id="Ellipse_25" data-name="Ellipse 25" cx="4" cy="4" r="4" transform="translate(129.364 391.419)" fill="#fff"/>
    <path id="Path_490" data-name="Path 490" d="M131.412,398.89a3.875,3.875,0,0,1-.048-.471,4,4,0,0,1,4-4,3.953,3.953,0,0,1,1.952.529,3.989,3.989,0,1,0-5.9,3.942Z" fill="#fff6db"/>
    <path id="Path_491" data-name="Path 491" d="M133.364,400.169a4.75,4.75,0,1,1,4.75-4.75A4.756,4.756,0,0,1,133.364,400.169Zm0-8a3.25,3.25,0,1,0,3.25,3.25A3.254,3.254,0,0,0,133.364,392.169Z" fill="#856417"/>
    <path id="Path_492" data-name="Path 492" d="M157.366,430.169a.75.75,0,0,1-.631-.345l-7.619-11.851v11.446a.75.75,0,0,1-1.5,0v-14a.75.75,0,0,1,1.381-.4l7.619,11.851V415.419a.75.75,0,0,1,1.5,0v14a.75.75,0,0,1-.539.72A.769.769,0,0,1,157.366,430.169Z" fill="#856417"/>
    <path id="Path_493" data-name="Path 493" d="M144.365,430.169h-8a.75.75,0,0,1-.75-.75v-14a.75.75,0,0,1,.75-.75h8a.75.75,0,1,1,0,1.5h-7.25v12.5h7.25a.75.75,0,1,1,0,1.5Z" fill="#856417"/>
    <path id="Path_494" data-name="Path 494" d="M142.364,423.169h-6a.75.75,0,0,1,0-1.5h6a.75.75,0,0,1,0,1.5Z" fill="#856417"/>
    <path id="Path_495" data-name="Path 495" d="M128.363,423.419h-5v-8h5a4,4,0,0,1,4,4h0A4,4,0,0,1,128.363,423.419Z" fill="#fff6db"/>
    <path id="Path_496" data-name="Path 496" d="M124.363,423.419h-1v-8h1a4,4,0,0,1,4,4h0A4,4,0,0,1,124.363,423.419Z" fill="#fff"/>
    <path id="Path_497" data-name="Path 497" d="M128.363,424.169h-5a.75.75,0,0,1-.75-.75v-8a.75.75,0,0,1,.75-.75h5a4.75,4.75,0,1,1,0,9.5Zm-4.249-1.5h4.249a3.25,3.25,0,1,0,0-6.5h-4.249Z" fill="#856417"/>
    <path id="Path_498" data-name="Path 498" d="M123.364,430.169a.75.75,0,0,1-.75-.75v-14a.75.75,0,0,1,1.5,0v14A.75.75,0,0,1,123.364,430.169Z" fill="#856417"/>
    <rect id="Rectangle_71" data-name="Rectangle 71" width="9" height="13.999" rx="4" transform="translate(109.362 415.419)" fill="#fff6db"/>
    <path id="Rectangle_72" data-name="Rectangle 72" d="M4,0h.5a0,0,0,0,1,0,0V14a0,0,0,0,1,0,0H4a4,4,0,0,1-4-4V4A4,4,0,0,1,4,0Z" transform="translate(109.362 415.419)" fill="#fff"/>
    <path id="Path_499" data-name="Path 499" d="M114.362,430.169h-1a4.756,4.756,0,0,1-4.75-4.75v-6a4.756,4.756,0,0,1,4.75-4.75h1a4.755,4.755,0,0,1,4.75,4.75v6A4.755,4.755,0,0,1,114.362,430.169Zm-1-14a3.254,3.254,0,0,0-3.25,3.25v6a3.254,3.254,0,0,0,3.25,3.25h1a3.254,3.254,0,0,0,3.25-3.25v-6a3.254,3.254,0,0,0-3.25-3.25Z" fill="#856417"/>
    <circle id="Ellipse_26" data-name="Ellipse 26" cx="2" cy="2" r="2" transform="translate(109.365 440.418)" fill="#fff"/>
    <path id="Path_500" data-name="Path 500" d="M111.365,445.169a2.75,2.75,0,1,1,2.75-2.75A2.752,2.752,0,0,1,111.365,445.169Zm0-4a1.25,1.25,0,1,0,1.25,1.25A1.251,1.251,0,0,0,111.365,441.169Z" fill="#856417"/>
    <circle id="Ellipse_27" data-name="Ellipse 27" cx="2" cy="2" r="2" transform="translate(101.364 393.42)" fill="#fff"/>
    <path id="Path_501" data-name="Path 501" d="M103.364,398.17a2.75,2.75,0,1,1,2.75-2.75A2.752,2.752,0,0,1,103.364,398.17Zm0-4a1.25,1.25,0,1,0,1.25,1.25A1.25,1.25,0,0,0,103.364,394.17Z" fill="#856417"/>
    <circle id="Ellipse_28" data-name="Ellipse 28" cx="2" cy="2" r="2" transform="translate(108.365 382.419)" fill="#fff"/>
    <path id="Path_502" data-name="Path 502" d="M110.365,387.169a2.75,2.75,0,1,1,2.75-2.75A2.752,2.752,0,0,1,110.365,387.169Zm0-4a1.25,1.25,0,1,0,1.25,1.25A1.251,1.251,0,0,0,110.365,383.169Z" fill="#856417"/>
    <circle id="Ellipse_29" data-name="Ellipse 29" cx="2" cy="2" r="2" transform="translate(152.363 442.419)" fill="#fff"/>
    <path id="Path_503" data-name="Path 503" d="M154.363,447.169a2.75,2.75,0,1,1,2.75-2.75A2.753,2.753,0,0,1,154.363,447.169Zm0-4a1.25,1.25,0,1,0,1.25,1.25A1.252,1.252,0,0,0,154.363,443.169Z" fill="#856417"/>
    <circle id="Ellipse_30" data-name="Ellipse 30" cx="2" cy="2" r="2" transform="translate(161.364 389.413)" fill="#fff"/>
    <path id="Path_504" data-name="Path 504" d="M163.364,394.163a2.75,2.75,0,1,1,2.75-2.75A2.752,2.752,0,0,1,163.364,394.163Zm0-4a1.25,1.25,0,1,0,1.25,1.25A1.251,1.251,0,0,0,163.364,390.163Z" fill="#856417"/>
  </g>
</svg>
