<svg xmlns="http://www.w3.org/2000/svg" width="65.499" height="65.506" viewBox="0 0 65.499 65.506">
  <g id="order-checkout" transform="translate(-100.615 -141.447)">
    <path id="Rectangle_10" data-name="Rectangle 10" d="M0,0H24a2,2,0,0,1,2,2V28a2,2,0,0,1-2,2H0a0,0,0,0,1,0,0V0A0,0,0,0,1,0,0Z" transform="translate(139.365 166.199)" fill="#fff6db"/>
    <path id="Rectangle_11" data-name="Rectangle 11" d="M0,0H21a0,0,0,0,1,0,0V23a1,1,0,0,1-1,1H0a0,0,0,0,1,0,0V0A0,0,0,0,1,0,0Z" transform="translate(139.365 166.199)" fill="#fff"/>
    <path id="Path_233" data-name="Path 233" d="M163.363,196.949h-24a.75.75,0,0,1-.75-.75v-30a.75.75,0,0,1,.75-.75h24a2.754,2.754,0,0,1,2.75,2.75v26A2.753,2.753,0,0,1,163.363,196.949Zm-23.248-1.5h23.248a1.25,1.25,0,0,0,1.25-1.25v-26a1.251,1.251,0,0,0-1.25-1.25H140.115Z" fill="#856417"/>
    <path id="Path_234" data-name="Path 234" d="M155.365,190.948h-15a.75.75,0,0,1,0-1.5h15a.75.75,0,0,1,0,1.5Z" fill="#856417"/>
    <path id="Path_235" data-name="Path 235" d="M160.36,184.95a.789.789,0,0,1-.53-.219.768.768,0,0,1-.22-.531.749.749,0,0,1,.22-.529.774.774,0,0,1,1.06,0,.749.749,0,0,1,.22.529.825.825,0,0,1-.21.531A.794.794,0,0,1,160.36,184.95Z" fill="#856417"/>
    <path id="Path_236" data-name="Path 236" d="M156.11,184.2a.749.749,0,0,1,.75-.75h0a.743.743,0,0,1,.75.75h0a.749.749,0,0,1-.75.75h0A.755.755,0,0,1,156.11,184.2Z" fill="#856417"/>
    <path id="Path_237" data-name="Path 237" d="M153.36,184.95a.749.749,0,0,1-.75-.75.749.749,0,0,1,.22-.529.763.763,0,0,1,1.06,0,.749.749,0,0,1,.22.529.8.8,0,0,1-.21.531A.794.794,0,0,1,153.36,184.95Z" fill="#856417"/>
    <path id="Path_238" data-name="Path 238" d="M146.36,184.95a.753.753,0,0,1-.53-.219.768.768,0,0,1-.22-.531.749.749,0,0,1,.22-.529.774.774,0,0,1,1.06,0,.749.749,0,0,1,.22.529.768.768,0,0,1-.22.531A.753.753,0,0,1,146.36,184.95Z" fill="#856417"/>
    <path id="Path_239" data-name="Path 239" d="M142.11,184.2a.749.749,0,0,1,.75-.75h0a.743.743,0,0,1,.75.75h0a.749.749,0,0,1-.75.75h0A.755.755,0,0,1,142.11,184.2Z" fill="#856417"/>
    <path id="Path_240" data-name="Path 240" d="M139.36,184.95a.749.749,0,0,1-.75-.75.749.749,0,0,1,.22-.529.763.763,0,0,1,1.06,0,.749.749,0,0,1,.22.529.768.768,0,0,1-.22.531A.753.753,0,0,1,139.36,184.95Z" fill="#856417"/>
    <path id="Rectangle_12" data-name="Rectangle 12" d="M2,0H36a2,2,0,0,1,2,2V8a0,0,0,0,1,0,0H0A0,0,0,0,1,0,8V2A2,2,0,0,1,2,0Z" transform="translate(101.365 154.194)" fill="#fff"/>
    <path id="Path_241" data-name="Path 241" d="M139.365,162.944h-38a.75.75,0,0,1-.75-.75v-6a2.753,2.753,0,0,1,2.75-2.75h34a2.754,2.754,0,0,1,2.75,2.75v6A.75.75,0,0,1,139.365,162.944Zm-37.25-1.5h36.5v-5.25a1.252,1.252,0,0,0-1.25-1.25h-34a1.251,1.251,0,0,0-1.25,1.25Z" fill="#856417"/>
    <path id="Path_242" data-name="Path 242" d="M132.365,158.194h-24v-16l6,2,6-2,6,2,6-2Z" fill="#fff6db"/>
    <path id="Path_243" data-name="Path 243" d="M127.364,154.194h-19v-12l6,2,6-2,6,2,2-.667v9.663A1,1,0,0,1,127.364,154.194Z" fill="#fff"/>
    <path id="Path_244" data-name="Path 244" d="M132.365,158.944h-24a.75.75,0,0,1-.75-.75v-16a.749.749,0,0,1,.987-.712l5.762,1.921,5.764-1.921a.757.757,0,0,1,.475,0l5.763,1.921,5.762-1.921a.75.75,0,0,1,.987.712v16A.75.75,0,0,1,132.365,158.944Zm-23.25-1.5h22.5V143.238l-5.012,1.671a.74.74,0,0,1-.474,0l-5.764-1.921-5.763,1.921a.743.743,0,0,1-.475,0l-5.012-1.671Z" fill="#856417"/>
    <path id="Path_245" data-name="Path 245" d="M134.365,158.944h-28a.75.75,0,0,1,0-1.5h28a.75.75,0,0,1,0,1.5Z" fill="#856417"/>
    <path id="Rectangle_13" data-name="Rectangle 13" d="M0,0H38a0,0,0,0,1,0,0V42a2,2,0,0,1-2,2H2a2,2,0,0,1-2-2V0A0,0,0,0,1,0,0Z" transform="translate(101.365 162.194)" fill="#fff6db"/>
    <path id="Rectangle_14" data-name="Rectangle 14" d="M0,0H33a0,0,0,0,1,0,0V38a1,1,0,0,1-1,1H0a0,0,0,0,1,0,0V0A0,0,0,0,1,0,0Z" transform="translate(101.365 162.194)" fill="#fff"/>
    <path id="Path_246" data-name="Path 246" d="M137.365,206.948h-34a2.752,2.752,0,0,1-2.75-2.75v-42a.75.75,0,0,1,.75-.75h38a.75.75,0,0,1,.75.75v42A2.753,2.753,0,0,1,137.365,206.948Zm-35.25-44V204.2a1.25,1.25,0,0,0,1.25,1.25h34a1.251,1.251,0,0,0,1.25-1.25V162.944Z" fill="#856417"/>
    <path id="Rectangle_15" data-name="Rectangle 15" d="M1,0H7A0,0,0,0,1,7,0V5.5a0,0,0,0,1,0,0H0a0,0,0,0,1,0,0V1A1,1,0,0,1,1,0Z" transform="translate(106.365 179.204)" fill="#fff"/>
    <path id="Path_247" data-name="Path 247" d="M113.365,185.453h-7a.75.75,0,0,1-.75-.75v-4.5a1.752,1.752,0,0,1,1.75-1.75h6a.75.75,0,0,1,.75.75v5.5A.75.75,0,0,1,113.365,185.453Zm-6.25-1.5h5.5v-4h-5.25a.251.251,0,0,0-.25.25Z" fill="#856417"/>
    <rect id="Rectangle_16" data-name="Rectangle 16" width="7" height="5.5" transform="translate(113.365 179.204)" fill="#fff"/>
    <path id="Path_248" data-name="Path 248" d="M120.365,185.453h-7a.75.75,0,0,1-.75-.75v-5.5a.75.75,0,0,1,.75-.75h7a.75.75,0,0,1,.75.75v5.5A.75.75,0,0,1,120.365,185.453Zm-6.25-1.5h5.5v-4h-5.5Z" fill="#856417"/>
    <rect id="Rectangle_17" data-name="Rectangle 17" width="7" height="5.5" transform="translate(120.365 179.204)" fill="#fff"/>
    <path id="Path_249" data-name="Path 249" d="M127.365,185.453h-7a.75.75,0,0,1-.75-.75v-5.5a.75.75,0,0,1,.75-.75h7a.75.75,0,0,1,.75.75v5.5A.75.75,0,0,1,127.365,185.453Zm-6.25-1.5h5.5v-4h-5.5Z" fill="#856417"/>
    <path id="Rectangle_18" data-name="Rectangle 18" d="M0,0H6A1,1,0,0,1,7,1V5.5a0,0,0,0,1,0,0H0a0,0,0,0,1,0,0V0A0,0,0,0,1,0,0Z" transform="translate(127.365 179.204)" fill="#fff"/>
    <path id="Path_250" data-name="Path 250" d="M134.365,185.453h-7a.75.75,0,0,1-.75-.75v-5.5a.75.75,0,0,1,.75-.75h6a1.752,1.752,0,0,1,1.75,1.75v4.5A.75.75,0,0,1,134.365,185.453Zm-6.25-1.5h5.5V180.2a.251.251,0,0,0-.25-.25h-5.25Z" fill="#856417"/>
    <rect id="Rectangle_19" data-name="Rectangle 19" width="7" height="5.5" transform="translate(106.365 184.704)" fill="#fff"/>
    <path id="Path_251" data-name="Path 251" d="M113.365,190.953h-7a.75.75,0,0,1-.75-.75v-5.5a.75.75,0,0,1,.75-.75h7a.75.75,0,0,1,.75.75v5.5A.75.75,0,0,1,113.365,190.953Zm-6.25-1.5h5.5v-4h-5.5Z" fill="#856417"/>
    <rect id="Rectangle_20" data-name="Rectangle 20" width="7" height="5.5" transform="translate(113.365 184.704)" fill="#fff"/>
    <path id="Path_252" data-name="Path 252" d="M120.365,190.953h-7a.75.75,0,0,1-.75-.75v-5.5a.75.75,0,0,1,.75-.75h7a.75.75,0,0,1,.75.75v5.5A.75.75,0,0,1,120.365,190.953Zm-6.25-1.5h5.5v-4h-5.5Z" fill="#856417"/>
    <rect id="Rectangle_21" data-name="Rectangle 21" width="7" height="5.5" transform="translate(120.365 184.704)" fill="#fff"/>
    <path id="Path_253" data-name="Path 253" d="M127.365,190.953h-7a.75.75,0,0,1-.75-.75v-5.5a.75.75,0,0,1,.75-.75h7a.75.75,0,0,1,.75.75v5.5A.75.75,0,0,1,127.365,190.953Zm-6.25-1.5h5.5v-4h-5.5Z" fill="#856417"/>
    <rect id="Rectangle_22" data-name="Rectangle 22" width="7" height="5.5" transform="translate(127.365 184.704)" fill="#fff"/>
    <path id="Path_254" data-name="Path 254" d="M134.365,190.953h-7a.75.75,0,0,1-.75-.75v-5.5a.75.75,0,0,1,.75-.75h7a.75.75,0,0,1,.75.75v5.5A.75.75,0,0,1,134.365,190.953Zm-6.25-1.5h5.5v-4h-5.5Z" fill="#856417"/>
    <rect id="Rectangle_23" data-name="Rectangle 23" width="7" height="5.5" transform="translate(106.365 190.198)" fill="#fff"/>
    <path id="Path_255" data-name="Path 255" d="M113.365,196.448h-7a.75.75,0,0,1-.75-.75v-5.5a.75.75,0,0,1,.75-.75h7a.75.75,0,0,1,.75.75v5.5A.75.75,0,0,1,113.365,196.448Zm-6.25-1.5h5.5v-4h-5.5Z" fill="#856417"/>
    <rect id="Rectangle_24" data-name="Rectangle 24" width="7" height="5.5" transform="translate(113.365 190.198)" fill="#fff"/>
    <path id="Path_256" data-name="Path 256" d="M120.365,196.448h-7a.75.75,0,0,1-.75-.75v-5.5a.75.75,0,0,1,.75-.75h7a.75.75,0,0,1,.75.75v5.5A.75.75,0,0,1,120.365,196.448Zm-6.25-1.5h5.5v-4h-5.5Z" fill="#856417"/>
    <rect id="Rectangle_25" data-name="Rectangle 25" width="7" height="5.5" transform="translate(120.365 190.198)" fill="#fff"/>
    <path id="Path_257" data-name="Path 257" d="M127.365,196.448h-7a.75.75,0,0,1-.75-.75v-5.5a.75.75,0,0,1,.75-.75h7a.75.75,0,0,1,.75.75v5.5A.75.75,0,0,1,127.365,196.448Zm-6.25-1.5h5.5v-4h-5.5Z" fill="#856417"/>
    <rect id="Rectangle_26" data-name="Rectangle 26" width="7" height="5.5" transform="translate(127.365 190.198)" fill="#fff"/>
    <path id="Path_258" data-name="Path 258" d="M134.365,196.448h-7a.75.75,0,0,1-.75-.75v-5.5a.75.75,0,0,1,.75-.75h7a.75.75,0,0,1,.75.75v5.5A.75.75,0,0,1,134.365,196.448Zm-6.25-1.5h5.5v-4h-5.5Z" fill="#856417"/>
    <path id="Rectangle_27" data-name="Rectangle 27" d="M0,0H7A0,0,0,0,1,7,0V5.5a0,0,0,0,1,0,0H1a1,1,0,0,1-1-1V0A0,0,0,0,1,0,0Z" transform="translate(106.365 195.698)" fill="#fff"/>
    <path id="Path_259" data-name="Path 259" d="M113.365,201.948h-6a1.752,1.752,0,0,1-1.75-1.75v-4.5a.75.75,0,0,1,.75-.75h7a.75.75,0,0,1,.75.75v5.5A.75.75,0,0,1,113.365,201.948Zm-6.25-5.5v3.75a.25.25,0,0,0,.25.25h5.25v-4Z" fill="#856417"/>
    <rect id="Rectangle_28" data-name="Rectangle 28" width="7" height="5.5" transform="translate(113.365 195.698)" fill="#fff"/>
    <path id="Path_260" data-name="Path 260" d="M120.365,201.948h-7a.75.75,0,0,1-.75-.75v-5.5a.75.75,0,0,1,.75-.75h7a.75.75,0,0,1,.75.75v5.5A.75.75,0,0,1,120.365,201.948Zm-6.25-1.5h5.5v-4h-5.5Z" fill="#856417"/>
    <rect id="Rectangle_29" data-name="Rectangle 29" width="7" height="5.5" transform="translate(120.365 195.698)" fill="#fff"/>
    <path id="Path_261" data-name="Path 261" d="M127.365,201.948h-7a.75.75,0,0,1-.75-.75v-5.5a.75.75,0,0,1,.75-.75h7a.75.75,0,0,1,.75.75v5.5A.75.75,0,0,1,127.365,201.948Zm-6.25-1.5h5.5v-4h-5.5Z" fill="#856417"/>
    <path id="Rectangle_30" data-name="Rectangle 30" d="M0,0H7A0,0,0,0,1,7,0V4.5a1,1,0,0,1-1,1H0a0,0,0,0,1,0,0V0A0,0,0,0,1,0,0Z" transform="translate(127.365 195.698)" fill="#fff"/>
    <path id="Path_262" data-name="Path 262" d="M133.365,201.948h-6a.75.75,0,0,1-.75-.75v-5.5a.75.75,0,0,1,.75-.75h7a.75.75,0,0,1,.75.75v4.5A1.752,1.752,0,0,1,133.365,201.948Zm-5.25-1.5h5.25a.25.25,0,0,0,.25-.25v-3.75h-5.5Z" fill="#856417"/>
    <rect id="Rectangle_31" data-name="Rectangle 31" width="28" height="7" rx="1" transform="translate(106.365 167.2)" fill="#fff"/>
    <path id="Path_263" data-name="Path 263" d="M133.365,174.949h-26a1.752,1.752,0,0,1-1.75-1.75v-5a1.752,1.752,0,0,1,1.75-1.75h26a1.752,1.752,0,0,1,1.75,1.75v5A1.752,1.752,0,0,1,133.365,174.949Zm-26-7a.251.251,0,0,0-.25.25v5a.25.25,0,0,0,.25.25h26a.25.25,0,0,0,.25-.25v-5a.251.251,0,0,0-.25-.25Z" fill="#856417"/>
    <path id="Path_264" data-name="Path 264" d="M122.37,171.45a.776.776,0,0,1-.54-.219.787.787,0,0,1-.21-.531.739.739,0,0,1,.21-.529.786.786,0,0,1,1.07,0,.749.749,0,0,1,.22.529.749.749,0,0,1-.75.75Z" fill="#856417"/>
    <path id="Path_265" data-name="Path 265" d="M125.61,170.7a.749.749,0,0,1,.75-.75h0a.751.751,0,0,1,.76.75h0a.758.758,0,0,1-.76.75h0A.755.755,0,0,1,125.61,170.7Z" fill="#856417"/>
    <path id="Path_266" data-name="Path 266" d="M130.36,171.45a.753.753,0,0,1-.53-.219.774.774,0,0,1,0-1.06.774.774,0,0,1,1.06,0,.726.726,0,0,1,0,1.06A.735.735,0,0,1,130.36,171.45Z" fill="#856417"/>
    <path id="Path_267" data-name="Path 267" d="M160.363,145.948a.748.748,0,0,1-.53-.22l-3-3a.75.75,0,1,1,1.06-1.061l3,3a.75.75,0,0,1-.53,1.281Z" fill="#856417"/>
    <path id="Path_268" data-name="Path 268" d="M157.363,145.948a.75.75,0,0,1-.53-1.281l3-3a.75.75,0,0,1,1.06,1.061l-3,3A.748.748,0,0,1,157.363,145.948Z" fill="#856417"/>
    <path id="Path_269" data-name="Path 269" d="M144.361,149.948a.75.75,0,0,1-.53-.22l-3-3a.75.75,0,1,1,1.061-1.061l3,3a.75.75,0,0,1-.531,1.281Z" fill="#856417"/>
    <path id="Path_270" data-name="Path 270" d="M141.361,149.948a.75.75,0,0,1-.53-1.281l3-3a.75.75,0,0,1,1.061,1.061l-3,3A.752.752,0,0,1,141.361,149.948Z" fill="#856417"/>
    <path id="Path_271" data-name="Path 271" d="M152.362,156.948a.748.748,0,0,1-.53-.218l-3-3a.75.75,0,0,1,1.061-1.061l3,3a.749.749,0,0,1-.531,1.279Z" fill="#856417"/>
    <path id="Path_272" data-name="Path 272" d="M149.362,156.948a.748.748,0,0,1-.53-1.279l3-3a.75.75,0,0,1,1.061,1.061l-3,3A.75.75,0,0,1,149.362,156.948Z" fill="#856417"/>
    <path id="Path_273" data-name="Path 273" d="M165.363,160.949a.749.749,0,0,1-.53-.219l-3-3a.75.75,0,0,1,1.061-1.061l3,3a.75.75,0,0,1-.531,1.28Z" fill="#856417"/>
    <path id="Path_274" data-name="Path 274" d="M162.363,160.949a.75.75,0,0,1-.53-1.28l3-3a.75.75,0,0,1,1.061,1.061l-3,3A.751.751,0,0,1,162.363,160.949Z" fill="#856417"/>
    <path id="Path_275" data-name="Path 275" d="M159.363,206.954a.745.745,0,0,1-.53-.221l-3-3a.75.75,0,1,1,1.06-1.06l3,3a.751.751,0,0,1-.53,1.281Z" fill="#856417"/>
    <path id="Path_276" data-name="Path 276" d="M156.363,206.954a.751.751,0,0,1-.53-1.281l3-3a.75.75,0,0,1,1.06,1.06l-3,3A.745.745,0,0,1,156.363,206.954Z" fill="#856417"/>
  </g>
</svg>
