<svg xmlns="http://www.w3.org/2000/svg" width="65.5" height="65.5" viewBox="0 0 65.5 65.5">
  <g id="payment" transform="translate(-341.048 -22.918)">
    <rect id="Rectangle_1" data-name="Rectangle 1" width="54.001" height="32.001" rx="1" transform="translate(405.798 55.669) rotate(180)" fill="#fff6db"/>
    <path id="Path_176" data-name="Path 176" d="M351.8,23.668h45v21a2,2,0,0,0-2,2h-43Z" fill="#fff"/>
    <path id="Path_177" data-name="Path 177" d="M404.8,56.419h-52a1.753,1.753,0,0,1-1.75-1.75v-30a1.753,1.753,0,0,1,1.75-1.75h52a1.752,1.752,0,0,1,1.75,1.75v30A1.752,1.752,0,0,1,404.8,56.419Zm-52-32a.251.251,0,0,0-.25.25v30a.251.251,0,0,0,.25.25h52a.251.251,0,0,0,.25-.25v-30a.25.25,0,0,0-.25-.25Z" fill="#856417"/>
    <path id="Path_178" data-name="Path 178" d="M360.8,29.668h36a3,3,0,0,0,3,3v14a3,3,0,0,0-3,3h-36a3,3,0,0,0-3-3v-14A3,3,0,0,0,360.8,29.668Z" fill="#fff"/>
    <path id="Path_179" data-name="Path 179" d="M396.8,50.418h-36a.75.75,0,0,1-.75-.75,2.252,2.252,0,0,0-2.25-2.25.75.75,0,0,1-.75-.75v-14a.75.75,0,0,1,.75-.75,2.252,2.252,0,0,0,2.25-2.25.75.75,0,0,1,.75-.75h36a.75.75,0,0,1,.75.75,2.253,2.253,0,0,0,2.25,2.25.75.75,0,0,1,.75.75v14a.75.75,0,0,1-.75.75,2.253,2.253,0,0,0-2.25,2.25A.75.75,0,0,1,396.8,50.418Zm-35.325-1.5h34.651a3.76,3.76,0,0,1,2.924-2.925V33.343a3.76,3.76,0,0,1-2.924-2.925H361.473a3.761,3.761,0,0,1-2.925,2.925v12.65A3.761,3.761,0,0,1,361.473,48.918Z" fill="#856417"/>
    <circle id="Ellipse_9" data-name="Ellipse 9" cx="2.5" cy="2.5" r="2.5" transform="translate(363.858 37.169)" fill="#fff6db"/>
    <path id="Path_180" data-name="Path 180" d="M366.358,42.919a3.25,3.25,0,1,1,3.25-3.25A3.254,3.254,0,0,1,366.358,42.919Zm0-5a1.75,1.75,0,1,0,1.75,1.75A1.752,1.752,0,0,0,366.358,37.919Z" fill="#856417"/>
    <circle id="Ellipse_10" data-name="Ellipse 10" cx="2.5" cy="2.5" r="2.5" transform="translate(389.61 37.167)" fill="#fff6db"/>
    <path id="Path_181" data-name="Path 181" d="M392.111,42.917a3.25,3.25,0,1,1,3.25-3.25A3.253,3.253,0,0,1,392.111,42.917Zm0-5a1.75,1.75,0,1,0,1.75,1.75A1.752,1.752,0,0,0,392.111,37.917Z" fill="#856417"/>
    <circle id="Ellipse_11" data-name="Ellipse 11" cx="6" cy="6" r="6" transform="translate(373.234 33.667)" fill="#fff"/>
    <path id="Path_182" data-name="Path 182" d="M379.234,33.667a6.065,6.065,0,0,0-.779.056,5.989,5.989,0,0,1-3.243,10.387,6,6,0,1,0,4.022-10.443Z" fill="#fff6db"/>
    <path id="Path_183" data-name="Path 183" d="M379.234,46.417a6.75,6.75,0,1,1,6.75-6.75A6.758,6.758,0,0,1,379.234,46.417Zm0-12a5.25,5.25,0,1,0,5.25,5.25A5.256,5.256,0,0,0,379.234,34.417Z" fill="#856417"/>
    <rect id="Rectangle_2" data-name="Rectangle 2" width="53.999" height="32.999" rx="2" transform="translate(341.798 54.669)" fill="#fff6db"/>
    <path id="Rectangle_3" data-name="Rectangle 3" d="M2,0H48a0,0,0,0,1,0,0V26a1,1,0,0,1-1,1H0a0,0,0,0,1,0,0V2A2,2,0,0,1,2,0Z" transform="translate(341.798 54.669)" fill="#fff"/>
    <path id="Path_184" data-name="Path 184" d="M393.8,88.418h-50a2.753,2.753,0,0,1-2.75-2.75v-29a2.752,2.752,0,0,1,2.75-2.75h50a2.752,2.752,0,0,1,2.75,2.75v29A2.752,2.752,0,0,1,393.8,88.418Zm-50-33a1.252,1.252,0,0,0-1.25,1.25v29a1.252,1.252,0,0,0,1.25,1.25h50a1.251,1.251,0,0,0,1.25-1.25v-29a1.251,1.251,0,0,0-1.25-1.25Z" fill="#856417"/>
    <rect id="Rectangle_4" data-name="Rectangle 4" width="11" height="8" rx="1" transform="translate(347.797 61.669)" fill="#fff6db"/>
    <path id="Rectangle_5" data-name="Rectangle 5" d="M0,0H7A1,1,0,0,1,8,1V5A0,0,0,0,1,8,5H1A1,1,0,0,1,0,4V0A0,0,0,0,1,0,0Z" transform="translate(347.797 64.669)" fill="#fff"/>
    <path id="Path_185" data-name="Path 185" d="M357.8,70.419h-9a1.753,1.753,0,0,1-1.75-1.75v-6a1.753,1.753,0,0,1,1.75-1.75h9a1.752,1.752,0,0,1,1.75,1.75v6A1.752,1.752,0,0,1,357.8,70.419Zm-9-8a.251.251,0,0,0-.25.25v6a.25.25,0,0,0,.25.25h9a.249.249,0,0,0,.25-.25v-6a.251.251,0,0,0-.25-.25Z" fill="#856417"/>
    <path id="Path_186" data-name="Path 186" d="M347.8,76.417a.75.75,0,0,1-.53-1.28.774.774,0,0,1,1.06,0,.751.751,0,0,1-.53,1.28Z" fill="#856417"/>
    <path id="Path_187" data-name="Path 187" d="M350.5,75.667a.749.749,0,0,1,.75-.75h0a.755.755,0,0,1,.75.75h0a.755.755,0,0,1-.75.75h0A.749.749,0,0,1,350.5,75.667Z" fill="#856417"/>
    <path id="Path_188" data-name="Path 188" d="M354.7,76.417a.769.769,0,0,1-.54-.221.773.773,0,0,1,0-1.059.774.774,0,0,1,1.06,0,.718.718,0,0,1,.23.53.747.747,0,0,1-.22.529A.782.782,0,0,1,354.7,76.417Z" fill="#856417"/>
    <path id="Path_189" data-name="Path 189" d="M359.5,76.417a.782.782,0,0,1-.53-.221.747.747,0,0,1,0-1.059.774.774,0,0,1,1.06,0,.751.751,0,0,1-.53,1.28Z" fill="#856417"/>
    <path id="Path_190" data-name="Path 190" d="M362.2,75.667a.749.749,0,0,1,.75-.75h0a.755.755,0,0,1,.75.75h0a.755.755,0,0,1-.75.75h0A.749.749,0,0,1,362.2,75.667Z" fill="#856417"/>
    <path id="Path_191" data-name="Path 191" d="M366.4,76.417a.75.75,0,0,1-.53-1.28.774.774,0,0,1,1.06,0,.747.747,0,0,1,0,1.059A.78.78,0,0,1,366.4,76.417Z" fill="#856417"/>
    <path id="Path_192" data-name="Path 192" d="M371.207,76.417a.73.73,0,0,1-.531-.221.75.75,0,0,1,0-1.059.774.774,0,0,1,1.06,0,.745.745,0,0,1,0,1.059A.763.763,0,0,1,371.207,76.417Z" fill="#856417"/>
    <path id="Path_193" data-name="Path 193" d="M373.9,75.667a.755.755,0,0,1,.75-.75h0a.749.749,0,0,1,.75.75h0a.749.749,0,0,1-.75.75h0A.755.755,0,0,1,373.9,75.667Z" fill="#856417"/>
    <path id="Path_194" data-name="Path 194" d="M378.1,76.417a.75.75,0,0,1-.53-1.28.775.775,0,0,1,1.061,0,.751.751,0,0,1-.531,1.28Z" fill="#856417"/>
    <path id="Path_195" data-name="Path 195" d="M382.906,76.417a.749.749,0,0,1-.529-1.28.773.773,0,0,1,1.059,0,.747.747,0,0,1,0,1.059A.764.764,0,0,1,382.906,76.417Z" fill="#856417"/>
    <path id="Path_196" data-name="Path 196" d="M385.6,75.667a.755.755,0,0,1,.75-.75h0a.758.758,0,0,1,.76.75h0a.758.758,0,0,1-.76.75h0A.755.755,0,0,1,385.6,75.667Z" fill="#856417"/>
    <path id="Path_197" data-name="Path 197" d="M389.8,76.417a.764.764,0,0,1-.53-.221.747.747,0,0,1,0-1.059.774.774,0,0,1,1.06,0,.751.751,0,0,1-.53,1.28Z" fill="#856417"/>
    <path id="Path_198" data-name="Path 198" d="M377.375,82.417h-14.79a.75.75,0,0,1,0-1.5h14.79a.75.75,0,0,1,0,1.5Z" fill="#856417"/>
    <path id="Path_199" data-name="Path 199" d="M357.584,82.417H347.8a.75.75,0,0,1,0-1.5h9.786a.75.75,0,0,1,0,1.5Z" fill="#856417"/>
    <path id="Path_200" data-name="Path 200" d="M346.8,45.417a.75.75,0,0,1-.75-.75V30.883a.75.75,0,1,1,1.5,0V44.667A.75.75,0,0,1,346.8,45.417Z" fill="#856417"/>
    <path id="Path_201" data-name="Path 201" d="M346.8,27.632a.75.75,0,0,1-.75-.75V24.668a.75.75,0,0,1,1.5,0v2.214A.75.75,0,0,1,346.8,27.632Z" fill="#856417"/>
    <path id="Path_202" data-name="Path 202" d="M400.8,84.421a.75.75,0,0,1-.75-.75V68.886a.75.75,0,0,1,1.5,0V83.671A.75.75,0,0,1,400.8,84.421Z" fill="#856417"/>
    <path id="Path_203" data-name="Path 203" d="M400.8,65.636a.75.75,0,0,1-.75-.75V62.672a.75.75,0,1,1,1.5,0v2.214A.75.75,0,0,1,400.8,65.636Z" fill="#856417"/>
  </g>
</svg>
