<svg xmlns="http://www.w3.org/2000/svg" width="65.5" height="65.5" viewBox="0 0 65.5 65.5">
  <g id="sale" transform="translate(-461.599 -261.885)">
    <path id="Path_460" data-name="Path 460" d="M475.861,280.384h-1.385a.75.75,0,1,1,0-1.5h1.385a.75.75,0,0,1,0,1.5Z" fill="#856417"/>
    <path id="Path_461" data-name="Path 461" d="M480.476,280.384h-1.385a.75.75,0,1,1,0-1.5h1.385a.75.75,0,0,1,0,1.5Z" fill="#856417"/>
    <path id="Path_462" data-name="Path 462" d="M477.476,283.384a.75.75,0,0,1-.75-.75v-1.385a.75.75,0,0,1,1.5,0v1.385A.75.75,0,0,1,477.476,283.384Z" fill="#856417"/>
    <path id="Path_463" data-name="Path 463" d="M477.476,278.769a.75.75,0,0,1-.75-.75v-1.385a.75.75,0,0,1,1.5,0v1.385A.75.75,0,0,1,477.476,278.769Z" fill="#856417"/>
    <path id="Path_464" data-name="Path 464" d="M486.862,274.384h-1.385a.75.75,0,1,1,0-1.5h1.385a.75.75,0,0,1,0,1.5Z" fill="#856417"/>
    <path id="Path_465" data-name="Path 465" d="M491.477,274.384h-1.384a.75.75,0,0,1,0-1.5h1.384a.75.75,0,0,1,0,1.5Z" fill="#856417"/>
    <path id="Path_466" data-name="Path 466" d="M488.477,277.384a.75.75,0,0,1-.75-.75v-1.385a.75.75,0,0,1,1.5,0v1.385A.75.75,0,0,1,488.477,277.384Z" fill="#856417"/>
    <path id="Path_467" data-name="Path 467" d="M488.477,272.767a.75.75,0,0,1-.75-.75v-1.383a.75.75,0,0,1,1.5,0v1.383A.75.75,0,0,1,488.477,272.767Z" fill="#856417"/>
    <path id="Path_468" data-name="Path 468" d="M504.864,278.384h-1.385a.75.75,0,0,1,0-1.5h1.385a.75.75,0,0,1,0,1.5Z" fill="#856417"/>
    <path id="Path_469" data-name="Path 469" d="M509.479,278.384h-1.385a.75.75,0,0,1,0-1.5h1.385a.75.75,0,0,1,0,1.5Z" fill="#856417"/>
    <path id="Path_470" data-name="Path 470" d="M506.479,281.384a.75.75,0,0,1-.75-.75v-1.385a.75.75,0,0,1,1.5,0v1.385A.75.75,0,0,1,506.479,281.384Z" fill="#856417"/>
    <path id="Path_471" data-name="Path 471" d="M506.479,276.769a.75.75,0,0,1-.75-.75v-1.385a.75.75,0,0,1,1.5,0v1.385A.75.75,0,0,1,506.479,276.769Z" fill="#856417"/>
    <path id="Path_472" data-name="Path 472" d="M524.349,294.634h-60l3.563,28.5a4,4,0,0,0,3.968,3.5h44.938a4,4,0,0,0,3.969-3.5Z" fill="#fff"/>
    <path id="Path_473" data-name="Path 473" d="M516.723,294.634l-2.937,23.5a4,4,0,0,1-3.969,3.5H467.724l.188,1.5a4,4,0,0,0,3.968,3.5h44.938a4,4,0,0,0,3.969-3.5l3.562-28.5Z" fill="#fff6db"/>
    <path id="Path_474" data-name="Path 474" d="M516.818,327.384H471.881a4.755,4.755,0,0,1-4.713-4.16l-3.563-28.5a.751.751,0,0,1,.744-.844h60a.749.749,0,0,1,.744.844l-3.561,28.5A4.758,4.758,0,0,1,516.818,327.384Zm-51.619-32,3.457,27.654a3.255,3.255,0,0,0,3.225,2.846h44.937a3.256,3.256,0,0,0,3.226-2.847l3.456-27.653Z" fill="#856417"/>
    <rect id="Rectangle_66" data-name="Rectangle 66" width="64" height="8" rx="1" transform="translate(462.349 286.634)" fill="#fff6db"/>
    <path id="Rectangle_67" data-name="Rectangle 67" d="M1,0H60a0,0,0,0,1,0,0V3a1,1,0,0,1-1,1H0A0,0,0,0,1,0,4V1A1,1,0,0,1,1,0Z" transform="translate(462.349 286.634)" fill="#fff"/>
    <path id="Path_475" data-name="Path 475" d="M525.349,295.384h-62a1.751,1.751,0,0,1-1.75-1.75v-6a1.753,1.753,0,0,1,1.75-1.75h62a1.753,1.753,0,0,1,1.75,1.75v6A1.751,1.751,0,0,1,525.349,295.384Zm-62-8a.251.251,0,0,0-.25.25v6a.25.25,0,0,0,.25.25h62a.249.249,0,0,0,.25-.25v-6a.251.251,0,0,0-.25-.25Z" fill="#856417"/>
    <path id="Path_476" data-name="Path 476" d="M522.349,287.384h-56a.749.749,0,0,1-.722-.95l4.98-17.844a5.768,5.768,0,0,1,5.539-4.206h36.407a5.768,5.768,0,0,1,5.539,4.2l4.98,17.845a.749.749,0,0,1-.723.95Zm-55.012-1.5h54.024l-4.714-16.893a4.266,4.266,0,0,0-4.094-3.107H476.146a4.266,4.266,0,0,0-4.094,3.109Z" fill="#856417"/>
    <rect id="Rectangle_68" data-name="Rectangle 68" width="26" height="5" rx="1" transform="translate(481.349 262.634)" fill="#fff6db"/>
    <path id="Path_477" data-name="Path 477" d="M506.349,268.384h-24a1.751,1.751,0,0,1-1.75-1.75v-3a1.753,1.753,0,0,1,1.75-1.75h24a1.753,1.753,0,0,1,1.75,1.75v3A1.751,1.751,0,0,1,506.349,268.384Zm-24-5a.251.251,0,0,0-.25.25v3a.25.25,0,0,0,.25.25h24a.249.249,0,0,0,.25-.25v-3a.251.251,0,0,0-.25-.25Z" fill="#856417"/>
    <path id="Path_478" data-name="Path 478" d="M505.351,317.383h-7a.751.751,0,0,1-.75-.75v-14a.75.75,0,0,1,1.5,0v13.25h6.25a.75.75,0,0,1,0,1.5Z" fill="#856417"/>
    <path id="Path_479" data-name="Path 479" d="M517.351,317.383h-8a.751.751,0,0,1-.75-.75v-14a.75.75,0,0,1,.75-.75h8a.75.75,0,0,1,0,1.5H510.1v12.5h7.25a.75.75,0,0,1,0,1.5Z" fill="#856417"/>
    <path id="Path_480" data-name="Path 480" d="M515.351,310.383h-6a.75.75,0,0,1,0-1.5h6a.75.75,0,0,1,0,1.5Z" fill="#856417"/>
    <path id="Path_481" data-name="Path 481" d="M484.349,311.632v-4.5a4.5,4.5,0,0,1,4.5-4.5h0a4.5,4.5,0,0,1,4.5,4.5v4.5Z" fill="#fff6db"/>
    <path id="Path_482" data-name="Path 482" d="M484.349,307.133v4.5h4.5v-9A4.5,4.5,0,0,0,484.349,307.133Z" fill="#fff"/>
    <path id="Path_483" data-name="Path 483" d="M493.35,312.383h-9a.751.751,0,0,1-.75-.75v-4.5a5.25,5.25,0,1,1,10.5,0v4.5A.751.751,0,0,1,493.35,312.383Zm-8.25-1.5h7.5v-3.75a3.75,3.75,0,1,0-7.5,0Z" fill="#856417"/>
    <path id="Path_484" data-name="Path 484" d="M493.35,317.383a.751.751,0,0,1-.75-.75v-4.25h-7.5v4.25a.75.75,0,0,1-1.5,0v-5a.75.75,0,0,1,.75-.75h9a.75.75,0,0,1,.75.75v5A.751.751,0,0,1,493.35,317.383Z" fill="#856417"/>
    <path id="Path_485" data-name="Path 485" d="M476.847,317.383h-4.5a.75.75,0,0,1,0-1.5h4.5a2.75,2.75,0,0,0,0-5.5h-2a4.25,4.25,0,0,1,0-8.5h4.5a.75.75,0,0,1,0,1.5h-4.5a2.75,2.75,0,0,0,0,5.5h2a4.25,4.25,0,0,1,0,8.5Z" fill="#856417"/>
  </g>
</svg>
