<svg xmlns="http://www.w3.org/2000/svg" width="65.505" height="65.457" viewBox="0 0 65.505 65.457">
  <g id="ship-order" transform="translate(-461.596 -141.473)">
    <path id="Path_341" data-name="Path 341" d="M522.345,152.222h-48l11-10h26Z" fill="#fff6db"/>
    <path id="Path_342" data-name="Path 342" d="M512.324,149.222H477.649l7.7-7h22.569l4.8,6.19A.5.5,0,0,1,512.324,149.222Z" fill="#fff"/>
    <path id="Path_343" data-name="Path 343" d="M522.345,152.972h-48a.751.751,0,0,1-.5-1.3l11-10a.756.756,0,0,1,.505-.194h26a.752.752,0,0,1,.505.194l11,10a.75.75,0,0,1-.505,1.3Zm-46.057-1.5h44.117l-9.351-8.5H485.638Z" fill="#856417"/>
    <rect id="Rectangle_36" data-name="Rectangle 36" width="47.998" height="44" transform="translate(474.347 152.226)" fill="#fff6db"/>
    <path id="Rectangle_37" data-name="Rectangle 37" d="M0,0H43a0,0,0,0,1,0,0V37a1,1,0,0,1-1,1H0a0,0,0,0,1,0,0V0A0,0,0,0,1,0,0Z" transform="translate(474.347 152.226)" fill="#fff"/>
    <path id="Path_344" data-name="Path 344" d="M522.345,196.976h-48a.75.75,0,0,1-.75-.75v-44a.75.75,0,0,1,.75-.75h48a.75.75,0,0,1,.75.75v44A.75.75,0,0,1,522.345,196.976Zm-47.248-1.5h46.5v-42.5H475.1Z" fill="#856417"/>
    <path id="Path_345" data-name="Path 345" d="M506.346,152.222h-16l2.75-10h10.5Z" fill="#fff6db"/>
    <path id="Path_346" data-name="Path 346" d="M501.346,152.222h-11l2.75-10h7.5Z" fill="#fff"/>
    <path id="Path_347" data-name="Path 347" d="M506.346,152.972h-16a.749.749,0,0,1-.722-.949l2.75-10a.746.746,0,0,1,.722-.551h10.5a.748.748,0,0,1,.723.551l2.75,10a.749.749,0,0,1-.723.949Zm-15.015-1.5h14.031l-2.337-8.5h-9.357Z" fill="#856417"/>
    <path id="Path_348" data-name="Path 348" d="M506.346,165.222l-8-4-8,4v-13h16Z" fill="#fff6db"/>
    <path id="Path_349" data-name="Path 349" d="M501.346,162.722l-3-1.5-8,4v-13h11Z" fill="#fff"/>
    <path id="Path_350" data-name="Path 350" d="M506.346,165.972a.762.762,0,0,1-.335-.078l-7.665-3.834-7.665,3.834a.751.751,0,0,1-1.085-.672v-13a.75.75,0,0,1,.75-.75h16a.75.75,0,0,1,.75.75v13a.749.749,0,0,1-.75.75Zm-8-5.5a.74.74,0,0,1,.335.079l6.915,3.458V152.972H491.1v11.037l6.915-3.458A.746.746,0,0,1,498.346,160.472Z" fill="#856417"/>
    <path id="Path_351" data-name="Path 351" d="M525.465,191.18c-1.93-1.6-7.278,3.317-21.19,5.944,1.834-.693,2.485-1.716,2.555-2.738.312-4.61-3.683-4.4-3.683-4.4-20.51.241-4.911-4.629-32.8-4.76V203.2s30.709,10.432,53.963-7.463C524.315,195.741,527.992,193.279,525.465,191.18Z" fill="#fff"/>
    <path id="Path_352" data-name="Path 352" d="M525.465,191.18c-.567-.472-1.442-.37-2.731.062a6.522,6.522,0,0,1-1.438,1.512c-18.582,15.459-42.932,11.9-50.944,10.169v.28s30.709,10.433,53.963-7.462C524.315,195.741,527.992,193.279,525.465,191.18Z" fill="#fff6db"/>
    <path id="Path_353" data-name="Path 353" d="M491.1,206.929a72.983,72.983,0,0,1-20.986-3.016.748.748,0,0,1-.509-.709V185.228a.748.748,0,0,1,.75-.75h0c15.11.07,17.693,1.557,19.972,2.869,1.864,1.073,3.47,2,12.81,1.89a4.607,4.607,0,0,1,3.244,1.252,4.905,4.905,0,0,1,1.2,3.948,3.254,3.254,0,0,1-.368,1.3,76.169,76.169,0,0,0,12.481-4.121c3.225-1.326,5-2.058,6.254-1.017h0a2.8,2.8,0,0,1,1.153,2.344c-.1,1.846-2.134,3.263-2.366,3.417C513.914,204.691,501.409,206.929,491.1,206.929ZM471.1,202.653c4.077,1.227,31.715,8.686,52.756-7.505.466-.317,1.7-1.35,1.742-2.28.008-.142.029-.577-.614-1.111h0c-.561-.464-2.307.256-4.725,1.25a75.759,75.759,0,0,1-15.846,4.854.75.75,0,0,1-.406-1.438c1.315-.5,2.012-1.2,2.073-2.088a3.512,3.512,0,0,0-.759-2.785,3.12,3.12,0,0,0-2.141-.813c-9.762.117-11.547-.907-13.6-2.089-2.081-1.2-4.435-2.553-18.478-2.667Z" fill="#856417"/>
    <path id="Path_354" data-name="Path 354" d="M497.3,198.706a67.833,67.833,0,0,1-8.735-.65.75.75,0,0,1,.2-1.487c8.553,1.129,13.039.536,15.3-.162a.75.75,0,1,1,.442,1.434A24.993,24.993,0,0,1,497.3,198.706Z" fill="#856417"/>
    <rect id="Rectangle_38" data-name="Rectangle 38" width="8" height="18" transform="translate(462.352 185.227)" fill="#fff6db"/>
    <path id="Rectangle_39" data-name="Rectangle 39" d="M0,0H5A0,0,0,0,1,5,0V14a1,1,0,0,1-1,1H0a0,0,0,0,1,0,0V0A0,0,0,0,1,0,0Z" transform="translate(462.346 185.227)" fill="#fff"/>
    <path id="Path_355" data-name="Path 355" d="M470.352,203.978h-8a.75.75,0,0,1-.75-.75v-18a.75.75,0,0,1,.75-.75h8a.75.75,0,0,1,.75.75v18A.75.75,0,0,1,470.352,203.978Zm-7.25-1.5h6.5v-16.5h-6.5Z" fill="#856417"/>
    <circle id="Ellipse_22" data-name="Ellipse 22" cx="1" cy="1" r="1" transform="translate(465.352 198.227)" fill="#856417"/>
    <rect id="Rectangle_40" data-name="Rectangle 40" width="15.999" height="9.999" transform="translate(501.35 175.226)" fill="#fff6db"/>
    <path id="Rectangle_41" data-name="Rectangle 41" d="M0,0H12a0,0,0,0,1,0,0V5a1,1,0,0,1-1,1H0A0,0,0,0,1,0,6V0A0,0,0,0,1,0,0Z" transform="translate(501.35 175.226)" fill="#fff"/>
    <path id="Path_356" data-name="Path 356" d="M517.349,185.975h-16a.75.75,0,0,1-.75-.75v-10a.75.75,0,0,1,.75-.75h16a.75.75,0,0,1,.75.75v10A.75.75,0,0,1,517.349,185.975Zm-15.249-1.5h14.5v-8.5H502.1Z" fill="#856417"/>
    <path id="Path_357" data-name="Path 357" d="M526.346,179.972a.75.75,0,0,1-.75-.75V166.437a.75.75,0,0,1,1.5,0v12.785A.75.75,0,0,1,526.346,179.972Z" fill="#856417"/>
    <path id="Path_358" data-name="Path 358" d="M526.346,163.187a.75.75,0,0,1-.75-.75v-2.215a.75.75,0,0,1,1.5,0v2.215A.75.75,0,0,1,526.346,163.187Z" fill="#856417"/>
    <path id="Path_359" data-name="Path 359" d="M465.346,178.976a.747.747,0,0,1-.53-.219l-3-3a.75.75,0,0,1,1.061-1.061l3,3a.749.749,0,0,1-.531,1.28Z" fill="#856417"/>
    <path id="Path_360" data-name="Path 360" d="M462.346,178.976a.749.749,0,0,1-.53-1.28l3-3a.75.75,0,1,1,1.061,1.061l-3,3A.75.75,0,0,1,462.346,178.976Z" fill="#856417"/>
    <path id="Path_361" data-name="Path 361" d="M469.346,166.976a.749.749,0,0,1-.53-.221l-3-3a.75.75,0,0,1,1.061-1.061l3,3a.751.751,0,0,1-.531,1.282Z" fill="#856417"/>
    <path id="Path_362" data-name="Path 362" d="M466.346,166.976a.751.751,0,0,1-.53-1.282l3-3a.75.75,0,1,1,1.061,1.061l-3,3A.752.752,0,0,1,466.346,166.976Z" fill="#856417"/>
    <path id="Path_363" data-name="Path 363" d="M465.346,152.974a.748.748,0,0,1-.53-.22l-3-3a.75.75,0,0,1,1.061-1.061l3,3a.751.751,0,0,1-.531,1.281Z" fill="#856417"/>
    <path id="Path_364" data-name="Path 364" d="M462.346,152.974a.751.751,0,0,1-.53-1.281l3-3a.75.75,0,1,1,1.061,1.061l-3,3A.751.751,0,0,1,462.346,152.974Z" fill="#856417"/>
    <path id="Path_365" data-name="Path 365" d="M474.347,145.973a.748.748,0,0,1-.53-.22l-3-3a.75.75,0,0,1,1.061-1.061l3,3a.751.751,0,0,1-.531,1.281Z" fill="#856417"/>
    <path id="Path_366" data-name="Path 366" d="M471.347,145.973a.751.751,0,0,1-.53-1.281l3-3a.75.75,0,1,1,1.061,1.061l-3,3A.751.751,0,0,1,471.347,145.973Z" fill="#856417"/>
  </g>
</svg>
