<svg xmlns="http://www.w3.org/2000/svg" width="65.5" height="65.506" viewBox="0 0 65.5 65.506">
  <g id="shop" transform="translate(-221.084 -261.883)">
    <rect id="Rectangle_42" data-name="Rectangle 42" width="52" height="45.999" transform="translate(227.834 280.635)" fill="#fff6db"/>
    <path id="Rectangle_43" data-name="Rectangle 43" d="M0,0H46a0,0,0,0,1,0,0V40a1,1,0,0,1-1,1H0a0,0,0,0,1,0,0V0A0,0,0,0,1,0,0Z" transform="translate(227.833 280.633)" fill="#fff"/>
    <path id="Path_400" data-name="Path 400" d="M279.834,327.384h-52a.75.75,0,0,1-.75-.75v-46a.751.751,0,0,1,.75-.75h52a.751.751,0,0,1,.75.75v46A.75.75,0,0,1,279.834,327.384Zm-51.25-1.5h50.5v-44.5h-50.5Z" fill="#856417"/>
    <path id="Path_401" data-name="Path 401" d="M285.834,327.384h-64a.75.75,0,0,1,0-1.5h64a.75.75,0,0,1,0,1.5Z" fill="#856417"/>
    <path id="Rectangle_44" data-name="Rectangle 44" d="M0,0H16a0,0,0,0,1,0,0V.667a6,6,0,0,1-6,6H6a6,6,0,0,1-6-6V0A0,0,0,0,1,0,0Z" transform="translate(269.833 280.633)" fill="#fff6db"/>
    <path id="Path_402" data-name="Path 402" d="M275.833,287.3h0a6.018,6.018,0,0,1-6-6v-.667h10V283.3A4.012,4.012,0,0,1,275.833,287.3Z" fill="#fff"/>
    <path id="Path_403" data-name="Path 403" d="M279.834,288.05h-4a6.758,6.758,0,0,1-6.75-6.75v-.666a.75.75,0,0,1,.75-.75h16a.751.751,0,0,1,.75.75v.666A6.759,6.759,0,0,1,279.834,288.05Zm-9.25-6.666a5.257,5.257,0,0,0,5.25,5.166h4a5.257,5.257,0,0,0,5.249-5.166Z" fill="#856417"/>
    <path id="Rectangle_45" data-name="Rectangle 45" d="M0,0H16a0,0,0,0,1,0,0V.667a6,6,0,0,1-6,6H6a6,6,0,0,1-6-6V0A0,0,0,0,1,0,0Z" transform="translate(253.835 280.633)" fill="#fff6db"/>
    <path id="Path_404" data-name="Path 404" d="M259.834,287.3h0a6.018,6.018,0,0,1-6-6v-.667h10V283.3A4.012,4.012,0,0,1,259.834,287.3Z" fill="#fff"/>
    <path id="Path_405" data-name="Path 405" d="M263.834,288.05h-4a6.758,6.758,0,0,1-6.75-6.75v-.666a.75.75,0,0,1,.75-.75h16a.75.75,0,0,1,.75.75v.666A6.758,6.758,0,0,1,263.834,288.05Zm-9.249-6.666a5.257,5.257,0,0,0,5.25,5.166h4a5.257,5.257,0,0,0,5.25-5.166Z" fill="#856417"/>
    <path id="Rectangle_46" data-name="Rectangle 46" d="M0,0H16a0,0,0,0,1,0,0V.667a6,6,0,0,1-6,6H6a6,6,0,0,1-6-6V0A0,0,0,0,1,0,0Z" transform="translate(237.834 280.633)" fill="#fff6db"/>
    <path id="Rectangle_47" data-name="Rectangle 47" d="M0,0H10a0,0,0,0,1,0,0V2.667a4,4,0,0,1-4,4H6a6,6,0,0,1-6-6V0A0,0,0,0,1,0,0Z" transform="translate(237.833 280.633)" fill="#fff"/>
    <path id="Path_406" data-name="Path 406" d="M247.834,288.05h-4a6.758,6.758,0,0,1-6.75-6.75v-.666a.75.75,0,0,1,.75-.75h16a.75.75,0,0,1,.75.75v.666A6.758,6.758,0,0,1,247.834,288.05Zm-9.249-6.666a5.256,5.256,0,0,0,5.249,5.166h4a5.258,5.258,0,0,0,5.25-5.166Z" fill="#856417"/>
    <path id="Rectangle_48" data-name="Rectangle 48" d="M0,0H16a0,0,0,0,1,0,0V.667a6,6,0,0,1-6,6H6a6,6,0,0,1-6-6V0A0,0,0,0,1,0,0Z" transform="translate(221.833 280.633)" fill="#fff6db"/>
    <path id="Path_407" data-name="Path 407" d="M227.833,287.3h0a6.018,6.018,0,0,1-6-6v-.667h10V283.3A4.012,4.012,0,0,1,227.833,287.3Z" fill="#fff"/>
    <path id="Path_408" data-name="Path 408" d="M231.834,288.05h-4a6.758,6.758,0,0,1-6.75-6.75v-.666a.75.75,0,0,1,.75-.75h16a.751.751,0,0,1,.75.75v.666A6.759,6.759,0,0,1,231.834,288.05Zm-9.25-6.666a5.257,5.257,0,0,0,5.25,5.166h4a5.257,5.257,0,0,0,5.249-5.166Z" fill="#856417"/>
    <path id="Path_409" data-name="Path 409" d="M231.835,270.633l-10,10h16l5-10Z" fill="#fff6db"/>
    <path id="Path_410" data-name="Path 410" d="M231.835,270.633l-10,10h10l7-10Z" fill="#fff"/>
    <path id="Path_411" data-name="Path 411" d="M237.835,281.384h-16a.75.75,0,0,1-.53-1.28l10-10a.747.747,0,0,1,.53-.22h11a.749.749,0,0,1,.67,1.085l-5,10A.746.746,0,0,1,237.835,281.384Zm-14.19-1.5h13.726l4.25-8.5h-9.475Z" fill="#856417"/>
    <path id="Path_412" data-name="Path 412" d="M275.833,270.633h-11l5,10h16Z" fill="#fff6db"/>
    <path id="Path_413" data-name="Path 413" d="M271.833,270.633h-7l5,10h10Z" fill="#fff"/>
    <path id="Path_414" data-name="Path 414" d="M285.834,281.384h-16a.748.748,0,0,1-.671-.415l-5-10a.75.75,0,0,1,.672-1.085h11a.746.746,0,0,1,.529.22l10,10a.75.75,0,0,1-.53,1.28Zm-15.537-1.5h13.726l-8.5-8.5h-9.477Z" fill="#856417"/>
    <path id="Path_415" data-name="Path 415" d="M242.835,270.633l-5,10h16v-10Z" fill="#fff6db"/>
    <path id="Path_416" data-name="Path 416" d="M242.835,270.633l-5,10h10l2-10Z" fill="#fff"/>
    <path id="Path_417" data-name="Path 417" d="M253.834,281.384h-16a.749.749,0,0,1-.671-1.085l5-10a.748.748,0,0,1,.671-.415h11a.75.75,0,0,1,.75.75v10A.75.75,0,0,1,253.834,281.384Zm-14.786-1.5h14.036v-8.5H243.3Z" fill="#856417"/>
    <path id="Path_418" data-name="Path 418" d="M264.833,270.633h-11v10h16Z" fill="#fff6db"/>
    <path id="Path_419" data-name="Path 419" d="M260.833,270.633h-7v10h10Z" fill="#fff"/>
    <path id="Path_420" data-name="Path 420" d="M269.834,281.384h-16a.75.75,0,0,1-.75-.75v-10a.75.75,0,0,1,.75-.75h11a.749.749,0,0,1,.67.415l5,10a.749.749,0,0,1-.67,1.085Zm-15.25-1.5H268.62l-4.25-8.5h-9.786Z" fill="#856417"/>
    <rect id="Rectangle_49" data-name="Rectangle 49" width="44" height="8" transform="translate(231.836 262.632)" fill="#fff6db"/>
    <rect id="Rectangle_50" data-name="Rectangle 50" width="35.999" height="8.001" transform="translate(231.836 262.632)" fill="#fff"/>
    <path id="Path_421" data-name="Path 421" d="M275.836,271.382h-44a.75.75,0,0,1-.75-.75v-8a.75.75,0,0,1,.75-.75h44a.75.75,0,0,1,.75.75v8A.75.75,0,0,1,275.836,271.382Zm-43.25-1.5h42.5v-6.5h-42.5Z" fill="#856417"/>
    <path id="Rectangle_51" data-name="Rectangle 51" d="M1,0H23a1,1,0,0,1,1,1V5a0,0,0,0,1,0,0H0A0,0,0,0,1,0,5V1A1,1,0,0,1,1,0Z" transform="translate(241.836 321.638)" fill="#fff"/>
    <path id="Path_422" data-name="Path 422" d="M265.836,327.388h-24a.75.75,0,0,1-.75-.75v-4a1.752,1.752,0,0,1,1.75-1.75h22a1.753,1.753,0,0,1,1.75,1.75v4A.75.75,0,0,1,265.836,327.388Zm-23.25-1.5h22.5v-3.25a.251.251,0,0,0-.25-.25h-22a.25.25,0,0,0-.25.25Z" fill="#856417"/>
    <rect id="Rectangle_52" data-name="Rectangle 52" width="12.999" height="20.001" transform="translate(260.836 292.634)" fill="#fff6db"/>
    <path id="Rectangle_53" data-name="Rectangle 53" d="M0,0H9A0,0,0,0,1,9,0V15a1,1,0,0,1-1,1H0a0,0,0,0,1,0,0V0A0,0,0,0,1,0,0Z" transform="translate(260.836 292.634)" fill="#fff"/>
    <path id="Path_423" data-name="Path 423" d="M273.835,313.384h-13a.749.749,0,0,1-.75-.75v-20a.75.75,0,0,1,.75-.75h13a.75.75,0,0,1,.75.75v20A.75.75,0,0,1,273.835,313.384Zm-12.249-1.5h11.5v-18.5h-11.5Z" fill="#856417"/>
    <rect id="Rectangle_54" data-name="Rectangle 54" width="13" height="20.001" transform="translate(233.833 292.634)" fill="#fff6db"/>
    <path id="Rectangle_55" data-name="Rectangle 55" d="M0,0H9A0,0,0,0,1,9,0V15a1,1,0,0,1-1,1H0a0,0,0,0,1,0,0V0A0,0,0,0,1,0,0Z" transform="translate(233.833 292.634)" fill="#fff"/>
    <path id="Path_424" data-name="Path 424" d="M246.832,313.384h-13a.749.749,0,0,1-.75-.75v-20a.75.75,0,0,1,.75-.75h13a.75.75,0,0,1,.75.75v20A.75.75,0,0,1,246.832,313.384Zm-12.248-1.5h11.5v-18.5h-11.5Z" fill="#856417"/>
    <rect id="Rectangle_56" data-name="Rectangle 56" width="14" height="29.001" transform="translate(246.834 292.634)" fill="#fff6db"/>
    <path id="Rectangle_57" data-name="Rectangle 57" d="M0,0H10a0,0,0,0,1,0,0V24a1,1,0,0,1-1,1H0a0,0,0,0,1,0,0V0A0,0,0,0,1,0,0Z" transform="translate(246.834 292.634)" fill="#fff"/>
    <path id="Path_425" data-name="Path 425" d="M260.834,322.386h-14a.75.75,0,0,1-.75-.75v-29a.751.751,0,0,1,.75-.75h14a.751.751,0,0,1,.75.75v29A.75.75,0,0,1,260.834,322.386Zm-13.25-1.5h12.5v-27.5h-12.5Z" fill="#856417"/>
    <circle id="Ellipse_23" data-name="Ellipse 23" cx="1" cy="1" r="1" transform="translate(255.835 307.635)" fill="#856417"/>
    <path id="Path_426" data-name="Path 426" d="M283.835,322.388a.75.75,0,0,1-.75-.75V307.853a.75.75,0,0,1,1.5,0v13.785A.75.75,0,0,1,283.835,322.388Z" fill="#856417"/>
    <path id="Path_427" data-name="Path 427" d="M283.835,304.6a.75.75,0,0,1-.75-.75v-2.215a.75.75,0,0,1,1.5,0v2.215A.75.75,0,0,1,283.835,304.6Z" fill="#856417"/>
    <path id="Path_428" data-name="Path 428" d="M223.834,312.387a.75.75,0,0,1-.75-.75V299.851a.75.75,0,0,1,1.5,0v11.786A.751.751,0,0,1,223.834,312.387Z" fill="#856417"/>
    <path id="Path_429" data-name="Path 429" d="M223.834,296.6a.749.749,0,0,1-.75-.75v-2.214a.75.75,0,0,1,1.5,0v2.214A.75.75,0,0,1,223.834,296.6Z" fill="#856417"/>
  </g>
</svg>
