<svg xmlns="http://www.w3.org/2000/svg" width="65.501" height="65.502" viewBox="0 0 65.501 65.502">
  <g id="shopping-bag" transform="translate(-221.083 -22.918)">
    <path id="Path_156" data-name="Path 156" d="M280.75,87.669H226.917a1,1,0,0,1-1-1.08l3.915-48.922h48l3.914,48.922A1,1,0,0,1,280.75,87.669Z" fill="#fff"/>
    <path id="Path_157" data-name="Path 157" d="M277.833,37.667h-6.867l2.523,42.768a1,1,0,0,1-1,1.058H226.328l-.408,5.1a1,1,0,0,0,1,1.08H280.75a1,1,0,0,0,1-1.08Z" fill="#fff6db"/>
    <path id="Path_158" data-name="Path 158" d="M280.75,88.419H226.917a1.751,1.751,0,0,1-1.744-1.891l3.914-48.92a.75.75,0,0,1,.747-.691h48a.75.75,0,0,1,.747.691l3.914,48.92a1.749,1.749,0,0,1-1.744,1.891Zm-50.224-50-3.858,48.231a.25.25,0,0,0,.249.271H280.75a.251.251,0,0,0,.183-.08.255.255,0,0,0,.066-.191L277.14,38.417Z" fill="#856417"/>
    <path id="Path_159" data-name="Path 159" d="M277.833,37.667h-48l11-8-7-6h40l-7,6Z" fill="#fff6db"/>
    <path id="Path_160" data-name="Path 160" d="M259.832,37.667h-19v-8l-7-6h26Z" fill="#fff"/>
    <path id="Path_161" data-name="Path 161" d="M277.834,38.417h-48a.749.749,0,0,1-.441-1.356l10.233-7.443-6.28-5.381a.75.75,0,0,1,.488-1.32h40a.75.75,0,0,1,.487,1.32l-6.28,5.381,10.233,7.443a.75.75,0,0,1-.44,1.356Zm-45.694-1.5h43.386l-9.135-6.643a.751.751,0,0,1-.047-1.176l5.461-4.681H235.862l5.461,4.681a.75.75,0,0,1-.048,1.176Z" fill="#856417"/>
    <path id="Path_162" data-name="Path 162" d="M233.834,35.509a.751.751,0,0,1-.75-.75V23.667a.749.749,0,0,1,1.238-.568l7,6a.75.75,0,0,1-.048,1.176l-7,5.09A.742.742,0,0,1,233.834,35.509Zm.75-10.211v7.988l5.042-3.668Z" fill="#856417"/>
    <path id="Path_163" data-name="Path 163" d="M273.833,23.667l-7,6,7,5.092Z" fill="#fff"/>
    <path id="Path_164" data-name="Path 164" d="M273.834,35.509a.745.745,0,0,1-.442-.145l-7-5.09a.751.751,0,0,1-.047-1.176l7-6a.75.75,0,0,1,1.239.568V34.759a.751.751,0,0,1-.411.668A.743.743,0,0,1,273.834,35.509Zm-5.793-5.891,5.043,3.668V25.3Z" fill="#856417"/>
    <path id="Path_165" data-name="Path 165" d="M240.835,29.667l-11,8h11Z" fill="#fff"/>
    <path id="Path_166" data-name="Path 166" d="M240.835,38.417h-11a.749.749,0,0,1-.441-1.356l11-8a.75.75,0,0,1,1.191.606v8a.749.749,0,0,1-.75.75Zm-8.7-1.5h7.945V31.14Z" fill="#856417"/>
    <path id="Path_167" data-name="Path 167" d="M266.832,29.667l11,8h-11Z" fill="#fff"/>
    <path id="Path_168" data-name="Path 168" d="M277.834,38.417h-11a.75.75,0,0,1-.75-.75v-8a.75.75,0,0,1,1.191-.606l11,8a.75.75,0,0,1-.44,1.356Zm-10.252-1.5h7.944l-7.944-5.777Z" fill="#856417"/>
    <circle id="Ellipse_7" data-name="Ellipse 7" cx="3.5" cy="3.5" r="3.5" transform="translate(262.332 44.168)" fill="#fff"/>
    <path id="Path_169" data-name="Path 169" d="M265.832,51.918a4.25,4.25,0,1,1,4.25-4.25A4.255,4.255,0,0,1,265.832,51.918Zm0-7a2.75,2.75,0,1,0,2.75,2.75A2.753,2.753,0,0,0,265.832,44.918Z" fill="#856417"/>
    <circle id="Ellipse_8" data-name="Ellipse 8" cx="3.5" cy="3.5" r="3.5" transform="translate(238.33 44.168)" fill="#fff"/>
    <path id="Path_170" data-name="Path 170" d="M241.83,51.918a4.25,4.25,0,1,1,4.25-4.25A4.255,4.255,0,0,1,241.83,51.918Zm0-7a2.75,2.75,0,1,0,2.75,2.75A2.752,2.752,0,0,0,241.83,44.918Z" fill="#856417"/>
    <path id="Path_171" data-name="Path 171" d="M253.831,66.419a12.765,12.765,0,0,1-12.75-12.75v-3a.75.75,0,0,1,1.5,0v3a11.25,11.25,0,0,0,22.5,0v-3a.75.75,0,0,1,1.5,0v3A12.766,12.766,0,0,1,253.831,66.419Z" fill="#856417"/>
    <path id="Path_172" data-name="Path 172" d="M285.834,75.925a.749.749,0,0,1-.747-.69l-1.7-21.242a.75.75,0,1,1,1.495-.119l1.7,21.242a.75.75,0,0,1-.688.807C285.874,75.925,285.853,75.925,285.834,75.925Z" fill="#856417"/>
    <path id="Path_173" data-name="Path 173" d="M283.793,50.417a.749.749,0,0,1-.747-.689l-.269-3.368a.749.749,0,0,1,.688-.807.758.758,0,0,1,.807.688l.269,3.367a.75.75,0,0,1-.688.807A.592.592,0,0,1,283.793,50.417Z" fill="#856417"/>
    <path id="Path_174" data-name="Path 174" d="M223.316,57.392l-.06,0a.75.75,0,0,1-.688-.808l.264-3.3a.762.762,0,0,1,.807-.687.749.749,0,0,1,.688.806l-.264,3.3A.751.751,0,0,1,223.316,57.392Z" fill="#856417"/>
    <path id="Path_175" data-name="Path 175" d="M221.835,75.916c-.02,0-.041,0-.061,0a.749.749,0,0,1-.688-.806l1.16-14.5a.765.765,0,0,1,.807-.687.75.75,0,0,1,.688.807l-1.16,14.5A.75.75,0,0,1,221.835,75.916Z" fill="#856417"/>
  </g>
</svg>
