<svg xmlns="http://www.w3.org/2000/svg" width="65.5" height="65.508" viewBox="0 0 65.5 65.508">
  <g id="shopping" transform="translate(-100.614 -261.881)">
    <path id="Path_367" data-name="Path 367" d="M120.12,299.018a3.748,3.748,0,0,1-.861,2.567l-4.289,5.164-9.77-1.2a3.425,3.425,0,0,0-3.828,3.665,3.506,3.506,0,0,0,3.128,3.143l10.31,1.256a5,5,0,0,0,4.356-1.664l7.059-8.047,7.556,7.5-3.573,10.567a3.529,3.529,0,0,0,1.545,4.247,3.422,3.422,0,0,0,4.885-1.9l3.929-11.7a5,5,0,0,0-1.173-5.094l-6.489-6.6a3.751,3.751,0,0,1-1.071-2.455l-.057-1.246-11.714.553Z" fill="#fff"/>
    <path id="Path_368" data-name="Path 368" d="M139.394,307.522l-6.489-6.6a3.751,3.751,0,0,1-1.071-2.455l-.057-1.246-3.275.154.1,1.846a3.749,3.749,0,0,0,1.071,2.455l7.562,7.692a2.5,2.5,0,0,1,.588,2.552l-4.417,13.147a3.4,3.4,0,0,1-.935,1.421,3.341,3.341,0,0,0,4.167-2.175l3.929-11.7A5,5,0,0,0,139.394,307.522Z" fill="#fff6db"/>
    <path id="Path_369" data-name="Path 369" d="M133.4,327.388a4.232,4.232,0,0,1-2-.51,4.3,4.3,0,0,1-1.9-5.148l3.423-10.123L126.263,305l-6.533,7.446a5.723,5.723,0,0,1-5.011,1.915l-10.31-1.255a4.24,4.24,0,0,1-3.785-3.835,4.19,4.19,0,0,1,1.289-3.346,4.136,4.136,0,0,1,3.378-1.116l9.363,1.145,4.029-4.849a2.994,2.994,0,0,0,.688-2.052h0l-.057-1.246a.75.75,0,0,1,.714-.784l11.714-.551a.738.738,0,0,1,.54.194.75.75,0,0,1,.244.521l.057,1.245a3,3,0,0,0,.857,1.964l6.488,6.6a5.718,5.718,0,0,1,1.35,5.859l-3.929,11.695a4.151,4.151,0,0,1-3.761,2.834C133.525,327.387,133.463,327.388,133.4,327.388Zm-7.175-24.232a.746.746,0,0,1,.529.218l7.555,7.5a.75.75,0,0,1,.182.773l-3.573,10.566a2.786,2.786,0,0,0,1.19,3.347,2.711,2.711,0,0,0,1.411.328,2.66,2.66,0,0,0,2.408-1.815l3.929-11.694a4.23,4.23,0,0,0-1-4.331l-6.489-6.6a4.485,4.485,0,0,1-1.285-2.946l-.023-.495-10.215.481.022.5a4.5,4.5,0,0,1-1.032,3.082l-4.291,5.164a.742.742,0,0,1-.668.264l-9.77-1.2a2.677,2.677,0,0,0-2.988,2.871,2.776,2.776,0,0,0,2.471,2.451l10.309,1.255a4.253,4.253,0,0,0,3.7-1.415l7.059-8.046a.75.75,0,0,1,.538-.256Z" fill="#856417"/>
    <path id="Path_370" data-name="Path 370" d="M151.12,277.682a3.044,3.044,0,0,0-3.958-.868l-7.15,3.819a3.049,3.049,0,0,1-2.8.036l-5.835-2.925c-3.963-1.985-8.744-2.46-12.684-.428-1.682.868-5.59,3.372-7.611,4.682a4.962,4.962,0,0,0-1.856,2.2l-3.365,7.743a3.045,3.045,0,0,0,1.247,3.751,2.929,2.929,0,0,0,4.174-1.513l2.858-6.626a2.5,2.5,0,0,1,1.019-1.159l4.265-2.531.639,13.914,11.714-.553-.6-13.014L136.6,286.8a4.99,4.99,0,0,0,4.5-.1l8.97-4.784A2.934,2.934,0,0,0,151.12,277.682Z" fill="#fff"/>
    <path id="Path_371" data-name="Path 371" d="M151.42,278.256l-10.38,5.536a3.741,3.741,0,0,1-3.366.08L131.606,281a3.166,3.166,0,0,0-4.518,3.008l.616,13.407,4.073-.192-.6-13.014L136.6,286.8a4.99,4.99,0,0,0,4.5-.1l8.97-4.784A2.933,2.933,0,0,0,151.42,278.256Z" fill="#fff6db"/>
    <path id="Path_372" data-name="Path 372" d="M120.063,298.523a.751.751,0,0,1-.749-.716l-.582-12.665-3.19,1.893a1.741,1.741,0,0,0-.714.812l-2.857,6.626a3.679,3.679,0,0,1-5.228,1.871,3.794,3.794,0,0,1-1.583-4.674l3.378-7.774a5.705,5.705,0,0,1,2.136-2.527c2.14-1.388,5.983-3.846,7.676-4.719,3.863-1.993,8.859-1.833,13.362.424L137.548,280a2.3,2.3,0,0,0,2.11-.027l7.151-3.819a3.8,3.8,0,0,1,4.934,1.112h0a3.683,3.683,0,0,1-1.32,5.306l-8.971,4.786a5.763,5.763,0,0,1-5.177.116l-4.29-2.049.54,11.763a.75.75,0,0,1-.714.783l-11.714.551A.2.2,0,0,1,120.063,298.523Zm-.639-15.415a.763.763,0,0,1,.356.091.75.75,0,0,1,.393.626l.605,13.162,10.215-.48-.563-12.266a.751.751,0,0,1,1.073-.711l5.419,2.589a4.258,4.258,0,0,0,3.825-.086l8.97-4.784a2.185,2.185,0,0,0,.78-3.15h0a2.3,2.3,0,0,0-2.981-.623l-7.151,3.818a3.8,3.8,0,0,1-3.488.047l-5.836-2.925c-4.077-2.043-8.565-2.2-12-.433-1.635.844-5.43,3.272-7.547,4.644a4.216,4.216,0,0,0-1.576,1.866l-3.365,7.743a2.277,2.277,0,0,0,.924,2.8,2.252,2.252,0,0,0,1.168.28,2.184,2.184,0,0,0,1.941-1.4l2.869-6.656a3.23,3.23,0,0,1,1.325-1.508l4.265-2.53A.754.754,0,0,1,119.424,283.108Z" fill="#856417"/>
    <path id="Path_373" data-name="Path 373" d="M129.931,267.753a5.072,5.072,0,1,0-5.114,5.032A5.073,5.073,0,0,0,129.931,267.753Z" fill="#fff"/>
    <path id="Path_374" data-name="Path 374" d="M127.919,265.707a5.047,5.047,0,0,1,1.709.331,5.061,5.061,0,1,0-6.519,6.415,5.028,5.028,0,0,1,4.81-6.746Z" fill="#fff6db"/>
    <path id="Path_375" data-name="Path 375" d="M124.861,273.535h-.05a5.824,5.824,0,0,1-4.035-9.974,5.893,5.893,0,0,1,4.131-1.673,5.825,5.825,0,0,1,5.774,5.871l-.75-.006.75.006a5.825,5.825,0,0,1-5.82,5.776Zm0-10.147a4.324,4.324,0,0,0-.034,8.647,4.463,4.463,0,0,0,3.066-1.241,4.324,4.324,0,0,0-3-7.406Z" fill="#856417"/>
    <path id="Path_376" data-name="Path 376" d="M163.658,307.968l-16.948,2.526a2,2,0,0,1-2.286-1.783l-1.688-17.2,19.189-2.861,3.4,16.947A2,2,0,0,1,163.658,307.968Z" fill="#fff6db"/>
    <path id="Path_377" data-name="Path 377" d="M158.6,303.58l-14.356,3.254-1.5-15.325,14.671-2.188,1.957,13.136A1,1,0,0,1,158.6,303.58Z" fill="#fff"/>
    <path id="Path_378" data-name="Path 378" d="M146.407,311.267a2.751,2.751,0,0,1-2.73-2.483l-1.688-17.2a.751.751,0,0,1,.637-.815l19.189-2.861a.758.758,0,0,1,.845.6l3.4,16.947a2.752,2.752,0,0,1-2.29,3.262h0l-16.949,2.527A2.743,2.743,0,0,1,146.407,311.267Zm-2.855-19.121,1.618,16.492a1.243,1.243,0,0,0,.476.864,1.227,1.227,0,0,0,.953.251l16.948-2.527a1.249,1.249,0,0,0,1.041-1.483l-3.258-16.248Zm20.106,15.822h0Z" fill="#856417"/>
    <path id="Path_379" data-name="Path 379" d="M147.847,294.781a.75.75,0,0,1-.74-.639l-.989-6.573a5.829,5.829,0,1,1,11.53-1.718l.966,6.482a.75.75,0,1,1-1.483.221l-.966-6.483a4.329,4.329,0,1,0-8.564,1.277l.989,6.572a.751.751,0,0,1-.63.853A.87.87,0,0,1,147.847,294.781Z" fill="#856417"/>
    <path id="Path_380" data-name="Path 380" d="M161.363,327.387h-5.734a.75.75,0,1,1,0-1.5h5.734a.75.75,0,0,1,0,1.5Z" fill="#856417"/>
    <path id="Path_381" data-name="Path 381" d="M151.629,327.387h-18.3a.75.75,0,0,1,0-1.5h18.3a.75.75,0,0,1,0,1.5Z" fill="#856417"/>
    <path id="Path_382" data-name="Path 382" d="M126.066,327.387H121.1a.75.75,0,0,1,0-1.5h4.971a.75.75,0,0,1,0,1.5Z" fill="#856417"/>
    <path id="Path_383" data-name="Path 383" d="M117.1,327.387H105.364a.75.75,0,1,1,0-1.5H117.1a.75.75,0,1,1,0,1.5Z" fill="#856417"/>
    <path id="Path_384" data-name="Path 384" d="M156.362,321.387H144.326a.75.75,0,0,1,0-1.5h12.036a.75.75,0,0,1,0,1.5Z" fill="#856417"/>
    <path id="Path_385" data-name="Path 385" d="M165.363,315.386H153.327a.75.75,0,1,1,0-1.5h12.036a.75.75,0,0,1,0,1.5Z" fill="#856417"/>
    <path id="Path_386" data-name="Path 386" d="M122.066,321.387h-8.7a.75.75,0,0,1,0-1.5h8.7a.75.75,0,0,1,0,1.5Z" fill="#856417"/>
    <path id="Path_387" data-name="Path 387" d="M128.067,315.386h-4.7a.75.75,0,0,1,0-1.5h4.7a.75.75,0,1,1,0,1.5Z" fill="#856417"/>
    <path id="Path_388" data-name="Path 388" d="M140.728,266.381h-1.385a.75.75,0,0,1,0-1.5h1.385a.75.75,0,0,1,0,1.5Z" fill="#856417"/>
    <path id="Path_389" data-name="Path 389" d="M145.343,266.381h-1.384a.75.75,0,1,1,0-1.5h1.384a.75.75,0,1,1,0,1.5Z" fill="#856417"/>
    <path id="Path_390" data-name="Path 390" d="M142.343,269.381a.75.75,0,0,1-.75-.75v-1.385a.75.75,0,0,1,1.5,0v1.385A.75.75,0,0,1,142.343,269.381Z" fill="#856417"/>
    <path id="Path_391" data-name="Path 391" d="M142.343,264.766a.751.751,0,0,1-.75-.75v-1.385a.75.75,0,0,1,1.5,0v1.385A.751.751,0,0,1,142.343,264.766Z" fill="#856417"/>
    <path id="Path_392" data-name="Path 392" d="M107.724,272.382H106.34a.75.75,0,0,1,0-1.5h1.384a.75.75,0,0,1,0,1.5Z" fill="#856417"/>
    <path id="Path_393" data-name="Path 393" d="M112.34,272.382h-1.385a.75.75,0,1,1,0-1.5h1.385a.75.75,0,1,1,0,1.5Z" fill="#856417"/>
    <path id="Path_394" data-name="Path 394" d="M109.34,275.382a.75.75,0,0,1-.75-.75v-1.385a.75.75,0,0,1,1.5,0v1.385A.75.75,0,0,1,109.34,275.382Z" fill="#856417"/>
    <path id="Path_395" data-name="Path 395" d="M109.34,270.767a.75.75,0,0,1-.75-.75v-1.385a.75.75,0,0,1,1.5,0v1.385A.75.75,0,0,1,109.34,270.767Z" fill="#856417"/>
    <path id="Path_396" data-name="Path 396" d="M160.73,278.382h-1.385a.75.75,0,0,1,0-1.5h1.385a.75.75,0,0,1,0,1.5Z" fill="#856417"/>
    <path id="Path_397" data-name="Path 397" d="M165.345,278.382h-1.384a.75.75,0,0,1,0-1.5h1.384a.75.75,0,1,1,0,1.5Z" fill="#856417"/>
    <path id="Path_398" data-name="Path 398" d="M162.345,281.382a.75.75,0,0,1-.75-.75v-1.384a.75.75,0,0,1,1.5,0v1.384A.75.75,0,0,1,162.345,281.382Z" fill="#856417"/>
    <path id="Path_399" data-name="Path 399" d="M162.345,276.767a.75.75,0,0,1-.75-.75v-1.385a.75.75,0,0,1,1.5,0v1.385A.75.75,0,0,1,162.345,276.767Z" fill="#856417"/>
  </g>
</svg>
