<svg xmlns="http://www.w3.org/2000/svg" width="65.5" height="65.5" viewBox="0 0 65.5 65.5">
  <g id="special-offers" transform="translate(-221.084 -381.67)">
    <path id="Path_505" data-name="Path 505" d="M253.834,382.419a32,32,0,0,0-27.912,47.647l-4.088,16.35,16.35-4.088a32,32,0,1,0,15.65-59.909Z" fill="#fff"/>
    <path id="Path_506" data-name="Path 506" d="M270.894,387.351A31.994,31.994,0,0,1,225.737,430.8l-3.9,15.61,16.35-4.087a32,32,0,0,0,32.71-54.977Z" fill="#fff6db"/>
    <path id="Path_507" data-name="Path 507" d="M253.834,447.169a32.768,32.768,0,0,1-15.756-4.041l-16.062,4.016a.756.756,0,0,1-.712-.2.748.748,0,0,1-.2-.712l4.016-16.063a32.749,32.749,0,1,1,28.711,17Zm-15.65-5.591a.742.742,0,0,1,.367.1A31.253,31.253,0,1,0,226.576,429.7a.751.751,0,0,1,.074.549l-3.785,15.138L238,441.6A.75.75,0,0,1,238.184,441.578Z" fill="#856417"/>
    <path id="Path_508" data-name="Path 508" d="M225.834,390.169h-4a.75.75,0,0,1,0-1.5h4a.75.75,0,1,1,0,1.5Z" fill="#856417"/>
    <path id="Path_509" data-name="Path 509" d="M223.834,392.169a.75.75,0,0,1-.75-.75v-4a.75.75,0,0,1,1.5,0v4A.75.75,0,0,1,223.834,392.169Z" fill="#856417"/>
    <path id="Path_510" data-name="Path 510" d="M233.835,385.169h-4a.75.75,0,0,1,0-1.5h4a.75.75,0,1,1,0,1.5Z" fill="#856417"/>
    <path id="Path_511" data-name="Path 511" d="M231.835,387.169a.75.75,0,0,1-.75-.75v-4a.75.75,0,0,1,1.5,0v4A.75.75,0,0,1,231.835,387.169Z" fill="#856417"/>
    <path id="Path_512" data-name="Path 512" d="M280.834,445.169h-4a.75.75,0,0,1,0-1.5h4a.75.75,0,0,1,0,1.5Z" fill="#856417"/>
    <path id="Path_513" data-name="Path 513" d="M278.834,447.169a.75.75,0,0,1-.75-.75v-4a.75.75,0,0,1,1.5,0v4A.75.75,0,0,1,278.834,447.169Z" fill="#856417"/>
    <path id="Path_514" data-name="Path 514" d="M285.834,438.168h-4a.75.75,0,0,1,0-1.5h4a.75.75,0,0,1,0,1.5Z" fill="#856417"/>
    <path id="Path_515" data-name="Path 515" d="M283.834,440.168a.75.75,0,0,1-.75-.75v-4a.75.75,0,0,1,1.5,0v4A.75.75,0,0,1,283.834,440.168Z" fill="#856417"/>
    <path id="Path_516" data-name="Path 516" d="M281.834,388.163h-4a.75.75,0,0,1,0-1.5h4a.75.75,0,0,1,0,1.5Z" fill="#856417"/>
    <path id="Path_517" data-name="Path 517" d="M279.834,390.163a.75.75,0,0,1-.75-.75v-4a.75.75,0,0,1,1.5,0v4A.75.75,0,0,1,279.834,390.163Z" fill="#856417"/>
    <path id="Path_518" data-name="Path 518" d="M255.4,389.111l3.111,3.415a2.12,2.12,0,0,0,2.213.593l4.4-1.4a2.122,2.122,0,0,1,2.717,1.568l.987,4.514a2.122,2.122,0,0,0,1.62,1.619l4.513.987a2.124,2.124,0,0,1,1.569,2.718l-1.4,4.4a2.123,2.123,0,0,0,.593,2.213l3.415,3.112a2.122,2.122,0,0,1,0,3.137l-3.415,3.112a2.124,2.124,0,0,0-.593,2.213l1.4,4.4a2.123,2.123,0,0,1-1.569,2.717l-4.513.987a2.122,2.122,0,0,0-1.62,1.62l-.987,4.513a2.121,2.121,0,0,1-2.717,1.568l-4.4-1.4a2.122,2.122,0,0,0-2.213.593l-3.111,3.415a2.124,2.124,0,0,1-3.138,0l-3.111-3.415a2.122,2.122,0,0,0-2.213-.593l-4.4,1.4a2.121,2.121,0,0,1-2.717-1.568l-.987-4.513a2.122,2.122,0,0,0-1.62-1.62l-4.513-.987a2.123,2.123,0,0,1-1.569-2.717l1.4-4.4a2.124,2.124,0,0,0-.593-2.213l-3.415-3.112a2.122,2.122,0,0,1,0-3.137l3.415-3.112a2.123,2.123,0,0,0,.593-2.213l-1.4-4.4a2.124,2.124,0,0,1,1.569-2.718l4.513-.987a2.122,2.122,0,0,0,1.62-1.619l.987-4.514a2.122,2.122,0,0,1,2.717-1.568l4.4,1.4a2.12,2.12,0,0,0,2.213-.593l3.111-3.415A2.124,2.124,0,0,1,255.4,389.111Z" fill="#fff"/>
    <path id="Path_519" data-name="Path 519" d="M253.834,441.169a2.876,2.876,0,0,1-2.123-.939l-3.111-3.414a1.382,1.382,0,0,0-1.432-.383l-4.4,1.4a2.874,2.874,0,0,1-3.678-2.124L238.1,431.2a1.377,1.377,0,0,0-1.047-1.048l-4.513-.987a2.871,2.871,0,0,1-2.123-3.677l1.4-4.4a1.377,1.377,0,0,0-.383-1.431l-3.415-3.111a2.873,2.873,0,0,1,0-4.247l3.415-3.111a1.376,1.376,0,0,0,.383-1.431l-1.4-4.4a2.872,2.872,0,0,1,2.123-3.678l4.513-.986a1.383,1.383,0,0,0,1.048-1.048l.986-4.513A2.874,2.874,0,0,1,242.767,391l4.4,1.4a1.368,1.368,0,0,0,1.43-.382l3.112-3.416a2.966,2.966,0,0,1,4.246,0h0l3.111,3.416a1.375,1.375,0,0,0,1.431.382l4.4-1.4a2.873,2.873,0,0,1,3.678,2.124l.987,4.513a1.38,1.38,0,0,0,1.048,1.048l4.513.986a2.874,2.874,0,0,1,2.123,3.678l-1.4,4.4a1.376,1.376,0,0,0,.383,1.431l3.415,3.111a2.874,2.874,0,0,1,0,4.247l-3.416,3.111a1.379,1.379,0,0,0-.383,1.431l1.4,4.4a2.872,2.872,0,0,1-2.123,3.677l-4.514.987a1.377,1.377,0,0,0-1.047,1.048l-.987,4.513a2.873,2.873,0,0,1-3.678,2.124l-4.4-1.4a1.38,1.38,0,0,0-1.432.383l-3.111,3.414A2.876,2.876,0,0,1,253.834,441.169Zm-6.254-6.3a2.88,2.88,0,0,1,2.128.936l3.111,3.416a1.405,1.405,0,0,0,2.03,0l3.111-3.415a2.889,2.889,0,0,1,2.994-.8l4.4,1.4a1.371,1.371,0,0,0,1.756-1.014l.987-4.513a2.877,2.877,0,0,1,2.194-2.192l4.512-.988a1.372,1.372,0,0,0,1.014-1.757l-1.4-4.4a2.882,2.882,0,0,1,.8-2.995l3.415-3.111a1.373,1.373,0,0,0,0-2.029l-3.415-3.111a2.881,2.881,0,0,1-.8-2.995l1.4-4.4a1.373,1.373,0,0,0-1.014-1.758l-4.513-.987a2.877,2.877,0,0,1-2.192-2.192l-.988-4.513a1.371,1.371,0,0,0-1.756-1.014l-4.4,1.4a2.879,2.879,0,0,1-2.995-.8l-3.111-3.415a1.405,1.405,0,0,0-2.03,0l-3.111,3.415a2.877,2.877,0,0,1-2.995.8l-4.4-1.4a1.372,1.372,0,0,0-1.757,1.014l-.987,4.513a2.88,2.88,0,0,1-2.192,2.192l-4.514.987a1.373,1.373,0,0,0-1.014,1.758l1.4,4.4a2.882,2.882,0,0,1-.8,2.995l-3.415,3.111a1.373,1.373,0,0,0,0,2.029l3.415,3.111a2.884,2.884,0,0,1,.8,2.995l-1.4,4.4a1.372,1.372,0,0,0,1.014,1.757l4.513.988a2.877,2.877,0,0,1,2.193,2.192l.987,4.513a1.372,1.372,0,0,0,1.757,1.014l4.4-1.4A2.877,2.877,0,0,1,247.58,434.869Z" fill="#856417"/>
    <circle id="Ellipse_31" data-name="Ellipse 31" cx="17" cy="17" r="17" transform="translate(236.834 397.419)" fill="#fff"/>
    <path id="Path_520" data-name="Path 520" d="M263.085,400.167a16.986,16.986,0,0,1-23.5,23.5,16.993,16.993,0,1,0,23.5-23.5Z" fill="#fff6db"/>
    <path id="Path_521" data-name="Path 521" d="M253.834,432.169a17.75,17.75,0,1,1,17.75-17.75A17.77,17.77,0,0,1,253.834,432.169Zm0-34a16.25,16.25,0,1,0,16.25,16.25A16.269,16.269,0,0,0,253.834,398.169Z" fill="#856417"/>
    <path id="Path_522" data-name="Path 522" d="M262.772,418.807c.45,2.716-1.6,5.055-3.974,4.54a3.652,3.652,0,0,1-2.651-3.031c-.451-2.717,1.6-5.055,3.973-4.54A3.654,3.654,0,0,1,262.772,418.807Z" fill="#fff"/>
    <path id="Path_523" data-name="Path 523" d="M262.772,418.807a3.952,3.952,0,0,0-1.255-2.3c.384,2.674-1.631,4.949-3.979,4.44a3.123,3.123,0,0,1-1.4-.729c.005.034,0,.065.006.1a3.652,3.652,0,0,0,2.651,3.031C261.176,423.862,263.222,421.523,262.772,418.807Z" fill="#fff6db"/>
    <path id="Path_524" data-name="Path 524" d="M259.457,424.168a3.853,3.853,0,0,1-.817-.088,4.374,4.374,0,0,1-3.233-3.64,4.912,4.912,0,0,1,1.376-4.387,3.845,3.845,0,0,1,3.5-1.01,4.375,4.375,0,0,1,3.233,3.641h0a4.905,4.905,0,0,1-1.376,4.385A3.862,3.862,0,0,1,259.457,424.168Zm0-7.714a2.361,2.361,0,0,0-1.641.686,3.415,3.415,0,0,0-.931,3.053,2.909,2.909,0,0,0,2.071,2.42,2.321,2.321,0,0,0,2.144-.63,3.415,3.415,0,0,0,.931-3.053,2.909,2.909,0,0,0-2.071-2.42A2.349,2.349,0,0,0,259.458,416.454Z" fill="#856417"/>
    <path id="Path_525" data-name="Path 525" d="M244.834,424.169a.75.75,0,0,1-.53-1.28l18-18a.75.75,0,0,1,1.06,1.06l-18,18A.744.744,0,0,1,244.834,424.169Z" fill="#856417"/>
    <path id="Path_526" data-name="Path 526" d="M251.017,411.425a3.157,3.157,0,0,1-5.616,0,4.333,4.333,0,0,1,0-4.286,3.157,3.157,0,0,1,5.616,0A4.333,4.333,0,0,1,251.017,411.425Z" fill="#fff"/>
    <path id="Path_527" data-name="Path 527" d="M250.241,406.233a4.263,4.263,0,0,1-.485,2.791,3.108,3.108,0,0,1-4.839.906,4.045,4.045,0,0,0,.484,1.495,3.157,3.157,0,0,0,5.616,0,4.333,4.333,0,0,0,0-4.286A3.718,3.718,0,0,0,250.241,406.233Z" fill="#fff6db"/>
    <path id="Path_528" data-name="Path 528" d="M248.209,413.89a4.054,4.054,0,0,1-3.452-2.081,5.068,5.068,0,0,1,0-5.054,3.9,3.9,0,0,1,6.9,0,5.068,5.068,0,0,1,0,5.054A4.054,4.054,0,0,1,248.209,413.89Zm0-7.715a2.538,2.538,0,0,0-2.164,1.348,3.577,3.577,0,0,0,0,3.518,2.409,2.409,0,0,0,4.326,0h0a3.574,3.574,0,0,0,0-3.518A2.535,2.535,0,0,0,248.209,406.175Z" fill="#856417"/>
  </g>
</svg>
