<svg xmlns="http://www.w3.org/2000/svg" width="65.502" height="65.506" viewBox="0 0 65.502 65.506">
  <g id="support" transform="translate(-221.083 -141.447)">
    <path id="Path_277" data-name="Path 277" d="M253.832,203.95a.75.75,0,1,1,0-1.5,28.25,28.25,0,1,0-28.25-28.25.75.75,0,0,1-1.5,0,29.75,29.75,0,1,1,29.75,29.75Z" fill="#856417"/>
    <path id="Path_278" data-name="Path 278" d="M256.834,206.2h-6a4,4,0,0,1-4-4h0a4,4,0,0,1,4-4h6a4,4,0,0,1,4,4h0A4,4,0,0,1,256.834,206.2Z" fill="#fff"/>
    <path id="Path_279" data-name="Path 279" d="M256.834,206.2h-6a4,4,0,0,1-4-4h0a4,4,0,0,1,4-4h6a4,4,0,0,1,4,4h0A4,4,0,0,1,256.834,206.2Z" fill="#fff6db"/>
    <path id="Path_280" data-name="Path 280" d="M251.834,206.2h-1a4,4,0,0,1-4-4h0a4,4,0,0,1,4-4h1a4,4,0,0,1,4,4h0A4,4,0,0,1,251.834,206.2Z" fill="#fff"/>
    <path id="Path_281" data-name="Path 281" d="M256.834,206.954h-6a4.75,4.75,0,0,1,0-9.5h6a4.75,4.75,0,0,1,0,9.5Zm-6-8a3.25,3.25,0,0,0,0,6.5h6a3.25,3.25,0,0,0,0-6.5Z" fill="#856417"/>
    <path id="Path_282" data-name="Path 282" d="M229.833,185.2h0a8,8,0,0,1-8-8v-6a8,8,0,0,1,8-8h0a2,2,0,0,1,2,2v18A2,2,0,0,1,229.833,185.2Z" fill="#fff"/>
    <path id="Path_283" data-name="Path 283" d="M229.833,163.2a7.949,7.949,0,0,0-3.427.78,1.979,1.979,0,0,1,.426,1.22v18a1.979,1.979,0,0,1-.426,1.221,7.963,7.963,0,0,0,3.427.779,2,2,0,0,0,2-2v-18A2,2,0,0,0,229.833,163.2Z" fill="#fff6db"/>
    <path id="Path_284" data-name="Path 284" d="M229.833,185.95a8.76,8.76,0,0,1-8.75-8.75v-6a8.76,8.76,0,0,1,8.75-8.75,2.754,2.754,0,0,1,2.75,2.75v18A2.752,2.752,0,0,1,229.833,185.95Zm0-22a7.258,7.258,0,0,0-7.25,7.25v6a7.258,7.258,0,0,0,7.25,7.25,1.251,1.251,0,0,0,1.25-1.25v-18A1.252,1.252,0,0,0,229.833,163.95Z" fill="#856417"/>
    <path id="Path_285" data-name="Path 285" d="M226.833,179.95a.75.75,0,0,1-.75-.75v-10a.75.75,0,0,1,1.5,0v10A.75.75,0,0,1,226.833,179.95Z" fill="#856417"/>
    <path id="Path_286" data-name="Path 286" d="M277.836,185.2h0a2,2,0,0,1-2-2v-18a2,2,0,0,1,2-2h0a8,8,0,0,1,8,8v6A8,8,0,0,1,277.836,185.2Z" fill="#fff"/>
    <path id="Path_287" data-name="Path 287" d="M277.836,163.2a1.986,1.986,0,0,0-1.08.321,6,6,0,0,1,4.079,5.679v8a7.991,7.991,0,0,1-4.574,7.221,1.992,1.992,0,0,0,1.575.779,8,8,0,0,0,8-8v-6A8,8,0,0,0,277.836,163.2Z" fill="#fff6db"/>
    <path id="Path_288" data-name="Path 288" d="M277.835,185.95a2.752,2.752,0,0,1-2.75-2.75v-18a2.754,2.754,0,0,1,2.75-2.75,8.76,8.76,0,0,1,8.75,8.75v6A8.76,8.76,0,0,1,277.835,185.95Zm0-22a1.252,1.252,0,0,0-1.25,1.25v18a1.251,1.251,0,0,0,1.25,1.25,7.258,7.258,0,0,0,7.25-7.25v-6A7.258,7.258,0,0,0,277.835,163.95Z" fill="#856417"/>
    <path id="Path_289" data-name="Path 289" d="M280.835,179.95a.75.75,0,0,1-.75-.75v-10a.75.75,0,0,1,1.5,0v10A.75.75,0,0,1,280.835,179.95Z" fill="#856417"/>
    <path id="Path_290" data-name="Path 290" d="M253.833,142.2a31.878,31.878,0,0,0-20.926,7.79,2.184,2.184,0,0,0-.1,3.188l1.158,1.159a2.184,2.184,0,0,0,2.97.1,26,26,0,0,1,33.79,0,2.183,2.183,0,0,0,2.969-.1l1.159-1.159a2.184,2.184,0,0,0-.1-3.189A31.881,31.881,0,0,0,253.833,142.2Z" fill="#fff"/>
    <path id="Path_291" data-name="Path 291" d="M274.758,149.989a32,32,0,0,0-39.7-1.7,33.591,33.591,0,0,1,38.719,5.971l1.079-1.078A2.184,2.184,0,0,0,274.758,149.989Z" fill="#fff6db"/>
    <path id="Path_292" data-name="Path 292" d="M272.165,155.728a2.95,2.95,0,0,1-1.925-.721,25.251,25.251,0,0,0-32.815,0,2.914,2.914,0,0,1-3.987-.141l-1.159-1.158a2.952,2.952,0,0,1-.861-2.191,2.908,2.908,0,0,1,1-2.094,32.75,32.75,0,0,1,42.833,0,2.914,2.914,0,0,1,1,2.092,2.964,2.964,0,0,1-.863,2.193l-1.158,1.158A2.9,2.9,0,0,1,272.165,155.728Zm-18.332-8.278a26.753,26.753,0,0,1,17.382,6.418,1.428,1.428,0,0,0,1.952-.062l1.158-1.158a1.462,1.462,0,0,0,.424-1.079,1.391,1.391,0,0,0-.482-1.011,31.247,31.247,0,0,0-40.869,0,1.386,1.386,0,0,0-.481,1.011,1.452,1.452,0,0,0,.423,1.079l1.158,1.158a1.427,1.427,0,0,0,1.952.062A26.752,26.752,0,0,1,253.833,147.45Z" fill="#856417"/>
    <path id="Path_293" data-name="Path 293" d="M253.834,157.2a16.978,16.978,0,0,0-15.14,24.705l-1.86,9.295,9.295-1.86a16.995,16.995,0,1,0,7.705-32.14Z" fill="#fff"/>
    <path id="Path_294" data-name="Path 294" d="M265.809,162.14a16.756,16.756,0,0,1,.454,9.738,17.081,17.081,0,0,1-13.979,12.692,16.9,16.9,0,0,1-9.615-1.387,2.026,2.026,0,0,0-1.245-.159l-3.077.616-1.513,7.562,9.295-1.86a16.99,16.99,0,0,0,19.68-27.2Z" fill="#fff6db"/>
    <path id="Path_295" data-name="Path 295" d="M236.834,191.952a.751.751,0,0,1-.735-.9l1.809-9.042a17.531,17.531,0,0,1-1.824-7.811,17.75,17.75,0,1,1,17.75,17.75,17.524,17.524,0,0,1-7.81-1.824l-9.043,1.809A.814.814,0,0,1,236.834,191.952Zm9.295-3.36a.755.755,0,0,1,.341.082,16.062,16.062,0,0,0,7.364,1.778,16.25,16.25,0,1,0-16.25-16.25,16.065,16.065,0,0,0,1.778,7.364.748.748,0,0,1,.067.488l-1.639,8.191,8.192-1.639A.8.8,0,0,1,246.129,188.592Z" fill="#856417"/>
    <path id="Path_296" data-name="Path 296" d="M252.11,181.952h-8.749a.75.75,0,0,1-.75-.75v-.876a5.131,5.131,0,0,1,5.124-5.125,3.629,3.629,0,0,0,3.625-3.624,3.689,3.689,0,0,0-3.625-3.625,3.628,3.628,0,0,0-3.624,3.625.75.75,0,0,1-1.5,0,5.131,5.131,0,0,1,5.124-5.125,5.191,5.191,0,0,1,5.125,5.125,5.13,5.13,0,0,1-5.125,5.124,3.629,3.629,0,0,0-3.624,3.625v.126h8a.75.75,0,0,1,0,1.5Z" fill="#856417"/>
    <path id="Path_297" data-name="Path 297" d="M263.487,181.952a.75.75,0,0,1-.75-.75v-12.25a.75.75,0,0,1,1.5,0V181.2A.75.75,0,0,1,263.487,181.952Z" fill="#856417"/>
    <path id="Path_298" data-name="Path 298" d="M265.237,176.7h-8.75a.75.75,0,0,1-.75-.75V167.2a.75.75,0,0,1,1.5,0v8h8a.75.75,0,0,1,0,1.5Z" fill="#856417"/>
    <circle id="Ellipse_13" data-name="Ellipse 13" cx="2" cy="2" r="2" transform="translate(281.836 153.198)" fill="#fff"/>
    <path id="Path_299" data-name="Path 299" d="M283.835,157.948a2.75,2.75,0,1,1,2.75-2.75A2.752,2.752,0,0,1,283.835,157.948Zm0-4a1.25,1.25,0,1,0,1.25,1.25A1.252,1.252,0,0,0,283.835,153.948Z" fill="#856417"/>
    <circle id="Ellipse_14" data-name="Ellipse 14" cx="2" cy="2" r="2" transform="translate(271.835 202.204)" fill="#fff"/>
    <path id="Path_300" data-name="Path 300" d="M273.834,206.954a2.75,2.75,0,1,1,2.75-2.75A2.753,2.753,0,0,1,273.834,206.954Zm0-4a1.25,1.25,0,1,0,1.25,1.25A1.252,1.252,0,0,0,273.834,202.954Z" fill="#856417"/>
    <circle id="Ellipse_15" data-name="Ellipse 15" cx="2" cy="2" r="2" transform="translate(236.831 197.203)" fill="#fff"/>
    <path id="Path_301" data-name="Path 301" d="M238.831,201.953a2.75,2.75,0,1,1,2.75-2.75A2.752,2.752,0,0,1,238.831,201.953Zm0-4a1.25,1.25,0,1,0,1.25,1.25A1.251,1.251,0,0,0,238.831,197.953Z" fill="#856417"/>
    <circle id="Ellipse_16" data-name="Ellipse 16" cx="2" cy="2" r="2" transform="translate(223.83 146.198)" fill="#fff"/>
    <path id="Path_302" data-name="Path 302" d="M225.829,150.948a2.75,2.75,0,1,1,2.75-2.75A2.754,2.754,0,0,1,225.829,150.948Zm0-4a1.25,1.25,0,1,0,1.25,1.25A1.252,1.252,0,0,0,225.829,146.948Z" fill="#856417"/>
    <circle id="Ellipse_17" data-name="Ellipse 17" cx="2" cy="2" r="2" transform="translate(276.835 142.198)" fill="#fff"/>
    <path id="Path_303" data-name="Path 303" d="M278.835,146.948a2.75,2.75,0,1,1,2.75-2.75A2.753,2.753,0,0,1,278.835,146.948Zm0-4a1.25,1.25,0,1,0,1.25,1.25A1.251,1.251,0,0,0,278.835,142.948Z" fill="#856417"/>
  </g>
</svg>
