<svg xmlns="http://www.w3.org/2000/svg" width="65.501" height="65.5" viewBox="0 0 65.501 65.5">
  <g id="wishlist" transform="translate(-341.047 -261.885)">
    <rect id="Rectangle_58" data-name="Rectangle 58" width="48" height="59.965" rx="3" transform="translate(341.797 262.669)" fill="#fff6db"/>
    <path id="Rectangle_59" data-name="Rectangle 59" d="M3,0H43a0,0,0,0,1,0,0V52a3,3,0,0,1-3,3H0a0,0,0,0,1,0,0V3A3,3,0,0,1,3,0Z" transform="translate(341.797 262.634)" fill="#fff"/>
    <path id="Path_430" data-name="Path 430" d="M386.8,323.384h-42a3.755,3.755,0,0,1-3.75-3.75v-54a3.755,3.755,0,0,1,3.75-3.75h42a3.755,3.755,0,0,1,3.75,3.75v54A3.754,3.754,0,0,1,386.8,323.384Zm-42-60a2.254,2.254,0,0,0-2.25,2.25v54a2.253,2.253,0,0,0,2.25,2.25h42a2.252,2.252,0,0,0,2.25-2.25v-54a2.253,2.253,0,0,0-2.25-2.25Z" fill="#856417"/>
    <path id="Rectangle_60" data-name="Rectangle 60" d="M0,0H26a0,0,0,0,1,0,0V4a3,3,0,0,1-3,3H3A3,3,0,0,1,0,4V0A0,0,0,0,1,0,0Z" transform="translate(353.797 262.671)" fill="#fff6db"/>
    <path id="Rectangle_61" data-name="Rectangle 61" d="M0,0H20a0,0,0,0,1,0,0V3a4,4,0,0,1-4,4H3A3,3,0,0,1,0,4V0A0,0,0,0,1,0,0Z" transform="translate(353.797 262.671)" fill="#fff"/>
    <path id="Path_431" data-name="Path 431" d="M376.8,270.421h-20a3.755,3.755,0,0,1-3.75-3.75v-4a.751.751,0,0,1,.75-.75h26a.75.75,0,0,1,.75.75v4A3.754,3.754,0,0,1,376.8,270.421Zm-22.25-7v3.25a2.253,2.253,0,0,0,2.25,2.25h20a2.252,2.252,0,0,0,2.25-2.25v-3.25Z" fill="#856417"/>
    <path id="Rectangle_62" data-name="Rectangle 62" d="M2,0H4A2,2,0,0,1,6,2V4A2,2,0,0,1,4,6H2A2,2,0,0,1,0,4V2A2,2,0,0,1,2,0Z" transform="translate(347.788 275.648) rotate(-0.281)" fill="#fff6db"/>
    <path id="Path_432" data-name="Path 432" d="M349.806,282.388a2.748,2.748,0,0,1-2.749-2.737l-.01-2a2.757,2.757,0,0,1,2.738-2.764l2-.008a2.834,2.834,0,0,1,1.947.795,2.728,2.728,0,0,1,.814,1.941l.01,2a2.754,2.754,0,0,1-2.736,2.764l-2,.008Zm1.993-6.008h-.006l-2,.008a1.255,1.255,0,0,0-1.245,1.258l.01,2a1.244,1.244,0,0,0,.37.882,1.2,1.2,0,0,0,.886.361h0l2-.008a1.252,1.252,0,0,0,1.243-1.257l-.01-2a1.248,1.248,0,0,0-1.248-1.244Z" fill="#856417"/>
    <path id="Rectangle_63" data-name="Rectangle 63" d="M2,0H4A2,2,0,0,1,6,2V4A2,2,0,0,1,4,6H2A2,2,0,0,1,0,4V2A2,2,0,0,1,2,0Z" transform="translate(347.79 287.648) rotate(-0.252)" fill="#fff6db"/>
    <path id="Path_433" data-name="Path 433" d="M349.808,294.391a2.752,2.752,0,0,1-2.751-2.739l-.01-2a2.754,2.754,0,0,1,2.739-2.762l2-.01h.012a2.748,2.748,0,0,1,2.75,2.737l.01,2a2.75,2.75,0,0,1-2.737,2.765l-2,.01Zm.009-.75h0Zm1.98-5.26h-.005l-2,.01a1.251,1.251,0,0,0-1.246,1.255l.01,2a1.251,1.251,0,0,0,1.251,1.245h0l2-.01a1.25,1.25,0,0,0,1.244-1.257l-.01-2a1.25,1.25,0,0,0-1.25-1.244Z" fill="#856417"/>
    <path id="Rectangle_64" data-name="Rectangle 64" d="M2,0H4A2,2,0,0,1,6,2V4A2,2,0,0,1,4,6H2A2,2,0,0,1,0,4V2A2,2,0,0,1,2,0Z" transform="translate(347.79 299.649) rotate(-0.252)" fill="#fff6db"/>
    <path id="Path_434" data-name="Path 434" d="M349.808,306.392a2.75,2.75,0,0,1-2.751-2.738l-.01-2a2.75,2.75,0,0,1,2.739-2.763l2-.01h.012a2.752,2.752,0,0,1,2.75,2.738l.01,2a2.75,2.75,0,0,1-2.737,2.763l-2,.01Zm.009-.75h0Zm1.98-5.26h-.005l-2,.01a1.251,1.251,0,0,0-1.246,1.256l.01,2a1.241,1.241,0,0,0,.37.881,1.091,1.091,0,0,0,.886.363l2-.01a1.25,1.25,0,0,0,1.244-1.256l-.01-2a1.25,1.25,0,0,0-1.25-1.245Z" fill="#856417"/>
    <path id="Rectangle_65" data-name="Rectangle 65" d="M2,0H4A2,2,0,0,1,6,2V4A2,2,0,0,1,4,6H2A2,2,0,0,1,0,4V2A2,2,0,0,1,2,0Z" transform="translate(347.788 311.652) rotate(-0.281)" fill="#fff6db"/>
    <path id="Path_435" data-name="Path 435" d="M349.808,318.392a2.748,2.748,0,0,1-2.751-2.737l-.01-2a2.757,2.757,0,0,1,2.738-2.764l2-.008a2.862,2.862,0,0,1,1.947.795,2.727,2.727,0,0,1,.814,1.942l.01,2a2.75,2.75,0,0,1-2.737,2.763l-2,.009Zm.009-.75h0Zm1.982-5.258h-.006l-2,.008a1.255,1.255,0,0,0-1.245,1.257l.01,2a1.25,1.25,0,0,0,1.251,1.244h0l2-.009a1.25,1.25,0,0,0,1.244-1.256l-.01-2a1.248,1.248,0,0,0-1.248-1.244Z" fill="#856417"/>
    <path id="Path_436" data-name="Path 436" d="M381.8,277.13h-9a.75.75,0,0,1,0-1.5h9a.75.75,0,0,1,0,1.5Z" fill="#856417"/>
    <path id="Path_437" data-name="Path 437" d="M368.8,277.13h-11a.75.75,0,0,1,0-1.5h11a.75.75,0,0,1,0,1.5Z" fill="#856417"/>
    <path id="Path_438" data-name="Path 438" d="M374.8,281.63h-7a.75.75,0,0,1,0-1.5h7a.75.75,0,0,1,0,1.5Z" fill="#856417"/>
    <path id="Path_439" data-name="Path 439" d="M363.8,281.63h-6a.75.75,0,0,1,0-1.5h6a.75.75,0,0,1,0,1.5Z" fill="#856417"/>
    <path id="Path_440" data-name="Path 440" d="M373.8,289.131h-7.5a.75.75,0,0,1,0-1.5h7.5a.75.75,0,0,1,0,1.5Z" fill="#856417"/>
    <path id="Path_441" data-name="Path 441" d="M362.3,289.131h-4.5a.75.75,0,0,1,0-1.5h4.5a.75.75,0,0,1,0,1.5Z" fill="#856417"/>
    <path id="Path_442" data-name="Path 442" d="M366.8,293.631h-9a.75.75,0,0,1,0-1.5h9a.75.75,0,0,1,0,1.5Z" fill="#856417"/>
    <path id="Path_443" data-name="Path 443" d="M368.8,301.133h-11a.75.75,0,0,1,0-1.5h11a.75.75,0,0,1,0,1.5Z" fill="#856417"/>
    <path id="Path_444" data-name="Path 444" d="M364.8,305.633h-7a.75.75,0,0,1,0-1.5h7a.75.75,0,0,1,0,1.5Z" fill="#856417"/>
    <path id="Path_445" data-name="Path 445" d="M368.673,313.134H357.8a.75.75,0,0,1,0-1.5h10.876a.75.75,0,0,1,0,1.5Z" fill="#856417"/>
    <path id="Path_446" data-name="Path 446" d="M364.8,317.634h-7a.75.75,0,0,1,0-1.5h7a.75.75,0,0,1,0,1.5Z" fill="#856417"/>
    <path id="Path_447" data-name="Path 447" d="M403.615,326.635H373.984a2,2,0,0,1-1.992-2.176l2.807-31.824h28l2.808,31.824A2,2,0,0,1,403.615,326.635Z" fill="#fff6db"/>
    <path id="Path_448" data-name="Path 448" d="M400.707,322.634H372.153l2.646-30,24.354.016,2.55,28.895A1,1,0,0,1,400.707,322.634Z" fill="#fff"/>
    <path id="Path_449" data-name="Path 449" d="M403.615,327.384H373.983a2.748,2.748,0,0,1-2.739-2.99l2.808-31.826a.752.752,0,0,1,.747-.684h28a.75.75,0,0,1,.747.684l2.809,31.824a2.75,2.75,0,0,1-2.739,2.992Zm-28.129-34-2.748,31.141a1.248,1.248,0,0,0,1.245,1.359h29.632a1.248,1.248,0,0,0,1.245-1.359l-2.748-31.141Z" fill="#856417"/>
    <path id="Path_450" data-name="Path 450" d="M388.8,301.071l2.781,5.635,6.219.9L393.3,312l1.063,6.193-5.562-2.924-5.562,2.924L384.3,312l-4.5-4.387,6.219-.9Z" fill="#fff"/>
    <path id="Path_451" data-name="Path 451" d="M393.3,312l4.5-4.387-4.78-.694-2.832,2.761a2,2,0,0,0-.575,1.77l.8,4.667,3.949,2.077Z" fill="#fff6db"/>
    <path id="Path_452" data-name="Path 452" d="M394.362,318.941a.76.76,0,0,1-.349-.086l-5.214-2.743-5.213,2.743a.751.751,0,0,1-1.088-.791l1-5.806-4.218-4.11a.751.751,0,0,1,.415-1.28l5.829-.847,2.607-5.282a.782.782,0,0,1,1.345,0l2.607,5.282,5.829.847a.751.751,0,0,1,.415,1.28l-4.218,4.11,1,5.806a.754.754,0,0,1-.739.877Zm-5.563-4.425a.747.747,0,0,1,.349.085l4.218,2.218-.806-4.7a.752.752,0,0,1,.216-.665l3.412-3.324-4.716-.686a.748.748,0,0,1-.564-.41l-2.109-4.272-2.108,4.272a.748.748,0,0,1-.564.41l-4.716.686,3.412,3.324a.752.752,0,0,1,.216.665l-.806,4.7,4.218-2.218A.746.746,0,0,1,388.8,314.516Z" fill="#856417"/>
    <path id="Path_453" data-name="Path 453" d="M396.8,297.382a.75.75,0,0,1-.75-.75v-9a6.257,6.257,0,0,0-6.25-6.25h-2a6.257,6.257,0,0,0-6.25,6.25v9a.75.75,0,0,1-1.5,0v-9a7.759,7.759,0,0,1,7.75-7.75h2a7.758,7.758,0,0,1,7.75,7.75v9A.75.75,0,0,1,396.8,297.382Z" fill="#856417"/>
    <path id="Path_454" data-name="Path 454" d="M405.8,265.421h-4a.75.75,0,0,1,0-1.5h4a.75.75,0,0,1,0,1.5Z" fill="#856417"/>
    <path id="Path_455" data-name="Path 455" d="M403.8,267.421a.75.75,0,0,1-.75-.75v-4a.75.75,0,0,1,1.5,0v4A.75.75,0,0,1,403.8,267.421Z" fill="#856417"/>
    <path id="Path_456" data-name="Path 456" d="M398.8,275.423h-4a.75.75,0,0,1,0-1.5h4a.75.75,0,0,1,0,1.5Z" fill="#856417"/>
    <path id="Path_457" data-name="Path 457" d="M396.8,277.423a.75.75,0,0,1-.75-.75v-4a.75.75,0,0,1,1.5,0v4A.75.75,0,0,1,396.8,277.423Z" fill="#856417"/>
    <path id="Path_458" data-name="Path 458" d="M405.8,282.424h-4a.75.75,0,0,1,0-1.5h4a.75.75,0,0,1,0,1.5Z" fill="#856417"/>
    <path id="Path_459" data-name="Path 459" d="M403.8,284.424a.75.75,0,0,1-.75-.75v-4a.75.75,0,1,1,1.5,0v4A.75.75,0,0,1,403.8,284.424Z" fill="#856417"/>
  </g>
</svg>
