<svg xmlns="http://www.w3.org/2000/svg" width="637.672" height="533.47" viewBox="0 0 637.672 533.47">
  <g id="bg-lightbox" transform="translate(0 533.47) rotate(-90)" opacity="0.16">
    <g id="objects">
      <g id="Group" transform="translate(0 0)">
        <path id="Shape" d="M345.389,635.463a1.4,1.4,0,0,1-1.4-1.418,1.4,1.4,0,1,1,2.808,0A1.4,1.4,0,0,1,345.389,635.463Zm-12.285,0a1.4,1.4,0,0,1-1.4-1.418,1.4,1.4,0,1,1,2.808,0A1.4,1.4,0,0,1,333.1,635.463Zm-12.285,0a1.4,1.4,0,0,1-1.4-1.418,1.4,1.4,0,1,1,2.808,0A1.4,1.4,0,0,1,320.818,635.463Zm-12.285-12.4a1.4,1.4,0,0,1-1.4-1.417,1.4,1.4,0,1,1,2.808,0A1.4,1.4,0,0,1,308.533,623.058Zm0-12.4a1.4,1.4,0,0,1-1.4-1.417,1.4,1.4,0,1,1,2.808,0A1.4,1.4,0,0,1,308.533,610.654Zm-12.285-12.4a1.4,1.4,0,0,1-1.4-1.417,1.4,1.4,0,1,1,2.808,0A1.4,1.4,0,0,1,296.248,598.25Zm-12.286-12.4a1.4,1.4,0,0,1-1.4-1.417,1.4,1.4,0,1,1,2.809,0A1.4,1.4,0,0,1,283.963,585.845Zm0-12.4a1.4,1.4,0,0,1-1.4-1.417,1.4,1.4,0,1,1,2.809,0A1.4,1.4,0,0,1,283.963,573.44Zm0-12.4a1.4,1.4,0,0,1-1.4-1.418,1.4,1.4,0,1,1,2.809,0A1.4,1.4,0,0,1,283.963,561.037Zm-12.285-12.4a1.4,1.4,0,0,1-1.4-1.417,1.4,1.4,0,1,1,2.808,0A1.4,1.4,0,0,1,271.678,548.632Zm0-12.4a1.4,1.4,0,0,1-1.4-1.417,1.4,1.4,0,1,1,2.808,0A1.4,1.4,0,0,1,271.678,536.227Zm0-12.4a1.4,1.4,0,0,1-1.4-1.418,1.4,1.4,0,1,1,2.808,0A1.4,1.4,0,0,1,271.678,523.823Zm-12.285-12.4a1.4,1.4,0,0,1-1.4-1.418,1.4,1.4,0,1,1,2.808,0A1.4,1.4,0,0,1,259.393,511.419Zm0-12.4a1.4,1.4,0,0,1-1.4-1.418,1.4,1.4,0,1,1,2.808,0A1.4,1.4,0,0,1,259.393,499.014Zm0-12.4a1.4,1.4,0,0,1-1.4-1.418,1.4,1.4,0,1,1,2.808,0A1.4,1.4,0,0,1,259.393,486.609Zm0-12.4a1.4,1.4,0,0,1-1.4-1.418,1.4,1.4,0,1,1,2.808,0A1.4,1.4,0,0,1,259.393,474.205Zm0-12.4a1.4,1.4,0,0,1-1.4-1.418,1.4,1.4,0,1,1,2.808,0A1.4,1.4,0,0,1,259.393,461.8Zm12.285-12.4a1.4,1.4,0,0,1-1.4-1.418,1.4,1.4,0,1,1,2.808,0A1.4,1.4,0,0,1,271.678,449.4Zm0-12.4a1.4,1.4,0,0,1-1.4-1.418,1.4,1.4,0,1,1,2.808,0A1.4,1.4,0,0,1,271.678,436.991Zm0-12.4a1.4,1.4,0,0,1-1.4-1.418,1.4,1.4,0,1,1,2.808,0A1.4,1.4,0,0,1,271.678,424.588Zm-12.285-12.4a1.4,1.4,0,0,1-1.4-1.417,1.4,1.4,0,1,1,2.808,0A1.4,1.4,0,0,1,259.393,412.183Zm0-12.4a1.4,1.4,0,0,1-1.4-1.417,1.4,1.4,0,1,1,2.808,0A1.4,1.4,0,0,1,259.393,399.778Zm-12.285-12.4a1.4,1.4,0,0,1-1.4-1.417,1.4,1.4,0,1,1,2.808,0A1.4,1.4,0,0,1,247.108,387.373Zm0-12.4a1.4,1.4,0,0,1-1.4-1.418,1.4,1.4,0,1,1,2.808,0A1.4,1.4,0,0,1,247.108,374.97Zm-12.285-12.4a1.4,1.4,0,0,1-1.4-1.418,1.4,1.4,0,1,1,2.808,0A1.4,1.4,0,0,1,234.823,362.565Zm0-12.4a1.4,1.4,0,0,1-1.4-1.417,1.4,1.4,0,1,1,2.808,0A1.4,1.4,0,0,1,234.823,350.16Zm-12.285,0a1.4,1.4,0,0,1-1.4-1.417,1.4,1.4,0,1,1,2.809,0A1.4,1.4,0,0,1,222.538,350.16Zm12.285-12.4a1.4,1.4,0,0,1-1.4-1.417,1.4,1.4,0,1,1,2.808,0A1.4,1.4,0,0,1,234.823,337.756Zm0-12.4a1.4,1.4,0,0,1-1.4-1.418,1.4,1.4,0,1,1,2.808,0A1.4,1.4,0,0,1,234.823,325.352Zm-24.571,0a1.4,1.4,0,0,1-1.4-1.418,1.4,1.4,0,1,1,2.808,0A1.4,1.4,0,0,1,210.252,325.352Zm24.571-12.4a1.4,1.4,0,0,1-1.4-1.418,1.4,1.4,0,1,1,2.808,0A1.4,1.4,0,0,1,234.823,312.947Zm-12.285-12.4a1.4,1.4,0,0,1-1.4-1.418,1.4,1.4,0,1,1,2.809,0A1.4,1.4,0,0,1,222.538,300.542Zm-12.286-12.4a1.4,1.4,0,0,1-1.4-1.418,1.4,1.4,0,1,1,2.808,0A1.4,1.4,0,0,1,210.252,288.138Zm-12.285,0a1.4,1.4,0,0,1-1.4-1.418,1.4,1.4,0,1,1,2.808,0A1.4,1.4,0,0,1,197.967,288.138Zm-12.285,0a1.4,1.4,0,0,1-1.4-1.418,1.4,1.4,0,1,1,2.808,0A1.4,1.4,0,0,1,185.682,288.138Zm-86,0a1.4,1.4,0,0,1-1.4-1.418,1.4,1.4,0,1,1,2.808,0A1.4,1.4,0,0,1,99.686,288.138Zm-12.286,0A1.4,1.4,0,0,1,86,286.72a1.4,1.4,0,1,1,2.808,0A1.4,1.4,0,0,1,87.4,288.138Zm-12.285,0a1.4,1.4,0,0,1-1.4-1.418,1.4,1.4,0,1,1,2.808,0A1.4,1.4,0,0,1,75.115,288.138Zm-12.285,0a1.4,1.4,0,0,1-1.4-1.418,1.4,1.4,0,1,1,2.808,0A1.4,1.4,0,0,1,62.83,288.138Zm-12.285,0a1.4,1.4,0,0,1-1.4-1.418,1.4,1.4,0,1,1,2.808,0A1.4,1.4,0,0,1,50.545,288.138Zm135.137-12.4a1.4,1.4,0,0,1-1.4-1.418,1.4,1.4,0,1,1,2.808,0A1.4,1.4,0,0,1,185.682,275.734Zm-12.285,0a1.4,1.4,0,0,1-1.4-1.418,1.4,1.4,0,1,1,2.808,0A1.4,1.4,0,0,1,173.4,275.734Zm-12.285,0a1.4,1.4,0,0,1-1.4-1.418,1.4,1.4,0,1,1,2.808,0A1.4,1.4,0,0,1,161.112,275.734Zm-12.286,0a1.4,1.4,0,0,1-1.4-1.418,1.4,1.4,0,1,1,2.808,0A1.4,1.4,0,0,1,148.826,275.734Zm-12.285,0a1.4,1.4,0,0,1-1.4-1.418,1.4,1.4,0,1,1,2.808,0A1.4,1.4,0,0,1,136.541,275.734Zm-12.285,0a1.4,1.4,0,0,1-1.4-1.418,1.4,1.4,0,1,1,2.808,0A1.4,1.4,0,0,1,124.256,275.734Zm-12.285,0a1.4,1.4,0,0,1-1.4-1.418,1.4,1.4,0,1,1,2.808,0A1.4,1.4,0,0,1,111.971,275.734Zm-73.711,0a1.4,1.4,0,0,1-1.4-1.418,1.4,1.4,0,1,1,2.808,0A1.4,1.4,0,0,1,38.26,275.734Zm0-12.4a1.4,1.4,0,0,1-1.4-1.417,1.4,1.4,0,1,1,2.808,0A1.4,1.4,0,0,1,38.26,263.329Zm-12.286-12.4a1.4,1.4,0,0,1-1.4-1.418,1.4,1.4,0,1,1,2.808,0A1.4,1.4,0,0,1,25.974,250.924Zm0-12.4a1.4,1.4,0,0,1-1.4-1.418,1.4,1.4,0,1,1,2.808,0A1.4,1.4,0,0,1,25.974,238.52Zm-12.285-12.4a1.4,1.4,0,0,1-1.4-1.418,1.3,1.3,0,0,1,1.4-1.418,1.3,1.3,0,0,1,1.4,1.418A1.4,1.4,0,0,1,13.689,226.116Zm-12.285,0A1.4,1.4,0,0,1,0,224.7a1.3,1.3,0,0,1,1.4-1.418,1.3,1.3,0,0,1,1.4,1.418A1.4,1.4,0,0,1,1.4,226.116Zm12.285-12.4a1.4,1.4,0,0,1-1.4-1.417,1.3,1.3,0,0,1,1.4-1.417,1.3,1.3,0,0,1,1.4,1.417A1.4,1.4,0,0,1,13.689,213.711Zm-12.285,0A1.4,1.4,0,0,1,0,212.294a1.3,1.3,0,0,1,1.4-1.417,1.3,1.3,0,0,1,1.4,1.417A1.4,1.4,0,0,1,1.4,213.711Zm12.285-12.4a1.4,1.4,0,0,1-1.4-1.417,1.3,1.3,0,0,1,1.4-1.418,1.3,1.3,0,0,1,1.4,1.418A1.4,1.4,0,0,1,13.689,201.307ZM1.4,188.9A1.4,1.4,0,0,1,0,187.484a1.3,1.3,0,0,1,1.4-1.418,1.3,1.3,0,0,1,1.4,1.418A1.4,1.4,0,0,1,1.4,188.9Zm12.285-12.4a1.4,1.4,0,0,1-1.4-1.418,1.3,1.3,0,0,1,1.4-1.418,1.3,1.3,0,0,1,1.4,1.418A1.4,1.4,0,0,1,13.689,176.5Zm-.4-12.463h0a1.365,1.365,0,0,1-.994-1.215,1.383,1.383,0,0,0,.994,1.213Zm.809,0h0a1.388,1.388,0,0,0,.994-1.215,1.366,1.366,0,0,1-.992,1.215Zm-.405-12.346a1.4,1.4,0,0,1-1.4-1.418,1.3,1.3,0,0,1,1.4-1.417,1.3,1.3,0,0,1,1.4,1.417A1.4,1.4,0,0,1,13.689,151.689Zm0-12.4a1.4,1.4,0,0,1-1.4-1.418,1.3,1.3,0,0,1,1.4-1.417,1.3,1.3,0,0,1,1.4,1.417A1.4,1.4,0,0,1,13.689,139.285Zm12.285-12.4a1.4,1.4,0,0,1-1.4-1.417,1.4,1.4,0,1,1,2.808,0A1.4,1.4,0,0,1,25.974,126.88Zm0-12.4a1.4,1.4,0,0,1-1.4-1.417,1.4,1.4,0,1,1,2.808,0A1.4,1.4,0,0,1,25.974,114.475Zm12.286-12.4a1.4,1.4,0,0,1-1.4-1.417,1.4,1.4,0,1,1,2.808,0A1.4,1.4,0,0,1,38.26,102.071Zm12.285-12.4a1.4,1.4,0,0,1-1.4-1.418,1.4,1.4,0,1,1,2.808,0A1.4,1.4,0,0,1,50.545,89.667Zm257.989-12.4a1.4,1.4,0,0,1-1.4-1.417,1.4,1.4,0,1,1,2.808,0A1.4,1.4,0,0,1,308.533,77.262Zm-245.7,0a1.4,1.4,0,0,1-1.4-1.417,1.4,1.4,0,1,1,2.808,0A1.4,1.4,0,0,1,62.83,77.262Zm233.419-12.4a1.4,1.4,0,0,1-1.4-1.417,1.4,1.4,0,1,1,2.808,0A1.4,1.4,0,0,1,296.248,64.858Zm-12.286,0a1.4,1.4,0,0,1-1.4-1.417,1.4,1.4,0,1,1,2.809,0A1.4,1.4,0,0,1,283.963,64.858Zm-208.848,0a1.4,1.4,0,0,1-1.4-1.417,1.4,1.4,0,1,1,2.808,0A1.4,1.4,0,0,1,75.115,64.858Zm270.274-12.4a1.4,1.4,0,0,1-1.4-1.417,1.4,1.4,0,1,1,2.808,0,1.374,1.374,0,0,1-.439,1.041A1.434,1.434,0,0,1,345.389,52.453Zm-12.285,0a1.4,1.4,0,0,1-1.4-1.417,1.4,1.4,0,1,1,2.808,0A1.4,1.4,0,0,1,333.1,52.453Zm-12.285,0a1.4,1.4,0,0,1-1.4-1.417,1.4,1.4,0,1,1,2.808,0A1.4,1.4,0,0,1,320.818,52.453Zm-49.141,0a1.4,1.4,0,0,1-1.4-1.417,1.4,1.4,0,1,1,2.808,0A1.4,1.4,0,0,1,271.678,52.453Zm-12.285,0a1.4,1.4,0,0,1-1.4-1.417,1.4,1.4,0,1,1,2.808,0A1.4,1.4,0,0,1,259.393,52.453Zm-12.285,0a1.4,1.4,0,0,1-1.4-1.417,1.4,1.4,0,1,1,2.808,0A1.4,1.4,0,0,1,247.108,52.453Zm-159.708,0A1.4,1.4,0,0,1,86,51.035a1.4,1.4,0,1,1,2.808,0A1.4,1.4,0,0,1,87.4,52.453Zm147.423-12.4a1.4,1.4,0,0,1-1.4-1.418,1.4,1.4,0,1,1,2.808,0A1.4,1.4,0,0,1,234.823,40.049Zm-147.423,0A1.4,1.4,0,0,1,86,38.631a1.4,1.4,0,1,1,2.808,0A1.4,1.4,0,0,1,87.4,40.049Zm147.423-12.4a1.4,1.4,0,0,1-1.4-1.418,1.4,1.4,0,1,1,2.808,0A1.4,1.4,0,0,1,234.823,27.644Zm-110.567,0a1.4,1.4,0,0,1-1.4-1.418,1.4,1.4,0,1,1,2.808,0A1.4,1.4,0,0,1,124.256,27.644Zm-12.285,0a1.4,1.4,0,0,1-1.4-1.418,1.4,1.4,0,1,1,2.808,0A1.4,1.4,0,0,1,111.971,27.644Zm-12.285,0a1.4,1.4,0,0,1-1.4-1.418,1.4,1.4,0,1,1,2.808,0A1.4,1.4,0,0,1,99.686,27.644Zm135.137-12.4a1.4,1.4,0,0,1-1.4-1.417,1.4,1.4,0,1,1,2.808,0A1.4,1.4,0,0,1,234.823,15.24Zm-24.571,0a1.4,1.4,0,0,1-1.4-1.417,1.4,1.4,0,1,1,2.808,0A1.4,1.4,0,0,1,210.252,15.24Zm-36.855,0a1.4,1.4,0,0,1-1.4-1.417,1.4,1.4,0,1,1,2.808,0A1.4,1.4,0,0,1,173.4,15.24Zm-12.285,0a1.4,1.4,0,0,1-1.4-1.417,1.4,1.4,0,1,1,2.808,0A1.4,1.4,0,0,1,161.112,15.24Zm-12.286,0a1.4,1.4,0,0,1-1.4-1.417,1.4,1.4,0,1,1,2.808,0A1.4,1.4,0,0,1,148.826,15.24Zm-12.285,0a1.4,1.4,0,0,1-1.4-1.417,1.4,1.4,0,1,1,2.808,0A1.4,1.4,0,0,1,136.541,15.24Zm86-12.4a1.4,1.4,0,0,1-1.4-1.417,1.4,1.4,0,1,1,2.809,0A1.4,1.4,0,0,1,222.538,2.835Zm-24.571,0a1.4,1.4,0,0,1-1.4-1.417,1.4,1.4,0,1,1,2.808,0A1.4,1.4,0,0,1,197.967,2.835Zm-12.285,0a1.4,1.4,0,0,1-1.4-1.417,1.4,1.4,0,1,1,2.808,0A1.4,1.4,0,0,1,185.682,2.835Z" transform="translate(0 0)" fill="#2e2626"/>
        <ellipse id="Oval" cx="3.861" cy="3.899" rx="3.861" ry="3.899" transform="translate(428.168 518.235)" fill="#998e76"/>
        <ellipse id="Oval-2" data-name="Oval" cx="3.861" cy="3.899" rx="3.861" ry="3.899" transform="translate(366.742 146.101)" fill="#998e76"/>
        <ellipse id="Oval-3" data-name="Oval" cx="3.861" cy="3.899" rx="3.861" ry="3.899" transform="translate(293.031 617.471)" fill="#998e76"/>
        <ellipse id="Oval-4" data-name="Oval" cx="3.861" cy="3.899" rx="3.861" ry="3.899" transform="translate(108.754 183.314)" fill="#998e76"/>
        <ellipse id="Oval-5" data-name="Oval" cx="3.861" cy="3.899" rx="3.861" ry="3.899" transform="translate(280.746 418.999)" fill="#998e76"/>
        <ellipse id="Oval-6" data-name="Oval" cx="3.861" cy="3.899" rx="3.861" ry="3.899" transform="translate(256.176 381.786)" fill="#998e76"/>
        <ellipse id="Oval-7" data-name="Oval" cx="3.861" cy="3.899" rx="3.861" ry="3.899" transform="translate(256.176 394.19)" fill="#998e76"/>
        <ellipse id="Oval-8" data-name="Oval" cx="3.861" cy="3.899" rx="3.861" ry="3.899" transform="translate(194.75 294.954)" fill="#998e76"/>
        <ellipse id="Oval-9" data-name="Oval" cx="3.861" cy="3.899" rx="3.861" ry="3.899" transform="translate(194.75 96.483)" fill="#998e76"/>
        <ellipse id="Oval-10" data-name="Oval" cx="3.861" cy="3.899" rx="3.861" ry="3.899" transform="translate(182.465 96.483)" fill="#998e76"/>
        <ellipse id="Oval-11" data-name="Oval" cx="3.861" cy="3.899" rx="3.861" ry="3.899" transform="translate(170.18 133.696)" fill="#998e76"/>
        <ellipse id="Oval-12" data-name="Oval" cx="3.861" cy="3.899" rx="3.861" ry="3.899" transform="translate(428.168 245.337)" fill="#998e76"/>
        <ellipse id="Oval-13" data-name="Oval" cx="3.861" cy="3.899" rx="3.861" ry="3.899" transform="translate(108.754 245.337)" fill="#998e76"/>
        <ellipse id="Oval-14" data-name="Oval" cx="3.861" cy="3.899" rx="3.861" ry="3.899" transform="translate(96.468 245.337)" fill="#998e76"/>
        <ellipse id="Oval-15" data-name="Oval" cx="3.861" cy="3.899" rx="3.861" ry="3.899" transform="translate(84.183 282.55)" fill="#998e76"/>
        <ellipse id="Oval-16" data-name="Oval" cx="3.861" cy="3.899" rx="3.861" ry="3.899" transform="translate(440.453 394.19)" fill="#998e76"/>
        <ellipse id="Oval-17" data-name="Oval" cx="3.861" cy="3.899" rx="3.861" ry="3.899" transform="translate(366.742 443.808)" fill="#998e76"/>
        <ellipse id="Oval-18" data-name="Oval" cx="3.861" cy="3.899" rx="3.861" ry="3.899" transform="translate(342.172 344.572)" fill="#998e76"/>
        <ellipse id="Oval-19" data-name="Oval" cx="3.861" cy="3.899" rx="3.861" ry="3.899" transform="translate(342.172 629.875)" fill="#998e76"/>
        <ellipse id="Oval-20" data-name="Oval" cx="3.861" cy="3.899" rx="3.861" ry="3.899" transform="translate(305.316 592.662)" fill="#998e76"/>
        <ellipse id="Oval-21" data-name="Oval" cx="3.861" cy="3.899" rx="3.861" ry="3.899" transform="translate(305.316 605.066)" fill="#998e76"/>
        <ellipse id="Oval-22" data-name="Oval" cx="3.159" cy="3.19" rx="3.159" ry="3.19" transform="translate(527.152 543.753)" fill="#998e76"/>
      </g>
    </g>
  </g>
</svg>
