<svg xmlns="http://www.w3.org/2000/svg" width="48" height="48" viewBox="0 0 48 48">
  <g id="icon-chat" transform="translate(-991 -55.5)">
    <g id="_Background" data-name="◼️ Background" transform="translate(991 55.5)" fill="#fff" stroke="#e4e4e4" stroke-miterlimit="10" stroke-width="1" opacity="0">
      <circle cx="24" cy="24" r="24" stroke="none"/>
      <circle cx="24" cy="24" r="23.5" fill="none"/>
    </g>
    <g id="line-logo" transform="translate(1005 65.107)">
      <path id="Path_639" data-name="Path 639" d="M19.954,11.41h0l-.006-.051v0l-.023-.193-.016-.133,0-.04h-.01a7.6,7.6,0,0,0-1.952-3.828,9.952,9.952,0,0,0-3.881-2.555,11.778,11.778,0,0,0-4.07-.713A11.421,11.421,0,0,0,4.644,5.188,8.1,8.1,0,0,0,.026,12.834a7.891,7.891,0,0,0,1.766,4.291,9.525,9.525,0,0,0,3.744,2.742,14.233,14.233,0,0,0,2.785.75l.112.022c.264.052.336.124.354.153a.331.331,0,0,1,0,.214c-.013.053-.025.106-.038.159A3.162,3.162,0,0,0,8.625,22.5a.931.931,0,0,0,.944.867h0a3.5,3.5,0,0,0,1.567-.6l.054-.032c.974-.572,1.891-1.217,2.581-1.715a22.444,22.444,0,0,0,4.506-3.923A7.751,7.751,0,0,0,19.954,11.41ZM6.228,14.46H4.5a.472.472,0,0,1-.472-.472V10.366a.472.472,0,1,1,.944,0v3.15H6.228a.472.472,0,0,1,0,.944Zm1.8-.485a.472.472,0,0,1-.944,0V10.353a.472.472,0,0,1,.944,0Zm4.268,0a.472.472,0,0,1-.854.277l-1.7-2.342v2.064a.472.472,0,1,1-.944,0V10.457a.472.472,0,0,1,.854-.277l1.7,2.342V10.353a.472.472,0,0,1,.944,0Zm3.44.4H13.4a.472.472,0,0,1-.472-.472V10.279a.472.472,0,0,1,.472-.472h2.264a.472.472,0,0,1,0,.944H13.872v.867h1.454a.472.472,0,1,1,0,.944H13.872v.866h1.865a.472.472,0,0,1,0,.944Z" transform="translate(0)" fill="#999"/>
    </g>
    <ellipse id="Ellipse_544" data-name="Ellipse 544" cx="8.5" cy="5.5" rx="8.5" ry="5.5" transform="translate(1007 72)" fill="#999"/>
  </g>
</svg>
