<svg xmlns="http://www.w3.org/2000/svg" xmlns:xlink="http://www.w3.org/1999/xlink" width="564" height="1064" viewBox="0 0 564 1064">
  <defs>
    <clipPath id="clip-path">
      <rect id="Mask" width="564" height="1064" fill="#edeeee"/>
    </clipPath>
    <clipPath id="clip-path-2">
      <path id="Clip_24" data-name="Clip 24" d="M0,0H75.463V307.556H0Z" fill="none"/>
    </clipPath>
    <clipPath id="clip-path-3">
      <path id="Clip_27" data-name="Clip 27" d="M0,0H48.314V183.044H0Z" fill="none"/>
    </clipPath>
    <clipPath id="clip-path-4">
      <path id="Clip_44" data-name="Clip 44" d="M0,0H167.438V205.707H0Z" fill="none"/>
    </clipPath>
    <clipPath id="clip-path-5">
      <path id="Clip_49" data-name="Clip 49" d="M0,0H167.438V205.709H0Z" fill="none"/>
    </clipPath>
    <clipPath id="clip-path-6">
      <path id="Clip_78" data-name="Clip 78" d="M0,0H97.068V67.515H0Z" fill="none"/>
    </clipPath>
    <clipPath id="clip-path-7">
      <path id="Clip_81" data-name="Clip 81" d="M0,0H60.354V21.162H0Z" fill="none"/>
    </clipPath>
    <clipPath id="clip-path-8">
      <path id="Clip_86" data-name="Clip 86" d="M0,0H38.929V58.165H0Z" fill="none"/>
    </clipPath>
    <clipPath id="clip-path-9">
      <path id="Clip_89" data-name="Clip 89" d="M0,0H38.913V20.712H0Z" fill="none"/>
    </clipPath>
    <clipPath id="clip-path-10">
      <path id="Clip_24-2" data-name="Clip 24" d="M0,0H163.916V1120.193H0Z" fill="none"/>
    </clipPath>
    <clipPath id="clip-path-11">
      <path id="Clip_27-2" data-name="Clip 27" d="M0,0H85.38V54.162H0Z" fill="none"/>
    </clipPath>
    <clipPath id="clip-path-12">
      <path id="Clip_46" data-name="Clip 46" d="M0,0H342.109V595.625H0Z" fill="none"/>
    </clipPath>
  </defs>
  <g id="img-adv-category.svg" transform="translate(-3612 -17080)">
    <rect id="Rectangle" width="200" height="80" rx="17" transform="translate(3727 17640)" fill="#fff"/>
    <text id="Women_Collection" data-name="Women Collection" transform="translate(3734 17668)" fill="#464646" font-size="20" font-family="Roboto-Light, Roboto" font-weight="300"><tspan x="13.19" y="19">Women Collection</tspan></text>
    <g id="Realwire_Base_Images_Character_Ecommerce_Female_V6" data-name="Realwire Base / Images / Character / Ecommerce / Female V6" transform="translate(3612 17080)">
      <rect id="Mask-2" data-name="Mask" width="563" height="1064" fill="#edeeee"/>
      <g id="Realwire_Base_Images_Character_Ecommerce_Female_V6-2" data-name="Realwire Base / Images / Character / Ecommerce / Female V6" clip-path="url(#clip-path)">
        <g id="Realwire_Base_Images_Character_Ecommerce_Female_V3" data-name="Realwire Base / Images / Character / Ecommerce / Female V3" transform="translate(337 31)">
          <g id="Group_99" data-name="Group 99" transform="translate(0 2.139)">
            <path id="Fill_1" data-name="Fill 1" d="M63.4,1.146C45.2-3.45,6.843,7.159,4.3,8.706,1.329,10.52-.41,11.235.083,12.493c1.173,2.982,11.6,5.973,20.375,7.038,12.669,1.536,31.311-.041,42.24-4.341,8.159-3.209,11.91-11.214.705-14.045" transform="translate(88.909 417.765)" fill="#2e3439"/>
            <path id="Fill_3" data-name="Fill 3" d="M0,61.448C9.05,127.819,43.99,194.7,53.913,263.34c-3.664,16.124-9.522,26.932-13.216,38.93-5.6,18.172-5.074,86.333-11.135,117.339a81.009,81.009,0,0,1-5.3,15.331c-1.748,3.885-2.728,5.254-2.265,8.17l3.484,22.005c13.134-3.079,16.638,7.661,16.307-6.692-.267-11.48,1.532-21.59,2.194-28.524,2.1-21.984,32.6-91.65,36.953-115.054,2.905-15.632,3.751-25.484,5.211-38.348.778-6.831,2.775-12.158,2.645-17.579-.246-10.021-2.649-18.253-2.707-29.885-.186-37.156-1.472-60.49-5.563-89.166C78.881,128.391,75.234,114.7,73.25,100.8c-2.241-15.713-2.869-31.761-5.531-46.505C63.535,31.121,58.293,12.438,57.827,0,28.5,5.917,28.824,34.873,0,61.448" transform="translate(78.323 280)" fill="#f1f1f1"/>
            <path id="Fill_5" data-name="Fill 5" d="M0,17.258c14.1,52.281,36.359,96.181,43.612,146.361-5.783,17.254-10.043,21.945-14.239,35.808-5.762,19.038-5.973,52.589-7.2,73.8-1.141,19.71-2.726,39.931-6.43,52.309-1.9,6.335-6.467,15.639-6.689,17.3-.352,2.651,2.207,5.819,2.474,7.751l2.012,14.471c13.134-3.081,29.473,4.33,25.136-9.349-3.536-11.161-2.6-14.1-1.936-21.034a208.792,208.792,0,0,1,8.541-43.266C53.5,264.1,64.95,238.2,69.707,209.487l-.451,1.54-.015.045c-8.633,29.348-33.853,100.344-38.168,121.6-1.974,9.732-2.658,8.925-4.589,10.066-6.247,3.678-9.558,2.362-9.528-5.5.021-6.6,3.395-14.736,3.91-19.947,4.512-45.771,7.033-143.178,37.606-143.06-5.96-1-9.272-9.548-11.771-18.116-10.3-35.291-20.99-66.722-28.14-102.725,13.931-5.716,29.217-7.978,48.421-6.88,7.535,32.343,6.95,57.495,6.6,91.031-.09,8.557-.092,11.129,2.786,13.559-.775-7.575-2.179-15.224-2.224-24.085-.186-37.156-1.47-58.526-5.561-87.2C66.943,28.338,63.3,14.644,61.312.749L61.207,0Z" transform="translate(90.261 380.051)" fill="#d1d1d1"/>
            <path id="Fill_7" data-name="Fill 7" d="M.468,29.149a7.346,7.346,0,0,0,.735,6.7c1.177,1.9,7.55,4.125,11.479,5.907a4.886,4.886,0,0,1,1.842,1.517c2.814,3.671,2.925,5.485,5.08,6.782,3.179,1.908,12.421,1.93,22.024.8,4.471-.524,10.468-1.626,12.472-4.093,1.186-1.457,1.051-3.774.936-5.387-.34-4.893-4.991-9.313-8.409-11.843-7.789-5.774-10.588-8.69-12.414-12.509-1.2-2.509-2.068-4.478-3.346-11.244-.728,6.9-9.045,7.61-15.764,5.169C10.043,9.111,2.781,3.4,3.563,0c-3.709,2.681-1.5,9.845-1.331,11.191C3.006,17.47-.919,21.665.468,29.149" transform="translate(96.179 721.08)" fill="#585d60"/>
            <path id="Fill_9" data-name="Fill 9" d="M.468,22.352a7.346,7.346,0,0,0,.735,6.7c1.177,1.9,7.55,4.125,11.479,5.907a4.886,4.886,0,0,1,1.842,1.517c2.455,3.207,2.852,4.989,4.347,6.255-.124-3.494-.327-6.247.6-8.9,1.538-4.345,7.031-7.637,8.96-10.333,2.147-2.989-.825-7.52-2.905-9.494C21.556,10.229,14.914,7.467,8.347,1.235,4.322.813,3.726-.179.587.028c.442,1.444,1.48,3.021,1.645,4.366C3.006,10.674-.919,14.869.468,22.352" transform="translate(96.179 727.877)" fill="#2e3439"/>
            <path id="Fill_11" data-name="Fill 11" d="M.468,22.352a7.346,7.346,0,0,0,.735,6.7c1.177,1.9,7.55,4.125,11.479,5.907a4.886,4.886,0,0,1,1.842,1.517c2.814,3.671,2.925,5.485,5.08,6.782,3.179,1.908,12.421,1.93,22.024.8,4.471-.524,10.468-1.626,12.472-4.093,1.186-1.457,1.051-3.774.936-5.387a8.87,8.87,0,0,0-.414-2.133l-3.3.556c-9.656,2.4-15.125,3.049-21.626.533-3.215-1.252-6.8-3.954-13.786-10.769C9.024,16.054,9.739,10.349,6.129.895,3.937.435,3.036-.134.587.028c.442,1.444,1.48,3.021,1.645,4.366C3.006,10.674-.919,14.869.468,22.352" transform="translate(96.179 727.876)" fill="#585d60"/>
            <path id="Fill_13" data-name="Fill 13" d="M.468,22.352a7.346,7.346,0,0,0,.735,6.7c1.177,1.9,7.55,4.125,11.479,5.907a4.886,4.886,0,0,1,1.842,1.517c2.455,3.207,2.852,4.989,4.347,6.255-.124-3.494-.327-6.247.6-8.9a13.677,13.677,0,0,1,3.292-4.766c-1.882-1.568-4.1-3.611-6.853-6.3C9.024,16.054,9.739,10.349,6.129.895,3.937.435,3.036-.134.587.028c.442,1.444,1.48,3.021,1.645,4.366C3.006,10.674-.919,14.869.468,22.352" transform="translate(96.179 727.876)" fill="#2e3439"/>
            <path id="Fill_15" data-name="Fill 15" d="M.378,0A7.253,7.253,0,0,0,1.2,6.395c1.177,1.9,7.55,4.125,11.479,5.907a4.886,4.886,0,0,1,1.842,1.517c2.811,3.671,2.925,5.485,5.08,6.78,3.179,1.91,12.421,1.932,22.024.807C46.1,20.88,52.1,19.778,54.1,17.312c1.186-1.457,1.051-3.774.936-5.387a9.166,9.166,0,0,0-.455-2.257,4.391,4.391,0,0,1-.865,2.02c-2,2.465-8,3.575-12.47,4.093-9.6,1.125-18.847,1.11-22.026-.807-2.153-1.294-2.269-3.108-5.082-6.773A4.88,4.88,0,0,0,12.3,6.677C8.368,4.9,1.993,2.663.818.777.666.533.519.274.378,0" transform="translate(96.179 750.533)" fill="#eaeaec"/>
            <path id="Fill_17" data-name="Fill 17" d="M18.43,18.03C11.781,14.359,7.387,8.913,5.881,5.759A28.461,28.461,0,0,1,3.736,0C2.608,2.606-.379,2.435.04,5.507a18.009,18.009,0,0,0,2.908,6.7c2.087,2.954,3.474,3.975,5.345,3.752,4.837-.563,8.155,1.378,10.137,2.073" transform="translate(124.51 732.347)" fill="#2e3439"/>
            <path id="Fill_19" data-name="Fill 19" d="M12.449,1.087C11.123.11,8.6-.273,6.2.206S.994,1.917.026,4.337c-.15.171.34,1.7,1.35,1.014.793-1.977,3.269-2.982,5.337-3.4s4.155-.154,5.168.6c1.166.135.97-1.132.568-1.465" transform="translate(120.493 744.5)" fill="#f1f1f1"/>
            <path id="Fill_21" data-name="Fill 21" d="M11.624,1.017A7.947,7.947,0,0,0,5.789.2C3.555.638.929,1.785.023,4.044c-.135.154.323,1.583,1.265.948C2.027,3.147,4.336,2.208,6.27,1.823a6.7,6.7,0,0,1,4.822.554c1.092.126.91-1.05.532-1.361" transform="translate(118.942 740.168)" fill="#f1f1f1"/>
            <g id="Group_25" data-name="Group 25" transform="translate(0 133.845)">
              <path id="Clip_24-3" data-name="Clip 24" d="M0,0H75.463V307.556H0Z" transform="translate(0 0)" fill="none"/>
              <g id="Group_25-2" data-name="Group 25" transform="translate(0 0)" clip-path="url(#clip-path-2)">
                <path id="Fill_23" data-name="Fill 23" d="M75.464,0C65.434,3.423,62.227,3.476,50.485,4.5,34.516,3.046,24.005,22.917,27.058,47.4c-2.243,17.853-1.16,7.543-2.41,23.539-1.508,19.3-.976,32.227-1.73,53.3-3.085,9.415-7.554,26.626-8.834,36.341-2.863,21.7-2.22,53.841-4.98,73.54-.658,4.685-1.57,4.679-2.121,6.884a37.781,37.781,0,0,0-.5,6.79C3.761,259.592.556,265.518.022,268.353c-.244,1.3,1.577,11.317,1.886,14.12.654,5.9.835,6.039,4.006,9.319,6.315,6.534,9.492,10.1,16.811,15.765,1.869-6.129-2.173-8.331-5.439-11.781a23.594,23.594,0,0,1-2.82-4.636c.1-1.915.506-4.159.585-6.6.068-2.281-.2-4.779.325-6.38a19.843,19.843,0,0,0,2.331-6.39l2,7.261c-.635,3.688-2.147,11.76,2.551,12.246,1.177.122,2.318-.013,2.833-.909,1-1.748,1.184-10.126,1.282-12.333a130.129,130.129,0,0,0,0-18.281c-.306-3.6-1.78-7.214-2.07-10.945.184-14.073,3.694-31.307,6.774-48.225,3.45-18.965,9.955-38.97,15.839-59.675,8.413-29.619,8.116-65.087,10.233-96.087Z" transform="translate(-0.001)" fill="#f1f1f1"/>
              </g>
            </g>
            <g id="Group_28" data-name="Group 28" transform="translate(0 258.356)">
              <path id="Clip_27-3" data-name="Clip 27" d="M0,0H48.314V183.044H0Z" transform="translate(0 0)" fill="none"/>
              <g id="Group_28-2" data-name="Group 28" transform="translate(0 0)" clip-path="url(#clip-path-3)">
                <path id="Fill_26" data-name="Fill 26" d="M22.724,183.045l0,0A117.251,117.251,0,0,1,8.068,169.515c-.681-.708-1.395-1.451-2.154-2.236l-.08-.082c-3.092-3.2-3.277-3.389-3.925-9.237-.109-.986-.411-2.906-.731-4.938-.616-3.908-1.313-8.337-1.155-9.181a30.806,30.806,0,0,1,1.456-4.367,117.246,117.246,0,0,0,5-16.189,38.086,38.086,0,0,1,.5-6.791,8.64,8.64,0,0,1,.71-1.852A14.3,14.3,0,0,0,9.1,109.612c1.379-9.83,1.9-22.512,2.45-35.94.539-13.141,1.1-26.73,2.53-37.6C15.305,26.811,19.594,9.944,22.832,0l14.88,8.58,10.6,2.5c-.414,1.708-.872,3.445-1.4,5.314-1.362,4.8-2.776,9.611-4.142,14.269-4.652,15.857-9.047,30.834-11.7,45.409-.37,2.03-.748,4.081-1.115,6.064-2.7,14.634-5.5,29.765-5.661,42.158a35.661,35.661,0,0,0,1.057,5.636,35.587,35.587,0,0,1,1.014,5.309,131.634,131.634,0,0,1,0,18.282c-.012.264-.025.615-.04,1.033-.116,3.168-.357,9.76-1.243,11.3a2.263,2.263,0,0,1-2.141.947,6.773,6.773,0,0,1-.691-.038,3.054,3.054,0,0,1-2.215-1.212c-1.828-2.417-.887-7.851-.382-10.77l.046-.264-2-7.253a.2.2,0,0,1,0,.022,19.838,19.838,0,0,1-2.329,6.361,14.612,14.612,0,0,0-.323,4.3c.009.686.018,1.4,0,2.08-.046,1.385-.192,2.685-.334,3.941-.106.943-.207,1.833-.251,2.661l.128.251a21.942,21.942,0,0,0,2.692,4.387c.563.594,1.152,1.155,1.722,1.7,2.707,2.575,5.263,5.007,3.716,10.079Zm-7.935-63.411c-1.329,0-5.8.222-6.708.408-.293,1.684-.545,3.192-.767,4.522-1.1,6.586-1.649,9.889-4.19,16.062a14.059,14.059,0,0,0-.986,8.645c.789,6.128,2.917,9.775,4.974,13.3.429.736.873,1.5,1.3,2.267A109.64,109.64,0,0,0,20.623,178.4l.215.2a19.878,19.878,0,0,0-3.656-6.1,18.8,18.8,0,0,1-4.033-7.413,37.05,37.05,0,0,0-.571-9.967,29.6,29.6,0,0,1-.152-11.1C13.64,136.492,14.279,127.851,14.789,119.633ZM20.427,15.707h0c-1.078,3.786-4.581,19.452-6.478,41.046-.484,5.488-.947,13.3-1.437,21.578-.472,7.96-.959,16.191-1.535,23.7-.288,3.774-.708,7.378-1.078,10.558-.152,1.3-.295,2.532-.418,3.678a2.132,2.132,0,0,0,.337,1.675,1.484,1.484,0,0,0,1.172.423,9.953,9.953,0,0,0,2.808-.653c.456-.151.887-.294,1.234-.374.1-1.108.045-2.941-.011-4.882a49.114,49.114,0,0,1,.023-5.695C17.549,85.37,22.322,63.5,24.8,55.931a51.257,51.257,0,0,1,5.015-9.8C33.483,40,38.042,32.38,40.3,21.027l-.7-.053c-6.162-.466-11.983-.906-19.18-5.267Z" transform="translate(0 0)" fill="#d1d1d1"/>
              </g>
            </g>
            <path id="Fill_29" data-name="Fill 29" d="M.34,7.21C-1.766,13.112,6.219,17.4,15.824,20.7c8.712,3,49.312,16.937,49.745,7.869,0,0-7.917-12.053-8.7-13.234S23.372,0,23.372,0Z" transform="translate(13.571 401.772)" fill="#2e3439"/>
            <path id="Fill_31" data-name="Fill 31" d="M28,84.448c.643,3.487,7.535,1.018,8.131,4.127,3.931,20.488,7.266,38.078,9.383,43.726,1.955,17.134.592,26.609-2.514,35.22-3.121,8.669-8.022,15.936-15.222,23.745C13.6,206.663,5.862,228.4,2.48,246.05c-10.96,57.2,18,114,17.313,165.831-.233,17.476-4.926,38.692-3.961,52.844,2.348,34.426,21.423,73.2,34.964,113.9,1.634,4.908,3.363,10.532,3.811,15.927.466,5.588-.391,10.956-.63,16.077-.276,5.853,2.034,16.06,2.7,25.24.485,6.662,1.506,12.813,3.933,15.972,3.914,5.1,21.676,8.763,22.376.578.876-10.215.955-9.379.015-17.357-.987-8.386-1.647-15.833-3.713-29.208-.9-5.853-2.335-7.875-4.864-16.366a246.927,246.927,0,0,1-9.479-46.526c-2.027-19.391-1.429-41.471-3.119-61.078-1.068-12.4-7.8-35.639-8.278-50.677,2.694-15.735,3.976-23.929,3.138-39.176.158-19.1,2.784-42.246,3.123-60.255.491-25.91,5.86-45.675,9.18-72.979l50.493-69.052c-.882-24.17-1.8-35.229,4.6-56.055,4-6.219,14.132-23.364,8.806-62.507-2.277-16.755,5.067-18.486,5.326-33.838-11.154-.507-37.529-11.262-38.935-12.5C93.356,19.624,96.431,9.959,94.239,0H64.272c1.536,17.985,1.329,25.7-1.69,29.752C59.692,33.628,53,35.117,41.49,38.136a60.169,60.169,0,0,0-10.643,3.722C13.38,50.217,23.67,61.008,28,84.448" transform="translate(17.453 99.95)" fill="#f1f1f1"/>
            <path id="Fill_33" data-name="Fill 33" d="M0,0C.835,9.492,1.427,17.652,3.111,27.071c6.016,33.671,16.384,68,15.971,99.054-.235,17.476-4.924,38.692-3.961,52.844,2.348,34.426,21.423,73.2,34.962,113.9a64.774,64.774,0,0,1,3.636,17.4c.222,5-.645,10.215-.863,14.774-.278,5.855,2.282,15.728,2.944,24.908.487,6.66,1.506,12.81,3.933,15.97,3.914,5.1,21.676,8.765,22.378.578.876-10.213.953-9.377.013-17.357-.987-8.386-1.647-15.831-3.713-29.206a35.687,35.687,0,0,0-.831-4.013c1.051,7.441,2.963,17.885,1.81,24.915-.752,4.6-1.927,10.421-8.035,10.932A14.993,14.993,0,0,1,54.86,336.292c.406-10.177,2.147-30.747-1.226-42.072C40.57,250.293,12.026,177.837,25.252,154.444c3.145-5.562,12.91-2.475,20.379-5.639-6.723.015-15.26,1.08-19-10.211-3.343-10.074-2.435-33.333-5.085-46.785C17.337,70.483,11.271,44.458,9.088,34.559c11.434,2.283,34.658,5.791,45.752,9.37,4.354,1.4,2.07,24.515,1.944,39.372.835-12.992,1.936-26.216,2.147-37.445a246.066,246.066,0,0,1,3.1-33.153Z" transform="translate(18.328 385.87)" fill="#d1d1d1"/>
            <path id="Fill_35" data-name="Fill 35" d="M34.645,41.486c.479,13.32,4.48,23.7,5.781,34.715,1.874,15.865-.972,28.958-.278,44.1a135.168,135.168,0,0,1-1.874,31.964c-1.393,7.9-6.875,21.34-11.295,32.8-5.044,13.093-2.745,26.59-15.642,42.571L.736,202.87c.84-1.778,2.465-10.577,6.161-16.777,2.1-3.515,5.813-1.566,7.351-6.369,5.089-15.912,1.931-42.019,6.114-57.963-2.985-18.037-6.45-45.868-11.207-69.079C4.909,31.953-.9,15.754.117,0,3.174.685,8.665,1.9,10.26,1.81,21.427,1.2,27.394,4.664,30.376,9.918c4.469,7.888,3.858,20.129,4.268,31.568" transform="translate(143.466 135.248)" fill="#f1f1f1"/>
            <path id="Fill_37" data-name="Fill 37" d="M10.6,109.7v0L0,84.938a27.5,27.5,0,0,0,.983-3.164C2.008,78.093,3.556,72.53,6.16,68.161A5.894,5.894,0,0,1,9.587,65.64c1.58-.607,3.072-1.18,3.926-3.848,2.688-8.4,3.08-19.75,3.46-30.728.349-10.1.679-19.646,2.637-27.164L39.331,0c.021.892.047,1.666.081,2.37a135.242,135.242,0,0,1-1.875,31.962c-1.208,6.861-5.424,17.7-9.5,28.182-.594,1.528-1.209,3.108-1.793,4.622A77.614,77.614,0,0,0,22.8,80.518C21.015,89.646,19.174,99.081,10.6,109.7ZM20.283,11.88c.366,8.058-1.075,19.805-2.469,31.166-.814,6.633-1.582,12.9-1.967,18.2C15.541,65.5,14.54,65.9,12.88,66.551A10.619,10.619,0,0,0,8.016,70.11c.813,2.474,2.028,5.5,3.313,8.7,2.441,6.077,5.208,12.964,5.925,17.919a79.357,79.357,0,0,0,4.7-16.926c.438-2.285.89-4.647,1.517-7.4,1.1-3.045,2.391-6.282,3.643-9.412,2.09-5.227,4.25-10.632,5.613-15.418,2.963-10.4,5.715-21.964,5.791-36.1A22.441,22.441,0,0,1,29.1,13.487,25.1,25.1,0,0,1,20.283,11.88Z" transform="translate(144.202 253.179)" fill="#d1d1d1"/>
            <path id="Fill_39" data-name="Fill 39" d="M66.785,106.559c2.673,11.272,7.334,30.054,8.488,33.9,17.956,1.767,28.394-10.108,70.391-7.3-.585-5.693-.56-17.6-1.387-22.814-1.162-7.3-4-11-5.32-18.766-1.457-8.6,8.939-16.443,8.631-25.2-.654-18.629-14.425-36.234-19.883-50.75-19.593,1.17-32.193-1.378-48.636-4.142C63.535,8.878,53.275,9.092,32.208,0,20,15.007,8.193,33.553,4.662,56.459,1.517,76.841,3.57,96.947.085,119.395c-.041.267-.07.546-.085.832,15.382,10.258,50.166,10.295,65.245,20.514Z" transform="translate(13.7 289.54)" fill="#808588"/>
            <path id="Fill_41" data-name="Fill 41" d="M78.92,140.846h0a27.467,27.467,0,0,1-3.777-.254c-1.1-3.657-7.907-29.039-8.358-32.46l-1.54,32.609c-7.546-5.113-20.251-7.724-32.537-10.248S7.685,125.35,0,120.225a8.171,8.171,0,0,1,.085-.832C1.873,107.875,2.2,96.925,2.526,86.335c.311-10.261.6-19.953,2.135-29.876A98.709,98.709,0,0,1,15.179,25.266,151.956,151.956,0,0,1,32.208,0C48.821,7.17,58.53,8.527,69.773,10.1c2.955.413,6.012.84,9.3,1.392q2.032.341,3.993.677C94.9,14.183,105.13,15.924,118.2,15.924c3.107,0,6.214-.1,9.5-.292a140.621,140.621,0,0,0,7.31,15.227c5.688,10.786,12.135,23.01,12.575,35.523.146,4.183-2.178,8.21-4.426,12.1-2.442,4.231-4.968,8.607-4.205,13.1a51.393,51.393,0,0,0,2.726,9.579,46.556,46.556,0,0,1,2.595,9.186c.468,2.95.662,8.031.849,12.944.145,3.8.282,7.4.537,9.868-4.121-.276-8.174-.417-12.049-.417A136.2,136.2,0,0,0,99.88,136.8c-1.765.426-3.426.849-5.032,1.259C88.975,139.553,83.9,140.846,78.92,140.846Zm-8.8-51.6a1.171,1.171,0,0,0-1.183.877c-.982,2.831,2.948,11.524,6.469,14.31,1.864,1.472,3.895,2.914,5.859,4.309,4.552,3.233,8.484,6.025,8.384,7.8-.193,3.367-2.784,3.861-5.785,4.433-2.31.441-4.7.9-6.365,2.7-1.194,1.3-.966,3.439-.564,5.008.678,2.646,2.255,5.248,3.071,5.522,3.854-.258,11.48-1.55,20.309-3.046,12.931-2.191,29.022-4.917,39.228-5.343a10.144,10.144,0,0,0-4.7-7.457c-2.467-1.672-5.64-2.743-9-3.876q-.887-.3-1.786-.608a45.491,45.491,0,0,1-8.878-4.156c-3.348-2.093-5.54-4.3-6.516-6.572-1.241-2.882-2.163-8.526.648-11.4a4.085,4.085,0,0,1,3.081-1.23c1.99,0,4.269,1.02,6.248,1.977l.757.368c1.769.863,3.293,1.607,4.333,1.607a1.16,1.16,0,0,0,1.065-.517c.48-.753.061-2.965-.424-5.527-.584-3.082-1.246-6.575-.474-8.368,1.2-2.8,3.808-3.17,6.832-3.6,3.234-.461,6.9-.983,9.369-4.815,2.321-3.6,3.2-6.8,2.766-10.066-.4-3.025-1.874-5.956-3.578-9.349A72.114,72.114,0,0,1,134.7,41.558c-2.316,4.646-7.491,8.171-15.378,10.479a81.331,81.331,0,0,1-22.042,2.8c-6.069,0-11.759-.582-14.85-1.52-1.942-4.1-2.195-9.1-.774-15.272A83.088,83.088,0,0,1,86.717,23.9c1.591-3.682,2.74-6.343,2.236-7.218a.612.612,0,0,0-.5-.3c-30.233-3.585-48.32-7.821-55.3-12.952a.682.682,0,0,0-.3.547c-.1,1.925,5.721,6.993,13.095,13.409C57.119,27.1,71.014,39.189,71.666,46.78c.086.983-1.281,6.508-3.619,6.739-.891.088-1.846.133-2.837.133a53.344,53.344,0,0,1-11.75-1.531l-.014-.014-4.933-1.282a124.324,124.324,0,0,1-19.841-7.813c-5.937-2.949-10.815-6.009-13.386-8.4a49.632,49.632,0,0,0-2.037,6.927c-.162.688-.345,1.467-.572,2.389-1.916,7.75-3.356,20.1-4.278,36.7C7.482,97.111,7.383,112.4,7.383,118.212a105.085,105.085,0,0,0,21.862,7.767c7.352,1.82,14.953,3.138,23.414,4.551l6.28,1.049c.234-1.52.414-3.077.588-4.583a61.343,61.343,0,0,1,1.506-9.045l3.144-11.531L53.446,117.689l0,0-.007-.012c-.273-.491-2.6-4.88-.386-7.59,1.138-1.4,3.79-6.387,5.814-10.328,1.2-2.332,2.268-4.156,3.129-5.622,1.406-2.394,2.18-3.712,1.8-4.386-.25-.438-.986-.617-2.539-.617-1.083,0-2.577.088-4.276.195-9.608.605-13.324,2.452-16.311,3.935a17,17,0,0,1-6.85,2.149c-.042,0-.085.005-.127.005a2.616,2.616,0,0,1-2.06-1.534,4.165,4.165,0,0,1-.43-3.712A22.79,22.79,0,0,1,41.933,81a43.973,43.973,0,0,1,9.789-2.466c4.552-.8,8.851-1.557,10.215-3.6a2.823,2.823,0,0,0,.365-2.286,61.755,61.755,0,0,0-4.365-4.759C52.182,61.853,42.549,51.746,42.7,49.646a.389.389,0,0,1,.14-.293l5.669,1.473c1.689.493,3.354.929,4.947,1.3l6.529,6.5c1.409,1.564,2.8,2.357,4.122,2.357,2.582,0,4.436-2.967,5.536-5.457a32.943,32.943,0,0,0,2.425-9.354c1.134-12,3.14-21.613,9.244-29.5h.016c.5.035,4.894.366,5.261,1.151a.276.276,0,0,1-.044.293c-1.7,2.337-3.669,9.834-5.248,15.858-.606,2.312-1.177,4.493-1.664,6.121a16.289,16.289,0,0,0-.284,9.435,14.84,14.84,0,0,0,4.491,6.75c4.326,3.874,10.814,6.261,15.982,7.908a39.125,39.125,0,0,1,10.229,4.946c2.725,1.917,4.182,3.7,4,4.9-.153.987-1.436,1.509-3.71,1.509a45.633,45.633,0,0,1-10.383-1.717c-2.128-.545-4.19-1.135-6.183-1.706C89.2,70.8,85.244,69.665,82.5,69.665a5.728,5.728,0,0,0-2.1.328c-.363.143-.566.353-.6.623-.173,1.268,3.192,3.807,7.452,7.02,7.44,5.613,17.628,13.3,15.657,19.482-.346,1.085-1.448,1.234-2.588,1.234-.326,0-.662-.014-.986-.027H99.32c-.321-.013-.653-.026-.965-.026-.877,0-1.83.093-2.253.785-.506.823,4.537,4.5,10.376,8.755,6.5,4.737,13.864,10.106,13.993,12.023a.543.543,0,0,1-.162.449,1.493,1.493,0,0,1-1.063.334c-2.662,0-10.645-3.556-33.553-20.5-4.991-3.69-9.28-6.986-12-9.1C72.159,89.846,70.957,89.241,70.121,89.241Z" transform="translate(13.7 289.54)" fill="#585d60"/>
            <g id="Group_45" data-name="Group 45" transform="translate(19.257 134.412)">
              <path id="Clip_44-2" data-name="Clip 44" d="M0,0H167.438V205.707H0Z" transform="translate(0 0)" fill="none"/>
              <g id="Group_45-2" data-name="Group 45" transform="translate(0 0)" clip-path="url(#clip-path-4)">
                <path id="Fill_43" data-name="Fill 43" d="M46.232,1.964c-6.142.43-12.972,1.311-19.1,1.555C18.651,3.851,15.278,8.778,11.426,15.2a34.725,34.725,0,0,0-3.143,7.466C6.794,27.309,6.2,35.1,6.45,39.965c.267,5.141.5,6.829-.654,11.79-.526,2.266-1.231-.477-1.57,9.83s-1.416,41.623-1.7,51.89.4,6.739,0,9.7-2.865,5.547-2.487,8.258c.637,4.533,5.548,8.008,10.037,9.428,4.738,1.5,19.447,2.062,20.979-3.271.575-2.015,1.173-11.27,1.173-13.367s1.923-13.673,2.224-15.463,1.04-7.394,1.442-11.007c.521-4.715.013-11.9.259-16.638l.788-14.941c.393,6.931-.5,10.934,1.57,20.574a95.608,95.608,0,0,0,2.92,10.992c1.647,7.922,2.617,15.14,1.1,22.936-2.57,13.176-4.495,18.022-12.378,27.85-8.114,10.115-17.292,21.066-22.131,33.089,5.877,7.986,25.1,20.307,51.619,23.379,4.166.479,5.839-.766,6.873-3.432,1.346-3.47,2.514-10.769,4.07-15.692-4.138,18.668-.887,19.819.519,19.834,19.862.208,50.01-4.255,58.351-19.106-4.234-13.788-6.6-20.685-8.056-34.98-1.295-12.669-3.585-18.683-3.023-26.462.479-6.634.575-11.706,5.326-24.519,10.853-14.447,10.09-29.987,9.941-40.62,1.049,19.117.331,28.8,5.52,47.81,1.889,6.916.884,17.027,2.856,18.756,5.828,5.109,22.637,6.2,24.6-1.572l-.778-13.762c.818-9.193,1.9-18.193,1.523-24.643-.632-10.812-4.35-26.541-6.505-37.068-1.2-5.855.949-14.107,0-17.431-.468-1.652-1.863-4.856-2.087-6.326-1.53-9.989-2.455-14.443-5.6-17.96-5.7-6.375-13.893-6.168-26.858-5.982L117.153,0,111.4,10.744,101.45,48.48,90.982,71.544,89.937,84.123l-8.116-15.2s-17.008-35.9-17.008-37.216S55.13,7.075,55.13,7.075Z" transform="translate(0)" fill="#808588"/>
              </g>
            </g>
            <path id="Fill_46" data-name="Fill 46" d="M36.506,49.556c-4.036,2.253-13.615,8.251-23.686,10.222C6.262,55.326.449,48.781,0,42.216c.062-.1.13-.2.192-.31,1.382,5.836,6.644,11.473,12.5,15.448,10.069-1.97,18.078-5.611,22.116-9.176C40.937,38,44.855,20.625,48.453,0c-1.886,20.57-7.836,42.738-11.947,49.556" transform="translate(56.444 227.831)" fill="#7c799e"/>
            <g id="Group_50" data-name="Group 50" transform="translate(19.257 134.41)">
              <path id="Clip_49-2" data-name="Clip 49" d="M0,0H167.438V205.709H0Z" transform="translate(0 0)" fill="none"/>
              <g id="Group_50-2" data-name="Group 50" transform="translate(0 0)" clip-path="url(#clip-path-5)">
                <path id="Fill_48" data-name="Fill 48" d="M72.4,205.71h0c-.438,0-.873,0-1.3-.007a1.836,1.836,0,0,1-1.5-.741c-1.664-2.1-1.326-8.7.978-19.095-.73,2.311-1.372,5.132-1.992,7.861a65.374,65.374,0,0,1-2.076,7.831c-.974,2.51-2.5,3.534-5.258,3.534a14.264,14.264,0,0,1-1.616-.1,100.8,100.8,0,0,1-33.549-9.847c-8.073-4.068-14.827-9.127-18.069-13.533,4.5-11.181,12.587-21.23,20.41-30.948q.866-1.076,1.721-2.14c8.036-10.022,9.86-14.943,12.377-27.851,1.473-7.569.627-14.644-1.1-22.937a94.415,94.415,0,0,1-2.921-10.99,61.728,61.728,0,0,1-1.448-14.851c0-1.782,0-3.625-.121-5.722l-.788,14.941c-.1,1.991-.074,4.377-.043,6.9a87.613,87.613,0,0,1-.216,9.734c-.408,3.67-1.136,9.225-1.442,11.008-.228,1.358-2.223,13.33-2.223,15.463,0,2.012-.584,11.293-1.177,13.366-.428,1.492-1.905,2.625-4.393,3.367a28.878,28.878,0,0,1-7.8.938,33.02,33.02,0,0,1-8.788-1.034c-4.537-1.437-9.4-4.91-10.037-9.431-.213-1.528.471-3,1.2-4.556a13.154,13.154,0,0,0,1.293-3.7,5.1,5.1,0,0,0,.085-1.756c-.082-.6-.254-1.856-.085-7.938.2-7.091.764-23.973,1.221-37.537.2-5.994.376-11.166.479-14.355.245-7.424.68-8.077,1.1-8.708A2.854,2.854,0,0,0,5.8,51.757a29.415,29.415,0,0,0,.725-10.472c-.023-.417-.047-.853-.071-1.317-.252-4.908.364-12.721,1.832-17.3A35.239,35.239,0,0,1,11.428,15.2c1.922-3.2,3.709-6.027,6.116-8.122a14.691,14.691,0,0,1,9.587-3.556c3.652-.146,7.594-.522,11.407-.885,2.563-.244,5.212-.5,7.7-.671l8.9,5.112.022.053c.989,2.386,9.661,23.35,9.661,24.579,0,1.3,16.838,36.857,17.008,37.216l8.116,15.2,1.044-12.579,10.469-23.064L111.4,10.744,117.153,0l9.162,1.835.516-.007c2.023-.029,3.933-.057,5.733-.057a51.466,51.466,0,0,1,12.074,1.042,16.2,16.2,0,0,1,8.535,5c3.124,3.5,4.06,7.93,5.6,17.96a25.281,25.281,0,0,0,1.214,3.806c.353.956.685,1.859.872,2.519.437,1.53.222,4.069-.028,7.009-.289,3.4-.617,7.264.028,10.424.392,1.915.834,3.992,1.3,6.192,2.088,9.814,4.686,22.027,5.2,30.874.306,5.234-.349,12.15-1.043,19.473-.16,1.688-.325,3.433-.48,5.171l.777,13.765c-.889,3.517-5.055,5.616-11.145,5.616-5.288,0-10.7-1.625-13.455-4.045-1.048-.919-1.259-4.254-1.5-8.117a55.8,55.8,0,0,0-1.353-10.638c-4.15-15.2-4.524-24.476-5.041-37.31-.132-3.281-.269-6.672-.479-10.5.007.464.014.928.022,1.42a93.175,93.175,0,0,1-1.026,18.384,47.975,47.975,0,0,1-8.937,20.816c-4.454,12.012-4.818,17.238-5.24,23.29-.028.4-.057.812-.086,1.226-.335,4.646.353,8.7,1.225,13.842.6,3.524,1.276,7.517,1.8,12.621,1.351,13.238,3.533,20.31,7.146,32.027l.007.022q.437,1.416.9,2.932a25.492,25.492,0,0,1-9.565,9.116,60.156,60.156,0,0,1-14.575,5.89A129.813,129.813,0,0,1,72.4,205.71Zm12.623-86.7h0a365.864,365.864,0,0,1-6.676,47.111c-.808,4.061-1.572,7.9-2.228,11.882l-.426,2.588c-2.146,13.018-3.125,18.959-2.181,20.71.841,1.557,2.818,2.314,6.042,2.314,5.226,0,12.906-2.044,19.729-4.043l.412-.121c5.841-1.708,19.52-5.708,24.545-10.533a5.434,5.434,0,0,0,1.513-3.9,6.056,6.056,0,0,0-1.726-4.356,36.891,36.891,0,0,0-3.827-3.224c-3.514-2.666-5.117-3.883-2.862-12.778,1.88-7.415,2.045-16.776,1.069-17.8l-2.03,4.615a45,45,0,0,1-19.131-7.034c-4.609-2.984-7.369-5.894-7.547-6.3-.684-1.554-.518-27.822.235-36.983.929.069,1.921.1,2.948.1a48.752,48.752,0,0,0,20.834-4.672c14.284-7.033,14.253-15.354,14.216-24.988v-.389c-.035-11.623,3.365-15.8,9-22.719,1.368-1.68,2.918-3.584,4.563-5.781a82.016,82.016,0,0,0-3.2,17.075,61.324,61.324,0,0,0,1.639,17.583c1.239,5.578,4.2,9.363,6.806,12.7,2.811,3.6,5.239,6.7,4.294,10.853a17.1,17.1,0,0,1-4.672,8.317c-2.553,2.843-4.758,5.3-3.285,12.755.574,2.909,5.225,4.723,9.523,5.012,1.1.075,2.125.113,3.055.113,4.368,0,7.079-.82,8.287-2.505.877-1.224.951-2.943.22-5.109-1.176-3.492-3.354-3.85-4.524-4.043-.412-.068-.683-.112-.748-.264-.04-.094,0-.226.137-.418a26.756,26.756,0,0,1,2.279-2.868,7.231,7.231,0,0,0,1.947-3.251c2.932-10.131.982-18.359-.739-25.618l0-.016q-.217-.917-.425-1.806a69.557,69.557,0,0,1-1.628-15.537,80.121,80.121,0,0,0-1.431-15.243,28.514,28.514,0,0,0-1.492,2.865c-1.277,2.746-2.665,4.452-3.625,4.452a.728.728,0,0,1-.574-.282c-.6-.714-.654-2.712-.151-5.625a39.92,39.92,0,0,1,1.707-5.94,36.43,36.43,0,0,0,1.931-7.2c.062-.517.133-1.024.2-1.514.472-3.378.88-6.293-1.588-10.749a26.576,26.576,0,0,1-.505-4.959,61.957,61.957,0,0,0-.629-6.757c-.557-2.753-1.038-5.13-4.543-6.895a.03.03,0,0,0-.014,0c-.6,0-6.239,12.77-10.992,36.7-1.065-10.8,2.161-23.635,4.679-32.347-5.921.252-11.245,2.428-16.881,4.732-.934.382-1.894.774-2.858,1.158l10.6,8.909a53.249,53.249,0,0,1-9.532,8.619,53.034,53.034,0,0,0-9.7,8.812c8.876,7.531,6.04,16.12,2.757,26.065-1.706,5.167-3.469,10.509-3.807,16.258-4.632-1.266-6.98-2.008-8.65-3.053-1.7-1.061-2.724-2.453-4.588-4.981-.843-1.143-1.89-2.561-3.246-4.282a118.293,118.293,0,0,1-3.879,13.275c-.993,2.942-2.02,5.984-3.058,9.655-3.775-5.4-6.621-11.586-9.374-17.566C78.076,72.958,75.1,66.5,70.959,61.486,62.54,51.3,47.269,37.519,39.432,34.33c3.253-5.581,7.987-10.318,11.779-11.789-7.446-2.3-12.494-5.494-18.814-9.756a22.48,22.48,0,0,1,.153-3.33l-1.232,2.6,1.079.729c.123,8.127,2.858,23.142,4.327,31.209a60.3,60.3,0,0,1,1,6.084h0c-.034,0-.086-.113-.172-.367A223.5,223.5,0,0,0,25.938,20.887c-3.079-6.1-5.189-8.874-5.847-8.874a.177.177,0,0,0-.083.019C13.921,17.75,7.333,30.334,10.8,39.09c.2.5,1.732.813,3.508,1.173,2.332.474,4.976,1.01,5.813,2.15a1.38,1.38,0,0,1,.211,1.177c-.452,1.952-4.173,4.882-10.209,8.038a14.037,14.037,0,0,1,.9,1.934,27.741,27.741,0,0,0,3.545,6.556,5.563,5.563,0,0,0,3.039,1.732c1.543.469,2.875.874,2.458,3.405-.336,2.036-2.317,2.636-4.612,3.329a13.8,13.8,0,0,0-5.369,2.543C6.8,74.027,7.035,82.9,7.159,87.66,7.3,93,9.885,93.836,11.775,94.45c1.226.4,2.195.713,1.965,2.134-.276,1.716-1.746,2.629-3.3,3.6a10.188,10.188,0,0,0-3.614,3.141c-1.248,2.037-2.015,9.63-1.059,14.315q.062.306.123.609c.6,3.014,1.124,5.617,3.742,6.966a23.36,23.36,0,0,0,5.783,1.405c2.126.35,3.963.652,4.019,1.138a2.124,2.124,0,0,1-.648,1.566,6.539,6.539,0,0,1-4.8,1.909h-.132a28.263,28.263,0,0,1-6.233-.808,20.044,20.044,0,0,0-2.464-.437C3.8,131.036,2.9,131.9,2.89,132.728a1.586,1.586,0,0,0,.7,1.223l.257.213c1.878,1.557,5.022,4.164,9.222,4.946.507.094,1.04.2,1.6.315a36.27,36.27,0,0,0,6.959.935c2.733,0,4.713-.7,6.054-2.134,1.448-1.56,2.022-6.356,1.532-9.286a11.463,11.463,0,0,0-1.832-3.28,11.5,11.5,0,0,1-1.831-3.276,8.061,8.061,0,0,0-.394-1.343c-.394-1.1-.8-2.247.133-3.373A37.664,37.664,0,0,0,32.891,102.5c1.692-6.813.472-11.387-.82-16.23a51.43,51.43,0,0,1-1.453-6.644c-.13-1,.967-4.931,2.355-9.91.648-2.322,1.381-4.953,2.065-7.563,1.674-6.391,3.044-13.129,3.609-16.686,1.985,7.029,2.39,14.286,2.781,21.3a101.478,101.478,0,0,0,1.441,14.29c.992,4.834,2.618,8.31,5.117,10.939a29.241,29.241,0,0,0,11.5,7.311A40.267,40.267,0,0,0,73.1,101.568a45.24,45.24,0,0,0,9.78-1.064A28.542,28.542,0,0,1,71.86,106.66a43.559,43.559,0,0,1-13.037,2.078,22.475,22.475,0,0,1-10.1-1.947,88.906,88.906,0,0,1,.174,10.738c-.1,3.235-.179,5.573.632,8.062a22.483,22.483,0,0,0,4.755,7.8c1.039,1.221,1.79,2.1,1.651,2.736-.061.277-.291.5-.7.694a7.472,7.472,0,0,1-3.182.627,20.162,20.162,0,0,1-3.017-.288l-.229-.035a16.8,16.8,0,0,0-2.362-.254,2.608,2.608,0,0,0-1.6.406c-.958.7-1.788,2.938-2.938,6.035a81.674,81.674,0,0,1-8.2,17.12c-2.252,3.458-5.305,5.174-8.537,6.992-4.617,2.6-9.391,5.28-12.044,13.4,1.232,5.094,11.24,9.387,17.095,11.493A123.9,123.9,0,0,0,57.5,198.606c.118.012.236.017.351.017,2.648,0,4.294-3.2,6.021-7.063,5.348-11.956,8.366-21.78,12.7-36.539C78.7,147.777,80.81,138.472,85.027,119.011ZM136.237,5.227c-.418,0-.85,0-1.284.013l8.516,6.85c.173-.6.337-1.157.489-1.677.737-2.52,1.182-4.041,1.05-4.271a.055.055,0,0,0-.034-.028A37.415,37.415,0,0,0,136.237,5.227ZM33.676,7.078c-.553.191-.932.991-1.125,2.376l1.125-2.376Z" transform="translate(-0.001 0)" fill="#585d60"/>
              </g>
            </g>
            <path id="Fill_51" data-name="Fill 51" d="M2.816,93.462c-3.538,16.419-2.976,26.776-2.359,43.5,3.726,6.35,12.872,10.881,24.34,11.79,2.722-4.523,3.335-6.484,4.45-11.79-1.211-17.928-.449-16.892,3.662-34.726C43.811,90.15,43.044,77.4,42.854,67.255l2.619-14.676c4.232-15.271,4.741-35.984,11.432-49.2-5.232-2.3-12.088-2.159-21.415-2.022L28.731,0c.335,36.335-17.038,56.275-25.914,93.462" transform="translate(110.081 134.893)" fill="#2e3439"/>
            <path id="Fill_53" data-name="Fill 53" d="M65.849,93.9c-3.7,21.436-7.18,38.029-13.478,48.482-4.036,3.564-12.045,7.2-22.116,9.174-6.559-4.452-12.376-11-12.825-17.562,2.749-4.281,5.5-12.753,5.106-31.316-9.518-25.047-2.1-37.323-4.781-54.538C15.393,32.948,7.368,17.179,0,5.982,4.489,2.954,13.711,4.356,25.985,2.159A65.806,65.806,0,0,0,35.246,0s1.019,9.685,2.109,12.346c1.258,13.431,2.673,23.434,9.748,39.843C50.974,61.175,61.121,85.771,65.849,93.9" transform="translate(38.88 133.627)" fill="#2e3439"/>
            <path id="Fill_55" data-name="Fill 55" d="M24.861.851C17.873,14.9,39.627,47.735,52.08,87.8c0-34.717,25.049-59.82,18.841-87.8C80.8,4.649,87.189,5.389,97.093,15.463c-7.341,3.819-10.552,6.166-19.629,9.7L88.977,35.38C69.889,54.573,54.1,70.787,52.862,99.85,42.3,68.47,33.934,58.6,9.947,40.1L21.2,30.4C13.7,27.946,7.479,25.041,0,15.855c7.875-7.143,16.525-8.408,24.861-15" transform="translate(56.327 126.154)" fill="#808588"/>
            <path id="Fill_57" data-name="Fill 57" d="M5.191,42.022C3.48,34.917,2.269,30.746.709,24.437c-7.477-30.263,46.821-34.67,38.354-.424-.946,3.823-4.427,8.341-5.736,11.961-1.955,5.413-3.636,8.249-9.167,11.931-8.8,5.864-15.548,4.05-18.969-5.883" transform="translate(76.923 64.489)" fill="#d1d1d1"/>
            <path id="Fill_59" data-name="Fill 59" d="M38.169,75.616c-4.091,4.664-7.153,6.762-11.6,6.758s-7.291-2.7-12.122-7.8c-4.627-4.9-10.21-10.754-12.128-18.527-1.453-5.862.85-8.726-.562-16.723C.321,31.143-.982,22.509,1.041,14.249,3.306,5.026,15.489-.278,27.566.011,38.908.283,50.188,5.588,52.312,14.249c2.025,8.26.722,16.89-.72,25.071-1.412,8,.891,10.861-.56,16.723-1.921,7.772-7.68,13.675-12.863,19.573" transform="translate(69.871 27.212)" fill="#f1f1f1"/>
            <path id="Fill_61" data-name="Fill 61" d="M63.334,19.491C46.98,13.865,43.846,37.278,27.815,56.433,20.193,65.545,17.608,77.116,21.1,85.77c3,7.424,10.423,2.5,13.29,20.536l-.019,4.993c-3.852-13.923-16.236-11.918-23.91-18.227C3.689,87.5-2.224,76.706.822,60.821,3.79,45.36,15.191,35.346,16.595,26.442c3.625-22.964,28.76-32.3,47.053-22.7a10.335,10.335,0,0,1,1.589,5.582c.021,1.5-1.985,7.394-1.9,10.166" transform="translate(45.822 13.517)" fill="#808588"/>
            <path id="Fill_63" data-name="Fill 63" d="M47.32,13.178C39.157,22.022,31.883,39.963,26.179,49a29.138,29.138,0,0,0-.63,5.273,25.344,25.344,0,0,0,.175,8.594A35.108,35.108,0,0,0,33.058,76.4c2.48,6.906,3.153,13.675.974,22.467l-.3,5.958c-1.28-3.41-4.651-10.111-7.738-11.413C16.7,89.48,8.381,86.541,3.093,76.678-.419,70.128-.592,61.885.85,52.055c2-4.52,3.335-8.7,5.6-12.86,2.908-5.348,6.932-10.284,9.483-15.673C19.864,15.226,16.446,10.684,28.9,0c-7.5,9.807-7.708,16.345-10.962,24.759-3.536,9.141-7.584,12.971-7.776,25.2C12.923,43.677,16,37.963,17.215,31.2c3.378-18.76,6.473-23.83,12.056-25.642-3.346,3.682-4.835,6.371-6.168,14.389,5.189,9.409,4.653,16.552,2.871,25.49,6.257-7.486,11.248-27.435,21.347-32.263" transform="translate(46.688 20.226)" fill="#d1d1d1"/>
            <path id="Fill_65" data-name="Fill 65" d="M6.584,0a29.14,29.14,0,0,0-.632,5.273,25.44,25.44,0,0,0,.173,8.592c1.25,5.012,4.281,9.747,7.445,13.51,2.48,6.906,4.13,15.577,2.927,23.066C13.86,28.488-11.8,29.8,6.584,0" transform="translate(66.033 69.222)" fill="#808588"/>
            <path id="Fill_67" data-name="Fill 67" d="M16.456,2.794C16.839,2.291.8,0,.8,0l.449,7.353L6.1,13.985,2.564,16.054,1.8,25.507l1.092,4.942-.363,5.922L1.055,41.11l5.772,9.362-2.5,3.066L0,70.149l4.574,7.894,6.2,8.117,1.305-7.721,3.762-16.064s-.449-6.442-.981-6.874S8.6,49.68,8.6,49.68l4.683-8.13,1.331-8.41.553-3.566,4.17-4.167-1.466-7.984-1.3-3.074,1.942-3.4.1-5.975Z" transform="translate(118.747 129.352)" fill="#ab6f4a"/>
            <path id="Fill_69" data-name="Fill 69" d="M49.008,92.195c-.066-.374-.124-.749-.2-1.125,3.115-5.947-.259-10.517-.348-12.646-.25-5.967-3.085-11.08-3.448-18.623-.451-9.437,2.215-18.073-.214-27.64-1.839-7.248-5.337-13.946-8.43-19.564C33.06,6.583,28.9,2.282,23.227.511c-3.042-.948-7.488-.434-10.06.381L13.425,6.9,0,4.092,12.852,16.637C21.1,21.99,24.331,38.149,24.662,52.277c-.579-1.846-1.085-3.787-1.54-5.9-1.3-6.067-2.344-12.425-3.939-19.113.891,6.4,2,12.975,3.5,19.357.635,2.7,1.288,5.045,2.006,7.216,0,.188.011.383.011.569.024,6.711-.577,14.077-2.408,18.266h0a10.684,10.684,0,0,1-1.978,3.9,10.6,10.6,0,0,1-2.3,3.573c-.314.244-.632.488-.949.734-.622,3.111-1.228,6.94-2.448,9.935-1.752,4.3-.639,14.244,5.354,17.769-2.363,4.7.972,14.244,3.559,15.286-.111.3.57.415,1.72.421L24.075,125.4l-.239,6.317.192,5.408-1.194,4.645,2.055,5.937.429,1.29-2.006,3.158.523,5.46,4.728,4.784.908.815L23.5,170.441l.474,16.129,7.21,10.577,2.433,2.4,1.1-9.909L38.4,174.269l-.333-5.167-6.875-5.6-.288-1.673,3.775-4.833,2.769-7.18-.671-6.414,2.865-2.732,2.1-3.108.192-6.08-2.388-3.158a44.078,44.078,0,0,0,2.491-5.051,8.44,8.44,0,0,0-2.73-9.4c2.75-2.007,5.67-3.615,8.614-6.846,3-3.292,2.653-9.332,1.092-14.826" transform="translate(95.849 16.37)" fill="#d1d1d1"/>
            <path id="Fill_71" data-name="Fill 71" d="M9.945,25.925c1.506,8.519,4.2,15.057,9.21,22.878-6.994-9-8.753-14.6-10.312-22.651C6.894,16.1,4.978,9.338,0,0,6.875,9.287,7.967,14.768,9.945,25.925" transform="translate(112.399 38.381)" fill="#d1d1d1"/>
            <path id="Fill_73" data-name="Fill 73" d="M21.235,132.139l0,0a43.382,43.382,0,0,1-8.948-11.157,25.252,25.252,0,0,1-3.445-12.7c.17-5.238,2.549-9.709,7.072-13.288A18.416,18.416,0,0,1,11.8,91.053a9.486,9.486,0,0,1-2.054-4.947,6.169,6.169,0,0,1,2.284-5.1c-3.125-4.166-4.4-8-1.086-14.192-1.288-3.358-.783-6.908-.2-9.625-3.4-3.663-6.206-8.2-3.778-16.533C2.413,38.194.817,33.187.279,29.421A32.473,32.473,0,0,1,1.306,16.114l.492-.6c1.553-1.883,2.491-3.019,3.644-4.708a1.764,1.764,0,0,1,0,.183c0,.05-.005.1,0,.15l.581-.7c.422,1.654-.2,5.015-.912,8.908-1.074,5.84-2.291,12.458-.5,15.809-.292-6.669.969-9.541,2.188-12.319a22.81,22.81,0,0,0,1.868-5.729A74.993,74.993,0,0,0,9.2,9.121l.01-.288a21.188,21.188,0,0,1,.415-3.641A16.354,16.354,0,0,1,10.752,2.1c.293-.668.6-1.359.868-2.1a45.74,45.74,0,0,0-.066,10.6,41.58,41.58,0,0,1-.1,10.335c-.431,2.479-.95,4.419-1.409,6.131-1.514,5.652-2.2,8.232,4.187,16.75L10.9,43.1c-.861,7.31,1.722,10.328,4.22,13.247,1.6,1.866,3.1,3.628,3.64,6.415,1.1-3.719-.243-7.773-1.8-12.467-.213-.643-.434-1.307-.653-1.987.034-.09.083-.133.148-.133.174,0,.447.307.793.7.564.634,1.336,1.5,2.167,1.557.034,0,.068,0,.1,0,.881,0,1.808-.782,2.79-1.61a8.866,8.866,0,0,1,3.089-1.969,20.19,20.19,0,0,0-2.7,8.495,31.756,31.756,0,0,1-1.6,7.219l1.365-1.522c4.888-5.428,5.906-6.558,4.491-13.473a9.01,9.01,0,0,0-1.663-1.128L26.7,45.234c6.313,5.145,3.364,11.322,1.044,14.546A12.645,12.645,0,0,1,30.063,67.4a9.158,9.158,0,0,1-3.577,7.172,14.036,14.036,0,0,1-1.271.849,13.665,13.665,0,0,1-.09,9.055,23.567,23.567,0,0,1-4.032,6.279,31.9,31.9,0,0,0-2.551,3.463,13.581,13.581,0,0,1,6.251,4.075,9.726,9.726,0,0,1,2.071,5.574c.3,4.107-1.3,8.974-2.837,13.682-1.646,5.031-3.348,10.232-2.793,14.587Zm-4.315-29.782c-4.776,3.951-6.288,7.665-2.625,19.233a41.805,41.805,0,0,0,6.1,8.978,27.428,27.428,0,0,1,.419-5.9c-.063.177-.128.352-.192.527l-.123.337c.34-3.471.859-6.286,1.317-8.769,1.133-6.14,1.817-9.846-1.9-14.944a60.536,60.536,0,0,0-.194,27.732l-.27-1.088c-2.882-11.605-3.4-13.7-2.53-26.111Zm-.339-20.9,0,0-.724,1.423c.167,5.054.6,6.45,2.05,11.073a37.123,37.123,0,0,1,2.1-4.848c1.825-3.715,3.548-7.223,1.351-11.512a26.707,26.707,0,0,0-4.276,3.025c-.453.592-.9,1.248-1.469,2.079l-.19.278Zm-3.666.7a6.946,6.946,0,0,0-1.23,5.861,8.973,8.973,0,0,0,3.783,4.844c-.07-.207-.188-.491-.324-.82-.785-1.9-2.247-5.442-.665-7.846.007-.018.014-.038.021-.058s.018-.053.029-.077c-.575-.65-1.1-1.274-1.615-1.9Zm-.481-12.675h0a13.676,13.676,0,0,0-.784,1.66,13.841,13.841,0,0,0,1.9,5.4c1.069,2.023,2.079,3.934,1.464,6.8l.021.031c.014.021.027.041.043.062l.006-.008c1.758-5.452,2.841-7.814,7.276-11.017,2-1.444,4.1-3.227,4.458-5.507a5.824,5.824,0,0,0-1.362-4.4l-.068.068-.067.067a27.942,27.942,0,0,1-5.036,4.987c-.336.727-.589,1.41-.812,2.013C18.7,71.71,18.2,73.08,15.519,73.764a4.972,4.972,0,0,0,.815-1.076l-.1.047c-.068.034-.139.068-.218.1a.569.569,0,0,0,.079-.059l.04-.033a13.085,13.085,0,0,1-3.7-3.26Zm-.419-10.971C11.2,64,11.613,67.9,16.142,72.742l.163-.125.106-.081a8.55,8.55,0,0,0,.792-3.163,9.683,9.683,0,0,1,.773-3.218c-1.888-2.421-3.736-4.862-5.451-7.139C12.354,58.848,12.185,58.681,12.016,58.513Z" transform="translate(108.944 84.351)" fill="#808588"/>
            <path id="Fill_75" data-name="Fill 75" d="M10.208,0l3.925,3.538C6.6,7.89,8.022,13.394,7.984,17.821,4.783,25.383,2.158,26.564,0,44.289.846,29.707,1.683,16.464,10.208,0" transform="translate(108.583 176.331)" fill="#808588"/>
            <g id="Group_79" data-name="Group 79" transform="translate(52.191 0)">
              <path id="Clip_78-2" data-name="Clip 78" d="M0,0H97.068V67.515H0Z" fill="none"/>
              <g id="Group_79-2" data-name="Group 79" clip-path="url(#clip-path-6)">
                <path id="Fill_77" data-name="Fill 77" d="M22.275,13.054c-8.887,2-28.217,18.747-20.49,43.326,5.2-6.369,11.876-18.9,18.439-24.566C33.975,19.93,51.643,19.639,65.3,26.221,82.229,34.379,89.908,49.57,89.337,67.515c13.829-21.712,7.576-37.8-6.708-46.353C81.332,10.042,71.486,2.554,58.653.59c-12.929-1.983-32.535.757-36.378,12.464" transform="translate(0 0)" fill="#2e3439"/>
              </g>
            </g>
            <g id="Group_82" data-name="Group 82" transform="translate(74.466 0)">
              <path id="Clip_81-2" data-name="Clip 81" d="M0,0H60.354V21.162H0Z" transform="translate(0)" fill="none"/>
              <g id="Group_82-2" data-name="Group 82" transform="translate(0)" clip-path="url(#clip-path-7)">
                <path id="Fill_80" data-name="Fill 80" d="M0,13.054a88.944,88.944,0,0,1,32.817-1.972,70.688,70.688,0,0,1,22.718,7.334c-9.9-6.6-24.523-10.329-40.456-9.118-7.039.537-5.866-1.639-1.741-3.59A44.665,44.665,0,0,1,28.871,1.991C43.039,1.94,56.513,9.883,59.795,20.655c-.857-.488-1.713-.866-2.542-1.318q1.564.866,3.1,1.825C59.058,10.042,49.211,2.554,36.378.59,23.449-1.393,3.843,1.347,0,13.054" transform="translate(0 0)" fill="#585d60"/>
              </g>
            </g>
            <path id="Fill_83" data-name="Fill 83" d="M93.193,49.536c.1-.222.2-.445.3-.665.453-1.014.874-2.017,1.239-3,.047-.135.09-.265.137-.4.346-.967.654-1.917.914-2.854.03-.1.062-.21.092-.312.188-.7.359-1.391.5-2.073-.034.107-.068.195-.1.3a29.877,29.877,0,0,0,.547-10.337c-.081.926-1.111,11.133-4.632,15.448C90.409,28.645,76.457,13.558,58.949,9.35c-18.7-4.493-38.916-3.061-51.4,18.189C2.863,35.519,4.2,30.434,5.3,26.673,9.05,13.781,19.685,4.515,35.652.081c.152-.015.288-.041.438-.058-.743-.03-1.532-.03-2.35,0-5.715.163-12.854,1.8-17.516,4.814-9.3,6-20.674,20.737-14.44,40.564,5.2-6.367,11.874-18.895,18.439-24.566C33.973,8.95,51.643,8.659,65.3,15.242,82.229,23.4,89.907,38.591,89.335,56.536c.718-1.127,1.365-2.236,1.976-3.333.113-.2.233-.4.34-.605.562-1.035,1.072-2.054,1.542-3.061" transform="translate(52.192 10.979)" fill="#585d60"/>
            <g id="Group_87" data-name="Group 87" transform="translate(68.204 721.998)">
              <path id="Clip_86-2" data-name="Clip 86" d="M0,0H38.929V58.165H0Z" transform="translate(0 0)" fill="none"/>
              <g id="Group_87-2" data-name="Group 87" transform="translate(0 0)" clip-path="url(#clip-path-8)">
                <path id="Fill_85" data-name="Fill 85" d="M4.231,1.622c.143,14.886,2.517,18.557-3.081,32.456C-.268,37.6-.661,40.947,1.638,45.795a21.928,21.928,0,0,0,12.8,11.133c7.123,2.45,16.849,1.739,22.8-6.506,2.942-4.08,1.579-9.8-.5-16.285-1.427-4.448-3.373-8.756-3.766-15.174-.355-5.8.848-9.482-2.224-18.963,1.036,13.865-6.576,17.543-11.8,16.974C16.018,16.661,5.778,14.714,4.231,1.622" transform="translate(0)" fill="#585d60"/>
              </g>
            </g>
            <g id="Group_90" data-name="Group 90" transform="translate(68.205 759.452)">
              <path id="Clip_89-2" data-name="Clip 89" d="M0,0H38.913V20.712H0Z" transform="translate(0 0)" fill="none"/>
              <g id="Group_90-2" data-name="Group 90" transform="translate(0 0)" clip-path="url(#clip-path-9)">
                <path id="Fill_88" data-name="Fill 88" d="M.158,0A13.6,13.6,0,0,0,1.637,8.341a21.926,21.926,0,0,0,12.8,11.133c7.123,2.45,16.847,1.739,22.8-6.506,1.9-2.636,1.97-5.567,1.284-9.075a8.659,8.659,0,0,1-1.57,3.9c-5.954,8.247-15.679,8.957-22.8,6.508C7.2,11.91,1.331,7.261.158,0" fill="#eaeaec"/>
              </g>
            </g>
            <path id="Fill_91" data-name="Fill 91" d="M2.965,0C3.1,14.669,5.324,17.046,0,30.466c2.683-1.408,4.939-1,7.58-1.147,4.521-.267,7.924-1.836,8.236-6.863.3-4.987-2.386-4.76-4.873-7.282A29.386,29.386,0,0,1,2.965,0" transform="translate(69.593 725.011)" fill="#2e3439"/>
            <path id="Fill_93" data-name="Fill 93" d="M15.022,31.983c-1.154-4.123-3.1-8.838-3.448-14.5-.355-5.8.968-9.644-1.968-17.483A16.867,16.867,0,0,1,7.128,11.377C4.037,16.195.956,16.971.208,21.665c-.9,5.708,1.235,7.18,4.461,7.928,4.164.961,7.588,1.472,10.353,2.39" transform="translate(89.597 723.412)" fill="#2e3439"/>
            <path id="Fill_95" data-name="Fill 95" d="M.139,3.084C1.425,1.627,4.6.4,8.033.1s7.783.036,10.259,2.2c.278.126.382,1.866-1.3,1.5C14.966,2.019,11.172,1.8,8.206,2.064S2.6,3.292,1.613,4.4C.12,4.928-.239,3.559.139,3.084" transform="translate(78.655 747.685)" fill="#f1f1f1"/>
            <path id="Fill_97" data-name="Fill 97" d="M.13,2.878C1.331,1.524,4.3.371,7.5.088s7.264.036,9.577,2.058c.256.118.35,1.739-1.222,1.4-1.886-1.658-5.433-1.859-8.2-1.615S2.425,3.071,1.506,4.108C.111,4.6-.222,3.323.13,2.878" transform="translate(79.67 742.554)" fill="#f1f1f1"/>
          </g>
        </g>
        <g id="Realwire_Base_Images_Character_Ecommerce_Female_V6-3" data-name="Realwire Base / Images / Character / Ecommerce / Female V6" transform="translate(-146 79)">
          <g id="Group_100" data-name="Group 100" transform="translate(0 0.001)">
            <path id="Fill_1-2" data-name="Fill 1" d="M146.046,0c.358,26.257,6.251,56.844,4.45,90.318-5.813,108.04-.514,199.739,11.031,314.813,5.484,54.593,18.212,115.5,25.751,162.3,6.886,42.862,5.085,79.991,2.476,126.713-3.492,62-9.894,133.976-13.513,191.256.248,14.251-.889,29.86,0,43.166,1.1,16.674,6.517,33.022,9.934,49.9,4.987,24.808,4.243,53.069,11.551,75.185,5.363,16.2,16.307,23.33,15.187,31.893-1.091,8.46-7.158,19.183-18.379,29.653-12.249,11.439-14.425,12.218-30.189,8.689-13.831-3.122-27.632-7.309-33.757-20.477-4.4-9.491-1.778-20.391,1.737-37.272,4.139-19.8,4.283-38.016.063-55.779a126.5,126.5,0,0,0-10.223-27.746c-7.845-15.626-10.159-26.492-7.8-35.811,3.29-13,12.047-25.077,14.922-39.122,3.706-18.215,5.57-37.4,4.243-54.667-5.57-72.063-25.641-137.757-36.3-209.264-7.493-50.211-1.426-94.219-8.959-138.261-1.737-10.167-9.992-23.261-13.455-34.236-8.006-25.541-12.024-54.318-18.5-85.318C32.123,270.307,8.093,186.049,0,78.645Z" transform="translate(375.263 930.656)" fill="#f1f1f1"/>
            <path id="Fill_3-2" data-name="Fill 3" d="M76.279,0c4.658,7.332,9.109,12.344,8.358,17.951-1.091,8.46-7.158,19.177-18.373,29.654-12.249,11.439-14.425,12.218-30.2,8.689C22.243,53.167,8.436,48.98,2.317,35.817-.546,29.676-.436,22.917.926,14.331l.127.046c-.271,8.254-1.079,14.99,7.8,16.817,22.639,4.663,53.689-1.6,69.667-20.741.906-1.088-.11-5.235-2.24-10.453" transform="translate(503.538 1998.247)" fill="#585d60"/>
            <path id="Fill_5-2" data-name="Fill 5" d="M19.735,81.508c-.248-1.231-.52-2.463-.831-3.7A126.033,126.033,0,0,0,8.687,50.068C.842,34.436-1.479,23.576.877,14.251A85.96,85.96,0,0,1,6.239,0c-2.257,16.714-.681,29.631,3.6,44.437,3.891,13.449,8.676,23.822,9.894,37.071" transform="translate(488.745 1863.201)" fill="#d10f18"/>
            <path id="Fill_7-2" data-name="Fill 7" d="M150.682,1024.315c-9.213-3.145-17.3-7.95-21.583-17.19-4.41-9.491-1.784-20.391,1.737-37.272,4.133-19.8,4.283-38.016.058-55.779a126.664,126.664,0,0,0-10.217-27.746c-7.85-15.626-10.165-26.492-7.81-35.811,3.3-13,12.047-25.077,14.922-39.122,3.712-18.221,5.57-37.4,4.248-54.667-5.57-72.063-25.647-137.763-36.308-209.264C88.242,497.248,94.3,453.24,86.776,409.2c-1.737-10.167-10-23.255-13.455-34.219C65.314,349.427,61.3,320.65,54.82,289.65,31.973,180.436,9.27,99.2,0,0L32.983,75.259C38.305,103.63,62.082,228.6,73.7,297.4c12.249,72.619,13.2,88.623,52.817,94.454-12.63,8.586-16.619,7.95-23.615,10.064-9.669,152.26,38.554,259.5,36.5,378.874-.808,46.763-12,52.353-13.138,73.69-1.183,22.093,9.224,44.065,13.363,71.049,9.132,59.6-8.11,57.749,11.054,98.784" transform="translate(376.755 1026.938)" fill="#d1d1d1"/>
            <path id="Fill_9-2" data-name="Fill 9" d="M23.9,38.669c-9.213-3.145-17.3-7.95-21.583-17.19C-.543,15.339-.439,8.58.929,0L1.05.04C.779,8.294-.029,15.03,8.854,16.857a63.418,63.418,0,0,0,7.3,1.088A114.691,114.691,0,0,0,23.9,38.669" transform="translate(503.539 2012.583)" fill="#2e3439"/>
            <path id="Fill_11-2" data-name="Fill 11" d="M19.735,81.508c-.248-1.231-.52-2.463-.831-3.7A126.033,126.033,0,0,0,8.687,50.068C.842,34.436-1.479,23.576.877,14.251A85.96,85.96,0,0,1,6.239,0c-2.257,16.714-.681,29.631,3.6,44.437,3.891,13.449,8.676,23.822,9.894,37.071" transform="translate(488.745 1863.201)" fill="#f5bc95"/>
            <path id="Fill_15-2" data-name="Fill 15" d="M9,0c4.658,7.332,9.109,12.344,8.358,17.951C16.313,26.165,10.558,36.493,0,46.66,5.033,35.633,4.1,27.231,1.247,19.572a52.249,52.249,0,0,0,10-9.119C12.151,9.365,11.135,5.218,9,0" transform="translate(570.812 1998.247)" fill="#2e3439"/>
            <path id="Fill_17-2" data-name="Fill 17" d="M19.735,81.508c-.248-1.231-.52-2.463-.831-3.7A126.033,126.033,0,0,0,8.687,50.068C.842,34.436-1.479,23.576.877,14.251A85.96,85.96,0,0,1,6.239,0c-2.257,16.714-.681,29.631,3.6,44.437,3.891,13.449,8.676,23.822,9.894,37.071" transform="translate(488.745 1863.201)" fill="#585d60"/>
            <path id="Fill_19-2" data-name="Fill 19" d="M138.462,268.749c18.564-50.022,10.511-89.413-34.5-125.929l20.261,25.4C98.477,149.488,83.5,136.48,60.438,114.433c11.3,15.42,24.013,27.609,36.678,41.974-23.6-16.657-66.994-49.8-87.671-75.735C4.931,75.008-1.748,42.851.422,39.116,20.955,3.729,67.457-7.205,109.485,4.52c78.169,21.812,92.265,88.582,86.782,137.6-6.973,62.3-29.618,97.186-57.8,126.633" transform="translate(279.66)" fill="#808588"/>
            <path id="Fill_21-2" data-name="Fill 21" d="M147.847,230.478c-31.563-2.606-52.6,1.335-83.237,2.177l-42.71-36.4L0,138.648,2.73,81.592s8.757-34.224,10.408-38.033c1.634-3.8,17.531-34.78,17.531-34.78S83.774-1,94.182.084s67.346,18.484,67.346,18.484,20.821,64.113,20.821,71.719S170.308,212.55,170.308,212.55Z" transform="translate(259.306 74.261)" fill="#585d60"/>
            <g id="Group_25-3" data-name="Group 25" transform="translate(189.532 937.681)">
              <path id="Clip_24-4" data-name="Clip 24" d="M0,0H163.916V1120.193H0Z" transform="translate(0 0)" fill="none"/>
              <g id="Group_25-4" data-name="Group 25" transform="translate(0 0)" clip-path="url(#clip-path-10)">
                <path id="Fill_23-2" data-name="Fill 23" d="M2.325,0C-2.368,25.392.524,53.31,6.718,86.263,26.69,192.63,36.6,288.081,40.284,403.67,42.021,458.5,37.427,520.543,36.122,567.9c-1.218,43.389,5.466,79.968,14.194,125.946,11.631,61.014,27.442,131.559,38.559,187.87,1.634,14.165,4.82,29.487,5.686,42.793,1.1,16.7-2.13,33.6-3.284,50.767-1.68,25.237,2.794,53.172-1.57,76.044-3.169,16.76-13.1,25.243-10.846,33.6,2.193,8.237,9.623,18.089,22.1,27.007,13.657,9.755,15.914,10.27,31.084,4.7,13.305-4.892,26.449-10.826,30.772-24.664,3.146-9.984-.912-20.455-6.621-36.739-6.707-19.1-9.247-37.129-7.412-55.286a126.363,126.363,0,0,1,6.5-28.829c5.715-16.514,6.6-27.58,3.019-36.538-4.964-12.447-15.251-23.284-19.926-36.842-6.084-17.579-10.448-36.349-11.4-53.659-3.977-72.166,7.279-139.893,8.445-212.186.825-50.744-11-93.583-9.3-138.227.375-10.3,6.852-24.332,8.82-35.674,4.595-26.36,4.78-55.418,7.14-86.99,8.757-117.766,21.5-204.418,15.395-311.943Z" transform="translate(0)" fill="#f1f1f1"/>
              </g>
            </g>
            <g id="Group_28-3" data-name="Group 28" transform="translate(268.065 2003.712)">
              <path id="Clip_27-4" data-name="Clip 27" d="M0,0H85.38V54.162H0Z" transform="translate(0 0)" fill="none"/>
              <g id="Group_28-4" data-name="Group 28" transform="translate(0 0)" clip-path="url(#clip-path-11)">
                <path id="Fill_26-2" data-name="Fill 26" d="M6.268,0C2.6,7.882-1.144,13.409.328,18.891c2.193,8.237,9.623,18.095,22.1,27.007,13.657,9.755,15.914,10.27,31.084,4.7C66.82,45.709,79.964,39.775,84.287,25.936c2.026-6.473,1.056-13.146-1.449-21.48l-.121.063C84.079,12.647,85.776,19.24,77.21,22.2,55.373,29.734,23.77,27.557,5.4,10.654,4.363,9.692,4.819,5.459,6.268,0" transform="translate(0)" fill="#585d60"/>
              </g>
            </g>
            <path id="Fill_29-2" data-name="Fill 29" d="M.062,82.58C.148,81.3.246,80.054.373,78.8a126.361,126.361,0,0,1,6.5-28.829c5.715-16.514,6.6-27.58,3.019-36.538A85.421,85.421,0,0,0,2.711,0C7.144,16.285,7.266,29.31,4.968,44.546,2.879,58.368-.5,69.291.062,82.58" transform="translate(337.947 1858.824)" fill="#d10f18"/>
            <path id="Fill_33-2" data-name="Fill 33" d="M0,41.3C8.734,37,16.1,31.171,19.135,21.485,21.167,15.013,20.2,8.34,17.687,0l-.115.063c1.362,8.128,3.059,14.727-5.507,17.682q-3.42,1.168-7.123,2.033A113.089,113.089,0,0,1,0,41.3" transform="translate(333.212 2008.167)" fill="#2e3439"/>
            <path id="Fill_35-2" data-name="Fill 35" d="M.062,82.58C.148,81.3.246,80.054.373,78.8a126.159,126.159,0,0,1,6.5-28.829c5.715-16.514,6.6-27.58,3.019-36.538A85.421,85.421,0,0,0,2.711,0C7.144,16.285,7.266,29.31,4.968,44.546,2.879,58.368-.5,69.291.062,82.58" transform="translate(337.947 1858.824)" fill="#f5bc95"/>
            <path id="Fill_37-2" data-name="Fill 37" d="M2.325,0C-2.368,25.392.524,53.31,6.718,86.263,26.69,192.63,37.859,322.706,41.565,429.853c1.882,54.822-4.139,90.69-5.443,138.049-1.218,43.389,5.466,79.968,14.194,125.946,11.631,61.014,27.442,131.559,38.559,187.87,1.634,14.165,4.82,29.487,5.686,42.793,1.1,16.7-2.13,33.6-3.284,50.767-1.68,25.237,2.794,53.172-1.57,76.044-3.169,16.76-13.1,25.243-10.846,33.6,2.13,7.99,9.19,17.493,20.988,26.205-14.847-23.656,3.515-37.644,3.267-58.144-.271-23.2-2.24-50.188-2.944-77.705,1.264-47.994,9.259-52.92-2.234-108.676C80.205,780.431,57.5,672.637,55.6,600.287c-1.328-50.274,4.341-95.21,6.91-175.842,2.465-77.791-16.3-200.363-22.766-298.792l76.616-82.247Z" transform="translate(189.532 937.681)" fill="#d1d1d1"/>
            <path id="Fill_39-2" data-name="Fill 39" d="M6.268,0C2.6,7.882-1.144,13.409.328,18.891c2.13,7.99,9.184,17.5,20.983,26.205-6.436-10.287-6.621-18.725-4.785-26.7A52.57,52.57,0,0,1,5.4,10.654C4.363,9.692,4.819,5.459,6.268,0" transform="translate(268.065 2003.712)" fill="#2e3439"/>
            <path id="Fill_41-2" data-name="Fill 41" d="M.062,82.58C.148,81.3.246,80.054.373,78.8a126.361,126.361,0,0,1,6.5-28.829c5.715-16.514,6.6-27.58,3.019-36.538A85.421,85.421,0,0,0,2.711,0C7.144,16.285,7.266,29.31,4.968,44.546,2.879,58.368-.5,69.291.062,82.58" transform="translate(337.947 1858.824)" fill="#585d60"/>
            <path id="Fill_43-2" data-name="Fill 43" d="M317.128,53.342c-7.244,49.5-14.65,44.191-52.505,51.912-19.43-.435-36.3-9.193-61.5,7.653-11.216,7.492-21.485,25.26-38.594,49.02C140.91,189.988,103.7,241.448,77.685,274.87,51.646,308.293,27.142,333.152,13.9,354.242S-3.942,377.148,3.689,395.89,29.9,435.207,50.653,457.712c20.78,22.522,66.244,55.922,87.353,73.8s35,26.595,41.907,27.7c17.225-6.289,6.875-16.525,3.36-31.08C145.6,484.014,120.314,426.81,67.808,377.578,85.276,359.208,219.529,227.42,228.055,226.985c8.093,10.047,17.45,34.116,26.033,73.255,6.852,31.24-1.882,36.281,14.858,53.877,3.891,10.035,7.267,67.309,10.35,84.315-12.6,99.042,22.022,66.461-33.838,154.093,33.653,9.388,48.909-4.7,107.724-9.428,58.82,4.726,66.122,7.549,99.792-1.833-55.876-87.632-26.928-31.389-39.529-130.448,3.082-17.006,6.459-90.043,10.35-100.073,16.74-17.6,17.652-46.293,24.5-77.528,3.6-16.41,28.2-28.359,41.059-42.427,8.526.43,131.171,121.667,148.632,140.025C598.756,406.745,577.606,465,526.157,519.327c-2.88,3.047,3-3.2.473,4.164-3.515,14.549-26.489,28.863-9.27,35.158,9.767,2.268,14.009-5.327,35.1-23.2,21.109-17.871,80.19-64.233,100.97-86.744,20.757-22.505,37.624-46.471,45.267-65.213,7.631-18.725,5.871-17.167-7.371-38.263s-38.888-45.944-64.9-79.366c-26.033-33.422-60.985-75.878-84.582-103.939-17.115-23.759-27.378-41.528-38.6-49.02-25.2-16.846-42.069-8.088-61.5-7.653-36.135-4.9-45.261-2.417-52.505-51.912-1.074-17.568,1.264-36.115,2.072-45.755C384.036.972,368.416-1.262,353.182.668c-15.239-1.93-30.859.3-38.121,6.919.8,9.64,3.123,28.187,2.066,45.755" transform="translate(1.551 224.824)" fill="#f1f1f1"/>
            <g id="Group_47" data-name="Group 47" transform="translate(0 227.977)">
              <path id="Clip_46-2" data-name="Clip 46" d="M0,0H342.109V595.625H0Z" transform="translate(0 0)" fill="none"/>
              <g id="Group_47-2" data-name="Group 47" transform="translate(0 0)" clip-path="url(#clip-path-12)">
                <path id="Fill_45" data-name="Fill 45" d="M264.635,595.625h-.01a81.556,81.556,0,0,1-19.176-3.1c3.476-5.461,6.826-10.816,9.954-15.924l9.228,19.019Zm-84.727-36.411h0c-7.418-1.2-21.911-10.776-41.913-27.7-6.4-5.416-15.205-12.4-24.531-19.789-21.535-17.069-48.336-38.311-62.82-54.006-22.1-23.961-39.583-43.728-46.959-61.831-6.523-16-4.089-19.716,4.968-33.535,1.546-2.358,3.3-5.031,5.23-8.109,7.729-12.307,19.324-25.935,32.75-41.716C56.1,301.4,66.827,288.789,77.673,274.867c9.674-12.429,20.71-27.1,32.394-42.642,19.476-25.9,39.613-52.676,54.443-70.3,4.3-5.973,8.251-11.681,11.735-16.717,10.724-15.5,18.468-26.7,26.855-32.3,10.677-7.135,20.549-10.317,32.009-10.317a118.292,118.292,0,0,1,15.539,1.345,129.275,129.275,0,0,0,13.962,1.322c4.572-.933,8.751-1.684,12.438-2.348,27.24-4.9,33.708-6.063,40.069-49.57.879-14.648-.589-30.055-1.561-40.251-.2-2.109-.372-3.905-.506-5.5C320.245,2.852,330.1.088,342.1,0L329.949,37.169c-1.074,5.6-2,10.725-2.889,15.685-4.128,22.94-6.854,38.1-15.6,47.6-8.716,9.476-23.222,13.4-51.738,13.992-5.056-.338-9.458-.5-13.458-.5-17.308,0-28.593,3.184-38.951,10.99s-20.072,20.434-34.407,41.028c-42.276,57.305-94.674,123.93-147.541,187.6C15.1,365.951,10.844,372.874,9.678,379.1c-1.2,6.434.954,12.291,5.638,21.507,6.049,11.878,27.8,35.418,62.893,68.076,26.26,24.435,60.215,54.122,90.83,79.413l.334.276c4.778,3.952,8.9,7.36,12.415,10.08l-.174.082c-.469.2-1.053.438-1.705.676Z" transform="translate(0.009 0)" fill="#d1d1d1"/>
              </g>
            </g>
            <path id="Fill_48-2" data-name="Fill 48" d="M79.018,583.974l.005-.011,5.231-10.794c1.27,1.958,2.562,3.98,3.929,6.118l.048.074,1.213,1.9c-3.755,1.054-7.161,1.939-10.415,2.714Zm77.989-24.931h0a13.959,13.959,0,0,1-3.177-.39c-.444-.17-.876-.348-1.32-.547,4.6-3.005,10.035-7.486,17.551-13.687l1.156-.954c50.088-41.4,138.115-126.975,152.009-154.257.634-1.249,1.234-2.407,1.793-3.488,3.8-7.332,5.7-11,4.472-15.688-1.208-4.625-5.384-9.985-14.624-21.111l-.4-.484c-48.745-58.749-99.149-119.5-145-181.621-14.337-20.6-24.066-33.245-34.4-41.038-10.355-7.807-21.64-10.991-38.951-10.991-4,0-8.409.165-13.468.5-28.5-.6-43-4.515-51.718-13.98-8.739-9.493-11.468-24.633-15.6-47.55-.9-4.976-1.824-10.121-2.906-15.746L0,0H.107C12.391,0,22.476,2.766,27.778,7.588c-.137,1.628-.313,3.465-.517,5.591-.976,10.178-2.45,25.56-1.556,40.166,3.419,23.365,7.3,34.942,13.85,41.293C46.262,101.143,56.1,102.4,71,104.314c2.3.294,4.668.6,7.208.943a129.392,129.392,0,0,0,13.969-1.322,118.378,118.378,0,0,1,15.539-1.345c11.458,0,21.326,3.182,32,10.317,8.4,5.6,16.151,16.809,26.876,32.316,3.483,5.036,7.427,10.738,11.724,16.7,22.537,26.793,58.211,70.09,84.582,103.933,11.381,14.621,22.824,27.758,32.92,39.348,13.165,15.113,24.533,28.162,31.982,40.026,1.631,2.6,3.086,4.848,4.37,6.834,9.152,14.159,9.7,15.006,3,31.428-7.484,18.369-23.982,42.138-45.265,65.213-15.518,16.811-52.13,46.707-78.864,68.536-8.991,7.341-16.754,13.68-22.1,18.21-5.318,4.5-9.629,8.416-13.094,11.558C167.011,555.022,162.579,559.043,157.006,559.043Z" transform="translate(363.527 227.974)" fill="#d1d1d1"/>
            <path id="Fill_50" data-name="Fill 50" d="M83.982,9.858C77.3,57.543,44.811,59.307,0,84.739,16.041,47.8,12.4,39.821,9.94,0L52.488,7.32Z" transform="translate(305.516 237.177)" fill="#d1d1d1"/>
            <path id="Fill_52" data-name="Fill 52" d="M70.631,140.2c38.906,0,70.654-31.492,70.654-70.1S109.536,0,70.631,0,0,31.492,0,70.1s31.725,70.1,70.631,70.1" transform="translate(353.163 438.4)" fill="#f1f1f1"/>
            <path id="Fill_54" data-name="Fill 54" d="M70.636,140.2c38.906,0,70.654-31.492,70.654-70.1S109.542,0,70.636,0,0,31.492,0,70.1s31.731,70.1,70.636,70.1" transform="translate(211.87 438.4)" fill="#f1f1f1"/>
            <path id="Fill_56" data-name="Fill 56" d="M8.9,94.883c-.121-1.947-5.236-11.49-6.973-22.494C-2.487,44.592-.6,19.5,21.417,0,4.388,21.64,2.957,44.294,9.872,72.624c2.378,9.846,6.477,15.46,6.725,17.928Z" transform="translate(352.934 456.61)" fill="#d1d1d1"/>
            <path id="Fill_58" data-name="Fill 58" d="M2.523,41.465c8.566,7.475,15.672,20.844,21.733,24.819,23.24,15.259,38.473-7.378,60.079-28.227L63.473,17.046C49.007,30.839,41.907,40.439,33.318,34.391c-6-4.244-15.458-18.175-26.224-29.5L0,0,3.81,27.889Z" transform="translate(465.145 728.034)" fill="#f1f1f1"/>
            <path id="Fill_60" data-name="Fill 60" d="M342.155,617.856c-70.532,38.784-202.09,43.7-319.783,18.748C7.884,548.944-8.966,489.041,5.581,421.9,23.36,339.908,69.267,310.06,75.12,231.971c3.348-44.609-6.5-75.781-14.2-117.153q-5.767-5.834-10.281-11.376A69.71,69.71,0,0,1,43.707,3.776c58.087-18.856,85.454,37.993,129.7,58.408l.1.052c.479.218.976.43,1.455.636.514-.12,1.056-.246,1.57-.378.167-.052.329-.1.514-.143.358-.1.71-.195,1.039-.3l.583-.172c18.518-9.222,48.84-68.873,123.528-59.5,5.4,13.6,7.469,33.5,6.355,47.84-1.634,20.586-9,39.213-23.326,52.05a146.991,146.991,0,0,1-12.151,12.773c-9.374,41.453-19.967,86.721-18.893,122.412,1.991,65.717,39.945,88.771,63.432,143.427,20.244,47.141,23.326,175.286,24.544,236.97" transform="translate(185.902 458.28)" fill="#808588"/>
            <path id="Fill_62" data-name="Fill 62" d="M141.29,616.429a196.616,196.616,0,0,1-23.9,11c-9.455-87.637,8.9-179.376-30.172-251.181-32.331-59.37-51.2-92.105-50.583-134.664.623-41.883,5.386-80.329,15.3-124.2-22.045.6-31.852-1.564-51.928-15.208C89.241,113.843,102.3,54.994,88.5,0a125.126,125.126,0,0,1,12.832.957c5.4,13.6,7.469,33.5,6.355,47.84-1.634,20.586-9,39.213-23.326,52.05a146.994,146.994,0,0,1-12.151,12.773C62.832,158.446,52.24,200.34,53.313,236.031,55.3,301.748,93.258,324.8,116.746,379.458c20.244,47.141,23.326,175.286,24.544,236.97" transform="translate(386.767 459.708)" fill="#585d60"/>
            <path id="Fill_64" data-name="Fill 64" d="M52.5,640.32q-15.178-2.509-30.132-5.676C7.884,546.983-8.965,487.081,5.581,419.932c17.779-81.99,63.681-111.838,69.54-189.927,3.348-44.6-6.5-73.243-14.2-117.148q-5.767-5.842-10.281-11.376A69.7,69.7,0,0,1,43.707,1.816C45.9,1.094,48.071.5,50.184,0,35.055,55.91,46.83,117.331,137.826,105.428c-20.07,13.65-34.126,16.668-56.165,16.05,7.342,35.439,10.6,76.428,11.874,118.293.647,20.6-20.792,82.053-46.312,139.744C10.2,463.3,27.683,540.259,52.5,640.32" transform="translate(185.903 460.244)" fill="#585d60"/>
            <path id="Fill_66" data-name="Fill 66" d="M57.677,5.008a175.237,175.237,0,0,1-17.987-3.6C31.661-.605,34.022-.926,27.107,3.6a122.639,122.639,0,0,1-13.161,7.716c-3.683,1.827-4.508,3.253-6.6,6.53L0,29.381c8.543,2.314,12.336-.029,17.386-6.833,5.085-2.824,10.032-5.682,15.043-8.666,9.086,3.551,8.71,4.067,18.639,5.069L31.811,26.511c-4.93,6.931-9.917,13.8-14.922,20.678-3.417,9.783-5.7,18.341-8.2,28.393,9.334,3.07,13.819-3.821,14-13.976,4.185-4.834,7.221-9.182,11.071-14.28-3.85,8.54-7.031,15.964-10.1,24.8l-6.1,13.77c6.1,2.778,14.067-.269,16.14-10.476,5.132-7.6,7.325-12.957,11.008-21.319L58.3,46.416l-8.174,6.2c-1.345,4.846-3.81,12.75-5.132,17.608L44.1,86.431a7.615,7.615,0,0,0,9.34-2.142c4.179-5.619,2.586-15.866,6.806-21.359,5.386-2.24,10.044-6.306,15.3-8.861L88.115,62.6c1.784-9.783,2.28-10.866.791-20.7-.369-2.5-2.4-5.155-2.9-7.469-.554-2.641.127-5.464-.554-6.811-1.016-1.959-3.111-2.933-4.162-4.731-1.247-2.108-1.137-4.4-2.153-6.2-1.178-2.062-4.283-3.236-5.882-4.869-1.264-1.295-.97-3.162-2.378-4.055-2.979-1.9-7.764-1.97-13.2-2.761" transform="translate(393.332 714.875)" fill="#f1f1f1"/>
            <path id="Fill_68" data-name="Fill 68" d="M81.812,41.465C77.921,46.4,66.122,62.308,60.079,66.284,36.839,81.531,21.583,58.895,0,38.045L21.508,17.19c13.744,16.113,20.919,23.25,29.485,17.2,6.026-4.244,15.487-18.175,26.247-29.5L84.334,0l-3.81,27.889Z" transform="translate(156.156 732.543)" fill="#f1f1f1"/>
            <path id="Fill_70" data-name="Fill 70" d="M32.13,5.012a174.834,174.834,0,0,0,17.981-3.6C58.14-.6,55.785-.934,62.694,3.6a122.3,122.3,0,0,0,13.161,7.716c3.689,1.816,4.508,3.253,6.58,6.518L89.784,29.39c-8.526,2.314-12.336-.04-17.369-6.839-5.1-2.835-10.032-5.688-15.037-8.666-9.086,3.551-8.716,4.055-18.668,5.075L58,26.5q7.386,10.4,14.922,20.7c3.411,9.783,5.674,18.335,8.174,28.388C71.78,78.656,67.289,71.754,67.1,61.6c-4.185-4.834-7.221-9.176-11.071-14.268,3.827,8.529,7.013,15.952,10.1,24.8l6.1,13.77c-6.1,2.778-14.067-.281-16.163-10.482-5.109-7.59-7.325-12.951-10.985-21.308L31.506,46.425l8.174,6.192c1.345,4.846,3.787,12.75,5.132,17.6l.872,16.222a7.592,7.592,0,0,1-9.317-2.148c-4.2-5.619-2.609-15.872-6.806-21.354-5.4-2.251-10.061-6.306-15.3-8.867l-12.6,8.523C-.115,52.823-.617,51.735.9,41.917c.369-2.5,2.4-5.155,2.9-7.475.537-2.641-.15-5.459.554-6.8,1.01-1.965,3.106-2.938,4.156-4.748,1.224-2.1,1.137-4.393,2.153-6.186,1.16-2.068,4.283-3.236,5.882-4.886,1.264-1.289.952-3.15,2.378-4.044,2.984-1.9,7.764-1.97,13.207-2.761" transform="translate(222.501 719.377)" fill="#f1f1f1"/>
            <path id="Fill_72" data-name="Fill 72" d="M81.725,6.318C77.771,11.37,66.1,27.087,60.079,31.04,36.839,46.293,21.583,23.656,0,2.807L2.921,0Q8.1,4.348,12.89,8.3c19.5,16.107,26.7,22.2,36,17.3C64.05,17.625,76.345.023,81.021,5.373Z" transform="translate(156.158 767.782)" fill="#d1d1d1"/>
            <path id="Fill_74" data-name="Fill 74" d="M0,7.8c3.971,5.041,15.649,20.769,21.675,24.716,23.24,15.259,38.7-8.328,60.281-29.184L78.4,0C68.212,8.535,61.279,17.734,48.6,25.4c-6.188,3.752-10.662,4.353-15.753,1.673C17.7,19.1,5.386,1.489.727,6.851Z" transform="translate(468.078 762.084)" fill="#d1d1d1"/>
            <path id="Fill_76" data-name="Fill 76" d="M11.822,18c.618-.613,1.2-1.232,1.761-1.85,8.52.43,131.165,121.667,148.632,140.031-39.235,35.926-60.408,94.173-111.834,148.508-2.88,3.047-10.621,12.43-21.237,18.942,24.954-4.118,71.214-70.316,78.8-80.844,15.441-21.325,40.568-55.28,54.122-68.506,12.953-12.642,18.42-15.969,37.018-17.31l-18.293-3.8c-19.366-5.556-45.007-38.606-77.69-71.565C70.74,48.935,31.338,16.384,9.357.746,5.2-2.582,3.129,5.638,0,17.105c3.81.109,7.747.39,11.822.894" transform="translate(475.778 442.614)" fill="#d1d1d1"/>
            <path id="Fill_78" data-name="Fill 78" d="M169.621,322.562c-8.064,4.468-22.12-14.44-26.466-19.87-34.421-42.982-59.727-96.613-109.334-143.13C51.287,141.193,185.541,9.4,194.067,8.969a48.4,48.4,0,0,1,4.2,6.289l.312-.1C195.741,4.73,193.674-2.4,189.76.749c-22,15.637-61.383,48.183-93.772,80.85-32.677,32.964-58.318,66-77.69,71.571L0,156.967c18.61,1.346,24.094,4.674,37.047,17.31,13.559,13.226,38.657,47.187,54.1,68.512,29.549,40.834,64.056,90.834,78.475,79.773" transform="translate(33.989 445.992)" fill="#d1d1d1"/>
            <path id="Fill_80-2" data-name="Fill 80" d="M5.814,14.328c4.577-11.021,10.39-18.186,14.2-12.1,5.611,8.918-3.481,25.6-6.315,33.858C9.543,48.329,10.345,55.644,4.284,54.951c-2.794-.332-4.329-3.534-4.283-8,.017-3.706,1.218-7.956,2.811-15.082Z" transform="translate(422.489 151.783)" fill="#f1f1f1"/>
            <path id="Fill_82" data-name="Fill 82" d="M16,14.328C11.424,3.308,5.588-3.858,1.784,2.225c-5.593,8.918,3.5,25.6,6.332,33.858,4.156,12.246,3.354,19.561,9.415,18.868,2.794-.332,4.323-3.534,4.283-8C21.8,43.243,20.6,38.993,19,31.867Z" transform="translate(266.257 151.783)" fill="#f1f1f1"/>
            <path id="Fill_84" data-name="Fill 84" d="M158.119,40.66c10.24,31.882,1.362,78.719-7.429,112.691-4.82,18.65-7.66,25.415-12.272,32.306-10.079,15.082-24.983,30-38.144,43.7-5.033,5.235-9.415,5.585-16.411,5.768-7.371.195-12.151.092-17.658-5.356-13.49-13.392-28.741-27.941-39.194-42.782-4.78-6.788-7.781-13.484-13.04-32.008C4.349,121.224-5.666,74.621,3.818,42.51c16.428-55.647,136.522-57.073,154.3-1.85" transform="translate(273.229 44.166)" fill="#f1f1f1"/>
            <path id="Fill_86" data-name="Fill 86" d="M38.681,0c41.365,11.725,62.434,55.12,66.249,98.9C100.474,83.049,96.214,70.832,88.1,55.613c16.636,49.741,26.195,80.157,12.728,126.771l-.854-19.223C87.746,229.77,62.457,279.873,0,298.236,67.092,226.145,74.914,153.388,32.591,67.647c-2.667-5.4-4.121-9.027-7.342-14.887L23.055,28.033Z" transform="translate(375.947 21.595)" fill="#808588"/>
            <path id="Fill_88-2" data-name="Fill 88" d="M63.69,0C25.65,7.887,4.108,36.246,1.851,78.009,3.813,61.93,9.182,47.072,16.876,39.07-2.04,77.4-6.531,123.168,11.017,168.43L7.831,149.946C25.9,215.233,62.178,262.889,121.7,275.084,77.884,235.59,55.037,209.213,44.006,157.61c9.917,27.74,20.515,48.613,35.783,57.027C64.025,181.1,53.837,158.83,48.809,112.989c5.772,32.678,14.258,50.4,23.141,67.584-19.6-73.6-12.976-93.342-3.088-132.361,1.489-5.837,3.313-9.348,6-15.477V7.916Z" transform="translate(220.637 42.625)" fill="#808588"/>
            <path id="Fill_90" data-name="Fill 90" d="M148.322,179.053c2.263-21.4,13.248-61.575-60-105.68,17.265,17.762,30.034,40.726,41.544,59.737-8.572-7.206-15.129-12.046-28.256-23.33L121.3,134.467c-25.023-18.215-39.57-30.856-61.984-52.273,10.967,14.979,23.343,26.83,35.639,40.783C72.041,106.8,29.868,74.593,9.768,49.4,5.376,43.891-2.873,10.664,1.012,9.008c44-18.788,188.791-18.541,169,105.365-4.451,27.838-3.914,54.473-21.693,64.68" transform="translate(276.565 32.433)" fill="#808588"/>
            <path id="Fill_92" data-name="Fill 92" d="M1.34,0C-6.113,118.162,17.294,153.371,77.413,174.759,32.279,129.663,2.788,120.155,1.34,0" transform="translate(256.352 137.443)" fill="#d1d1d1"/>
            <path id="Fill_94" data-name="Fill 94" d="M0,174.765C60.125,153.377,83.555,118.156,76.08,0,74.631,120.161,45.14,129.663,0,174.765" transform="translate(367.975 145.891)" fill="#d1d1d1"/>
            <path id="Fill_96" data-name="Fill 96" d="M76.1,92.4C51.437,64.29,19.5,31.544,0,0,7.666,48.006,45.908,66.232,76.1,92.4" transform="translate(282.149 51.507)" fill="#d1d1d1"/>
            <path id="Fill_98" data-name="Fill 98" d="M0,35.692a358.4,358.4,0,0,1,44.02-4.181A146.157,146.157,0,0,0,15.712,36C59.063,59.434,139.12,52.956,161.9,132.924,180.848,65,126.79,36.924,73.961,31.934c47.859,3.019,96.41,18.329,114.391,61.3C167.843-2.576,48.511-29.463,0,35.692" transform="translate(279.09 9.212)" fill="#d1d1d1"/>
          </g>
        </g>
      </g>
    </g>
    <rect id="Rectangle-2" data-name="Rectangle" width="490" height="267" rx="24" transform="translate(3649 17479)" fill="#fff" opacity="0.8"/>
    <text id="SALE" transform="translate(3801 17510)" fill="#464646" font-size="20" font-family="Roboto-Bold, Roboto" font-weight="700"><tspan x="69.084" y="19">SALE</tspan></text>
    <text id="Free_Shipping_on_all" data-name="Free Shipping on all" transform="translate(3724 17600)" fill="#464646" font-size="20" font-family="Roboto-Light, Roboto" font-weight="300"><tspan x="7.549" y="19">Free Shipping on all US order or order </tspan><tspan x="124.604" y="49">above $99</tspan></text>
    <text id="UP_TO_70_OFF" data-name="UP TO 70% OFF" transform="translate(3688 17547)" fill="#464646" font-size="45" font-family="Roboto-Bold, Roboto" font-weight="700"><tspan x="48.764" y="42">UP TO 70% OFF</tspan></text>
    <g id="Realwire_UI_Elements_Buttons_Big_Buttons_SoftRounded_Color" data-name="Realwire UI Elements / Buttons / Big Buttons / SoftRounded / Color" transform="translate(3805 17677)">
      <rect id="Rectangle_1" data-name="Rectangle 1" width="200" height="40" rx="4" fill="#69a59c"/>
      <text id="BUTTON" transform="translate(0 15)" fill="#fff" font-size="10" font-family="Roboto-Bold, Roboto" font-weight="700"><tspan x="74.116" y="9">SHOP NOW</tspan></text>
    </g>
  </g>
</svg>
