<svg xmlns="http://www.w3.org/2000/svg" width="60" height="50" viewBox="0 0 60 50"><g transform="translate(2697 -767)"><rect width="60" height="50" transform="translate(-2697 767)" fill="#fff" opacity="0.005"/><g transform="translate(-2734.122 354.051)"><g transform="translate(41.122 422.324)"><path d="M58.82,433.191a3.063,3.063,0,0,1,2.212-.978,3.009,3.009,0,0,1,3.036,3.036,2.858,2.858,0,0,1-.721,1.955l-9.415,9.981,9.415,10.5a2.859,2.859,0,0,1,.721,1.955,3.009,3.009,0,0,1-3.036,3.035,3.063,3.063,0,0,1-2.212-.977l-11.627-12.97v10.8a3.036,3.036,0,0,1-6.071,0V435.249a3.035,3.035,0,0,1,6.071,0v10.443Z" transform="translate(-41.122 -431.956)" fill="#070304"/></g><circle cx="14.745" cy="14.745" r="14.745" transform="translate(64.12 453.439) rotate(-90)" fill="#a22129"/><g transform="translate(49.51 420.949)"><path d="M86.34,427.711l.124-.446-.821.032a.775.775,0,0,0-.592.464L72.135,442.653c-1.078.032-1.414-.013-1.743,0-1.735.069-3.835.675-3.834,1.88,0,1.069,2.051,1.651,3.873,1.631.329,0,1.489.01,1.844,0L84.65,460.346a.775.775,0,0,0,.627.416l.821-.033-.159-.434s-6.914-12.5-6.856-14.526c2.048-.121,3.632-.216,3.862-.234a29.8,29.8,0,0,0,3.475-.478l2.807,4.54a.775.775,0,0,0,.627.416l.774-.031-.112-.436-1.327-5.254c.477-.19.76-.362.8-.484l-.01-.252c-.051-.118-.346-.267-.837-.419l.908-5.342.077-.444-.774.031a.775.775,0,0,0-.592.464l-2.262,4.4h0l-.177.346a29.855,29.855,0,0,0-3.5-.2c-.231,0-1.817.03-3.868.072C78.7,441.13,86.34,427.711,86.34,427.711Z" transform="translate(-66.558 -427.265)" fill="#fff"/></g></g></g></svg>