<svg xmlns="http://www.w3.org/2000/svg" width="252" height="50" viewBox="0 0 252 50">
  <g id="Group_82535" data-name="Group 82535" transform="translate(2697 -767)">
    <rect id="Rectangle_23994" data-name="Rectangle 23994" width="252" height="50" transform="translate(-2697 767)" fill="#fff" opacity="0.005"/>
    <g id="Group_82534" data-name="Group 82534" transform="translate(-2724.122 353.159)">
      <g id="Group_82531" data-name="Group 82531" transform="translate(41.122 422.324)">
        <path id="Path_775" data-name="Path 775" d="M58.82,433.191a3.063,3.063,0,0,1,2.212-.978,3.009,3.009,0,0,1,3.036,3.036,2.858,2.858,0,0,1-.721,1.955l-9.415,9.981,9.415,10.5a2.859,2.859,0,0,1,.721,1.955,3.009,3.009,0,0,1-3.036,3.035,3.063,3.063,0,0,1-2.212-.977L47.193,448.728v10.8a3.035,3.035,0,0,1-6.071,0V435.249a3.035,3.035,0,1,1,6.071,0v10.443Z" transform="translate(-41.122 -431.956)" fill="#070304"/>
        <path id="Path_776" data-name="Path 776" d="M236.191,433.191a3.062,3.062,0,0,1,2.212-.978,3.009,3.009,0,0,1,3.036,3.036,2.86,2.86,0,0,1-.721,1.955l-9.415,9.981,9.415,10.5a2.861,2.861,0,0,1,.721,1.955,3.009,3.009,0,0,1-3.036,3.035,3.062,3.062,0,0,1-2.212-.977l-11.627-12.965v10.8a3.035,3.035,0,0,1-6.071,0V435.249a3.035,3.035,0,1,1,6.071,0v10.443Z" transform="translate(-159.999 -431.956)" fill="#070304"/>
        <path id="Path_777" data-name="Path 777" d="M292.748,446.405c0-11.01,7.923-14.971,14.56-14.971s14.56,3.961,14.56,14.971c0,13.016-9,15.949-14.56,15.949S292.748,459.422,292.748,446.405Zm23.049.154c0-7.563-4.321-9.312-8.489-9.312s-8.489,1.749-8.489,9.312c0,8.643,5.2,9.981,8.489,9.981S315.8,455.2,315.8,446.559Z" transform="translate(-209.767 -431.434)" fill="#070304"/>
        <path id="Path_778" data-name="Path 778" d="M413.562,433.191a3.062,3.062,0,0,1,2.212-.978,3.009,3.009,0,0,1,3.036,3.036,2.86,2.86,0,0,1-.721,1.955l-9.415,9.981,9.415,10.5a2.861,2.861,0,0,1,.721,1.955,3.009,3.009,0,0,1-3.036,3.035,3.062,3.062,0,0,1-2.212-.977l-11.627-12.965v10.8a3.035,3.035,0,0,1-6.071,0V435.249a3.035,3.035,0,1,1,6.071,0v10.443Z" transform="translate(-278.877 -431.956)" fill="#070304"/>
        <path id="Path_779" data-name="Path 779" d="M480.073,455.93l-1.544,4.476a3.186,3.186,0,0,1-3.035,2.16,3.074,3.074,0,0,1-3.035-3.035,4.361,4.361,0,0,1,.258-1.286l8.591-23.152a4.682,4.682,0,0,1,8.643,0l8.592,23.152a4.373,4.373,0,0,1,.257,1.286,3.074,3.074,0,0,1-3.035,3.035,3.186,3.186,0,0,1-3.036-2.16l-1.543-4.476Zm5.556-15.074-3.447,9.363h6.945Z" transform="translate(-330.213 -431.956)" fill="#070304"/>
        <path id="Path_780" data-name="Path 780" d="M587.4,458.709a2.542,2.542,0,0,1,.1.875,2.978,2.978,0,0,1-3.087,2.984,2.88,2.88,0,0,1-2.727-1.8l-1.286-3.756c-1.131-3.241-2.521-4.528-4.321-4.528h-5.2v7.048a3.035,3.035,0,0,1-6.071,0V435.249a3.009,3.009,0,0,1,3.036-3.036h10.341c4.322,0,9.827,2.573,9.827,9.878,0,2.676-1.235,7.254-5.3,8.386,2.264,1.595,2.932,3.138,4.167,6.74Zm-9.26-12.039c1.749,0,3.807-.1,3.807-4.424,0-3.55-1.955-4.27-3.807-4.27h-7.254v8.695Z" transform="translate(-392.108 -431.956)" fill="#070304"/>
        <path id="Path_781" data-name="Path 781" d="M652.919,455.93l-1.544,4.476a3.186,3.186,0,0,1-3.035,2.16,3.074,3.074,0,0,1-3.035-3.035,4.372,4.372,0,0,1,.257-1.286l8.592-23.152a4.682,4.682,0,0,1,8.643,0l8.592,23.152a4.374,4.374,0,0,1,.257,1.286,3.074,3.074,0,0,1-3.035,3.035,3.186,3.186,0,0,1-3.036-2.16l-1.543-4.476Zm5.556-15.074-3.447,9.363h6.945Z" transform="translate(-446.057 -431.956)" fill="#070304"/>
      </g>
      <circle id="Ellipse_545" data-name="Ellipse 545" cx="14.745" cy="14.745" r="14.745" transform="translate(58.012 438.694) rotate(-45)" fill="#a22129"/>
      <g id="Group_82533" data-name="Group 82533" transform="translate(49.51 420.949)">
        <g id="Group_82532" data-name="Group 82532" transform="translate(0 0)">
          <path id="Path_782" data-name="Path 782" d="M86.34,427.711l.124-.446-.821.032a.775.775,0,0,0-.592.464L72.135,442.653c-1.078.032-1.414-.013-1.743,0-1.735.069-3.835.675-3.834,1.88,0,1.069,2.051,1.651,3.873,1.631.329,0,1.489.01,1.844,0L84.65,460.346a.775.775,0,0,0,.627.416l.821-.033-.159-.434s-6.914-12.5-6.856-14.526c2.048-.121,3.632-.216,3.862-.234a29.8,29.8,0,0,0,3.475-.478l2.807,4.54a.775.775,0,0,0,.627.416l.774-.031-.112-.436-1.327-5.254c.477-.19.76-.362.8-.484l-.01-.252c-.051-.118-.346-.267-.837-.419l.908-5.342.077-.444-.774.031a.775.775,0,0,0-.592.464l-2.262,4.4h0l-.177.346a29.848,29.848,0,0,0-3.5-.2c-.231,0-1.817.03-3.868.072C78.7,441.13,86.34,427.711,86.34,427.711Z" transform="translate(-66.558 -427.265)" fill="#fff"/>
        </g>
      </g>
    </g>
  </g>
</svg>
