<svg xmlns="http://www.w3.org/2000/svg" width="252" height="50" viewBox="0 0 252 50"><g transform="translate(2498 -512)"><g transform="translate(-2564.122 271.566)"><g transform="translate(79.122 250.434)"><path d="M96.82,252.114a3.061,3.061,0,0,1,2.212-.978,3.009,3.009,0,0,1,3.036,3.036,2.859,2.859,0,0,1-.721,1.955l-9.415,9.981,9.415,10.5a2.858,2.858,0,0,1,.721,1.955,3.008,3.008,0,0,1-3.036,3.035,3.062,3.062,0,0,1-2.212-.977L85.193,267.651v10.8a3.035,3.035,0,0,1-6.071,0V254.172a3.035,3.035,0,1,1,6.071,0v10.444Z" transform="translate(-79.122 -250.905)" fill="#fff"/><path d="M156.809,265.4c0-11.01,7.923-14.971,14.559-14.971s14.56,3.961,14.56,14.971c0,13.016-9,15.949-14.56,15.949S156.809,278.421,156.809,265.4Zm23.048.154c0-7.563-4.321-9.312-8.489-9.312s-8.489,1.749-8.489,9.312c0,8.643,5.2,9.981,8.489,9.981S179.857,274.2,179.857,265.559Z" transform="translate(-131.189 -250.434)" fill="#fff"/><path d="M270.915,252.114a3.062,3.062,0,0,1,2.212-.978,3.009,3.009,0,0,1,3.036,3.036,2.86,2.86,0,0,1-.72,1.955l-9.415,9.981,9.415,10.5a2.859,2.859,0,0,1,.72,1.955,3.008,3.008,0,0,1-3.036,3.035,3.063,3.063,0,0,1-2.212-.977l-11.627-12.965v10.8a3.035,3.035,0,0,1-6.071,0V254.172a3.035,3.035,0,1,1,6.071,0v10.444Z" transform="translate(-195.804 -250.905)" fill="#fff"/><path d="M330.9,265.4c0-11.01,7.923-14.971,14.56-14.971s14.56,3.961,14.56,14.971c0,13.016-9,15.949-14.56,15.949S330.9,278.421,330.9,265.4Zm23.049.154c0-7.563-4.321-9.312-8.489-9.312s-8.489,1.749-8.489,9.312c0,8.643,5.2,9.981,8.489,9.981S353.952,274.2,353.952,265.559Z" transform="translate(-247.871 -250.434)" fill="#fff"/><path d="M445.009,252.114a3.062,3.062,0,0,1,2.212-.978,3.009,3.009,0,0,1,3.036,3.036,2.86,2.86,0,0,1-.72,1.955l-9.415,9.981,9.415,10.5a2.859,2.859,0,0,1,.72,1.955,3.008,3.008,0,0,1-3.036,3.035,3.063,3.063,0,0,1-2.212-.977l-11.627-12.965v10.8a3.035,3.035,0,0,1-6.071,0V254.172a3.035,3.035,0,1,1,6.071,0v10.444Z" transform="translate(-312.485 -250.905)" fill="#fff"/><path d="M516.824,275.009l-1.543,4.476a3.187,3.187,0,0,1-3.035,2.161,3.075,3.075,0,0,1-3.036-3.036,4.361,4.361,0,0,1,.258-1.286l8.591-23.152a4.682,4.682,0,0,1,8.643,0l8.592,23.152a4.362,4.362,0,0,1,.257,1.286,3.075,3.075,0,0,1-3.035,3.036,3.187,3.187,0,0,1-3.036-2.161l-1.543-4.476Zm5.556-15.074-3.447,9.363h6.945Z" transform="translate(-367.375 -251.009)" fill="#fff"/><path d="M623.6,277.788a2.551,2.551,0,0,1,.1.875,2.978,2.978,0,0,1-3.087,2.984,2.881,2.881,0,0,1-2.727-1.8L616.6,276.09c-1.132-3.241-2.521-4.528-4.321-4.528h-5.2v7.048a3.036,3.036,0,1,1-6.071,0V254.328a3.009,3.009,0,0,1,3.036-3.036h10.341c4.321,0,9.827,2.572,9.827,9.878,0,2.676-1.235,7.254-5.3,8.386,2.264,1.595,2.933,3.138,4.167,6.74Zm-9.26-12.039c1.749,0,3.807-.1,3.807-4.424,0-3.55-1.955-4.27-3.807-4.27h-7.254v8.695Z" transform="translate(-428.905 -251.009)" fill="#fff"/><path d="M690.919,275.009l-1.544,4.476a3.187,3.187,0,0,1-3.035,2.161,3.075,3.075,0,0,1-3.035-3.036,4.372,4.372,0,0,1,.257-1.286l8.592-23.152a4.682,4.682,0,0,1,8.643,0l8.592,23.152a4.374,4.374,0,0,1,.257,1.286,3.075,3.075,0,0,1-3.035,3.036,3.187,3.187,0,0,1-3.036-2.161l-1.543-4.476Zm5.556-15.074-3.447,9.363h6.945Z" transform="translate(-484.057 -251.009)" fill="#fff"/></g></g><rect width="252" height="50" transform="translate(-2498 512)" fill="#fff" opacity="0.005"/></g></svg>