<svg xmlns="http://www.w3.org/2000/svg" xmlns:xlink="http://www.w3.org/1999/xlink" width="101" height="101" viewBox="0 0 101 101">
  <defs>
    <linearGradient id="linear-gradient" x1="0.259" y1="0.105" x2="0.651" y2="0.747" gradientUnits="objectBoundingBox">
      <stop offset="0" stop-color="#e4400a"/>
      <stop offset="1" stop-color="#bb151e"/>
    </linearGradient>
    <linearGradient id="linear-gradient-2" x1="-0.039" y1="0.08" x2="0.522" y2="0.626" xlink:href="#linear-gradient"/>
  </defs>
  <g id="koko-point" transform="translate(-54.879 -178.186)">
    <circle id="Ellipse_565" data-name="Ellipse 565" cx="50" cy="50" r="50" transform="translate(55.379 178.686)" fill="#fff" stroke="#929292" stroke-miterlimit="10" stroke-width="1"/>
    <circle id="Ellipse_566" data-name="Ellipse 566" cx="45.455" cy="45.455" r="45.455" transform="translate(59.924 183.232)" fill="url(#linear-gradient)"/>
    <g id="Group_82818" data-name="Group 82818" transform="translate(90.35 201.347)">
      <path id="Path_2137" data-name="Path 2137" d="M254.522,328.21a55.183,55.183,0,0,1-9.077.928q-1.57-.095-2.752-.123t-1.656-.029v21.807l-16.218,1.4V288.48h17.934a52.192,52.192,0,0,1,10.643,1,26.135,26.135,0,0,1,8.541,3.325,16.484,16.484,0,0,1,5.88,6.318,20.549,20.549,0,0,1,2.149,9.833,21.178,21.178,0,0,1-3.582,11.642Q262.8,326.163,254.522,328.21ZM243.44,302.292h-2.251v13.338h2.251q10.612,0,10.613-6.82-.1-4.054-2.961-5.286A19.7,19.7,0,0,0,243.44,302.292Z" transform="translate(-224.819 -288.48)" fill="#fff"/>
    </g>
    <g id="Group_82819" data-name="Group 82819" transform="translate(87.346 198.273)">
      <path id="Path_2138" data-name="Path 2138" d="M239.966,313.319a55.137,55.137,0,0,1-9.077.928q-1.57-.094-2.752-.123t-1.655-.029V335.9l-16.218,1.4V273.59H228.2a52.2,52.2,0,0,1,10.643,1,26.143,26.143,0,0,1,8.541,3.325,16.484,16.484,0,0,1,5.88,6.318,20.549,20.549,0,0,1,2.15,9.833,21.179,21.179,0,0,1-3.582,11.642Q248.248,311.273,239.966,313.319ZM228.884,287.4h-2.251v13.338h2.251q10.613,0,10.613-6.821-.095-4.054-2.961-5.286A19.7,19.7,0,0,0,228.884,287.4Z" transform="translate(-210.263 -273.59)" stroke="#fff" stroke-miterlimit="10" stroke-width="4" fill="url(#linear-gradient-2)"/>
    </g>
    <g id="Group_82820" data-name="Group 82820" transform="translate(118.91 247.51)">
      <path id="Path_2139" data-name="Path 2139" d="M369.694,529.951h-1.435v-1.967a5.269,5.269,0,0,1-5.061-3.828l2.286-.532a2.946,2.946,0,0,0,2.775,2.414v-4.2a7.061,7.061,0,0,1-3.668-1.643,3.534,3.534,0,0,1-.851-2.376q0-3.583,4.519-4.136v-1.531h1.435v1.531a4.554,4.554,0,0,1,4.179,3.265l-2.158.457a2.282,2.282,0,0,0-2.02-1.765v3.711a26.038,26.038,0,0,1,2.807.915,3.064,3.064,0,0,1,1.3,1.244,4,4,0,0,1,.58,2.169,3.926,3.926,0,0,1-1.2,2.935,5.533,5.533,0,0,1-3.487,1.371Zm-1.435-14.312a2.615,2.615,0,0,0-1.547.463,1.544,1.544,0,0,0-.622,1.334q0,1.489,2.169,1.776Zm1.435,10.4a2.541,2.541,0,0,0,1.675-.585,1.874,1.874,0,0,0,.675-1.5q0-1.553-2.35-1.988Z" transform="translate(-363.197 -512.152)" fill="#fff"/>
    </g>
  </g>
</svg>
