<svg xmlns="http://www.w3.org/2000/svg" width="240" height="240" viewBox="0 0 240 240">
  <g id="payment_2" transform="translate(3766 -2069)">
    <rect id="Rectangle_23996" data-name="Rectangle 23996" width="240" height="240" transform="translate(-3766 2069)" fill="#ffe8cc"/>
    <g id="credit-card" transform="translate(-3736 2089.939)">
      <path id="Path_789" data-name="Path 789" d="M166.575,153.058a5.629,5.629,0,0,1-7.521,2.6L37.687,96.544a5.625,5.625,0,0,1-2.6-7.518l34.484-70.8A5.627,5.627,0,0,1,77.1,15.631l121.368,59.11a5.626,5.626,0,0,1,2.6,7.518Z" transform="translate(-21.627 -0.001)" fill="#fb8c00"/>
      <path id="Path_790" data-name="Path 790" d="M77.1,15.63a5.628,5.628,0,0,0-7.521,2.593L35.09,89.022a5.626,5.626,0,0,0,2.593,7.518l24.4,11.88L129.4,41.1Z" transform="translate(-21.627 0)" fill="#fbc02d"/>
      <path id="Path_791" data-name="Path 791" d="M188.2,118.943a12.812,12.812,0,0,1-6.753-8.151,12.809,12.809,0,0,0,7.434-15.258,12.852,12.852,0,1,1-.681,23.408Z" transform="translate(-113.673 -49.785)" fill="#fdd835"/>
      <path id="Path_792" data-name="Path 792" d="M180.674,112.475a12.809,12.809,0,0,1,7.434-15.258,12.809,12.809,0,0,1-7.434,15.258Z" transform="translate(-112.896 -51.468)" fill="#fb8c00"/>
      <path id="Path_793" data-name="Path 793" d="M140.989,96.323A12.857,12.857,0,1,1,159,81.355a12.809,12.809,0,0,0-7.434,15.258A12.8,12.8,0,0,1,140.989,96.323Z" transform="translate(-83.794 -35.609)" fill="#ef5350"/>
      <path id="Path_794" data-name="Path 794" d="M356.638,192.413a5.624,5.624,0,0,1-7.521,2.593l-15.176-7.389a5.631,5.631,0,0,1-2.6-7.521l6.157-12.642a5.627,5.627,0,0,1,7.521-2.593L360.2,172.25a5.626,5.626,0,0,1,2.593,7.518Z" transform="translate(-207.221 -93.488)" fill="#fff59d"/>
      <g id="Group_82533" data-name="Group 82533" transform="translate(38.732 70.667)">
        <path id="Path_795" data-name="Path 795" d="M104.207,166.511l.011-.022a4.5,4.5,0,0,1,6.162-2.045,4.674,4.674,0,0,1,2.273,2.273.783.783,0,0,1-.009.695.779.779,0,0,1-1.384-.017,3.232,3.232,0,0,0-1.533-1.67,3,3,0,0,0-4.036,1.479l-.011.022a3,3,0,0,0,1.2,4.134,3.19,3.19,0,0,0,2.368.239.707.707,0,0,1,.5.053.73.73,0,0,1-.143,1.364,4.545,4.545,0,0,1-3.423-.385A4.475,4.475,0,0,1,104.207,166.511Z" transform="translate(-103.692 -163.926)" fill="#fff9c4"/>
        <path id="Path_796" data-name="Path 796" d="M127.158,173.1a.77.77,0,0,1,1.055-.349l2.838,1.429a3.594,3.594,0,0,1,1.893,1.949,2.678,2.678,0,0,1-.208,2.045l-.011.025a2.635,2.635,0,0,1-3,1.462l.554,2.683a.9.9,0,0,1-.042.644.735.735,0,0,1-1,.309.893.893,0,0,1-.495-.706l-.689-3.434-1.758-.886-1.074,2.132a.781.781,0,0,1-1.395-.7Zm1.806,4.964a1.575,1.575,0,0,0,2.3-.5l.011-.022c.427-.849.051-1.623-.984-2.143l-2.028-1.024-1.347,2.666Z" transform="translate(-116.255 -169.397)" fill="#fff9c4"/>
        <path id="Path_797" data-name="Path 797" d="M145.884,190.706l3.3-6.534a.77.77,0,0,1,1.055-.349l4.618,2.329a.707.707,0,0,1,.309.939.7.7,0,0,1-.939.309l-3.926-1.98-1.041,2.062,3.417,1.721a.709.709,0,0,1,.3.951.693.693,0,0,1-.934.3l-3.414-1.721-1.074,2.132,3.98,2.008a.707.707,0,0,1,.309.939.7.7,0,0,1-.939.309l-4.674-2.357A.772.772,0,0,1,145.884,190.706Z" transform="translate(-130.068 -176.336)" fill="#fff9c4"/>
        <path id="Path_798" data-name="Path 798" d="M169.537,194.44a.771.771,0,0,1,1.057-.349l2.258,1.136a4.431,4.431,0,0,1,2.227,6.075l-.011.022a4.451,4.451,0,0,1-6.219,1.845l-2.258-1.142a.776.776,0,0,1-.352-1.057Zm-.05,7.456a2.9,2.9,0,0,0,4.109-1.285l.011-.022a2.919,2.919,0,0,0-1.4-4.089l-1.567-.793-2.725,5.4Z" transform="translate(-142.823 -182.767)" fill="#fff9c4"/>
        <path id="Path_799" data-name="Path 799" d="M193.493,206.365a.781.781,0,0,1,1.4.7l-3.364,6.668a.765.765,0,0,1-1.038.346.777.777,0,0,1-.357-1.049Z" transform="translate(-157.79 -190.246)" fill="#fff9c4"/>
        <path id="Path_800" data-name="Path 800" d="M207.808,212.3l-1.929-.973a.724.724,0,0,1,.653-1.294l5.274,2.661a.725.725,0,0,1-.653,1.294L209.214,213l-3.032,6.01a.787.787,0,0,1-1.406-.709Z" transform="translate(-166.966 -192.761)" fill="#fff9c4"/>
        <path id="Path_801" data-name="Path 801" d="M231.158,230.537l.011-.022a4.5,4.5,0,0,1,6.162-2.042,4.659,4.659,0,0,1,2.273,2.27.773.773,0,0,1-.006.695.76.76,0,0,1-1.035.332.781.781,0,0,1-.352-.346,3.208,3.208,0,0,0-1.536-1.673,3,3,0,0,0-4.036,1.479l-.011.022a3,3,0,0,0,1.2,4.134,3.206,3.206,0,0,0,2.368.242.707.707,0,0,1,.5.053.732.732,0,0,1-.149,1.364,4.532,4.532,0,0,1-3.417-.385A4.477,4.477,0,0,1,231.158,230.537Z" transform="translate(-183.221 -204.036)" fill="#fff9c4"/>
        <path id="Path_802" data-name="Path 802" d="M249.509,245.2l6.269-5.091a.986.986,0,0,1,1.122-.146l.068.037a.978.978,0,0,1,.543.984l-.374,8.066a.759.759,0,0,1-.065.335.732.732,0,0,1-1,.338.811.811,0,0,1-.436-.833l.1-1.811-3.856-1.946-1.443,1.192a.753.753,0,0,1-.872.115.714.714,0,0,1-.321-.973A.913.913,0,0,1,249.509,245.2Zm6.328.374.219-3.912-3.009,2.506Z" transform="translate(-194.83 -211.491)" fill="#fff9c4"/>
        <path id="Path_803" data-name="Path 803" d="M277.6,248.957a.775.775,0,0,1,1.055-.349l2.841,1.431a3.6,3.6,0,0,1,1.89,1.949,2.69,2.69,0,0,1-.208,2.045l-.011.022a2.635,2.635,0,0,1-3,1.465l.554,2.683a.9.9,0,0,1-.048.647.731.731,0,0,1-1,.3.889.889,0,0,1-.495-.706l-.692-3.434-1.758-.886-1.077,2.132a.761.761,0,0,1-1.038.343.77.77,0,0,1-.351-1.046Zm1.806,4.967a1.57,1.57,0,0,0,2.3-.5l.011-.022c.427-.852.051-1.623-.984-2.146l-2.034-1.021-1.344,2.663Z" transform="translate(-210.5 -216.921)" fill="#fff9c4"/>
        <path id="Path_804" data-name="Path 804" d="M299.617,260.039a.772.772,0,0,1,1.057-.349l2.258,1.136a4.438,4.438,0,0,1,2.23,6.078l-.011.02a4.453,4.453,0,0,1-6.224,1.845l-2.258-1.142a.773.773,0,0,1-.346-1.055Zm-.054,7.456a2.9,2.9,0,0,0,4.109-1.285l.014-.022a2.917,2.917,0,0,0-1.4-4.089l-1.567-.793-2.725,5.4Z" transform="translate(-224.314 -223.864)" fill="#fff9c4"/>
      </g>
      <path id="Path_805" data-name="Path 805" d="M146.25,310.254a5.625,5.625,0,0,1-5.625,5.625h-135A5.625,5.625,0,0,1,0,310.254V231.5a5.627,5.627,0,0,1,5.625-5.625h135a5.627,5.627,0,0,1,5.625,5.625v78.75Z" transform="translate(0 -132.07)" fill="#fff"/>
      <rect id="Rectangle_23997" data-name="Rectangle 23997" width="146.25" height="22.5" transform="translate(0 116.309)" fill="#212121"/>
      <path id="Path_806" data-name="Path 806" d="M85.311,416.5a8.725,8.725,0,0,1-6.576-2.984,8.745,8.745,0,0,0,0-11.579A8.767,8.767,0,1,1,85.311,416.5Z" transform="translate(-49.325 -240.497)" fill="#fdd835"/>
      <path id="Path_807" data-name="Path 807" d="M75.056,418.517a8.737,8.737,0,0,1,0-11.579,8.745,8.745,0,0,1,0,11.579Z" transform="translate(-45.646 -245.496)" fill="#fb8c00"/>
      <path id="Path_808" data-name="Path 808" d="M46.416,416.51a8.771,8.771,0,1,1,6.578-14.56,8.737,8.737,0,0,0,0,11.579A8.743,8.743,0,0,1,46.416,416.51Z" transform="translate(-23.584 -240.506)" fill="#ef5350"/>
      <g id="Group_82534" data-name="Group 82534" transform="translate(14.861 147.359)">
        <path id="Path_809" data-name="Path 809" d="M42.576,374.051v-1.429a.354.354,0,1,1,.709,0v1.783a.327.327,0,0,1-.354.354H40.14a.354.354,0,1,1,0-.709h1.041v-4.092H40.14a.354.354,0,1,1,0-.709H41.89v4.8Z" transform="translate(-39.786 -369.247)" fill="#212121"/>
        <path id="Path_810" data-name="Path 810" d="M54.153,374.046h2.433a.355.355,0,1,1,0,.709H53.444v-2.306a.711.711,0,0,1,.8-.8h1.991v-1.7H53.8a.354.354,0,1,1,0-.709H56.15a.733.733,0,0,1,.793.833v1.451a.757.757,0,0,1-.219.633.743.743,0,0,1-.574.2h-2v1.69Z" transform="translate(-48.343 -369.242)" fill="#212121"/>
        <path id="Path_811" data-name="Path 811" d="M67.442,369.959a.354.354,0,0,1,0-.709h2.435a.694.694,0,0,1,.709.709v1.356a.809.809,0,0,1-.278.686.833.833,0,0,1,.278.692v1.353a.692.692,0,0,1-.709.709H67.442a.354.354,0,1,1,0-.709h2.435v-1.17c0-.4-.158-.517-.354-.517H68.136a.354.354,0,1,1,0-.709h1.387c.2,0,.354-.121.354-.52v-1.176l-2.435.006Z" transform="translate(-56.89 -369.247)" fill="#212121"/>
        <path id="Path_812" data-name="Path 812" d="M83.775,372.25V370.2a.353.353,0,1,1,.706,0v2.05a.351.351,0,1,1,0,.7V374.4a.309.309,0,0,1-.354.354c-.253,0-.352-.127-.352-.354v-1.446H81.694V369.6a.353.353,0,1,1,.706,0v2.65Z" transform="translate(-66.04 -369.243)" fill="#212121"/>
        <path id="Path_813" data-name="Path 813" d="M109.446,371.648h1.3a.736.736,0,0,1,.565.2.691.691,0,0,1,.219.6v1.519a.736.736,0,0,1-.171.551.691.691,0,0,1-.616.236h-1.572a1.07,1.07,0,0,1-.47-.127l-.27-.118c-.188-.084-.4-.152-.4-.4a.36.36,0,0,1,.338-.357.5.5,0,0,1,.228.059l.211.093a1.2,1.2,0,0,0,.377.141h1.634v-1.693h-2.087v-3.108h2.441a.354.354,0,1,1,0,.709h-1.732v1.693Z" transform="translate(-82.539 -369.243)" fill="#212121"/>
        <path id="Path_814" data-name="Path 814" d="M122.4,372.249h2.365c.354,0,.425.149.425.472V374.3c0,.335-.143.447-.461.447h-2.576c-.335,0-.461-.121-.461-.447V369.6c0-.163.059-.354.3-.354h.425a.352.352,0,0,1,.332.354.338.338,0,0,1-.354.354l0,2.3Zm0,.7v1.091h2.081v-1.091Z" transform="translate(-91.095 -369.242)" fill="#212121"/>
        <path id="Path_815" data-name="Path 815" d="M136.051,369.959a.354.354,0,1,1-.709,0V369.6a.359.359,0,0,1,.354-.354h3.144V371.3c0,.248.006.278-.191.45l-.993.852c-.183.166-.2.177-.2.425V374.4a.354.354,0,1,1-.709,0v-1.7a.39.39,0,0,1,.183-.411l.979-.841c.233-.205.219-.2.219-.509v-.982l-2.081,0Z" transform="translate(-99.649 -369.247)" fill="#212121"/>
        <path id="Path_816" data-name="Path 816" d="M151.428,369.241a.333.333,0,0,1,.351.354v2.047a.738.738,0,0,1,.52.2.682.682,0,0,1,.188.52v1.685a.657.657,0,0,1-.709.709H149.7a.66.66,0,0,1-.709-.709V372.36a.7.7,0,0,1,.188-.52.733.733,0,0,1,.52-.2v-2.047a.335.335,0,0,1,.354-.354h1.372Zm.352,4.8v-1.693H149.7v1.693Zm-.706-2.4V369.95h-.666v1.693Z" transform="translate(-108.2 -369.238)" fill="#212121"/>
        <path id="Path_817" data-name="Path 817" d="M179.082,371.773h-2.435a.359.359,0,0,1-.352-.351V369.6a.36.36,0,0,1,.352-.354h2.79a.362.362,0,0,1,.354.354v4.8a.348.348,0,0,1-.354.354h-.354a.349.349,0,0,1-.354-.354.34.34,0,0,1,.354-.354v-2.278Zm0-.709v-1.105H177v1.105Z" transform="translate(-125.304 -369.247)" fill="#212121"/>
        <path id="Path_818" data-name="Path 818" d="M192.381,369.241a.336.336,0,0,1,.354.354v2.047a.726.726,0,0,1,.517.2.684.684,0,0,1,.191.52v1.685a.657.657,0,0,1-.709.709h-2.081a.66.66,0,0,1-.709-.709V372.36a.687.687,0,0,1,.191-.52.722.722,0,0,1,.517-.2v-2.047a.335.335,0,0,1,.354-.354h1.372Zm.354,4.8v-1.693h-2.081v1.693Zm-.709-2.4V369.95h-.666v1.693Z" transform="translate(-133.856 -369.238)" fill="#212121"/>
        <path id="Path_819" data-name="Path 819" d="M204.3,369.959a.354.354,0,1,1-.709,0V369.6a.36.36,0,0,1,.357-.354h3.141V371.3c0,.248.009.278-.191.45l-.99.852c-.186.166-.2.177-.2.425V374.4a.311.311,0,0,1-.357.355c-.253,0-.351-.127-.351-.355v-1.7a.386.386,0,0,1,.183-.411l.976-.841c.236-.205.219-.2.219-.509v-.982l-2.081,0Z" transform="translate(-142.402 -369.247)" fill="#212121"/>
        <path id="Path_820" data-name="Path 820" d="M217.947,372.249h2.365c.354,0,.425.149.425.472V374.3c0,.335-.143.447-.461.447H217.7c-.332,0-.461-.121-.461-.447V369.6c0-.163.059-.354.3-.354h.425a.352.352,0,0,1,.332.354.338.338,0,0,1-.354.354l0,2.3Zm0,.7v1.091h2.081v-1.091Z" transform="translate(-150.954 -369.242)" fill="#212121"/>
        <path id="Path_821" data-name="Path 821" d="M245.938,371.648h1.3a.721.721,0,0,1,.565.2.7.7,0,0,1,.225.6v1.519a.749.749,0,0,1-.174.551.69.69,0,0,1-.619.236h-1.572a1.059,1.059,0,0,1-.467-.127l-.27-.118c-.191-.084-.4-.152-.4-.4a.36.36,0,0,1,.34-.357.5.5,0,0,1,.225.059l.214.093a1.236,1.236,0,0,0,.374.141h1.637v-1.693h-2.087v-3.108h2.438a.354.354,0,1,1,0,.709h-1.73v1.693Z" transform="translate(-168.047 -369.243)" fill="#212121"/>
        <path id="Path_822" data-name="Path 822" d="M261.222,372.25V370.2a.354.354,0,0,1,.709,0v2.05a.351.351,0,1,1,0,.7V374.4a.309.309,0,0,1-.355.354c-.259,0-.354-.127-.354-.354v-1.446h-2.081V369.6a.354.354,0,1,1,.709,0v2.65Z" transform="translate(-177.204 -369.243)" fill="#212121"/>
        <path id="Path_823" data-name="Path 823" d="M272.191,369.959a.355.355,0,1,1,0-.709h2.433a.692.692,0,0,1,.709.709v1.356a.809.809,0,0,1-.278.686.833.833,0,0,1,.278.692v1.353a.69.69,0,0,1-.709.709h-2.433a.354.354,0,1,1,0-.709h2.433v-1.17c0-.4-.158-.517-.352-.517h-1.39a.354.354,0,0,1,0-.709h1.39c.194,0,.352-.121.352-.52v-1.176l-2.433.006Z" transform="translate(-185.156 -369.247)" fill="#212121"/>
        <path id="Path_824" data-name="Path 824" d="M286.2,374.046h2.436a.355.355,0,0,1,0,.709h-3.144v-2.306a.712.712,0,0,1,.8-.8h1.991v-1.7h-2.435a.354.354,0,1,1,0-.709H288.2a.745.745,0,0,1,.574.2.759.759,0,0,1,.219.633v1.451a.767.767,0,0,1-.219.633.743.743,0,0,1-.574.2h-2Z" transform="translate(-193.712 -369.242)" fill="#212121"/>
      </g>
      <path id="Path_825" data-name="Path 825" d="M212.219,420.338h-12.98a3.392,3.392,0,0,1-2.54-.925c-1.111-1.145-1.057-3-1.01-4.629a4.98,4.98,0,0,0-.191-2.2c-.011-.011-.039-.039-.152-.039-.734,0-1.043,1.851-1.294,3.338-.352,2.087-.751,4.452-2.6,4.452a2.029,2.029,0,0,1-1.71-.728c-.813-1.049-.351-2.838.1-4.565a6.671,6.671,0,0,0,.385-2.509c-.661.011-1.024,1.2-1.406,2.45-.689,2.258-1.629,5.346-5.153,5.346a4.058,4.058,0,0,1-3.369-1.69,12.74,12.74,0,0,1-5.718,1.69c-3.395,0-4.916-2.1-4.916-4.171,0-2.658,2.326-5.4,6.216-5.4a.647.647,0,1,1,0,1.294c-3.077,0-4.916,2.084-4.916,4.1,0,1.387.951,2.874,3.617,2.874a11.215,11.215,0,0,0,5.1-1.513,5.527,5.527,0,0,1-.388-2.025,4.707,4.707,0,0,1,1.021-3.023,4.014,4.014,0,0,1,3.192-1.4,3.066,3.066,0,0,1,1.682.391,1.52,1.52,0,0,1,.706,1.308c0,1.491-1.935,3.6-4.475,5.212a2.8,2.8,0,0,0,2.25,1.052c2.376,0,3.119-1.837,3.909-4.427.506-1.651,1.026-3.361,2.582-3.361a1.32,1.32,0,0,1,1.1.495c.585.759.245,2.087-.155,3.625-.315,1.226-.751,2.9-.326,3.448.042.059.174.225.684.225.754,0,1.069-1.868,1.322-3.369.346-2.07.743-4.421,2.573-4.421a1.464,1.464,0,0,1,1.083.433c.63.647.6,1.8.557,3.139-.039,1.375-.081,2.936.644,3.69a2.146,2.146,0,0,0,1.609.529h12.98a.649.649,0,0,1,0,1.3ZM183.5,412.381a2.708,2.708,0,0,0-2.194.934,3.4,3.4,0,0,0-.72,2.188,4.183,4.183,0,0,0,.217,1.35c2.177-1.409,3.786-3.147,3.786-4.075a.217.217,0,0,0-.115-.219A1.876,1.876,0,0,0,183.5,412.381Z" transform="translate(-106.286 -247.894)" fill="#5b5c5f"/>
    </g>
  </g>
</svg>
