<svg xmlns="http://www.w3.org/2000/svg" width="240" height="240" viewBox="0 0 240 240">
  <g id="payment_4" transform="translate(3766 -2608)">
    <rect id="Rectangle_23999" data-name="Rectangle 23999" width="240" height="240" transform="translate(-3766 2608)" fill="#00a1e9"/>
    <g id="e91a70e0ca3d373ef77c5358c63ff19a" transform="translate(-3756 2366)">
      <path id="Path_846" data-name="Path 846" d="M57.335,514.593c-1.776.184-5.1.959-6.918,2.551-5.449,4.735-2.184,13.388,8.837,13.388,6.408,0,12.816-4.082,17.837-10.612-7.163-3.49-13.224-5.98-19.755-5.327" transform="translate(-30.11 -149.226)" fill="#fff"/>
      <path id="Path_847" data-name="Path 847" d="M68.327,371.347c10.2,3.408,12.51,3.592,12.51,3.592V338.306A11.327,11.327,0,0,0,69.49,327H21.347A11.327,11.327,0,0,0,10,338.306v48a11.327,11.327,0,0,0,11.347,11.306H69.49a11.327,11.327,0,0,0,11.347-11.306v-.469S62.408,378.184,53.1,373.714c-6.245,7.653-14.286,12.306-22.653,12.306-14.143,0-18.939-12.327-12.245-20.449a14.265,14.265,0,0,1,7.8-4.408c6.02-1.469,15.612.918,24.612,3.878a48.965,48.965,0,0,0,3.98-9.714H26.9v-2.8H41.184v-5.02H23.9v-2.8H41.2v-7.163a1.186,1.186,0,0,1,1.224-1.2h6.959v8.367h17.1v2.8h-17.1v5.02H63.347a56.524,56.524,0,0,1-5.918,14.9c4.245,1.51,8.061,2.959,10.9,3.918" fill="#fff"/>
      <path id="Path_848" data-name="Path 848" d="M822.925,356.049H843.21v4.02h7.245v-4.776a1.944,1.944,0,0,0-1.878-1.959H836.863V349.6h-7.571v3.735H815.7v6.755h7.245v-4.041Z" transform="translate(-641.271 -17.988)" fill="#fff"/>
      <path id="Path_849" data-name="Path 849" d="M607.129,351.2,599.7,368.751h5.694v20.9h6.224V361.935h-2.245l4.694-10.735h-6.939Z" transform="translate(-469.353 -19.261)" fill="#fff"/>
      <path id="Path_850" data-name="Path 850" d="M851.271,437.9l-2.286-7.694a1.163,1.163,0,0,0-1.122-.837h-6.02l1.755,5.9h-7.082V423.837h13.918v-2.714H836.516v-5.388h13.918V413H815.7v2.714h13.918V421.1H815.7v2.714h13.918v11.429H815.7v2.714h35.571l-.02-.1.02.041Z" transform="translate(-641.271 -68.449)" fill="#fff"/>
      <path id="Path_851" data-name="Path 851" d="M688.174,418.616a1.424,1.424,0,0,0-1.286-.816H681.5l4.2,13.224h6.388Z" transform="translate(-534.459 -72.269)" fill="#fff"/>
      <path id="Path_852" data-name="Path 852" d="M693.629,352.8h-6.469v6.755H671.2v2.714h15.959v24.306a1.116,1.116,0,0,1-1.041,1.02h-3.286v2.816h8.388a2.582,2.582,0,0,0,2.429-2.531V362.29h2.633v-2.714h-2.633V352.8Z" transform="translate(-526.261 -20.535)" fill="#fff"/>
      <path id="Path_853" data-name="Path 853" d="M447.814,362.978H435.386v-4.449h14.408v-2.776H435.386V350.1h-6.429a1.286,1.286,0,0,0-1.265,1.327h0v4.327H413.386v2.776h14.306v4.449H415.61v2.776h24.061s-1.327,5.2-7.939,10.8c-5.918-4.469-7.9-8.041-7.9-8.041h-6.469a35.875,35.875,0,0,0,10.327,11.02,55.817,55.817,0,0,1-14.592,6.531v3.327a65.269,65.269,0,0,0,18.673-7.2,66.76,66.76,0,0,0,18.429,7.2v-3.143a77.438,77.438,0,0,1-14.265-6.816c5.327-3.939,10-9.286,11.878-16.449" transform="translate(-320.835 -18.386)" fill="#fff"/>
      <path id="Path_854" data-name="Path 854" d="M443.961,580.378l1.082,3.245h3.02L442.124,567.5h-2.306L433.9,583.622h3.02l1.122-3.245Zm-2.918-8.714,2.224,6.674h-4.531Z" transform="translate(-337.39 -191.418)" fill="#fff"/>
      <path id="Path_855" data-name="Path 855" d="M549.8,567.5v16.122h9.755v-2.2H552.7V567.5Z" transform="translate(-429.637 -191.418)" fill="#fff"/>
      <path id="Path_856" data-name="Path 856" d="M649.7,567.5h2.9v16.122h-2.9Z" transform="translate(-509.149 -191.418)" fill="#fff"/>
      <path id="Path_857" data-name="Path 857" d="M727.765,567.5H721.5v16.122h2.9v-6.2h3.367c3.122,0,5.306-2.041,5.306-4.959s-2.184-4.959-5.306-4.959m-.163,7.714h-3.2V569.7h3.2a2.655,2.655,0,0,1,2.571,2.776,2.6,2.6,0,0,1-2.571,2.735" transform="translate(-566.296 -191.418)" fill="#fff"/>
      <path id="Path_858" data-name="Path 858" d="M822.361,580.378l1.082,3.245h3.02L820.524,567.5h-2.306L812.3,583.622h3.02l1.122-3.245Zm-2.918-8.714,2.224,6.674h-4.531Z" transform="translate(-638.565 -191.418)" fill="#fff"/>
      <path id="Path_859" data-name="Path 859" d="M923.61,567.42l-3.163,6.857-3.2-6.857H914.1l4.878,9.49v6.612h2.878V576.91l.02-.041,4.857-9.469H923.61Z" transform="translate(-719.59 -191.339)" fill="#fff"/>
    </g>
  </g>
</svg>
