<svg id="quickmark" xmlns="http://www.w3.org/2000/svg" width="250" height="250" viewBox="0 0 250 250">
  <rect id="Rectangle_99" data-name="Rectangle 99" width="10" height="10"/>
  <rect id="Rectangle_100" data-name="Rectangle 100" width="10" height="10" transform="translate(10)"/>
  <rect id="Rectangle_101" data-name="Rectangle 101" width="10" height="10" transform="translate(20)"/>
  <rect id="Rectangle_102" data-name="Rectangle 102" width="10" height="10" transform="translate(30)"/>
  <rect id="Rectangle_103" data-name="Rectangle 103" width="10" height="10" transform="translate(40)"/>
  <rect id="Rectangle_104" data-name="Rectangle 104" width="10" height="10" transform="translate(50)"/>
  <rect id="Rectangle_105" data-name="Rectangle 105" width="10" height="10" transform="translate(60)"/>
  <rect id="Rectangle_106" data-name="Rectangle 106" width="10" height="10" transform="translate(100)"/>
  <rect id="Rectangle_107" data-name="Rectangle 107" width="10" height="10" transform="translate(140)"/>
  <rect id="Rectangle_108" data-name="Rectangle 108" width="10" height="10" transform="translate(150)"/>
  <rect id="Rectangle_109" data-name="Rectangle 109" width="10" height="10" transform="translate(180)"/>
  <rect id="Rectangle_110" data-name="Rectangle 110" width="10" height="10" transform="translate(190)"/>
  <rect id="Rectangle_111" data-name="Rectangle 111" width="10" height="10" transform="translate(200)"/>
  <rect id="Rectangle_112" data-name="Rectangle 112" width="10" height="10" transform="translate(210)"/>
  <rect id="Rectangle_113" data-name="Rectangle 113" width="10" height="10" transform="translate(220)"/>
  <rect id="Rectangle_114" data-name="Rectangle 114" width="10" height="10" transform="translate(230)"/>
  <rect id="Rectangle_115" data-name="Rectangle 115" width="10" height="10" transform="translate(240)"/>
  <rect id="Rectangle_116" data-name="Rectangle 116" width="10" height="10" transform="translate(0 10)"/>
  <rect id="Rectangle_117" data-name="Rectangle 117" width="10" height="10" transform="translate(60 10)"/>
  <rect id="Rectangle_118" data-name="Rectangle 118" width="10" height="10" transform="translate(80 10)"/>
  <rect id="Rectangle_119" data-name="Rectangle 119" width="10" height="10" transform="translate(90 10)"/>
  <rect id="Rectangle_120" data-name="Rectangle 120" width="10" height="10" transform="translate(100 10)"/>
  <rect id="Rectangle_121" data-name="Rectangle 121" width="10" height="10" transform="translate(110 10)"/>
  <rect id="Rectangle_122" data-name="Rectangle 122" width="10" height="10" transform="translate(150 10)"/>
  <rect id="Rectangle_123" data-name="Rectangle 123" width="10" height="10" transform="translate(180 10)"/>
  <rect id="Rectangle_124" data-name="Rectangle 124" width="10" height="10" transform="translate(240 10)"/>
  <rect id="Rectangle_125" data-name="Rectangle 125" width="10" height="10" transform="translate(0 20)"/>
  <rect id="Rectangle_126" data-name="Rectangle 126" width="10" height="10" transform="translate(20 20)"/>
  <rect id="Rectangle_127" data-name="Rectangle 127" width="10" height="10" transform="translate(30 20)"/>
  <rect id="Rectangle_128" data-name="Rectangle 128" width="10" height="10" transform="translate(40 20)"/>
  <rect id="Rectangle_129" data-name="Rectangle 129" width="10" height="10" transform="translate(60 20)"/>
  <rect id="Rectangle_130" data-name="Rectangle 130" width="10" height="10" transform="translate(90 20)"/>
  <rect id="Rectangle_131" data-name="Rectangle 131" width="10" height="10" transform="translate(100 20)"/>
  <rect id="Rectangle_132" data-name="Rectangle 132" width="10" height="10" transform="translate(120 20)"/>
  <rect id="Rectangle_133" data-name="Rectangle 133" width="10" height="10" transform="translate(150 20)"/>
  <rect id="Rectangle_134" data-name="Rectangle 134" width="10" height="10" transform="translate(180 20)"/>
  <rect id="Rectangle_135" data-name="Rectangle 135" width="10" height="10" transform="translate(200 20)"/>
  <rect id="Rectangle_136" data-name="Rectangle 136" width="10" height="10" transform="translate(210 20)"/>
  <rect id="Rectangle_137" data-name="Rectangle 137" width="10" height="10" transform="translate(220 20)"/>
  <rect id="Rectangle_138" data-name="Rectangle 138" width="10" height="10" transform="translate(240 20)"/>
  <rect id="Rectangle_139" data-name="Rectangle 139" width="10" height="10" transform="translate(0 30)"/>
  <rect id="Rectangle_140" data-name="Rectangle 140" width="10" height="10" transform="translate(20 30)"/>
  <rect id="Rectangle_141" data-name="Rectangle 141" width="10" height="10" transform="translate(30 30)"/>
  <rect id="Rectangle_142" data-name="Rectangle 142" width="10" height="10" transform="translate(40 30)"/>
  <rect id="Rectangle_143" data-name="Rectangle 143" width="10" height="10" transform="translate(60 30)"/>
  <rect id="Rectangle_144" data-name="Rectangle 144" width="10" height="10" transform="translate(90 30)"/>
  <rect id="Rectangle_145" data-name="Rectangle 145" width="10" height="10" transform="translate(110 30)"/>
  <rect id="Rectangle_146" data-name="Rectangle 146" width="10" height="10" transform="translate(140 30)"/>
  <rect id="Rectangle_147" data-name="Rectangle 147" width="10" height="10" transform="translate(180 30)"/>
  <rect id="Rectangle_148" data-name="Rectangle 148" width="10" height="10" transform="translate(200 30)"/>
  <rect id="Rectangle_149" data-name="Rectangle 149" width="10" height="10" transform="translate(210 30)"/>
  <rect id="Rectangle_150" data-name="Rectangle 150" width="10" height="10" transform="translate(220 30)"/>
  <rect id="Rectangle_151" data-name="Rectangle 151" width="10" height="10" transform="translate(240 30)"/>
  <rect id="Rectangle_152" data-name="Rectangle 152" width="10" height="10" transform="translate(0 40)"/>
  <rect id="Rectangle_153" data-name="Rectangle 153" width="10" height="10" transform="translate(20 40)"/>
  <rect id="Rectangle_154" data-name="Rectangle 154" width="10" height="10" transform="translate(30 40)"/>
  <rect id="Rectangle_155" data-name="Rectangle 155" width="10" height="10" transform="translate(40 40)"/>
  <rect id="Rectangle_156" data-name="Rectangle 156" width="10" height="10" transform="translate(60 40)"/>
  <rect id="Rectangle_157" data-name="Rectangle 157" width="10" height="10" transform="translate(80 40)"/>
  <rect id="Rectangle_158" data-name="Rectangle 158" width="10" height="10" transform="translate(90 40)"/>
  <rect id="Rectangle_159" data-name="Rectangle 159" width="10" height="10" transform="translate(100 40)"/>
  <rect id="Rectangle_160" data-name="Rectangle 160" width="10" height="10" transform="translate(110 40)"/>
  <rect id="Rectangle_161" data-name="Rectangle 161" width="10" height="10" transform="translate(120 40)"/>
  <rect id="Rectangle_162" data-name="Rectangle 162" width="10" height="10" transform="translate(130 40)"/>
  <rect id="Rectangle_163" data-name="Rectangle 163" width="10" height="10" transform="translate(140 40)"/>
  <rect id="Rectangle_164" data-name="Rectangle 164" width="10" height="10" transform="translate(150 40)"/>
  <rect id="Rectangle_165" data-name="Rectangle 165" width="10" height="10" transform="translate(160 40)"/>
  <rect id="Rectangle_166" data-name="Rectangle 166" width="10" height="10" transform="translate(180 40)"/>
  <rect id="Rectangle_167" data-name="Rectangle 167" width="10" height="10" transform="translate(200 40)"/>
  <rect id="Rectangle_168" data-name="Rectangle 168" width="10" height="10" transform="translate(210 40)"/>
  <rect id="Rectangle_169" data-name="Rectangle 169" width="10" height="10" transform="translate(220 40)"/>
  <rect id="Rectangle_170" data-name="Rectangle 170" width="10" height="10" transform="translate(240 40)"/>
  <rect id="Rectangle_171" data-name="Rectangle 171" width="10" height="10" transform="translate(0 50)"/>
  <rect id="Rectangle_172" data-name="Rectangle 172" width="10" height="10" transform="translate(60 50)"/>
  <rect id="Rectangle_173" data-name="Rectangle 173" width="10" height="10" transform="translate(90 50)"/>
  <rect id="Rectangle_174" data-name="Rectangle 174" width="10" height="10" transform="translate(110 50)"/>
  <rect id="Rectangle_175" data-name="Rectangle 175" width="10" height="10" transform="translate(120 50)"/>
  <rect id="Rectangle_176" data-name="Rectangle 176" width="10" height="10" transform="translate(140 50)"/>
  <rect id="Rectangle_177" data-name="Rectangle 177" width="10" height="10" transform="translate(150 50)"/>
  <rect id="Rectangle_178" data-name="Rectangle 178" width="10" height="10" transform="translate(160 50)"/>
  <rect id="Rectangle_179" data-name="Rectangle 179" width="10" height="10" transform="translate(180 50)"/>
  <rect id="Rectangle_180" data-name="Rectangle 180" width="10" height="10" transform="translate(240 50)"/>
  <rect id="Rectangle_181" data-name="Rectangle 181" width="10" height="10" transform="translate(0 60)"/>
  <rect id="Rectangle_182" data-name="Rectangle 182" width="10" height="10" transform="translate(10 60)"/>
  <rect id="Rectangle_183" data-name="Rectangle 183" width="10" height="10" transform="translate(20 60)"/>
  <rect id="Rectangle_184" data-name="Rectangle 184" width="10" height="10" transform="translate(30 60)"/>
  <rect id="Rectangle_185" data-name="Rectangle 185" width="10" height="10" transform="translate(40 60)"/>
  <rect id="Rectangle_186" data-name="Rectangle 186" width="10" height="10" transform="translate(50 60)"/>
  <rect id="Rectangle_187" data-name="Rectangle 187" width="10" height="10" transform="translate(60 60)"/>
  <rect id="Rectangle_188" data-name="Rectangle 188" width="10" height="10" transform="translate(80 60)"/>
  <rect id="Rectangle_189" data-name="Rectangle 189" width="10" height="10" transform="translate(100 60)"/>
  <rect id="Rectangle_190" data-name="Rectangle 190" width="10" height="10" transform="translate(120 60)"/>
  <rect id="Rectangle_191" data-name="Rectangle 191" width="10" height="10" transform="translate(140 60)"/>
  <rect id="Rectangle_192" data-name="Rectangle 192" width="10" height="10" transform="translate(160 60)"/>
  <rect id="Rectangle_193" data-name="Rectangle 193" width="10" height="10" transform="translate(180 60)"/>
  <rect id="Rectangle_194" data-name="Rectangle 194" width="10" height="10" transform="translate(190 60)"/>
  <rect id="Rectangle_195" data-name="Rectangle 195" width="10" height="10" transform="translate(200 60)"/>
  <rect id="Rectangle_196" data-name="Rectangle 196" width="10" height="10" transform="translate(210 60)"/>
  <rect id="Rectangle_197" data-name="Rectangle 197" width="10" height="10" transform="translate(220 60)"/>
  <rect id="Rectangle_198" data-name="Rectangle 198" width="10" height="10" transform="translate(230 60)"/>
  <rect id="Rectangle_199" data-name="Rectangle 199" width="10" height="10" transform="translate(240 60)"/>
  <rect id="Rectangle_200" data-name="Rectangle 200" width="10" height="10" transform="translate(90 70)"/>
  <rect id="Rectangle_201" data-name="Rectangle 201" width="10" height="10" transform="translate(100 70)"/>
  <rect id="Rectangle_202" data-name="Rectangle 202" width="10" height="10" transform="translate(120 70)"/>
  <rect id="Rectangle_203" data-name="Rectangle 203" width="10" height="10" transform="translate(130 70)"/>
  <rect id="Rectangle_204" data-name="Rectangle 204" width="10" height="10" transform="translate(140 70)"/>
  <rect id="Rectangle_205" data-name="Rectangle 205" width="10" height="10" transform="translate(150 70)"/>
  <rect id="Rectangle_206" data-name="Rectangle 206" width="10" height="10" transform="translate(0 80)"/>
  <rect id="Rectangle_207" data-name="Rectangle 207" width="10" height="10" transform="translate(20 80)"/>
  <rect id="Rectangle_208" data-name="Rectangle 208" width="10" height="10" transform="translate(40 80)"/>
  <rect id="Rectangle_209" data-name="Rectangle 209" width="10" height="10" transform="translate(60 80)"/>
  <rect id="Rectangle_210" data-name="Rectangle 210" width="10" height="10" transform="translate(100 80)"/>
  <rect id="Rectangle_211" data-name="Rectangle 211" width="10" height="10" transform="translate(120 80)"/>
  <rect id="Rectangle_212" data-name="Rectangle 212" width="10" height="10" transform="translate(130 80)"/>
  <rect id="Rectangle_213" data-name="Rectangle 213" width="10" height="10" transform="translate(160 80)"/>
  <rect id="Rectangle_214" data-name="Rectangle 214" width="10" height="10" transform="translate(200 80)"/>
  <rect id="Rectangle_215" data-name="Rectangle 215" width="10" height="10" transform="translate(230 80)"/>
  <rect id="Rectangle_216" data-name="Rectangle 216" width="10" height="10" transform="translate(0 90)"/>
  <rect id="Rectangle_217" data-name="Rectangle 217" width="10" height="10" transform="translate(20 90)"/>
  <rect id="Rectangle_218" data-name="Rectangle 218" width="10" height="10" transform="translate(80 90)"/>
  <rect id="Rectangle_219" data-name="Rectangle 219" width="10" height="10" transform="translate(100 90)"/>
  <rect id="Rectangle_220" data-name="Rectangle 220" width="10" height="10" transform="translate(110 90)"/>
  <rect id="Rectangle_221" data-name="Rectangle 221" width="10" height="10" transform="translate(120 90)"/>
  <rect id="Rectangle_222" data-name="Rectangle 222" width="10" height="10" transform="translate(160 90)"/>
  <rect id="Rectangle_223" data-name="Rectangle 223" width="10" height="10" transform="translate(170 90)"/>
  <rect id="Rectangle_224" data-name="Rectangle 224" width="10" height="10" transform="translate(180 90)"/>
  <rect id="Rectangle_225" data-name="Rectangle 225" width="10" height="10" transform="translate(240 90)"/>
  <rect id="Rectangle_226" data-name="Rectangle 226" width="10" height="10" transform="translate(20 100)"/>
  <rect id="Rectangle_227" data-name="Rectangle 227" width="10" height="10" transform="translate(30 100)"/>
  <rect id="Rectangle_228" data-name="Rectangle 228" width="10" height="10" transform="translate(50 100)"/>
  <rect id="Rectangle_229" data-name="Rectangle 229" width="10" height="10" transform="translate(60 100)"/>
  <rect id="Rectangle_230" data-name="Rectangle 230" width="10" height="10" transform="translate(70 100)"/>
  <rect id="Rectangle_231" data-name="Rectangle 231" width="10" height="10" transform="translate(90 100)"/>
  <rect id="Rectangle_232" data-name="Rectangle 232" width="10" height="10" transform="translate(100 100)"/>
  <rect id="Rectangle_233" data-name="Rectangle 233" width="10" height="10" transform="translate(110 100)"/>
  <rect id="Rectangle_234" data-name="Rectangle 234" width="10" height="10" transform="translate(120 100)"/>
  <rect id="Rectangle_235" data-name="Rectangle 235" width="10" height="10" transform="translate(160 100)"/>
  <rect id="Rectangle_236" data-name="Rectangle 236" width="10" height="10" transform="translate(170 100)"/>
  <rect id="Rectangle_237" data-name="Rectangle 237" width="10" height="10" transform="translate(190 100)"/>
  <rect id="Rectangle_238" data-name="Rectangle 238" width="10" height="10" transform="translate(220 100)"/>
  <rect id="Rectangle_239" data-name="Rectangle 239" width="10" height="10" transform="translate(230 100)"/>
  <rect id="Rectangle_240" data-name="Rectangle 240" width="10" height="10" transform="translate(240 100)"/>
  <rect id="Rectangle_241" data-name="Rectangle 241" width="10" height="10" transform="translate(10 110)"/>
  <rect id="Rectangle_242" data-name="Rectangle 242" width="10" height="10" transform="translate(30 110)"/>
  <rect id="Rectangle_243" data-name="Rectangle 243" width="10" height="10" transform="translate(40 110)"/>
  <rect id="Rectangle_244" data-name="Rectangle 244" width="10" height="10" transform="translate(50 110)"/>
  <rect id="Rectangle_245" data-name="Rectangle 245" width="10" height="10" transform="translate(90 110)"/>
  <rect id="Rectangle_246" data-name="Rectangle 246" width="10" height="10" transform="translate(110 110)"/>
  <rect id="Rectangle_247" data-name="Rectangle 247" width="10" height="10" transform="translate(130 110)"/>
  <rect id="Rectangle_248" data-name="Rectangle 248" width="10" height="10" transform="translate(140 110)"/>
  <rect id="Rectangle_249" data-name="Rectangle 249" width="10" height="10" transform="translate(180 110)"/>
  <rect id="Rectangle_250" data-name="Rectangle 250" width="10" height="10" transform="translate(190 110)"/>
  <rect id="Rectangle_251" data-name="Rectangle 251" width="10" height="10" transform="translate(200 110)"/>
  <rect id="Rectangle_252" data-name="Rectangle 252" width="10" height="10" transform="translate(230 110)"/>
  <rect id="Rectangle_253" data-name="Rectangle 253" width="10" height="10" transform="translate(0 120)"/>
  <rect id="Rectangle_254" data-name="Rectangle 254" width="10" height="10" transform="translate(10 120)"/>
  <rect id="Rectangle_255" data-name="Rectangle 255" width="10" height="10" transform="translate(20 120)"/>
  <rect id="Rectangle_256" data-name="Rectangle 256" width="10" height="10" transform="translate(60 120)"/>
  <rect id="Rectangle_257" data-name="Rectangle 257" width="10" height="10" transform="translate(70 120)"/>
  <rect id="Rectangle_258" data-name="Rectangle 258" width="10" height="10" transform="translate(100 120)"/>
  <rect id="Rectangle_259" data-name="Rectangle 259" width="10" height="10" transform="translate(110 120)"/>
  <rect id="Rectangle_260" data-name="Rectangle 260" width="10" height="10" transform="translate(140 120)"/>
  <rect id="Rectangle_261" data-name="Rectangle 261" width="10" height="10" transform="translate(170 120)"/>
  <rect id="Rectangle_262" data-name="Rectangle 262" width="10" height="10" transform="translate(180 120)"/>
  <rect id="Rectangle_263" data-name="Rectangle 263" width="10" height="10" transform="translate(210 120)"/>
  <rect id="Rectangle_264" data-name="Rectangle 264" width="10" height="10" transform="translate(230 120)"/>
  <rect id="Rectangle_265" data-name="Rectangle 265" width="10" height="10" transform="translate(240 120)"/>
  <rect id="Rectangle_266" data-name="Rectangle 266" width="10" height="10" transform="translate(20 130)"/>
  <rect id="Rectangle_267" data-name="Rectangle 267" width="10" height="10" transform="translate(40 130)"/>
  <rect id="Rectangle_268" data-name="Rectangle 268" width="10" height="10" transform="translate(80 130)"/>
  <rect id="Rectangle_269" data-name="Rectangle 269" width="10" height="10" transform="translate(90 130)"/>
  <rect id="Rectangle_270" data-name="Rectangle 270" width="10" height="10" transform="translate(100 130)"/>
  <rect id="Rectangle_271" data-name="Rectangle 271" width="10" height="10" transform="translate(110 130)"/>
  <rect id="Rectangle_272" data-name="Rectangle 272" width="10" height="10" transform="translate(160 130)"/>
  <rect id="Rectangle_273" data-name="Rectangle 273" width="10" height="10" transform="translate(170 130)"/>
  <rect id="Rectangle_274" data-name="Rectangle 274" width="10" height="10" transform="translate(180 130)"/>
  <rect id="Rectangle_275" data-name="Rectangle 275" width="10" height="10" transform="translate(210 130)"/>
  <rect id="Rectangle_276" data-name="Rectangle 276" width="10" height="10" transform="translate(240 130)"/>
  <rect id="Rectangle_277" data-name="Rectangle 277" width="10" height="10" transform="translate(10 140)"/>
  <rect id="Rectangle_278" data-name="Rectangle 278" width="10" height="10" transform="translate(20 140)"/>
  <rect id="Rectangle_279" data-name="Rectangle 279" width="10" height="10" transform="translate(30 140)"/>
  <rect id="Rectangle_280" data-name="Rectangle 280" width="10" height="10" transform="translate(60 140)"/>
  <rect id="Rectangle_281" data-name="Rectangle 281" width="10" height="10" transform="translate(100 140)"/>
  <rect id="Rectangle_282" data-name="Rectangle 282" width="10" height="10" transform="translate(130 140)"/>
  <rect id="Rectangle_283" data-name="Rectangle 283" width="10" height="10" transform="translate(190 140)"/>
  <rect id="Rectangle_284" data-name="Rectangle 284" width="10" height="10" transform="translate(220 140)"/>
  <rect id="Rectangle_285" data-name="Rectangle 285" width="10" height="10" transform="translate(230 140)"/>
  <rect id="Rectangle_286" data-name="Rectangle 286" width="10" height="10" transform="translate(240 140)"/>
  <rect id="Rectangle_287" data-name="Rectangle 287" width="10" height="10" transform="translate(0 150)"/>
  <rect id="Rectangle_288" data-name="Rectangle 288" width="10" height="10" transform="translate(30 150)"/>
  <rect id="Rectangle_289" data-name="Rectangle 289" width="10" height="10" transform="translate(40 150)"/>
  <rect id="Rectangle_290" data-name="Rectangle 290" width="10" height="10" transform="translate(50 150)"/>
  <rect id="Rectangle_291" data-name="Rectangle 291" width="10" height="10" transform="translate(70 150)"/>
  <rect id="Rectangle_292" data-name="Rectangle 292" width="10" height="10" transform="translate(90 150)"/>
  <rect id="Rectangle_293" data-name="Rectangle 293" width="10" height="10" transform="translate(110 150)"/>
  <rect id="Rectangle_294" data-name="Rectangle 294" width="10" height="10" transform="translate(150 150)"/>
  <rect id="Rectangle_295" data-name="Rectangle 295" width="10" height="10" transform="translate(180 150)"/>
  <rect id="Rectangle_296" data-name="Rectangle 296" width="10" height="10" transform="translate(200 150)"/>
  <rect id="Rectangle_297" data-name="Rectangle 297" width="10" height="10" transform="translate(230 150)"/>
  <rect id="Rectangle_298" data-name="Rectangle 298" width="10" height="10" transform="translate(10 160)"/>
  <rect id="Rectangle_299" data-name="Rectangle 299" width="10" height="10" transform="translate(30 160)"/>
  <rect id="Rectangle_300" data-name="Rectangle 300" width="10" height="10" transform="translate(60 160)"/>
  <rect id="Rectangle_301" data-name="Rectangle 301" width="10" height="10" transform="translate(70 160)"/>
  <rect id="Rectangle_302" data-name="Rectangle 302" width="10" height="10" transform="translate(100 160)"/>
  <rect id="Rectangle_303" data-name="Rectangle 303" width="10" height="10" transform="translate(120 160)"/>
  <rect id="Rectangle_304" data-name="Rectangle 304" width="10" height="10" transform="translate(160 160)"/>
  <rect id="Rectangle_305" data-name="Rectangle 305" width="10" height="10" transform="translate(170 160)"/>
  <rect id="Rectangle_306" data-name="Rectangle 306" width="10" height="10" transform="translate(180 160)"/>
  <rect id="Rectangle_307" data-name="Rectangle 307" width="10" height="10" transform="translate(190 160)"/>
  <rect id="Rectangle_308" data-name="Rectangle 308" width="10" height="10" transform="translate(200 160)"/>
  <rect id="Rectangle_309" data-name="Rectangle 309" width="10" height="10" transform="translate(210 160)"/>
  <rect id="Rectangle_310" data-name="Rectangle 310" width="10" height="10" transform="translate(80 170)"/>
  <rect id="Rectangle_311" data-name="Rectangle 311" width="10" height="10" transform="translate(90 170)"/>
  <rect id="Rectangle_312" data-name="Rectangle 312" width="10" height="10" transform="translate(100 170)"/>
  <rect id="Rectangle_313" data-name="Rectangle 313" width="10" height="10" transform="translate(110 170)"/>
  <rect id="Rectangle_314" data-name="Rectangle 314" width="10" height="10" transform="translate(120 170)"/>
  <rect id="Rectangle_315" data-name="Rectangle 315" width="10" height="10" transform="translate(130 170)"/>
  <rect id="Rectangle_316" data-name="Rectangle 316" width="10" height="10" transform="translate(150 170)"/>
  <rect id="Rectangle_317" data-name="Rectangle 317" width="10" height="10" transform="translate(160 170)"/>
  <rect id="Rectangle_318" data-name="Rectangle 318" width="10" height="10" transform="translate(200 170)"/>
  <rect id="Rectangle_319" data-name="Rectangle 319" width="10" height="10" transform="translate(210 170)"/>
  <rect id="Rectangle_320" data-name="Rectangle 320" width="10" height="10" transform="translate(230 170)"/>
  <rect id="Rectangle_321" data-name="Rectangle 321" width="10" height="10" transform="translate(240 170)"/>
  <rect id="Rectangle_322" data-name="Rectangle 322" width="10" height="10" transform="translate(0 180)"/>
  <rect id="Rectangle_323" data-name="Rectangle 323" width="10" height="10" transform="translate(10 180)"/>
  <rect id="Rectangle_324" data-name="Rectangle 324" width="10" height="10" transform="translate(20 180)"/>
  <rect id="Rectangle_325" data-name="Rectangle 325" width="10" height="10" transform="translate(30 180)"/>
  <rect id="Rectangle_326" data-name="Rectangle 326" width="10" height="10" transform="translate(40 180)"/>
  <rect id="Rectangle_327" data-name="Rectangle 327" width="10" height="10" transform="translate(50 180)"/>
  <rect id="Rectangle_328" data-name="Rectangle 328" width="10" height="10" transform="translate(60 180)"/>
  <rect id="Rectangle_329" data-name="Rectangle 329" width="10" height="10" transform="translate(90 180)"/>
  <rect id="Rectangle_330" data-name="Rectangle 330" width="10" height="10" transform="translate(110 180)"/>
  <rect id="Rectangle_331" data-name="Rectangle 331" width="10" height="10" transform="translate(120 180)"/>
  <rect id="Rectangle_332" data-name="Rectangle 332" width="10" height="10" transform="translate(140 180)"/>
  <rect id="Rectangle_333" data-name="Rectangle 333" width="10" height="10" transform="translate(150 180)"/>
  <rect id="Rectangle_334" data-name="Rectangle 334" width="10" height="10" transform="translate(160 180)"/>
  <rect id="Rectangle_335" data-name="Rectangle 335" width="10" height="10" transform="translate(180 180)"/>
  <rect id="Rectangle_336" data-name="Rectangle 336" width="10" height="10" transform="translate(200 180)"/>
  <rect id="Rectangle_337" data-name="Rectangle 337" width="10" height="10" transform="translate(210 180)"/>
  <rect id="Rectangle_338" data-name="Rectangle 338" width="10" height="10" transform="translate(230 180)"/>
  <rect id="Rectangle_339" data-name="Rectangle 339" width="10" height="10" transform="translate(240 180)"/>
  <rect id="Rectangle_340" data-name="Rectangle 340" width="10" height="10" transform="translate(0 190)"/>
  <rect id="Rectangle_341" data-name="Rectangle 341" width="10" height="10" transform="translate(60 190)"/>
  <rect id="Rectangle_342" data-name="Rectangle 342" width="10" height="10" transform="translate(90 190)"/>
  <rect id="Rectangle_343" data-name="Rectangle 343" width="10" height="10" transform="translate(100 190)"/>
  <rect id="Rectangle_344" data-name="Rectangle 344" width="10" height="10" transform="translate(120 190)"/>
  <rect id="Rectangle_345" data-name="Rectangle 345" width="10" height="10" transform="translate(130 190)"/>
  <rect id="Rectangle_346" data-name="Rectangle 346" width="10" height="10" transform="translate(140 190)"/>
  <rect id="Rectangle_347" data-name="Rectangle 347" width="10" height="10" transform="translate(160 190)"/>
  <rect id="Rectangle_348" data-name="Rectangle 348" width="10" height="10" transform="translate(200 190)"/>
  <rect id="Rectangle_349" data-name="Rectangle 349" width="10" height="10" transform="translate(210 190)"/>
  <rect id="Rectangle_350" data-name="Rectangle 350" width="10" height="10" transform="translate(230 190)"/>
  <rect id="Rectangle_351" data-name="Rectangle 351" width="10" height="10" transform="translate(0 200)"/>
  <rect id="Rectangle_352" data-name="Rectangle 352" width="10" height="10" transform="translate(20 200)"/>
  <rect id="Rectangle_353" data-name="Rectangle 353" width="10" height="10" transform="translate(30 200)"/>
  <rect id="Rectangle_354" data-name="Rectangle 354" width="10" height="10" transform="translate(40 200)"/>
  <rect id="Rectangle_355" data-name="Rectangle 355" width="10" height="10" transform="translate(60 200)"/>
  <rect id="Rectangle_356" data-name="Rectangle 356" width="10" height="10" transform="translate(80 200)"/>
  <rect id="Rectangle_357" data-name="Rectangle 357" width="10" height="10" transform="translate(90 200)"/>
  <rect id="Rectangle_358" data-name="Rectangle 358" width="10" height="10" transform="translate(100 200)"/>
  <rect id="Rectangle_359" data-name="Rectangle 359" width="10" height="10" transform="translate(110 200)"/>
  <rect id="Rectangle_360" data-name="Rectangle 360" width="10" height="10" transform="translate(140 200)"/>
  <rect id="Rectangle_361" data-name="Rectangle 361" width="10" height="10" transform="translate(160 200)"/>
  <rect id="Rectangle_362" data-name="Rectangle 362" width="10" height="10" transform="translate(170 200)"/>
  <rect id="Rectangle_363" data-name="Rectangle 363" width="10" height="10" transform="translate(180 200)"/>
  <rect id="Rectangle_364" data-name="Rectangle 364" width="10" height="10" transform="translate(190 200)"/>
  <rect id="Rectangle_365" data-name="Rectangle 365" width="10" height="10" transform="translate(200 200)"/>
  <rect id="Rectangle_366" data-name="Rectangle 366" width="10" height="10" transform="translate(210 200)"/>
  <rect id="Rectangle_367" data-name="Rectangle 367" width="10" height="10" transform="translate(230 200)"/>
  <rect id="Rectangle_368" data-name="Rectangle 368" width="10" height="10" transform="translate(240 200)"/>
  <rect id="Rectangle_369" data-name="Rectangle 369" width="10" height="10" transform="translate(0 210)"/>
  <rect id="Rectangle_370" data-name="Rectangle 370" width="10" height="10" transform="translate(20 210)"/>
  <rect id="Rectangle_371" data-name="Rectangle 371" width="10" height="10" transform="translate(30 210)"/>
  <rect id="Rectangle_372" data-name="Rectangle 372" width="10" height="10" transform="translate(40 210)"/>
  <rect id="Rectangle_373" data-name="Rectangle 373" width="10" height="10" transform="translate(60 210)"/>
  <rect id="Rectangle_374" data-name="Rectangle 374" width="10" height="10" transform="translate(110 210)"/>
  <rect id="Rectangle_375" data-name="Rectangle 375" width="10" height="10" transform="translate(140 210)"/>
  <rect id="Rectangle_376" data-name="Rectangle 376" width="10" height="10" transform="translate(160 210)"/>
  <rect id="Rectangle_377" data-name="Rectangle 377" width="10" height="10" transform="translate(190 210)"/>
  <rect id="Rectangle_378" data-name="Rectangle 378" width="10" height="10" transform="translate(200 210)"/>
  <rect id="Rectangle_379" data-name="Rectangle 379" width="10" height="10" transform="translate(210 210)"/>
  <rect id="Rectangle_380" data-name="Rectangle 380" width="10" height="10" transform="translate(220 210)"/>
  <rect id="Rectangle_381" data-name="Rectangle 381" width="10" height="10" transform="translate(0 220)"/>
  <rect id="Rectangle_382" data-name="Rectangle 382" width="10" height="10" transform="translate(20 220)"/>
  <rect id="Rectangle_383" data-name="Rectangle 383" width="10" height="10" transform="translate(30 220)"/>
  <rect id="Rectangle_384" data-name="Rectangle 384" width="10" height="10" transform="translate(40 220)"/>
  <rect id="Rectangle_385" data-name="Rectangle 385" width="10" height="10" transform="translate(60 220)"/>
  <rect id="Rectangle_386" data-name="Rectangle 386" width="10" height="10" transform="translate(80 220)"/>
  <rect id="Rectangle_387" data-name="Rectangle 387" width="10" height="10" transform="translate(90 220)"/>
  <rect id="Rectangle_388" data-name="Rectangle 388" width="10" height="10" transform="translate(100 220)"/>
  <rect id="Rectangle_389" data-name="Rectangle 389" width="10" height="10" transform="translate(130 220)"/>
  <rect id="Rectangle_390" data-name="Rectangle 390" width="10" height="10" transform="translate(200 220)"/>
  <rect id="Rectangle_391" data-name="Rectangle 391" width="10" height="10" transform="translate(240 220)"/>
  <rect id="Rectangle_392" data-name="Rectangle 392" width="10" height="10" transform="translate(0 230)"/>
  <rect id="Rectangle_393" data-name="Rectangle 393" width="10" height="10" transform="translate(60 230)"/>
  <rect id="Rectangle_394" data-name="Rectangle 394" width="10" height="10" transform="translate(90 230)"/>
  <rect id="Rectangle_395" data-name="Rectangle 395" width="10" height="10" transform="translate(100 230)"/>
  <rect id="Rectangle_396" data-name="Rectangle 396" width="10" height="10" transform="translate(110 230)"/>
  <rect id="Rectangle_397" data-name="Rectangle 397" width="10" height="10" transform="translate(150 230)"/>
  <rect id="Rectangle_398" data-name="Rectangle 398" width="10" height="10" transform="translate(160 230)"/>
  <rect id="Rectangle_399" data-name="Rectangle 399" width="10" height="10" transform="translate(180 230)"/>
  <rect id="Rectangle_400" data-name="Rectangle 400" width="10" height="10" transform="translate(200 230)"/>
  <rect id="Rectangle_401" data-name="Rectangle 401" width="10" height="10" transform="translate(210 230)"/>
  <rect id="Rectangle_402" data-name="Rectangle 402" width="10" height="10" transform="translate(230 230)"/>
  <rect id="Rectangle_403" data-name="Rectangle 403" width="10" height="10" transform="translate(0 240)"/>
  <rect id="Rectangle_404" data-name="Rectangle 404" width="10" height="10" transform="translate(10 240)"/>
  <rect id="Rectangle_405" data-name="Rectangle 405" width="10" height="10" transform="translate(20 240)"/>
  <rect id="Rectangle_406" data-name="Rectangle 406" width="10" height="10" transform="translate(30 240)"/>
  <rect id="Rectangle_407" data-name="Rectangle 407" width="10" height="10" transform="translate(40 240)"/>
  <rect id="Rectangle_408" data-name="Rectangle 408" width="10" height="10" transform="translate(50 240)"/>
  <rect id="Rectangle_409" data-name="Rectangle 409" width="10" height="10" transform="translate(60 240)"/>
  <rect id="Rectangle_410" data-name="Rectangle 410" width="10" height="10" transform="translate(80 240)"/>
  <rect id="Rectangle_411" data-name="Rectangle 411" width="10" height="10" transform="translate(100 240)"/>
  <rect id="Rectangle_412" data-name="Rectangle 412" width="10" height="10" transform="translate(120 240)"/>
  <rect id="Rectangle_413" data-name="Rectangle 413" width="10" height="10" transform="translate(150 240)"/>
  <rect id="Rectangle_414" data-name="Rectangle 414" width="10" height="10" transform="translate(160 240)"/>
  <rect id="Rectangle_415" data-name="Rectangle 415" width="10" height="10" transform="translate(170 240)"/>
  <rect id="Rectangle_416" data-name="Rectangle 416" width="10" height="10" transform="translate(190 240)"/>
  <rect id="Rectangle_417" data-name="Rectangle 417" width="10" height="10" transform="translate(230 240)"/>
  <rect id="Rectangle_418" data-name="Rectangle 418" width="10" height="10" transform="translate(240 240)"/>
</svg>
